<?xml version="1.0" encoding="UTF-8"?><svg id="Layer_1" xmlns="http://www.w3.org/2000/svg" width="1500" height="844" xmlns:xlink="http://www.w3.org/1999/xlink" viewBox="0 0 1500 844"><defs><style>.cls-1{fill:none;stroke:#fff;stroke-miterlimit:10;stroke-width:3px;}.cls-2{fill:#fff;}</style></defs><image width="1500" height="844" transform="translate(0)" xlink:href="../../images/thumbnails/trakthygge_efter_visa_visa_naturskog.webp"/><rect id="Beståndsgräns" class="cls-1" x="230.7" y="99.7" width="1038.6" height="624"/><g id="Högstubbar"><path class="cls-2" d="M989.53,499.15c-1.54,0-2.95.36-4.05,1.02-1.1.66-1.95,1.7-1.95,2.98v4c0,.19-.08.43-.29.29l-2-2c-.39-.39-1.02-.39-1.41,0-.39.39-.39,1.02,0,1.41l2,2c1,1,1.71,1.63,1.71,3.29v9c0,1.28.85,2.32,1.95,2.98,1.1.66,2.51,1.02,4.05,1.02s2.95-.36,4.05-1.02c1.1-.66,1.95-1.7,1.95-2.98v-3c0-2.78.94-5.09,2.55-6.17l3-2c.47-.29.61-.91.32-1.38-.29-.47-.91-.61-1.38-.32-.02.01-.03.02-.05.03l-3.03,2.02c-.89.59-1.41-.2-1.41-.78v-6.41c0-1.28-.85-2.32-1.95-2.98-1.1-.66-2.51-1.02-4.05-1.02M989.53,501.15c1.22,0,2.31.31,3.02.73.71.43.98.89.98,1.27s-.27.84-.98,1.27-1.8.73-3.02.73-2.31-.31-3.02-.73c-.71-.43-.98-.89-.98-1.27s.27-.84.98-1.27,1.8-.73,3.02-.73"/><path class="cls-2" d="M705.78,422c-1.54,0-2.95.36-4.05,1.02-1.1.66-1.95,1.7-1.95,2.98v4c0,.19-.08.43-.29.29l-2-2c-.39-.39-1.02-.39-1.41,0-.39.39-.39,1.02,0,1.41l2,2c1,1,1.71,1.63,1.71,3.29v9c0,1.28.85,2.32,1.95,2.98,1.1.66,2.51,1.02,4.05,1.02s2.95-.36,4.05-1.02c1.1-.66,1.95-1.7,1.95-2.98v-3c0-2.78.94-5.09,2.55-6.17l3-2c.47-.29.61-.91.32-1.38-.29-.47-.91-.61-1.38-.32-.02.01-.03.02-.05.03l-3.03,2.02c-.89.59-1.41-.2-1.41-.78v-6.41c0-1.28-.85-2.32-1.95-2.98-1.1-.66-2.51-1.02-4.05-1.02M705.78,424c1.22,0,2.31.31,3.02.73.71.43.98.89.98,1.27s-.27.84-.98,1.27-1.8.73-3.02.73-2.31-.31-3.02-.73c-.71-.43-.98-.89-.98-1.27s.27-.84.98-1.27,1.8-.73,3.02-.73"/><path class="cls-2" d="M757.34,460.15c-1.54,0-2.95.36-4.05,1.02-1.1.66-1.95,1.7-1.95,2.98v4c0,.19-.08.43-.29.29l-2-2c-.39-.39-1.02-.39-1.41,0-.39.39-.39,1.02,0,1.41l2,2c1,1,1.71,1.63,1.71,3.29v9c0,1.28.85,2.32,1.95,2.98,1.1.66,2.51,1.02,4.05,1.02s2.95-.36,4.05-1.02c1.1-.66,1.95-1.7,1.95-2.98v-3c0-2.78.94-5.09,2.55-6.17l3-2c.47-.29.61-.91.32-1.38-.29-.47-.91-.61-1.38-.32-.02.01-.03.02-.05.03l-3.03,2.02c-.89.59-1.41-.2-1.41-.78v-6.41c0-1.28-.85-2.32-1.95-2.98-1.1-.66-2.51-1.02-4.05-1.02M757.34,462.15c1.22,0,2.31.31,3.02.73.71.43.98.89.98,1.27s-.27.84-.98,1.27-1.8.73-3.02.73-2.31-.31-3.02-.73c-.71-.43-.98-.89-.98-1.27s.27-.84.98-1.27,1.8-.73,3.02-.73"/><path class="cls-2" d="M735.31,402.37c-1.54,0-2.95.36-4.05,1.02-1.1.66-1.95,1.7-1.95,2.98v4c0,.19-.08.43-.29.29l-2-2c-.39-.39-1.02-.39-1.41,0-.39.39-.39,1.02,0,1.41l2,2c1,1,1.71,1.63,1.71,3.29v9c0,1.28.85,2.32,1.95,2.98,1.1.66,2.51,1.02,4.05,1.02s2.95-.36,4.05-1.02c1.1-.66,1.95-1.7,1.95-2.98v-3c0-2.78.94-5.09,2.55-6.17l3-2c.47-.29.61-.91.32-1.38-.29-.47-.91-.61-1.38-.32-.02.01-.03.02-.05.03l-3.03,2.02c-.89.59-1.41-.2-1.41-.78v-6.41c0-1.28-.85-2.32-1.95-2.98-1.1-.66-2.51-1.02-4.05-1.02M735.31,404.37c1.22,0,2.31.31,3.02.73.71.43.98.89.98,1.27s-.27.84-.98,1.27-1.8.73-3.02.73-2.31-.31-3.02-.73c-.71-.43-.98-.89-.98-1.27s.27-.84.98-1.27,1.8-.73,3.02-.73"/><path class="cls-2" d="M1025.54,473.15c-1.54,0-2.95.36-4.05,1.02-1.1.66-1.95,1.7-1.95,2.98v4c0,.19-.08.43-.29.29l-2-2c-.39-.39-1.02-.39-1.41,0-.39.39-.39,1.02,0,1.41l2,2c1,1,1.71,1.63,1.71,3.29v9c0,1.28.85,2.32,1.95,2.98,1.1.66,2.51,1.02,4.05,1.02s2.95-.36,4.05-1.02c1.1-.66,1.95-1.7,1.95-2.98v-3c0-2.78.94-5.09,2.55-6.17l3-2c.47-.29.61-.91.32-1.38-.29-.47-.91-.61-1.38-.32-.02.01-.03.02-.05.03l-3.03,2.02c-.89.59-1.41-.2-1.41-.78v-6.41c0-1.28-.85-2.32-1.95-2.98-1.1-.66-2.51-1.02-4.05-1.02M1025.54,475.15c1.22,0,2.31.31,3.02.73.71.43.98.89.98,1.27s-.27.84-.98,1.27-1.8.73-3.02.73-2.31-.31-3.02-.73c-.71-.43-.98-.89-.98-1.27s.27-.84.98-1.27,1.8-.73,3.02-.73"/><path class="cls-2" d="M1110.91,319.37c-1.54,0-2.95.36-4.05,1.02-1.1.66-1.95,1.7-1.95,2.98v4c0,.19-.08.43-.29.29l-2-2c-.39-.39-1.02-.39-1.41,0-.39.39-.39,1.02,0,1.41l2,2c1,1,1.71,1.63,1.71,3.29v9c0,1.28.85,2.32,1.95,2.98,1.1.66,2.51,1.02,4.05,1.02s2.95-.36,4.05-1.02c1.1-.66,1.95-1.7,1.95-2.98v-3c0-2.78.94-5.09,2.55-6.17l3-2c.47-.29.61-.91.32-1.38-.29-.47-.91-.61-1.38-.32-.02.01-.03.02-.05.03l-3.03,2.02c-.89.59-1.41-.2-1.41-.78v-6.41c0-1.28-.85-2.32-1.95-2.98-1.1-.66-2.51-1.02-4.05-1.02M1110.91,321.37c1.22,0,2.31.31,3.02.73.71.43.98.89.98,1.27s-.27.84-.98,1.27-1.8.73-3.02.73-2.31-.31-3.02-.73c-.71-.43-.98-.89-.98-1.27s.27-.84.98-1.27,1.8-.73,3.02-.73"/><path class="cls-2" d="M849.76,235.93c-1.54,0-2.95.36-4.05,1.02-1.1.66-1.95,1.7-1.95,2.98v4c0,.19-.08.43-.29.29l-2-2c-.39-.39-1.02-.39-1.41,0-.39.39-.39,1.02,0,1.41l2,2c1,1,1.71,1.63,1.71,3.29v9c0,1.28.85,2.32,1.95,2.98,1.1.66,2.51,1.02,4.05,1.02s2.95-.36,4.05-1.02c1.1-.66,1.95-1.7,1.95-2.98v-3c0-2.78.94-5.09,2.55-6.17l3-2c.47-.29.61-.91.32-1.38-.29-.47-.91-.61-1.38-.32-.02.01-.03.02-.05.03l-3.03,2.02c-.89.59-1.41-.2-1.41-.78v-6.41c0-1.28-.85-2.32-1.95-2.98-1.1-.66-2.51-1.02-4.05-1.02M849.76,237.93c1.22,0,2.31.31,3.02.73.71.43.98.89.98,1.27s-.27.84-.98,1.27-1.8.73-3.02.73-2.31-.31-3.02-.73c-.71-.43-.98-.89-.98-1.27s.27-.84.98-1.27,1.8-.73,3.02-.73"/><path class="cls-2" d="M393.83,269.37c-1.54,0-2.95.36-4.05,1.02-1.1.66-1.95,1.7-1.95,2.98v4c0,.19-.08.43-.29.29l-2-2c-.39-.39-1.02-.39-1.41,0-.39.39-.39,1.02,0,1.41l2,2c1,1,1.71,1.63,1.71,3.29v9c0,1.28.85,2.32,1.95,2.98,1.1.66,2.51,1.02,4.05,1.02s2.95-.36,4.05-1.02c1.1-.66,1.95-1.7,1.95-2.98v-3c0-2.78.94-5.09,2.55-6.17l3-2c.47-.29.61-.91.32-1.38-.29-.47-.91-.61-1.38-.32-.02.01-.03.02-.05.03l-3.03,2.02c-.89.59-1.41-.2-1.41-.78v-6.41c0-1.28-.85-2.32-1.95-2.98-1.1-.66-2.51-1.02-4.05-1.02M393.83,271.37c1.22,0,2.31.31,3.02.73.71.43.98.89.98,1.27s-.27.84-.98,1.27-1.8.73-3.02.73-2.31-.31-3.02-.73c-.71-.43-.98-.89-.98-1.27s.27-.84.98-1.27,1.8-.73,3.02-.73"/><path class="cls-2" d="M371.81,299.37c-1.54,0-2.95.36-4.05,1.02-1.1.66-1.95,1.7-1.95,2.98v4c0,.19-.08.43-.29.29l-2-2c-.39-.39-1.02-.39-1.41,0-.39.39-.39,1.02,0,1.41l2,2c1,1,1.71,1.63,1.71,3.29v9c0,1.28.85,2.32,1.95,2.98,1.1.66,2.51,1.02,4.05,1.02s2.95-.36,4.05-1.02c1.1-.66,1.95-1.7,1.95-2.98v-3c0-2.78.94-5.09,2.55-6.17l3-2c.47-.29.61-.91.32-1.38-.29-.47-.91-.61-1.38-.32-.02.01-.03.02-.05.03l-3.03,2.02c-.89.59-1.41-.2-1.41-.78v-6.41c0-1.28-.85-2.32-1.95-2.98-1.1-.66-2.51-1.02-4.05-1.02M371.81,301.37c1.22,0,2.31.31,3.02.73.71.43.98.89.98,1.27s-.27.84-.98,1.27-1.8.73-3.02.73-2.31-.31-3.02-.73c-.71-.43-.98-.89-.98-1.27s.27-.84.98-1.27,1.8-.73,3.02-.73"/><path class="cls-2" d="M340.91,317.93c-1.54,0-2.95.36-4.05,1.02-1.1.66-1.95,1.7-1.95,2.98v4c0,.19-.08.43-.29.29l-2-2c-.39-.39-1.02-.39-1.41,0-.39.39-.39,1.02,0,1.41l2,2c1,1,1.71,1.63,1.71,3.29v9c0,1.28.85,2.32,1.95,2.98,1.1.66,2.51,1.02,4.05,1.02s2.95-.36,4.05-1.02c1.1-.66,1.95-1.7,1.95-2.98v-3c0-2.78.94-5.09,2.55-6.17l3-2c.47-.29.61-.91.32-1.38-.29-.47-.91-.61-1.38-.32-.02.01-.03.02-.05.03l-3.03,2.02c-.89.59-1.41-.2-1.41-.78v-6.41c0-1.28-.85-2.32-1.95-2.98-1.1-.66-2.51-1.02-4.05-1.02M340.91,319.93c1.22,0,2.31.31,3.02.73.71.43.98.89.98,1.27s-.27.84-.98,1.27-1.8.73-3.02.73-2.31-.31-3.02-.73c-.71-.43-.98-.89-.98-1.27s.27-.84.98-1.27,1.8-.73,3.02-.73"/><path class="cls-2" d="M393.83,592.37c-1.54,0-2.95.36-4.05,1.02-1.1.66-1.95,1.7-1.95,2.98v4c0,.19-.08.43-.29.29l-2-2c-.39-.39-1.02-.39-1.41,0-.39.39-.39,1.02,0,1.41l2,2c1,1,1.71,1.63,1.71,3.29v9c0,1.28.85,2.32,1.95,2.98,1.1.66,2.51,1.02,4.05,1.02s2.95-.36,4.05-1.02c1.1-.66,1.95-1.7,1.95-2.98v-3c0-2.78.94-5.09,2.55-6.17l3-2c.47-.29.61-.91.32-1.38-.29-.47-.91-.61-1.38-.32-.02.01-.03.02-.05.03l-3.03,2.02c-.89.59-1.41-.2-1.41-.78v-6.41c0-1.28-.85-2.32-1.95-2.98-1.1-.66-2.51-1.02-4.05-1.02M393.83,594.37c1.22,0,2.31.31,3.02.73.71.43.98.89.98,1.27s-.27.84-.98,1.27-1.8.73-3.02.73-2.31-.31-3.02-.73c-.71-.43-.98-.89-.98-1.27s.27-.84.98-1.27,1.8-.73,3.02-.73"/></g></svg>