<?xml version="1.0" encoding="UTF-8"?><svg id="Layer_2" xmlns="http://www.w3.org/2000/svg" width="1500" height="844" xmlns:xlink="http://www.w3.org/1999/xlink" viewBox="0 0 1500 844"><defs><style>.cls-1{filter:url(#drop-shadow-1);}.cls-2{fill:#fff;}.cls-3{fill:#14b8a6;}</style><filter id="drop-shadow-1" x="362" y="587.98" width="112" height="112" filterUnits="userSpaceOnUse"><feOffset dx="7" dy="7"/><feGaussianBlur result="blur" stdDeviation="5"/><feFlood flood-color="#000" flood-opacity=".75"/><feComposite in2="blur" operator="in"/><feComposite in="SourceGraphic"/></filter></defs><g id="myc-5" class="cls-1"><path class="cls-2" d="M411.11,676.99l-11.89-11.72h-16.51v-16.51l-11.72-11.89,11.72-11.89v-16.51h16.51l11.89-11.72,11.89,11.72h16.51v16.51l11.72,11.89-11.72,11.89v16.51h-16.51l-11.89,11.72Z"/><path class="cls-3" d="M402.17,649.86l8.94-5.43,8.94,5.43-2.37-10.16,7.95-6.88-10.47-.84-4.05-9.63-4.05,9.63-10.47.84,7.95,6.88-2.37,10.16ZM411.11,668.45l-9.36-9.22h-13v-13l-9.22-9.36,9.22-9.36v-13h13l9.36-9.22,9.36,9.22h13v13l9.22,9.36-9.22,9.36v13h-13l-9.36,9.22Z"/></g></svg>