<?xml version="1.0" encoding="UTF-8"?><svg id="Layer_2" xmlns="http://www.w3.org/2000/svg" width="1500" height="844" xmlns:xlink="http://www.w3.org/1999/xlink" viewBox="0 0 1500 844"><defs><style>.cls-1{filter:url(#drop-shadow-1);}.cls-2{fill-rule:evenodd;}.cls-3,.cls-4{fill:#fff;}.cls-4{filter:url(#drop-shadow-2);}.cls-5{fill:#14b8a6;}</style><filter id="drop-shadow-1" x="767.31" y="104.34" width="112" height="112" filterUnits="userSpaceOnUse"><feOffset dx="7" dy="7"/><feGaussianBlur result="blur" stdDeviation="5"/><feFlood flood-color="#000" flood-opacity=".75"/><feComposite in2="blur" operator="in"/><feComposite in="SourceGraphic"/></filter><filter id="drop-shadow-2" x="805.75" y="79.73" width="98" height="98" filterUnits="userSpaceOnUse"><feOffset dx="7" dy="7"/><feGaussianBlur result="blur-2" stdDeviation="5"/><feFlood flood-color="#000" flood-opacity=".75"/><feComposite in2="blur-2" operator="in"/><feComposite in="SourceGraphic"/></filter></defs><g id="myc-7.1"><g id="myc-7" class="cls-1"><path class="cls-3" d="M816.43,193.35l-11.89-11.72h-16.51v-16.51l-11.72-11.89,11.72-11.89v-16.51h16.51l11.89-11.72,11.89,11.72h16.51v16.51l11.72,11.89-11.72,11.89v16.51h-16.51l-11.89,11.72Z"/><path class="cls-5" d="M807.49,166.22l8.94-5.43,8.94,5.43-2.37-10.16,7.95-6.88-10.47-.84-4.05-9.63-4.05,9.63-10.47.84,7.95,6.88-2.37,10.16ZM816.43,184.82l-9.36-9.22h-13v-13l-9.22-9.36,9.22-9.36v-13h13l9.36-9.22,9.36,9.22h13v13l9.22,9.36-9.22,9.36v13h-13l-9.36,9.22Z"/></g><g id="myc-2-x"><circle class="cls-4" cx="847.93" cy="121.73" r="33.59"/><path class="cls-2" d="M834.65,108.44c-1.03,1.03-1.03,2.7,0,3.72l18.34,18.34h-12.96c-1.46,0-2.64,1.18-2.64,2.64s1.18,2.64,2.64,2.64h19.32c1.46,0,2.64-1.18,2.64-2.64v-19.32c0-1.46-1.18-2.64-2.64-2.64s-2.64,1.18-2.64,2.64v12.96l-18.34-18.34c-1.03-1.03-2.7-1.03-3.72,0"/></g></g></svg>