<?xml version="1.0" encoding="UTF-8"?><svg id="Layer_2" xmlns="http://www.w3.org/2000/svg" width="1500" height="844" xmlns:xlink="http://www.w3.org/1999/xlink" viewBox="0 0 1500 844"><defs><style>.cls-1{fill:none;}.cls-2{filter:url(#drop-shadow-1);}.cls-3{fill-rule:evenodd;}.cls-4,.cls-5{fill:#fff;}.cls-5{filter:url(#drop-shadow-2);}.cls-6{fill:#14b8a6;}</style><filter id="drop-shadow-1" x="326.5" y="320.86" width="112" height="112" filterUnits="userSpaceOnUse"><feOffset dx="7" dy="7"/><feGaussianBlur result="blur" stdDeviation="5"/><feFlood flood-color="#000" flood-opacity=".75"/><feComposite in2="blur" operator="in"/><feComposite in="SourceGraphic"/></filter><filter id="drop-shadow-2" x="364.5" y="295.86" width="99" height="98" filterUnits="userSpaceOnUse"><feOffset dx="7" dy="7"/><feGaussianBlur result="blur-2" stdDeviation="5"/><feFlood flood-color="#000" flood-opacity=".75"/><feComposite in2="blur-2" operator="in"/><feComposite in="SourceGraphic"/></filter></defs><g id="myc-11"><g id="myc-7" class="cls-2"><path class="cls-4" d="M375.58,409.86l-11.89-11.72h-16.51v-16.51l-11.72-11.89,11.72-11.89v-16.51h16.51l11.89-11.72,11.89,11.72h16.51v16.51l11.72,11.89-11.72,11.89v16.51h-16.51l-11.89,11.72Z"/><path class="cls-6" d="M366.64,382.73l8.94-5.43,8.94,5.43-2.37-10.16,7.95-6.88-10.47-.84-4.05-9.63-4.05,9.63-10.47.84,7.95,6.88-2.37,10.16ZM375.58,401.32l-9.36-9.22h-13v-13l-9.22-9.36,9.22-9.36v-13h13l9.36-9.22,9.36,9.22h13v13l9.22,9.36-9.22,9.36v13h-13l-9.36,9.22Z"/></g><g id="myc-2-x"><circle class="cls-5" cx="407.08" cy="338.23" r="33.59"/><path class="cls-1" d="M408.28,361.33h-.02s-.14.07-.14.07h-.04s-.03,0-.03,0l-.14-.07s-.04,0-.05.01v.02s-.04.86-.04.86v.04s.03.03.03.03l.21.15h.03s.02,0,.02,0l.21-.15.02-.03v-.03s-.03-.86-.03-.86c0-.02-.02-.03-.03-.04M408.81,361.1h-.03s-.37.19-.37.19l-.02.02v.02s.03.87.03.87v.02s.03.02.03.02l.41.19s.05,0,.06-.02v-.03s-.06-1.24-.06-1.24c0-.03-.02-.04-.04-.04M407.37,361.1s-.04,0-.05.01v.03s-.08,1.24-.08,1.24c0,.02.01.04.03.05h.03s.41-.19.41-.19l.02-.02v-.02s.04-.87.04-.87v-.02s-.03-.02-.03-.02l-.37-.19Z"/><path class="cls-3" d="M392.96,322.46c0-1.11.9-2.02,2.02-2.02h4.04c1.11,0,2.02.9,2.02,2.02s-.9,2.02-2.02,2.02h-4.04c-1.11,0-2.02-.9-2.02-2.02M403.05,322.46c0-1.11.9-2.02,2.02-2.02h18.16c1.11,0,2.02.9,2.02,2.02s-.9,2.02-2.02,2.02h-18.16c-1.11,0-2.02-.9-2.02-2.02M388.92,332.55c0-1.11.9-2.02,2.02-2.02h18.16c1.11,0,2.02.9,2.02,2.02s-.9,2.02-2.02,2.02h-18.16c-1.11,0-2.02-.9-2.02-2.02M413.14,332.55c0-1.11.9-2.02,2.02-2.02h4.04c1.11,0,2.02.9,2.02,2.02s-.9,2.02-2.02,2.02h-4.04c-1.11,0-2.02-.9-2.02-2.02M392.96,342.64c0-1.11.9-2.02,2.02-2.02h4.04c1.11,0,2.02.9,2.02,2.02s-.9,2.02-2.02,2.02h-4.04c-1.11,0-2.02-.9-2.02-2.02M403.05,342.64c0-1.11.9-2.02,2.02-2.02h18.16c1.11,0,2.02.9,2.02,2.02s-.9,2.02-2.02,2.02h-18.16c-1.11,0-2.02-.9-2.02-2.02M388.92,352.73c0-1.11.9-2.02,2.02-2.02h18.16c1.11,0,2.02.9,2.02,2.02s-.9,2.02-2.02,2.02h-18.16c-1.11,0-2.02-.9-2.02-2.02M413.14,352.73c0-1.11.9-2.02,2.02-2.02h4.04c1.11,0,2.02.9,2.02,2.02s-.9,2.02-2.02,2.02h-4.04c-1.11,0-2.02-.9-2.02-2.02"/></g></g></svg>