<?xml version="1.0" encoding="UTF-8"?><svg id="Layer_2" xmlns="http://www.w3.org/2000/svg" width="1500" height="844" xmlns:xlink="http://www.w3.org/1999/xlink" viewBox="0 0 1500 844"><defs><style>.cls-1{filter:url(#drop-shadow-1);}.cls-2,.cls-3{fill:#fff;}.cls-3{filter:url(#drop-shadow-2);}.cls-4{fill:#14b8a6;}</style><filter id="drop-shadow-1" x="1050.27" y="487.72" width="111" height="111" filterUnits="userSpaceOnUse"><feOffset dx="7" dy="7"/><feGaussianBlur result="blur" stdDeviation="5"/><feFlood flood-color="#000" flood-opacity=".75"/><feComposite in2="blur" operator="in"/><feComposite in="SourceGraphic"/></filter><filter id="drop-shadow-2" x="1088.27" y="462.72" width="98" height="98" filterUnits="userSpaceOnUse"><feOffset dx="7" dy="7"/><feGaussianBlur result="blur-2" stdDeviation="5"/><feFlood flood-color="#000" flood-opacity=".75"/><feComposite in2="blur-2" operator="in"/><feComposite in="SourceGraphic"/></filter></defs><g id="myc-12"><g id="myc-7" class="cls-1"><path class="cls-2" d="M1098.83,576.45l-11.89-11.72h-16.51v-16.51l-11.72-11.89,11.72-11.89v-16.51h16.51l11.89-11.72,11.89,11.72h16.51v16.51l11.72,11.89-11.72,11.89v16.51h-16.51l-11.89,11.72Z"/><path class="cls-4" d="M1089.89,549.32l8.94-5.43,8.94,5.43-2.37-10.16,7.95-6.88-10.47-.84-4.05-9.63-4.05,9.63-10.47.84,7.95,6.88-2.37,10.16ZM1098.83,567.91l-9.36-9.22h-13v-13l-9.22-9.36,9.22-9.36v-13h13l9.36-9.22,9.36,9.22h13v13l9.22,9.36-9.22,9.36v13h-13l-9.36,9.22Z"/></g><g id="myc-2-x"><circle class="cls-3" cx="1130.33" cy="504.82" r="33.59"/></g><path d="M1143.49,489.95c0-.95.77-1.72,1.72-1.72s1.72.77,1.72,1.72-.77,1.72-1.72,1.72-1.72-.77-1.72-1.72M1140.63,489.95c0,2.53,2.05,4.57,4.57,4.57s4.57-2.05,4.57-4.57-2.05-4.57-4.57-4.57-4.57,2.05-4.57,4.57M1131.47,488.81c3.81,0,7.1,2.69,7.85,6.43l.13.66c.16.93-.47,1.82-1.41,1.98-.89.15-1.75-.42-1.96-1.3l-.13-.67c-.5-2.47-2.91-4.07-5.39-3.57-2.13.43-3.66,2.3-3.66,4.47,0,2.53,2.05,4.58,4.57,4.58h15.44c.95,0,1.72.77,1.72,1.72s-.77,1.72-1.72,1.72h-15.44c-4.42-.1-7.92-3.77-7.82-8.19.1-4.27,3.54-7.71,7.81-7.82M1117.64,500.25c2.12,0,4.06,1.2,5.01,3.1l.07.14c.46.83.16,1.87-.67,2.33-.83.46-1.87.16-2.33-.67-.02-.04-.05-.09-.07-.13l-.07-.14c-.54-1.07-1.84-1.51-2.92-.97-.73.37-1.2,1.12-1.2,1.94v.12c0,1.26,1.02,2.29,2.29,2.29h29.16c.95,0,1.72.77,1.72,1.72s-.77,1.72-1.72,1.72h-22.02c-1.11,0-2,.9-2,2s.9,2,2,2c.67,0,1.3-.33,1.68-.89l.04-.05c.54-.78,1.6-.98,2.39-.44.77.53.98,1.57.47,2.35l-.04.05c-1.01,1.51-2.71,2.42-4.53,2.42-3,0-5.44-2.44-5.44-5.44,0-.68.13-1.36.38-1.99h-2.1c-3.16,0-5.72-2.56-5.72-5.72v-.11c0-3.1,2.51-5.6,5.6-5.6M1136.05,521.41c.95,0,1.72-.77,1.72-1.72s-.77-1.72-1.72-1.72-1.72.77-1.72,1.72.77,1.72,1.72,1.72M1136.05,524.26c-2.53,0-4.57-2.05-4.57-4.57s2.05-4.57,4.57-4.57,4.57,2.05,4.57,4.57-2.05,4.57-4.57,4.57M1113.75,492.24c0-.95.77-1.72,1.72-1.72s1.72.77,1.72,1.72-.77,1.72-1.72,1.72-1.72-.77-1.72-1.72M1110.89,492.24c0,2.53,2.05,4.57,4.57,4.57s4.57-2.05,4.57-4.57-2.05-4.57-4.57-4.57-4.57,2.05-4.57,4.57"/></g></svg>