<?xml version="1.0" encoding="UTF-8"?><svg id="Layer_2" xmlns="http://www.w3.org/2000/svg" width="1500" height="844" xmlns:xlink="http://www.w3.org/1999/xlink" viewBox="0 0 1500 844"><defs><style>.cls-1{stroke:#000;stroke-width:4px;}.cls-1,.cls-2{fill:none;stroke-linecap:round;stroke-linejoin:round;}.cls-2{stroke:red;stroke-width:9px;}.cls-3{fill:#fff;filter:url(#drop-shadow-1);}</style><filter id="drop-shadow-1" x="637.25" y="45.81" width="98" height="98" filterUnits="userSpaceOnUse"><feOffset dx="7" dy="7"/><feGaussianBlur result="blur" stdDeviation="5"/><feFlood flood-color="#000" flood-opacity=".75"/><feComposite in2="blur" operator="in"/><feComposite in="SourceGraphic"/></filter></defs><g id="myc-2-x"><line class="cls-2" x1="611.79" y1="155.19" x2="683.73" y2="83.25"/><line class="cls-2" x1="683.73" y1="155.19" x2="611.79" y2="83.25"/><circle class="cls-3" cx="679.35" cy="87.63" r="33.59"/><path class="cls-1" d="M666.67,75.68c-2.51,3.03-3.88,6.84-3.88,10.78,0,1.03.83,1.86,1.86,1.86h14.69M687.62,88.31h6.41c1.03,0,1.86-.83,1.86-1.86,0-9.25-7.41-16.75-16.55-16.75-2.96,0-5.74.79-8.14,2.17M675.21,88.31v14.48c0,2.28,1.85,4.14,4.14,4.14s4.14-1.85,4.14-4.14v-10.34M660.73,69.7l37.23,37.23"/></g></svg>