<?xml version="1.0" encoding="UTF-8"?><svg id="Layer_1" xmlns="http://www.w3.org/2000/svg" width="1500" height="844" xmlns:xlink="http://www.w3.org/1999/xlink" viewBox="0 0 1500 844"><defs><style>.cls-1,.cls-2{fill:none;}.cls-2{stroke-width:180px;}.cls-2,.cls-3{stroke:#fff;stroke-miterlimit:10;}.cls-3{fill:url(#New_Pattern_Swatch_4);}.cls-4{clip-path:url(#clippath);}</style><clipPath id="clippath"><rect class="cls-1" x="0" y="0" width="500" height="500"/></clipPath><pattern id="New_Pattern_Swatch_4" x="0" y="0" width="500" height="500" patternTransform="translate(-6945.28 -7315.88) scale(.05)" patternUnits="userSpaceOnUse" viewBox="0 0 500 500"><rect class="cls-1" width="500" height="500"/><g class="cls-4"><line class="cls-2" x1="0" y1="0" x2="500" y2="500"/><line class="cls-2" x1="-250" y1="250" x2="250" y2="750"/><line class="cls-2" x1="250" y1="-250" x2="750" y2="250"/></g></pattern></defs><image width="1500" height="844" xlink:href="../../images/thumbnails/skärmträd_efter_visa_visa_naturskog.webp"/><path id="Skärmträd" class="cls-3" d="M644.62,720.43c.24,1.12.54,2.21.9,3.27h83.91c1.38-1.56,2.61-3.26,3.66-5.07,1.36.18,2.75.28,4.15.28.82,0,1.62-.04,2.42-.1.56,1.7,1.28,3.33,2.12,4.89h179.06c4.67-5.44,7.49-12.51,7.49-20.24,0-3.17-.48-6.24-1.36-9.12.98-.12,1.94-.28,2.88-.49-.98,3.03-1.52,6.25-1.52,9.61,0,7.73,2.83,14.8,7.49,20.24h333.46v-36.22c-4.76-2.96-10.38-4.68-16.4-4.68-7.08,0-13.6,2.37-18.83,6.35-5.18-9.98-15.6-16.8-27.62-16.8,0,0-.01,0-.02,0-.37-13.44-9.25-24.75-21.46-28.72.46-1.17.86-2.38,1.18-3.61,4.3,2.24,9.18,3.51,14.36,3.51,1.57,0,3.12-.12,4.63-.34,4.61,7.46,12.28,12.82,21.26,14.34,5.47,8.89,15.3,14.83,26.5,14.83,6.02,0,11.64-1.72,16.4-4.68v-223.69s0,0,0,0c0,0,0,0,0,0v-37.21c-5.22-6.98-13.3-11.69-22.5-12.4-1.82-5.9-5.35-11.06-10.01-14.89,3.8-5.16,6.04-11.52,6.04-18.42,0-.13,0-.26-.01-.39,1.6.26,3.25.39,4.93.39,8.37,0,15.96-3.31,21.55-8.68v-44.84c-.82-.79-1.69-1.54-2.59-2.23,1.24-2.63,2.12-5.46,2.59-8.43v-9.75c-1.06-6.69-4.25-12.67-8.85-17.22,1.42-1.4,2.7-2.93,3.83-4.58,1.81-1.14,3.49-2.47,5.03-3.95v-44.81c-1.79-1.72-3.78-3.24-5.94-4.5,2.31-2.03,4.32-4.4,5.94-7.03v-58.4c-1.74-1.4-3.63-2.62-5.64-3.63,2.19-1.97,4.08-4.26,5.64-6.77v-32.68c-.84-1.36-1.79-2.65-2.82-3.86h-47.27c-.51.59-1,1.2-1.46,1.82-.46-.63-.95-1.23-1.46-1.82h-47.27c-4.65,5.44-7.46,12.49-7.46,20.2,0,15.55,11.41,28.43,26.31,30.73,1.09,8.84,5.88,16.52,12.77,21.47-6.16,1.38-11.63,4.59-15.8,9.04-4.16-2.06-8.84-3.23-13.8-3.23-1.97,0-3.89.19-5.76.54-3.97-11.39-14.38-19.75-26.86-20.75-1.66-3.4-3.92-6.44-6.64-9,12.53-4.02,21.61-15.76,21.61-29.62,0-7.33-2.54-14.06-6.78-19.37h-48.65c-4.24,5.32-6.78,12.05-6.78,19.37,0,5.42,1.39,10.51,3.82,14.95-1.92-1.53-4.02-2.83-6.27-3.88,1.12-3.21,1.73-6.65,1.73-10.24,0-7.71-2.81-14.76-7.46-20.2h-70.52c-.95.56-1.87,1.15-2.75,1.8-.88-.65-1.8-1.24-2.75-1.8h-31.58c-9.15,5.41-15.3,15.38-15.3,26.79,0,7.14,2.41,13.71,6.45,18.96-.31,1.7-.48,3.44-.5,5.22-4.45-2.45-9.56-3.85-15-3.85-16.63,0-30.21,13.05-31.06,29.47-5.5,1.66-10.35,4.8-14.1,8.95.57-2.35.87-4.8.87-7.32,0-1.42-.1-2.81-.29-4.17,13-3.73,22.51-15.7,22.51-29.89,0-17.18-13.93-31.1-31.1-31.1-2.99,0-5.87.43-8.61,1.22-2.56-.74-5.26-1.15-8.05-1.2-1.15-4.9-3.47-9.35-6.63-13.06h-47.28c-4.65,5.44-7.46,12.49-7.46,20.2,0,10.03,4.76,18.95,12.13,24.64-2.71.58-5.29,1.52-7.68,2.75-5.37-4.41-12.24-7.06-19.73-7.06-1.97,0-3.89.19-5.75.54,7.7-5.66,12.7-14.78,12.7-25.07,0-5.85-1.62-11.33-4.43-16h-53.35c-2.81,4.68-4.43,10.15-4.43,16,0,.47.01.94.04,1.4-5.51-4.96-12.8-7.98-20.8-7.98-17.18,0-31.1,13.93-31.1,31.1,0,1.25.08,2.48.23,3.7-5.37,3.49-9.6,8.59-12,14.62-15.58,1.69-27.7,14.89-27.7,30.92,0,8.04,3.05,15.37,8.06,20.89-14.06,2.98-24.62,15.47-24.62,30.42,0,17.18,13.93,31.1,31.1,31.1,6.7,0,12.89-2.12,17.97-5.72.43.84.89,1.65,1.38,2.44-4.26,4.74-7.08,10.8-7.79,17.49-5.54-8.55-15.16-14.2-26.11-14.2-1.07,0-2.13.05-3.18.16-5.71-6.88-14.32-11.26-23.95-11.26-.68,0-1.35.03-2.02.07-.85-2.25-1.95-4.37-3.27-6.33,3.34-4.96,5.29-10.93,5.29-17.36,0-2.18-.23-4.31-.66-6.37,11.38-4.62,19.41-15.78,19.41-28.82,0-10.02-4.74-18.93-12.1-24.61,14.38-2.74,25.25-15.37,25.25-30.55,0-17.18-13.93-31.1-31.1-31.1s-31.1,13.93-31.1,31.1c0,10.02,4.74,18.93,12.1,24.61-8.05,1.53-14.99,6.17-19.55,12.62-5.63-5.62-13.39-9.09-21.97-9.09-.68,0-1.36.03-2.03.07,4.72-5.45,7.59-12.56,7.59-20.34,0-4.39-.92-8.57-2.56-12.36,14.57-2.59,25.63-15.3,25.63-30.61,0-4.25-.86-8.31-2.4-12h-168.57c-2.23,3.72-3.72,7.93-4.23,12.44-.13.02-.27.05-.4.07-1.77-4.86-4.73-9.13-8.51-12.52h-41.45c-1.49,1.33-2.85,2.79-4.06,4.38-2.88-.88-5.94-1.36-9.1-1.36s-6.31.49-9.23,1.39c-.38-1.52-.88-3-1.48-4.42h-57.38c-.3.71-.57,1.42-.81,2.15-.53-.03-1.06-.04-1.6-.04-3.09,0-6.07.46-8.89,1.3-.77-1.2-1.63-2.33-2.55-3.41h-47.27c-.38.44-.75.89-1.1,1.36v37.65c3.39,4.44,7.93,7.96,13.19,10.07-1.5,3.03-2.53,6.33-2.97,9.82-3.64.45-7.08,1.53-10.22,3.12v55.46c.41.21.81.42,1.22.61-.52,2.25-.8,4.6-.8,7.01,0,13.08,8.08,24.27,19.53,28.87-3.7,5.12-5.89,11.4-5.89,18.2,0,11.15,5.87,20.92,14.68,26.41,0,.23-.01.46-.02.69-15.87,1.41-28.31,14.74-28.31,30.97h0c-.14,0-.27,0-.41.01v62.19c.14,0,.28.01.42.01,5.55,0,10.76-1.46,15.27-4.01,1.47,1.52,3.08,2.9,4.83,4.1-.78,2.72-1.21,5.6-1.21,8.57,0,1.17.07,2.32.2,3.46-5.27-4.1-11.89-6.55-19.08-6.55-.14,0-.28,0-.42.01v117.59c.65.15,1.31.29,1.98.4-.67.18-1.33.38-1.98.6v146.2c2.25.52,4.59.8,7,.8.31,0,.62-.01.92-.02.03.1.05.21.08.31-2.91,1.14-5.59,2.7-8,4.61v55.47h243.78c.89-1.96,1.58-4.02,2.06-6.17,6.45-1.99,12-6.02,15.9-11.33,5.7,7.18,14.49,11.79,24.37,11.79,5.11,0,9.93-1.24,14.18-3.43,5.48,4.82,12.66,7.75,20.53,7.75,15.52,0,28.39-11.37,30.72-26.24,3.66,1.77,7.71,2.84,11.99,3.04-7.33,5.69-12.06,14.58-12.06,24.58h62.21c0-1.22-.08-2.41-.21-3.59.15.11.3.21.45.32ZM999.76,563.2c-1.42.77-2.76,1.65-4.04,2.63-3.84-4.34-8.87-7.6-14.59-9.27,6.18-5.68,10.06-13.84,10.06-22.9,0-1.68-.14-3.32-.39-4.92,3.86-2.1,7.22-4.99,9.87-8.46-.04.63-.06,1.27-.06,1.91,0,4.28.86,8.35,2.43,12.06-3.43,5-5.44,11.05-5.44,17.57,0,4.02.77,7.86,2.16,11.39ZM1082.8,436.25c.81-.93,1.58-1.91,2.28-2.94.03.79.1,1.58.2,2.36-.84.16-1.66.36-2.47.58ZM1169.12,475.19c-.51-.51-1.05-.99-1.6-1.47,0,0,0-.01.01-.02.9.1,1.81.16,2.73.18-.39.42-.78.86-1.15,1.3ZM1185.97,403.52c0,.43.02.85.03,1.27-.49.14-.97.3-1.45.47-.38-1.82-.93-3.57-1.61-5.26,1.92-2.08,3.55-4.42,4.84-6.96-1.17,3.28-1.82,6.8-1.82,10.48ZM1189.35,389.42c.62-1.73,1.09-3.54,1.4-5.4.41.38.83.74,1.26,1.09-1,1.36-1.89,2.8-2.66,4.31ZM1235.89,455.29c-2.12,2.83-3.76,6.03-4.83,9.49-3.54-4.12-8.13-7.29-13.37-9.12,2.11-2.3,3.88-4.92,5.23-7.78,3.61,3.43,8.03,6.01,12.96,7.4ZM1216.69,314.11c.92.91,1.91,1.77,2.94,2.56-1.91,4.03-2.98,8.53-2.98,13.28,0,.13,0,.26.01.39-.32-.05-.64-.09-.96-.13.53-2.28.82-4.65.82-7.09,0-2.73-.35-5.38-1.02-7.9.4-.36.8-.73,1.18-1.11ZM1171.25,240.11c8.84-.06,16.8-3.82,22.43-9.8,4.16,2.06,8.84,3.23,13.8,3.23,1.2,0,2.39-.08,3.56-.21-2.27,4.32-3.56,9.23-3.56,14.45,0,1.96.19,3.87.54,5.73-2.97-.94-6.13-1.45-9.41-1.45-11.37,0-21.32,6.11-26.74,15.22-3.12-1.05-6.45-1.63-9.92-1.63-3.76,0-7.37.67-10.71,1.89-.87-2.22-1.98-4.31-3.31-6.25,11.09-2.31,20.01-10.51,23.34-21.18ZM1135.68,589.86c2.42.97,4.99,1.65,7.67,1.98,1.33,3.72,3.34,7.12,5.89,10.03-13.91,3.1-24.32,15.51-24.32,30.35,0,6.03,1.72,11.65,4.69,16.42-.24,0-.48-.02-.72-.02-3.53,0-6.91.6-10.07,1.68-4.23-3.88-9.54-6.6-15.42-7.68,7.73-5.66,12.75-14.79,12.75-25.11,0-3.9-.72-7.63-2.04-11.07,2.62-3.11,4.65-6.73,5.89-10.71,5.83-.5,11.21-2.61,15.67-5.89ZM1097.79,238.97c4.68,0,9.12-1.04,13.1-2.89.77,4.53,2.51,8.73,5.01,12.36-6.27,1.3-11.85,4.5-16.11,8.96.35-1.86.54-3.77.54-5.73,0-4.53-.98-8.83-2.72-12.71.06,0,.12,0,.18,0ZM1091.7,273.16c-.35,1.86-.54,3.77-.54,5.73,0,.38.02.76.03,1.14-2.79,1.61-5.31,3.64-7.47,6.01-2.18-1.68-4.59-3.08-7.18-4.14,5.88-1.42,11.11-4.51,15.15-8.74ZM1064.16,341.77c.2,0,.39.02.59.02.86,0,1.71-.04,2.55-.11-.4,1.99-.61,4.05-.61,6.15,0,16.4,12.7,29.83,28.8,31.01,4.18,12.25,15.77,21.07,29.44,21.07.14,0,.27,0,.41-.01-.28.69-.54,1.38-.77,2.09-2.68-.75-5.5-1.16-8.42-1.16-10.7,0-20.14,5.4-25.73,13.63-.58-13.31-9.52-24.45-21.7-28.29.33-1.81.51-3.67.51-5.57,0-7.59-2.72-14.54-7.24-19.94,1.77-3.91,2.77-8.25,2.77-12.82,0-2.07-.21-4.1-.59-6.06ZM1067.71,445.79c-1.86,2.13-3.43,4.51-4.66,7.1-.19-.54-.38-1.07-.6-1.59,1.24-1.56,2.33-3.24,3.26-5.02.67-.14,1.34-.31,1.99-.49ZM1061.76,476.36s0,.02,0,.03c0,0-.01,0-.02,0,0,0,0-.02.01-.02ZM1047.62,274.03c2.81,2.72,6.14,4.91,9.82,6.42-1.64.39-3.22.91-4.74,1.55-1.9-1.47-3.97-2.73-6.19-3.73.47-1.37.84-2.79,1.11-4.24ZM1058.61,560.35c3.03,1.82,6.39,3.13,9.98,3.84-5.78,5.65-9.37,13.52-9.37,22.24,0,1.2.08,2.39.21,3.55-4.2-2.2-8.96-3.47-14.01-3.54-.34-2.53-.97-4.97-1.88-7.27,7.26-3.95,12.76-10.71,15.07-18.81ZM1027.83,643.46c.1,2.26.43,4.46.98,6.57-1.98,1.92-3.71,4.1-5.13,6.49-2.16-1.37-4.49-2.47-6.97-3.28.22-1.5.34-3.04.34-4.6,0-7.82-2.89-14.95-7.65-20.42,1.36-2.05,2.49-4.27,3.34-6.62.47.03.95.04,1.43.05,1.2,9.1,6.34,16.96,13.65,21.81ZM1007.9,365.28c.59.86,1.22,1.69,1.88,2.49-1.77,3.91-2.77,8.25-2.77,12.82,0,7.15,2.42,13.73,6.47,18.98-4.75-2.94-10.35-4.64-16.35-4.64-1.37,0-2.71.1-4.04.27,5.82-5.65,9.44-13.56,9.44-22.31,0-.52-.01-1.04-.04-1.56,2.05-1.78,3.87-3.81,5.39-6.06ZM981.33,254.3c5.6-1.88,10.5-5.3,14.17-9.77.17.28.34.56.52.84-3.01,2.77-5.47,6.13-7.21,9.89-2.23,1.1-4.31,2.46-6.2,4.04-1.07-.67-2.18-1.29-3.33-1.83.75-1.01,1.44-2.07,2.06-3.17ZM978.03,193.38c.15.38.3.76.46,1.13-.33-.08-.67-.15-1.01-.22.19-.3.37-.61.54-.91ZM929.13,530.66c-3.64-1.49-7.62-2.32-11.8-2.32-2.34,0-4.61.27-6.8.75-1.34-4.62-3.71-8.79-6.87-12.25,6.18-4.19,10.77-10.55,12.69-17.98,2.46,1.84,5.21,3.31,8.16,4.36,1.68,5.53,4.87,10.41,9.08,14.16-2.42,3.93-4,8.45-4.46,13.29ZM923.17,238.66c0,.1,0,.2,0,.3,0,6.03,1.72,11.65,4.68,16.41-1.99.07-3.94.33-5.82.76-.78-4.14-2.38-7.98-4.62-11.37,2.19-1.77,4.12-3.82,5.76-6.11ZM906.34,307.77c1.74,1.85,3.7,3.48,5.84,4.86-1.08,1.13-2.07,2.34-2.97,3.62-1.4-.98-2.89-1.84-4.45-2.58.71-1.89,1.24-3.86,1.58-5.9ZM869.63,404c17.18,0,31.1-13.93,31.1-31.1,0-.47-.01-.93-.04-1.39,6.65-2.06,12.34-6.3,16.25-11.87,2.01,1.4,4.18,2.56,6.49,3.46,1.15,8.68,5.88,16.23,12.66,21.11-2.59,3.13-4.57,6.78-5.78,10.77-.44-.02-.89-.03-1.34-.03-15.74,0-28.74,11.69-30.81,26.86-2.79,1.9-5.25,4.23-7.29,6.91-4.05-5.32-9.79-9.29-16.41-11.13-1.49-5.29-4.35-10.01-8.17-13.76,1.09.12,2.2.18,3.32.18ZM845.63,310.83c.07.25.14.49.21.73-.16-.04-.32-.08-.48-.11.09-.21.19-.41.27-.62ZM834.08,381.07c-1.19-3.59-3.02-6.89-5.35-9.76,1.26.42,2.55.76,3.88,1.01,1.83,2.55,4.03,4.81,6.53,6.71.26,1.28.6,2.53,1.01,3.75-1.93-.77-3.96-1.34-6.06-1.71ZM818.79,198.99c5.3,4.35,12.06,6.98,19.43,7.05.43,1,.92,1.98,1.46,2.93-2.55,4.51-4.01,9.72-4.01,15.27s1.33,10.28,3.66,14.65c-.71.29-1.41.6-2.09.93-2.99-3.55-6.76-6.41-11.04-8.34,0-.21.02-.42.02-.64,0-12.78-7.72-23.76-18.74-28.55,4.05-.38,7.87-1.53,11.32-3.31ZM789.41,198.5c.9.51,1.84.97,2.79,1.38-.98.09-1.95.23-2.9.41-.08-.24-.16-.48-.25-.72.12-.35.24-.71.35-1.07ZM786.16,146.26c-.69.51-1.35,1.04-1.99,1.6-.14-.42-.28-.83-.43-1.24.82-.09,1.63-.21,2.43-.36ZM763.07,392c.22.15.43.31.65.46-.73.24-1.44.5-2.15.79.51-.4,1.01-.82,1.5-1.25ZM762.38,614.35c5.8,0,11.22-1.59,15.87-4.36,2,2.84,4.47,5.33,7.29,7.36-7.99,3.36-14.28,9.95-17.23,18.15-1.92-.37-3.9-.57-5.93-.57-.12,0-.24,0-.35,0,.23-1.53.35-3.1.35-4.7,0-5.95-1.67-11.51-4.57-16.23,1.49.22,3.02.34,4.57.34ZM756.82,306.05c.11.23.23.45.35.68-.33-.18-.68-.35-1.02-.52.22-.05.45-.1.67-.15ZM745.21,399.77c3.18-.29,6.21-1.05,9.04-2.22-7.24,5.7-11.89,14.53-11.89,24.45,0,8.89,3.74,16.91,9.72,22.58-8.32.67-15.71,4.61-20.89,10.54-1.37-.52-2.78-.94-4.23-1.26,3.95-5.21,6.29-11.71,6.29-18.76,0-7.54-2.68-14.45-7.15-19.84,8.29-2.33,15.17-8.01,19.1-15.49ZM686.07,366.08c1.22,1.68,2.6,3.24,4.13,4.64-.52.98-.99,2-1.41,3.04-2.59.62-5.05,1.56-7.34,2.78,2.15-3.12,3.73-6.66,4.62-10.47ZM664.97,552.14c17.18,0,31.1-13.93,31.1-31.1,0-9.7-4.45-18.36-11.41-24.06,2.24-.33,4.4-.89,6.45-1.66,3.97,10.37,13.31,18.06,24.62,19.68-.01.38-.03.76-.03,1.15,0,17.18,13.93,31.1,31.1,31.1,2.14,0,4.23-.22,6.24-.63.78,2.18,1.8,4.24,3.02,6.16-14.16,2.91-24.81,15.44-24.81,30.47,0,5.95,1.67,11.51,4.57,16.23-1.49-.22-3.02-.34-4.57-.34s-3.08.12-4.57.34c2.9-4.73,4.57-10.28,4.57-16.23,0-17.18-13.93-31.1-31.1-31.1-15.33,0-28.06,11.09-30.62,25.69-3.21-3.41-7.19-6.1-11.65-7.79.04-.66.07-1.33.07-2,0-7.13-2.41-13.7-6.44-18.95,4.07,1.96,8.63,3.05,13.45,3.05ZM275.59,193.46c1.03-.13,2.04-.3,3.04-.53-.43,1.59-.75,3.23-.93,4.9-.86-.49-1.74-.95-2.65-1.36.23-.99.41-1.99.54-3.02ZM267.82,477.26c-2.66-10.32-10.49-18.57-20.56-21.82,8.97-5.46,14.97-15.33,14.97-26.59,0-1.17-.07-2.32-.2-3.46,5.27,4.1,11.89,6.55,19.08,6.55.19,0,.38-.01.57-.01-1.27,3.39-1.96,7.05-1.96,10.88,0,8.37,3.31,15.96,8.68,21.55-8.5,1.35-15.85,6.14-20.58,12.91ZM564.65,268.26c1.44,0,2.85-.11,4.23-.29-.16,1.28-.25,2.58-.25,3.91-2.01,0-3.97.2-5.87.56-.31-1.49-.73-2.93-1.25-4.33,1.03.1,2.08.16,3.14.16ZM508.23,154.68c1.95,2.73,4.33,5.13,7.05,7.11,1.55,6.65,5.23,12.47,10.29,16.72-3.8,1.99-7.13,4.75-9.8,8.07-.4-.19-.79-.37-1.2-.54-1.51-5.96-4.74-11.23-9.13-15.26,1.88-4,2.93-8.47,2.93-13.19,0-.98-.05-1.95-.14-2.91ZM489.68,243.05c3.92,1.79,8.28,2.79,12.87,2.79.05,0,.1,0,.15,0-.96,3-1.49,6.19-1.49,9.51,0,.69.03,1.37.07,2.05-2.51-1.17-5.2-2.01-8.02-2.47-2.69-2.23-5.75-4.01-9.09-5.24,2.12-1.94,3.98-4.18,5.5-6.65ZM447.96,168.01c.59,1.66,1.31,3.24,2.16,4.76-1.47.46-2.89,1.03-4.26,1.7-.68-1.32-1.45-2.59-2.31-3.79,1.55-.77,3.02-1.66,4.41-2.66ZM449.64,254.75c.91.44,1.84.84,2.8,1.19-2.88,2.63-5.26,5.8-6.99,9.35-.48-2.25-1.21-4.4-2.16-6.44,2.28-1.11,4.41-2.49,6.34-4.1ZM359.27,296.7c.58.03,1.15.05,1.74.05,10.43,0,19.65-5.14,25.29-13.01,2.5,6.04,6.84,11.13,12.33,14.55-4.29,1.4-8.16,3.7-11.4,6.69-5.18-3.85-11.59-6.13-18.53-6.13-6.06,0-11.71,1.74-16.49,4.73-.07-.14-.15-.29-.22-.43,2.75-1.76,5.22-3.94,7.29-6.45ZM306.76,564.86c-.24-2.13-.69-4.19-1.34-6.17,2.05.46,4.17.71,6.35.74.25,1.01.56,2,.91,2.96-2.07.62-4.05,1.44-5.91,2.46ZM315.73,412.09c-1.6-.25-3.24-.39-4.9-.39-.19,0-.38.01-.57.01,1.27-3.39,1.96-7.05,1.96-10.88,0-.5-.01-1-.04-1.49,1.23.24,2.49.4,3.78.49.59,2.88,1.59,5.61,2.91,8.14-1.16,1.28-2.2,2.66-3.14,4.12ZM359.84,365.48c-3.46-1.65-7.27-2.68-11.28-2.95-1.4-6.82-5.03-12.82-10.1-17.21.84-.43,1.66-.89,2.45-1.38,3.99,7.91,11.24,13.89,20,16.15-.51,1.74-.87,3.55-1.07,5.4ZM424.08,648.64c-2.08.02-4.11.23-6.07.64-.59-.78-1.22-1.53-1.88-2.25,2.54.85,5.22,1.38,8,1.55-.02.02-.04.05-.05.07ZM467.17,589.55c-2.17.12-4.29.46-6.32,1,2.26-2.16,4.2-4.65,5.73-7.4.77.06,1.54.09,2.32.09,1.54,0,3.06-.12,4.54-.33-2.4,1.89-4.51,4.13-6.27,6.63ZM510.97,639.57c-2.89-1.27-6.01-2.12-9.28-2.46,2.05-.62,4.02-1.44,5.86-2.45,1.23,1.42,2.59,2.73,4.06,3.91-.22.33-.43.66-.64,1ZM512.06,583.04c-1.58-1.26-3.28-2.37-5.08-3.31.87-.45,1.72-.93,2.53-1.45,2.57-.16,5.06-.63,7.43-1.38-1.87,1.83-3.51,3.89-4.88,6.14ZM540,434.63c0,.24.01.47.02.71-5.52,5.61-8.93,13.31-8.93,21.8,0,8.99,3.82,17.09,9.92,22.77-6.02.7-11.52,3.12-15.99,6.76-5.67-7.66-14.76-12.63-25.02-12.63-17.18,0-31.1,13.93-31.1,31.1,0,5.95,1.67,11.51,4.57,16.23-1.49-.22-3.02-.34-4.57-.34-4,0-7.82.77-11.34,2.15-4.5-2.53-9.69-3.99-15.23-3.99-.42,0-.84.02-1.25.03.92-2.94,1.42-6.07,1.42-9.32,0-17.18-13.93-31.1-31.1-31.1-14.4,0-26.51,9.79-30.05,23.08-1.17.57-2.3,1.22-3.39,1.92-2.61-4.58-6.35-8.43-10.85-11.18.03-.51.04-1.03.04-1.55,0-2.72-.35-5.35-1.01-7.86,8.52-5.55,14.15-15.15,14.15-26.07,0-.53-.01-1.06-.04-1.59,15.9-1.38,28.38-14.72,28.38-30.98,0-4.53-.98-8.84-2.72-12.72,1.53-3.68,2.38-7.71,2.38-11.95,0-1.75-.15-3.46-.43-5.12,6.07-4,10.65-10.08,12.74-17.22,2.89.89,5.96,1.37,9.14,1.37,9.23,0,17.52-4.03,23.22-10.41,1.36.18,2.74.28,4.15.28,15.79,0,28.83-11.77,30.83-27.02.09,0,.18,0,.28,0,4.22,0,8.24-.84,11.91-2.37,3.67,1.52,7.69,2.37,11.91,2.37,2.82,0,5.56-.38,8.16-1.09,2.93,2.42,6.31,4.31,10,5.54-2.39,4.41-3.75,9.45-3.75,14.82,0,16.42,12.72,29.85,28.84,31.01,1.9,4.78,4.95,8.98,8.81,12.26-13.8,3.18-24.08,15.54-24.08,30.3ZM568.5,653.05c-.75-8.69-5.08-16.35-11.5-21.51.69-1.04,1.34-2.12,1.9-3.25,3.18,1.19,6.6,1.86,10.18,1.94,1.61,4.95,4.44,9.34,8.12,12.85-3.57,2.65-6.55,6.06-8.71,9.97ZM624.84,421.93c.48,2.7,1.31,5.28,2.44,7.69-1.88,4-2.93,8.47-2.93,13.18s1.03,9.07,2.87,13.04c-3.64,1.34-6.95,3.34-9.8,5.86,4.17-5.29,6.66-11.96,6.66-19.22,0-9.49-4.25-17.98-10.95-23.68,3.57,1.76,7.53,2.86,11.72,3.13ZM613.52,465.82c-.16.2-.32.39-.48.6-.04-.03-.07-.06-.11-.09.2-.17.39-.34.59-.51ZM592.97,411.38c-.39,0-.78.02-1.17.03-.2-.18-.4-.35-.6-.52,3.28-.76,6.36-2.02,9.15-3.72,1.72,2.79,3.87,5.29,6.36,7.41-4.14-2.04-8.81-3.2-13.74-3.2ZM631.05,698.18c-4.65-3.24-10.22-5.25-16.25-5.54,3.14-2.43,5.79-5.45,7.81-8.89,2.8,1.59,5.87,2.77,9.13,3.43-.58,2.37-.89,4.85-.89,7.41,0,1.22.08,2.41.21,3.59ZM629.13,626.87c.13-.65.24-1.31.33-1.97.7.48,1.43.92,2.17,1.34-.85.18-1.68.39-2.5.63ZM626.86,536.93c-6.31,0-12.18,1.89-17.08,5.12-.46-.3-.92-.59-1.39-.86,4.62-5.43,7.42-12.46,7.42-20.15,0-3.1-.46-6.1-1.31-8.92,1.13-1.11,2.17-2.3,3.12-3.56,4.58,3.97,10.34,6.62,16.68,7.37-.28,1.67-.43,3.37-.43,5.12,0,7.13,2.41,13.7,6.44,18.95-4.07-1.96-8.63-3.05-13.45-3.05Z"/></svg>