<?xml version="1.0" encoding="UTF-8"?><svg id="Layer_1" xmlns="http://www.w3.org/2000/svg" width="1366" height="768" viewBox="0 0 1366 768"><defs><style>.cls-1,.cls-2,.cls-3,.cls-4,.cls-5,.cls-6,.cls-7,.cls-8,.cls-9,.cls-10,.cls-11,.cls-12,.cls-13,.cls-14,.cls-15,.cls-16,.cls-17,.cls-18,.cls-19,.cls-20,.cls-21,.cls-22,.cls-23,.cls-24,.cls-25{stroke-width:1.5px;}.cls-1,.cls-2,.cls-3,.cls-4,.cls-5,.cls-6,.cls-11,.cls-12,.cls-13,.cls-15,.cls-16,.cls-17,.cls-18,.cls-21,.cls-22,.cls-23,.cls-25{fill:none;}.cls-1,.cls-2,.cls-4,.cls-6,.cls-26,.cls-8,.cls-13,.cls-15,.cls-16,.cls-18,.cls-19,.cls-22,.cls-24{stroke-miterlimit:10;}.cls-1,.cls-6,.cls-13,.cls-16,.cls-22{stroke:#d1b69f;}.cls-2{stroke:#856247;}.cls-3{stroke-dasharray:4.22 4.22;}.cls-3,.cls-4,.cls-5,.cls-7,.cls-26,.cls-8,.cls-9,.cls-10,.cls-11,.cls-12,.cls-14,.cls-17,.cls-19,.cls-21,.cls-23,.cls-24,.cls-25{stroke:#b1835e;}.cls-3,.cls-5,.cls-7,.cls-9,.cls-11,.cls-12,.cls-14,.cls-17,.cls-21,.cls-23,.cls-25{stroke-linejoin:round;}.cls-3,.cls-5,.cls-10,.cls-11,.cls-12,.cls-17,.cls-20,.cls-21,.cls-23,.cls-25{stroke-linecap:round;}.cls-27{opacity:.1;}.cls-27,.cls-28,.cls-14,.cls-29{fill:#c19c7e;}.cls-5{stroke-dasharray:3.94 3.94;}.cls-6{stroke-dasharray:3.8 3.8;}.cls-7{fill:#d0b59e;}.cls-26,.cls-30{fill:#b1835e;}.cls-8,.cls-9,.cls-10,.cls-31,.cls-20{fill:#e6d7cb;}.cls-10,.cls-20{stroke-miterlimit:1.25;}.cls-11{stroke-dasharray:3.99 3.99;}.cls-12{stroke-dasharray:3.96 3.96;}.cls-13{stroke-dasharray:4.08 4.08;}.cls-28{font-family:PublicSansRoman-Regular, 'Public Sans';font-size:17.87px;font-variation-settings:'wght' 400;}.cls-32{letter-spacing:0em;}.cls-15,.cls-20{stroke:#8c6239;}.cls-16{stroke-dasharray:3.98 3.98;}.cls-17{stroke-dasharray:3.94 3.94;}.cls-18{stroke:#d0b59e;}.cls-33{fill:#8c6239;}.cls-19{fill:#d1b69f;}.cls-34{letter-spacing:-.06em;}.cls-35{letter-spacing:-.11em;}.cls-36{letter-spacing:-.02em;}.cls-37{letter-spacing:-.02em;}.cls-38{letter-spacing:-.02em;}.cls-39{letter-spacing:-.02em;}.cls-40{letter-spacing:-.03em;}.cls-41{letter-spacing:0em;}.cls-42{letter-spacing:-.01em;}.cls-21{stroke-dasharray:4.04 4.04;}.cls-22{stroke-dasharray:4.04 4.04;}.cls-43{letter-spacing:.02em;}.cls-23{stroke-dasharray:3.98 3.98;}.cls-24{fill:#ebded3;}.cls-44{letter-spacing:0em;}.cls-45{letter-spacing:0em;}.cls-46{fill:#885b46;opacity:.08;}.cls-47{letter-spacing:0em;}.cls-48{letter-spacing:.01em;}.cls-49{letter-spacing:0em;}</style></defs><rect class="cls-46" x="18.04" y="25.26" width="281.2" height="541.66" rx="17.36" ry="17.36"/><rect class="cls-27" x="834.01" y="200.18" width="506.19" height="543.11" rx="17.41" ry="17.41"/><path class="cls-7" d="M1120.2,353.82c-3.79,1-8.04,1.65-12.78,1.85-3.48,2.71-12.16,8.82-20.83,10.24l3.52-11.87c-11.18-2.6-20.78-11.13-26.51-15.61-1.66,1.47-3.39,2.85-5.2,4.12-8,5.63-17.57,6.33-17.57,6.33,0,0,2.5-10.94,9.1-16.94-6.6-6-9.1-16.93-9.1-16.93,0,0,9.57.7,17.57,6.33,1.84,1.28,3.59,2.67,5.24,4.15,5.75-4.48,15.31-12.98,26.47-15.57l-3.52-11.87c8.74,1.42,17.49,7.58,20.92,10.24,4.7.2,8.93.86,12.69,1.85-7.43,13.57-7.43,30.1,0,43.68Z"/><path class="cls-10" d="M1146.42,331.98c0,4.03-7.23,16.8-25.88,21.75-.12.04-.23.08-.34.09-7.43-13.58-7.43-30.11,0-43.68.11-.22.23-.42.34-.63v.71c18.63,4.99,25.88,17.88,25.88,21.75Z"/><path class="cls-20" d="M1120.55,353.73v.71c-.12-.2-.24-.41-.34-.63.12-.01.23-.05.34-.09Z"/><path class="cls-8" d="M813.73,360.58l-40.27,2.91c-12.88,0-25.75-9.22-25.75-20.49h0c0-11.27,12.86-20.49,25.75-20.49l40.27,2.91c16.89,0,23.57,10.01,23.57,17.58h0c0,7.56-6.69,17.58-23.57,17.58Z"/><line class="cls-4" x1="813.73" y1="363.99" x2="813.73" y2="360.58"/><line class="cls-4" x1="825.12" y1="362.31" x2="824.01" y2="359.08"/><line class="cls-4" x1="835.34" y1="356.07" x2="832.77" y2="353.72"/><line class="cls-4" x1="840.73" y1="344.85" x2="837.22" y2="344.48"/><line class="cls-4" x1="837.6" y1="332.75" x2="834.65" y2="334.64"/><line class="cls-4" x1="828.27" y1="324.94" x2="826.76" y2="328.02"/><line class="cls-4" x1="816.99" y1="322.15" x2="816.72" y2="325.54"/><line class="cls-4" x1="806.58" y1="321.5" x2="806.33" y2="324.89"/><line class="cls-4" x1="796.25" y1="320.75" x2="795.99" y2="324.15"/><line class="cls-4" x1="785.8" y1="320" x2="785.55" y2="323.39"/><line class="cls-4" x1="775.41" y1="319.25" x2="775.15" y2="322.64"/><line class="cls-4" x1="763.9" y1="320.57" x2="764.94" y2="323.83"/><line class="cls-4" x1="753.55" y1="325.87" x2="755.71" y2="328.56"/><line class="cls-4" x1="745.94" y1="335.12" x2="749.15" y2="336.54"/><line class="cls-4" x1="744.73" y1="347.48" x2="748.16" y2="346.66"/><line class="cls-4" x1="751" y1="357.93" x2="753.47" y2="355.5"/><line class="cls-4" x1="760.75" y1="364.3" x2="762.12" y2="361.16"/><line class="cls-4" x1="772.04" y1="366.87" x2="772.2" y2="363.47"/><line class="cls-4" x1="782.82" y1="366.23" x2="782.56" y2="362.84"/><line class="cls-4" x1="793.25" y1="365.48" x2="792.99" y2="362.08"/><line class="cls-4" x1="803.62" y1="364.73" x2="803.37" y2="361.33"/><path class="cls-25" d="M428.05,339.96c.68,0,1.34.02,1.99.08"/><path class="cls-5" d="M433.91,340.72c11.68,3.19,18.86,16.26,27.45,33.86,10.44,21.41,18.65,39.5,33.17,42.26"/><path class="cls-25" d="M496.49,417.11c.65.06,1.32.09,2,.09"/><path class="cls-25" d="M427.73,339.96c.68,0,1.34-.02,1.99-.08"/><path class="cls-17" d="M433.59,339.21c11.76-3.19,19.18-16.25,27.76-33.87,10.44-21.41,18.38-39.49,32.85-42.26"/><path class="cls-25" d="M496.17,262.81c.65-.06,1.32-.09,2-.09"/><path class="cls-25" d="M634.17,263.67c.67,0,1.34,0,2,0"/><path class="cls-21" d="M640.21,263.64c77.09-.8,120.38-18.06,171.52-42.4,59.06-28.11,102.92-51.54,190.3-52.23"/><path class="cls-25" d="M1004.05,168.99c.66,0,1.33,0,2,0"/><path class="cls-25" d="M914.74,351.31c.67,0,1.34.02,1.99.07"/><path class="cls-23" d="M920.66,352.01c19.18,4.82,30.37,33.86,43.9,73.73,16.08,47.4,28.61,87.21,51.54,91.32"/><path class="cls-25" d="M1018.07,517.33c.66.06,1.32.09,2,.09"/><path class="cls-25" d="M874.84,335.1c.7,0,1.37.04,2,.11"/><path class="cls-3" d="M880.88,336.36c2.67,1.27,4.79,3.39,7.2,6,3.51,3.8,6.39,7.11,10.69,8.38"/><path class="cls-25" d="M900.83,351.18c.63.08,1.3.13,2,.13"/><path class="cls-25" d="M871.51,335.1c.67,0,1.34-.01,2-.04"/><path class="cls-11" d="M877.47,334.72c27.38-3.63,43.44-33.14,62.26-74.06,22.14-48.11,38.72-88.4,70.69-91.48"/><path class="cls-25" d="M1012.41,169.03c.66-.03,1.33-.05,2-.05"/><path class="cls-25" d="M904.34,351.29c.68,0,1.34,0,2-.01"/><path class="cls-12" d="M910.3,351.16c20.69-.94,33.08-6.91,47.55-15.12,17.16-9.74,30.07-17.92,54.58-18.72"/><path class="cls-25" d="M1014.4,317.28c.66-.01,1.32-.02,2-.02"/><path class="cls-25" d="M704.28,339.96c-.68,0-1.34.02-1.99.08"/><path class="cls-5" d="M698.42,340.72c-11.68,3.19-18.86,16.26-27.45,33.86-10.44,21.41-18.65,39.5-33.17,42.26"/><path class="cls-25" d="M635.85,417.11c-.65.06-1.32.09-2,.09"/><path class="cls-25" d="M704.6,339.96c-.68,0-1.34-.02-1.99-.08"/><path class="cls-17" d="M698.74,339.21c-11.76-3.19-19.18-16.25-27.76-33.87-10.44-21.41-18.38-39.49-32.85-42.26"/><path class="cls-25" d="M636.17,262.81c-.65-.06-1.32-.09-2-.09"/><path class="cls-24" d="M1092.91,481.37l-.02,56.4c0,2.17-1.82,3.92-4.07,3.92h-3.47c-2.25,0-4.07-1.76-4.07-3.92l.02-56.4"/><path class="cls-19" d="M1048.91,476.15c-.6-3.77,19.29-13.91,38.2-14.14,18.71-.22,38.69,10.36,38.2,14.14-.93,7.09-75.26,7.07-76.39,0Z"/><path class="cls-31" d="M548.34,269.49c-9.47,0-17.17-7.7-17.17-17.17s7.7-17.17,17.17-17.17h40.63c9.47,0,17.17,7.7,17.17,17.17s-7.7,17.17-17.17,17.17h-40.63Z"/><path class="cls-30" d="M588.96,235.9c9.05,0,16.42,7.37,16.42,16.42s-7.37,16.42-16.42,16.42h-40.63c-9.05,0-16.42-7.37-16.42-16.42s7.37-16.42,16.42-16.42h40.63M588.96,234.4h-40.63c-9.86,0-17.92,8.06-17.92,17.92h0c0,9.86,8.06,17.92,17.92,17.92h40.63c9.86,0,17.92-8.06,17.92-17.92h0c0-9.86-8.06-17.92-17.92-17.92h0Z"/><line class="cls-4" x1="588.96" y1="228.62" x2="588.96" y2="234.4"/><line class="cls-4" x1="612.23" y1="257.81" x2="606.39" y2="256.46"/><line class="cls-4" x1="599.06" y1="273.81" x2="596.49" y2="268.57"/><line class="cls-4" x1="580.66" y1="276.02" x2="580.66" y2="270.24"/><line class="cls-4" x1="564.5" y1="276.02" x2="564.5" y2="270.24"/><line class="cls-4" x1="548.34" y1="276.02" x2="548.34" y2="270.24"/><line class="cls-4" x1="529.67" y1="267.09" x2="534.36" y2="263.49"/><line class="cls-4" x1="525.07" y1="246.82" x2="530.9" y2="248.17"/><line class="cls-4" x1="538.24" y1="230.83" x2="540.81" y2="236.07"/><line class="cls-4" x1="556.64" y1="228.62" x2="556.64" y2="234.4"/><line class="cls-4" x1="572.8" y1="228.62" x2="572.8" y2="234.4"/><line class="cls-4" x1="607.63" y1="237.54" x2="602.94" y2="241.14"/><path class="cls-4" d="M549.64,250.32c3.8,0,3.8,4,7.6,4s3.8-4,7.61-4,3.8,4,7.6,4,3.8-4,7.61-4,3.8,4,7.61,4"/><path class="cls-4" d="M524.8,248.05c-5.11-.94-8.13-6.36-8.34-11.37s1.62-9.86,2.57-14.79c.66-3.42.78-7.31-1.56-9.96-2.06-2.33-5.62-3.03-8.73-2.41-3.11.62-5.85,2.36-8.33,4.26"/><path class="cls-30" d="M548.54,431.72c-9.47,0-17.17-7.7-17.17-17.17s7.7-17.17,17.17-17.17h40.63c9.47,0,17.17,7.7,17.17,17.17s-7.7,17.17-17.17,17.17h-40.63Z"/><path class="cls-33" d="M589.16,398.13c9.05,0,16.42,7.37,16.42,16.42s-7.37,16.42-16.42,16.42h-40.63c-9.05,0-16.42-7.37-16.42-16.42s7.37-16.42,16.42-16.42h40.63M589.16,396.63h-40.63c-9.86,0-17.92,8.06-17.92,17.92h0c0,9.86,8.06,17.92,17.92,17.92h40.63c9.86,0,17.92-8.06,17.92-17.92h0c0-9.86-8.06-17.92-17.92-17.92h0Z"/><line class="cls-15" x1="589.16" y1="390.85" x2="589.16" y2="396.63"/><line class="cls-30" x1="589.16" y1="390.85" x2="589.16" y2="396.63"/><line class="cls-15" x1="612.43" y1="420.05" x2="606.59" y2="418.7"/><line class="cls-30" x1="612.43" y1="420.05" x2="606.59" y2="418.7"/><line class="cls-15" x1="599.26" y1="436.04" x2="596.69" y2="430.8"/><line class="cls-30" x1="599.26" y1="436.04" x2="596.69" y2="430.8"/><line class="cls-15" x1="580.86" y1="438.25" x2="580.86" y2="432.47"/><line class="cls-15" x1="564.7" y1="438.25" x2="564.7" y2="432.47"/><line class="cls-15" x1="548.54" y1="438.25" x2="548.54" y2="432.47"/><line class="cls-15" x1="529.87" y1="429.33" x2="534.56" y2="425.73"/><line class="cls-30" x1="529.87" y1="429.33" x2="534.56" y2="425.73"/><line class="cls-15" x1="525.27" y1="409.06" x2="531.1" y2="410.41"/><line class="cls-30" x1="525.27" y1="409.06" x2="531.1" y2="410.41"/><line class="cls-15" x1="538.44" y1="393.06" x2="541.01" y2="398.3"/><line class="cls-30" x1="538.44" y1="393.06" x2="541.01" y2="398.3"/><line class="cls-15" x1="556.84" y1="390.85" x2="556.84" y2="396.63"/><line class="cls-30" x1="556.84" y1="390.85" x2="556.84" y2="396.63"/><line class="cls-15" x1="573" y1="390.85" x2="573" y2="396.63"/><line class="cls-30" x1="573" y1="390.85" x2="573" y2="396.63"/><line class="cls-15" x1="607.83" y1="399.78" x2="603.14" y2="403.38"/><line class="cls-30" x1="607.83" y1="399.78" x2="603.14" y2="403.38"/><path class="cls-18" d="M549.84,412.55c3.8,0,3.8,4,7.6,4s3.8-4,7.61-4,3.8,4,7.6,4,3.8-4,7.61-4,3.8,4,7.61,4"/><path class="cls-2" d="M525,410.29c-5.11-.94-8.13-6.36-8.34-11.37s1.62-9.86,2.57-14.79c.66-3.42.78-7.31-1.56-9.96-2.06-2.33-5.62-3.03-8.73-2.41s-5.85,2.36-8.33,4.26"/><text class="cls-28" transform="translate(517.25 309.37) scale(1.04 1)"><tspan class="cls-41" x="0" y="0">B</tspan><tspan x="11.89" y="0">A</tspan><tspan class="cls-47" x="24.58" y="0">K</tspan><tspan x="36.83" y="0">T</tspan><tspan class="cls-45" x="47.43" y="0">E</tspan><tspan x="58.64" y="0">RI</tspan><tspan class="cls-45" x="75.78" y="0">E</tspan><tspan x="86.99" y="0">R</tspan></text><text class="cls-28" transform="translate(519.57 478.05) scale(1.04 1)"><tspan x="0" y="0">ARK</tspan><tspan class="cls-45" x="36.96" y="0">ÉE</tspan><tspan x="59.37" y="0">R</tspan></text><text class="cls-28" transform="translate(1043.53 585.91) scale(1.04 1)"><tspan class="cls-36" x="0" y="0">S</tspan><tspan class="cls-35" x="11.61" y="0">V</tspan><tspan x="21.59" y="0">AM</tspan><tspan class="cls-34" x="50.11" y="0">P</tspan><tspan x="60.42" y="0">AR</tspan></text><text class="cls-28" transform="translate(743.34 404.02) scale(1.04 1)"><tspan x="0" y="0">P</tspan><tspan class="cls-42" x="11.37" y="0">R</tspan><tspan class="cls-48" x="23.28" y="0">O</tspan><tspan x="36.58" y="0">TI</tspan><tspan class="cls-39" x="52.24" y="0">S</tspan><tspan x="63.93" y="0">T</tspan><tspan class="cls-44" x="74.53" y="0">E</tspan><tspan x="85.74" y="0">R</tspan></text><text class="cls-28" transform="translate(1065.08 408.39) scale(1.04 1)"><tspan class="cls-38" x="0" y="0">D</tspan><tspan x="12.1" y="0">JUR</tspan></text><text class="cls-28" transform="translate(1051.75 236.86) scale(1.04 1)"><tspan class="cls-35" x="0" y="0">V</tspan><tspan class="cls-43" x="9.98" y="0">Ä</tspan><tspan class="cls-32" x="23.09" y="0">X</tspan><tspan x="35.44" y="0">T</tspan><tspan class="cls-45" x="46.05" y="0">E</tspan><tspan x="57.25" y="0">R</tspan></text><ellipse class="cls-4" cx="794.08" cy="337.53" rx="4.59" ry="4.42"/><line class="cls-4" x1="798.15" y1="342.61" x2="796.9" y2="341.02"/><line class="cls-4" x1="798.15" y1="332.44" x2="796.9" y2="334.04"/><line class="cls-4" x1="792.58" y1="331.27" x2="793.04" y2="333.22"/><line class="cls-4" x1="788.12" y1="334.66" x2="789.97" y2="335.57"/><line class="cls-4" x1="788.12" y1="340.39" x2="789.97" y2="339.48"/><line class="cls-4" x1="792.58" y1="343.78" x2="793.04" y2="341.83"/><line class="cls-4" x1="800.75" y1="337.53" x2="798.67" y2="337.53"/><ellipse class="cls-4" cx="776.58" cy="349.61" rx="4.84" ry="4.67"/><line class="cls-4" x1="780.88" y1="354.98" x2="779.55" y2="353.29"/><line class="cls-4" x1="780.88" y1="344.24" x2="779.55" y2="345.92"/><line class="cls-4" x1="775.07" y1="342.99" x2="775.53" y2="345.05"/><line class="cls-4" x1="770.29" y1="346.58" x2="772.24" y2="347.54"/><line class="cls-4" x1="770.29" y1="352.63" x2="772.24" y2="351.67"/><line class="cls-4" x1="775.07" y1="356.23" x2="775.53" y2="354.16"/><line class="cls-4" x1="783.62" y1="349.61" x2="781.42" y2="349.61"/><ellipse class="cls-4" cx="774.97" cy="334.08" rx="2.18" ry="2.1"/><ellipse class="cls-4" cx="805.31" cy="351.01" rx="3.22" ry="3.1"/><ellipse class="cls-26" cx="1128.83" cy="328.59" rx="3.52" ry="3.39"/><path class="cls-9" d="M1111.1,140.28l-58.45,52.75,15.94-14.39v-28.77c0-15.89,21.25-28.77,61.11-28.77,1.47,0,2.66,1.07,2.66,2.4,0,35.96-14.27,55.14-31.88,55.14h-31.88l42.51-38.36ZM1089.84,159.46h18.6-18.6ZM1089.84,142.67v16.78-16.78Z"/><path class="cls-9" d="M267.49,338.49c0,2-.17,3.94-.52,5.85-7.46-2.53-11.64,5.13-17.39,4.02-12.79-2.46-16.42.29-16.42,6.17s0,5.88-2.66,10.29c-1.72,2.87-2.28,5.74,1.18,8.21-19.79,0-35.82-15.46-35.82-34.53-.01-9.25,3.85-18.12,10.71-24.61,3.05.31,4.74,1.88,7.58,4.76,5.36,5.46,10.74,5.92,14.32,4.1,5.38-2.73.86-7.16,7.16-9.57,3.87-1.47,4.6-5.34,2.77-8.58,16.57,3.03,29.1,17.05,29.1,33.9Z"/><path class="cls-14" d="M266.97,344.33c-2.87,16.29-17.59,28.68-35.29,28.68-3.46-2.46-2.9-5.34-1.18-8.21q2.66-4.4,2.66-10.29c0-5.87,3.63-8.63,16.42-6.17,5.75,1.11,9.93-6.55,17.39-4.02Z"/><path class="cls-14" d="M235.63,313.16c-6.3,2.41-1.79,6.84-7.16,9.57-3.58,1.83-8.95,1.37-14.32-4.1-2.83-2.88-4.53-4.45-7.58-4.76,6.69-6.36,15.71-9.92,25.11-9.9,2.25,0,4.5.2,6.71.61,1.83,3.24,1.1,7.11-2.77,8.58Z"/><text class="cls-28" transform="translate(164.07 410.99) scale(1.04 1)"><tspan x="0" y="0">JORD</tspan><tspan class="cls-45" x="44.54" y="0">E</tspan><tspan x="55.74" y="0">N </tspan><tspan class="cls-49" x="73.56" y="0">B</tspan><tspan x="85.67" y="0">IL</tspan><tspan class="cls-40" x="101.04" y="0">D</tspan><tspan class="cls-37" x="112.93" y="0">A</tspan><tspan x="125.35" y="0">S</tspan></text><line class="cls-1" x1="428.05" y1="655.1" x2="428.05" y2="653.1"/><line class="cls-22" x1="428.05" y1="649.06" x2="428.05" y2="351.99"/><line class="cls-1" x1="428.05" y1="349.97" x2="428.05" y2="347.97"/><line class="cls-1" x1="389.92" y1="662.49" x2="391.92" y2="662.49"/><line class="cls-6" x1="395.72" y1="662.49" x2="462.28" y2="662.49"/><line class="cls-1" x1="464.18" y1="662.49" x2="466.18" y2="662.49"/><line class="cls-1" x1="226.97" y1="660.87" x2="226.97" y2="658.87"/><line class="cls-13" x1="226.97" y1="654.8" x2="226.97" y2="485.65"/><line class="cls-1" x1="226.97" y1="483.61" x2="226.97" y2="481.61"/><line class="cls-1" x1="188.83" y1="668.26" x2="190.83" y2="668.26"/><line class="cls-6" x1="194.64" y1="668.26" x2="261.2" y2="668.26"/><line class="cls-1" x1="263.1" y1="668.26" x2="265.1" y2="668.26"/><line class="cls-1" x1="709.25" y1="648.04" x2="709.25" y2="646.04"/><line class="cls-22" x1="709.25" y1="641.99" x2="709.25" y2="344.93"/><line class="cls-1" x1="709.25" y1="342.91" x2="709.25" y2="340.91"/><line class="cls-1" x1="671.12" y1="655.43" x2="673.12" y2="655.43"/><line class="cls-6" x1="676.92" y1="655.43" x2="743.48" y2="655.43"/><line class="cls-1" x1="745.38" y1="655.43" x2="747.38" y2="655.43"/><line class="cls-1" x1="923.47" y1="646.14" x2="923.47" y2="644.14"/><line class="cls-16" x1="923.47" y1="640.16" x2="923.47" y2="355.3"/><line class="cls-1" x1="923.47" y1="353.31" x2="923.47" y2="351.31"/><line class="cls-1" x1="885.33" y1="653.53" x2="887.33" y2="653.53"/><line class="cls-6" x1="891.14" y1="653.53" x2="957.7" y2="653.53"/><line class="cls-1" x1="959.6" y1="653.53" x2="961.6" y2="653.53"/><path class="cls-29" d="M367.93,700.95c-1.12,0-2.09-.2-2.9-.58-.81-.38-1.44-.92-1.9-1.62-.45-.7-.69-1.54-.71-2.5h2.45c.15.89.5,1.55,1.06,1.98.56.43,1.24.65,2.05.65.67,0,1.25-.1,1.73-.3s.87-.48,1.13-.84c.27-.36.4-.77.4-1.25,0-.5-.14-.93-.43-1.29-.29-.36-.68-.63-1.17-.83-.5-.19-1.05-.3-1.67-.31l-1.38-.04v-2.04l1.28-.05c.59-.02,1.11-.13,1.56-.34.45-.21.8-.48,1.06-.82.25-.34.38-.72.38-1.14,0-.39-.12-.73-.36-1.04-.24-.31-.57-.55-1.01-.73s-.95-.26-1.54-.26c-.5,0-.97.09-1.42.27-.44.18-.8.47-1.09.86-.29.4-.44.91-.47,1.55h-2.44c0-1.02.24-1.88.73-2.58.49-.7,1.14-1.22,1.97-1.58.82-.35,1.74-.53,2.74-.53,1.08,0,2.04.15,2.88.44.84.29,1.49.73,1.97,1.32.48.58.72,1.31.72,2.18,0,.74-.22,1.39-.67,1.97s-1.15,1.03-2.12,1.36c.6.17,1.14.41,1.61.74s.85.74,1.13,1.22c.28.49.42,1.06.42,1.72,0,.71-.15,1.34-.46,1.89s-.73,1.01-1.28,1.39-1.19.66-1.92.85-1.51.28-2.35.28Z"/><path class="cls-29" d="M381.51,700.72v-14.93h3.59l3.91,11.41,3.96-11.41h3.57v14.93h-2.55v-11.71l-3.93,11.71h-2.1l-3.9-11.64v11.64h-2.55Z"/><path class="cls-29" d="M400.16,700.72v-14.93h2.51v14.93h-2.51Z"/><path class="cls-29" d="M406.28,700.72v-14.93h2.55v12.76h6.74v2.17h-9.29Z"/><path class="cls-29" d="M420.24,700.92c-.5,0-.99-.05-1.47-.15s-.83-.18-1.04-.24l.1-2.33c.21.06.44.14.71.22s.58.13.94.13c.69,0,1.15-.19,1.4-.56.24-.37.37-.98.37-1.83v-10.38h2.52v11.06c0,.89-.1,1.63-.29,2.24s-.55,1.06-1.06,1.37c-.51.31-1.24.47-2.18.47Z"/><path class="cls-29" d="M425.11,700.72l5.37-14.93h2.73l5.36,14.93h-2.52l-1.33-3.74h-5.72l-1.34,3.74h-2.54ZM429.59,694.74h4.49l-2.24-6.52-2.25,6.52Z"/><path class="cls-29" d="M441.08,700.72v-14.93h6.06c1.14,0,2.08.18,2.82.53s1.29.85,1.65,1.5c.36.64.54,1.4.54,2.26,0,.8-.13,1.47-.39,2.01-.26.54-.6.98-1.02,1.32-.42.34-.86.62-1.34.83l2.85,6.49h-2.62l-2.57-6.06h-3.47v6.06h-2.51ZM443.59,692.66h2.98c.95,0,1.69-.22,2.23-.66.53-.44.8-1.05.8-1.84s-.25-1.36-.74-1.78c-.5-.42-1.15-.62-1.96-.62h-3.3v4.91Z"/><path class="cls-29" d="M455.27,700.72v-14.93h1.63c.42,0,.84,0,1.27,0,.43,0,.8,0,1.12.02,1.82.03,3.3.35,4.44.93,1.14.59,1.98,1.42,2.51,2.51.53,1.08.8,2.39.8,3.92s-.28,2.96-.85,4.08c-.57,1.12-1.44,1.98-2.6,2.58-1.17.6-2.65.89-4.45.89h-3.86ZM457.82,698.64h1.35c1.03,0,1.93-.18,2.72-.53.79-.35,1.4-.93,1.84-1.73.44-.8.67-1.87.67-3.2s-.21-2.33-.62-3.11-1.01-1.34-1.78-1.69c-.77-.35-1.69-.52-2.77-.52h-1.41v10.78Z"/><path class="cls-29" d="M469.89,700.72v-14.93h9.87v2.16h-7.34v4.18h6.47v2.13h-6.5v4.28h7.51v2.19h-10.02Z"/><path class="cls-29" d="M482.96,700.72v-14.93h6.06c1.14,0,2.08.18,2.83.53.74.35,1.29.85,1.65,1.5.36.64.54,1.4.54,2.26,0,.8-.13,1.47-.39,2.01s-.6.98-1.02,1.32c-.42.34-.86.62-1.34.83l2.85,6.49h-2.62l-2.57-6.06h-3.47v6.06h-2.51ZM485.47,692.66h2.99c.95,0,1.69-.22,2.23-.66.53-.44.8-1.05.8-1.84s-.25-1.36-.74-1.78c-.5-.42-1.15-.62-1.96-.62h-3.3v4.91Z"/><path class="cls-29" d="M377.08,730.22l5.41-14.93h2.16l5.4,14.93h-1.95l-1.47-4.08h-6.12l-1.48,4.08h-1.95ZM381.02,724.38h5.09l-2.54-7.22-2.55,7.22ZM383.58,714.05c-.59,0-1.09-.21-1.51-.62-.41-.42-.62-.93-.62-1.54,0-.56.21-1.05.63-1.45.42-.4.92-.6,1.5-.6.4,0,.76.09,1.08.28.32.19.58.44.77.76.19.32.28.67.28,1.05,0,.6-.21,1.1-.62,1.51-.41.41-.92.61-1.52.61ZM383.56,713.06c.31,0,.57-.11.78-.34s.31-.49.31-.79c0-.32-.1-.59-.31-.79-.21-.2-.47-.3-.78-.3s-.56.1-.78.3c-.22.2-.34.47-.34.79,0,.3.11.56.34.79.22.23.48.34.78.34Z"/><path class="cls-29" d="M392.87,730.22v-14.93h5.78c1.07,0,1.97.16,2.7.49.72.33,1.26.79,1.62,1.4.36.61.54,1.34.54,2.18s-.14,1.49-.43,2.02c-.29.54-.65.97-1.09,1.3-.44.33-.9.58-1.37.76l2.93,6.77h-2.02l-2.73-6.43h-4.02v6.43h-1.91ZM394.78,722.21h3.25c1.12,0,1.99-.23,2.6-.69.61-.46.92-1.14.92-2.04s-.27-1.54-.82-1.97-1.3-.65-2.25-.65h-3.71v5.35Z"/><path class="cls-29" d="M416.93,730.43c-.73,0-1.42-.09-2.08-.26s-1.25-.44-1.78-.79c-.53-.35-.97-.79-1.32-1.31s-.57-1.12-.66-1.81h2c.12.56.37,1.04.74,1.43.37.38.83.67,1.37.87s1.15.29,1.8.29,1.22-.1,1.75-.3c.53-.2.96-.49,1.29-.87.32-.38.49-.84.49-1.38,0-.59-.19-1.07-.58-1.43-.39-.36-.98-.65-1.79-.87l-3.08-.8c-.7-.17-1.31-.41-1.84-.73s-.95-.73-1.25-1.24c-.3-.51-.45-1.15-.45-1.92,0-.84.23-1.58.7-2.21s1.1-1.12,1.91-1.47c.8-.35,1.71-.52,2.72-.52,1.17,0,2.16.2,2.96.61.8.41,1.41.94,1.82,1.6s.62,1.37.62,2.12h-1.96c-.07-.68-.27-1.22-.6-1.62s-.75-.68-1.25-.86c-.5-.18-1.05-.26-1.64-.26-1.07,0-1.87.24-2.42.73s-.82,1.06-.82,1.73c0,.61.2,1.09.59,1.45s.97.62,1.73.82l3,.78c.89.21,1.6.51,2.12.9.53.39.91.85,1.14,1.37.23.52.35,1.08.35,1.69,0,.83-.23,1.56-.69,2.21s-1.11,1.16-1.94,1.52-1.81.55-2.93.55Z"/><path class="cls-29" d="M425.63,730.22v-14.93h9.42v1.68h-7.5v4.88h6.74v1.67h-6.75v4.98l7.7.02v1.7h-9.61Z"/><path class="cls-29" d="M438.58,730.22v-14.93s.19,0,.44,0c.24,0,.54,0,.89,0,.35,0,.72,0,1.09,0,.38,0,.73,0,1.04.02,1.83.03,3.32.33,4.46.89,1.14.57,1.98,1.39,2.51,2.47s.8,2.41.8,3.99-.29,3.04-.86,4.16-1.45,1.97-2.62,2.54c-1.17.57-2.67.86-4.48.86h-3.27ZM440.54,728.58h1.31c1.23,0,2.29-.19,3.18-.57.89-.38,1.57-1,2.05-1.86s.72-2.01.72-3.45-.23-2.58-.7-3.42c-.46-.84-1.13-1.44-2.01-1.8-.87-.36-1.93-.54-3.16-.54h-1.39v11.65Z"/><path class="cls-29" d="M451.19,730.22l5.41-14.93h2.16l5.4,14.93h-1.95l-1.47-4.08h-6.12l-1.48,4.08h-1.95ZM455.13,724.38h5.09l-2.54-7.22-2.55,7.22Z"/><path class="cls-29" d="M466.98,730.22v-14.93h1.83l7.89,11.61v-11.61h1.91v14.93h-1.7l-8.01-11.77v11.77h-1.91Z"/><path class="cls-29" d="M490.37,50.4v-14.93h5.3c1.07,0,2.04.18,2.89.55.85.37,1.52.91,2.01,1.63.49.72.73,1.6.73,2.64,0,.99-.22,1.84-.67,2.54-.44.7-1.06,1.23-1.85,1.61-.79.37-1.72.56-2.78.56h-3.08v5.41h-2.55ZM492.9,42.97h3.04c.87,0,1.59-.26,2.14-.78.55-.52.83-1.21.83-2.04s-.29-1.52-.87-1.99c-.58-.47-1.3-.71-2.18-.71h-2.96v5.52Z"/><path class="cls-29" d="M503.69,50.4v-14.93h6.06c1.14,0,2.08.18,2.83.53.74.35,1.29.85,1.65,1.5.36.64.54,1.4.54,2.26,0,.8-.13,1.47-.39,2.01s-.6.98-1.02,1.32c-.42.34-.86.62-1.34.83l2.85,6.49h-2.62l-2.57-6.06h-3.47v6.06h-2.51ZM506.2,42.34h2.99c.95,0,1.69-.22,2.23-.66.53-.44.8-1.05.8-1.84s-.25-1.36-.74-1.78c-.5-.42-1.15-.62-1.96-.62h-3.3v4.91Z"/><path class="cls-29" d="M523.56,50.6c-1.38,0-2.57-.3-3.57-.91s-1.78-1.48-2.32-2.62c-.55-1.14-.82-2.51-.82-4.11s.28-2.99.83-4.14,1.33-2.03,2.34-2.64,2.19-.92,3.55-.92,2.53.31,3.53.92,1.76,1.49,2.31,2.64.82,2.53.82,4.14-.27,2.97-.81,4.1c-.54,1.14-1.3,2.01-2.3,2.62s-2.18.91-3.54.91ZM523.56,48.5c.81,0,1.51-.19,2.1-.57.58-.38,1.03-.98,1.35-1.79.31-.81.47-1.86.47-3.15s-.16-2.38-.48-3.21c-.32-.83-.77-1.44-1.35-1.83s-1.28-.59-2.09-.59-1.51.2-2.1.59c-.59.4-1.04,1.01-1.37,1.84-.32.83-.49,1.9-.49,3.2s.16,2.34.49,3.15c.32.81.78,1.4,1.37,1.79.59.38,1.29.57,2.1.57Z"/><path class="cls-29" d="M533.07,50.4v-14.93h2.61v7.24l6.01-7.24h2.92l-4.74,5.82,5.24,9.11h-2.78l-4.27-7.28-2.39,2.8v4.48h-2.61Z"/><path class="cls-29" d="M546.75,50.4l5.37-14.93h2.73l5.36,14.93h-2.52l-1.33-3.74h-5.72l-1.34,3.74h-2.54ZM551.24,44.42h4.49l-2.24-6.52-2.25,6.52Z"/><path class="cls-29" d="M562.72,50.4v-14.93h6.06c1.14,0,2.08.18,2.83.53.74.35,1.29.85,1.65,1.5.36.64.54,1.4.54,2.26,0,.8-.13,1.47-.39,2.01s-.6.98-1.02,1.32c-.42.34-.86.62-1.34.83l2.85,6.49h-2.62l-2.57-6.06h-3.47v6.06h-2.51ZM565.23,42.34h2.99c.95,0,1.69-.22,2.23-.66.53-.44.8-1.05.8-1.84s-.25-1.36-.74-1.78c-.5-.42-1.15-.62-1.96-.62h-3.3v4.91Z"/><path class="cls-29" d="M580.01,50.4v-6.32l-5.14-8.61h2.73l3.69,6.42,3.62-6.42h2.75l-5.13,8.62v6.31h-2.51Z"/><path class="cls-29" d="M594.87,50.6c-1.38,0-2.57-.3-3.57-.91s-1.78-1.48-2.32-2.62c-.55-1.14-.82-2.51-.82-4.11s.28-2.99.83-4.14,1.33-2.03,2.34-2.64,2.19-.92,3.55-.92,2.53.31,3.53.92,1.76,1.49,2.31,2.64.82,2.53.82,4.14-.27,2.97-.81,4.1c-.54,1.14-1.3,2.01-2.3,2.62s-2.18.91-3.54.91ZM594.87,48.5c.81,0,1.51-.19,2.1-.57.58-.38,1.03-.98,1.35-1.79.31-.81.47-1.86.47-3.15s-.16-2.38-.48-3.21c-.32-.83-.77-1.44-1.35-1.83s-1.28-.59-2.09-.59-1.51.2-2.1.59c-.59.4-1.04,1.01-1.37,1.84-.32.83-.49,1.9-.49,3.2s.16,2.34.49,3.15c.32.81.78,1.4,1.37,1.79.59.38,1.29.57,2.1.57Z"/><path class="cls-29" d="M607.8,50.4v-12.67h-4.65v-2.26h11.65v2.26h-4.48v12.67h-2.52Z"/><path class="cls-29" d="M617.04,50.4v-14.93h9.87v2.16h-7.34v4.18h6.47v2.13h-6.5v4.28h7.51v2.19h-10.02Z"/><path class="cls-29" d="M630.12,50.4v-14.93h6.06c1.14,0,2.08.18,2.83.53.74.35,1.29.85,1.65,1.5.36.64.54,1.4.54,2.26,0,.8-.13,1.47-.39,2.01s-.6.98-1.02,1.32c-.42.34-.86.62-1.34.83l2.85,6.49h-2.62l-2.57-6.06h-3.47v6.06h-2.51ZM632.62,42.34h2.99c.95,0,1.69-.22,2.23-.66.53-.44.8-1.05.8-1.84s-.25-1.36-.74-1.78c-.5-.42-1.15-.62-1.96-.62h-3.3v4.91Z"/><path class="cls-29" d="M480.74,80.11c-1.29,0-2.34-.21-3.15-.64-.8-.43-1.39-1.05-1.75-1.88-.37-.83-.55-1.84-.55-3.05v-9.57h1.98v9.86c0,1.21.3,2.11.9,2.71.6.6,1.46.9,2.57.9.75,0,1.39-.13,1.92-.39.53-.26.93-.66,1.21-1.19.28-.53.42-1.21.42-2.02v-9.86h1.92v9.77c0,1.15-.19,2.12-.57,2.92-.38.8-.97,1.41-1.77,1.82-.8.42-1.84.62-3.12.62Z"/><path class="cls-29" d="M493.08,79.9v-13.18h-4.82v-1.76h11.3v1.76h-4.55v13.18h-1.92Z"/><path class="cls-29" d="M499.06,79.9l5.41-14.93h2.16l5.4,14.93h-1.95l-1.47-4.08h-6.12l-1.48,4.08h-1.95ZM503,74.06h5.09l-2.54-7.22-2.55,7.22Z"/><path class="cls-29" d="M514.85,79.9v-14.93h1.83l7.89,11.61v-11.61h1.91v14.93h-1.7l-8.01-11.77v11.77h-1.91Z"/><path class="cls-29" d="M540.94,80.11c-1.34,0-2.49-.31-3.43-.92-.95-.61-1.67-1.49-2.17-2.64-.5-1.15-.75-2.54-.75-4.16s.25-3,.74-4.13c.5-1.14,1.22-2,2.16-2.6.95-.6,2.09-.89,3.44-.89,1.05,0,1.99.22,2.8.66.81.44,1.47,1.02,1.96,1.75.5.73.79,1.53.88,2.41h-2.03c-.11-.59-.32-1.12-.63-1.59-.31-.48-.72-.85-1.22-1.14-.5-.28-1.11-.42-1.81-.42-.9,0-1.66.21-2.29.64-.62.42-1.09,1.08-1.42,1.96s-.48,2.01-.48,3.39c0,2.08.36,3.61,1.07,4.58.71.97,1.75,1.46,3.11,1.46.7,0,1.3-.15,1.81-.44.5-.3.91-.69,1.22-1.19.31-.5.52-1.03.63-1.61h2.03c-.08.63-.25,1.24-.51,1.83-.26.59-.63,1.11-1.09,1.57-.46.46-1.03.83-1.7,1.09s-1.45.4-2.34.4Z"/><path class="cls-29" d="M549.67,79.9v-14.93h9.42v1.68h-7.5v4.87h6.74v1.67h-6.75v4.98l7.7.02v1.7h-9.61Z"/><path class="cls-29" d="M562.62,79.9v-14.93h1.96v13.22h7.05v1.71h-9.02Z"/><path class="cls-29" d="M574.54,79.9v-14.93h1.96v13.22h7.05v1.71h-9.02Z"/><path class="cls-29" d="M586.47,79.9v-14.93h1.98v7.72l6.69-7.72h2.28l-4.99,5.87,5.42,9.07h-2.16l-4.66-7.67-2.59,2.96v4.71h-1.98Z"/><path class="cls-29" d="M599.71,79.9l5.41-14.93h2.16l5.4,14.93h-1.95l-1.47-4.08h-6.12l-1.48,4.08h-1.95ZM603.25,62.56v-1.85h1.88v1.85h-1.88ZM603.64,74.06h5.09l-2.54-7.22-2.55,7.22ZM607.27,62.56v-1.85h1.88v1.85h-1.88Z"/><path class="cls-29" d="M615.5,79.9v-14.93h5.78c1.07,0,1.97.16,2.7.49.72.33,1.26.8,1.62,1.4.36.61.54,1.34.54,2.18s-.14,1.49-.43,2.02c-.29.54-.65.97-1.09,1.3-.44.33-.9.58-1.37.76l2.93,6.77h-2.02l-2.73-6.43h-4.02v6.43h-1.91ZM617.41,71.89h3.25c1.12,0,1.99-.23,2.6-.69.61-.46.92-1.14.92-2.04s-.27-1.54-.82-1.97c-.55-.43-1.3-.65-2.25-.65h-3.71v5.35Z"/><path class="cls-29" d="M629.47,79.9v-14.93h1.83l7.89,11.61v-11.61h1.91v14.93h-1.7l-8.01-11.77v11.77h-1.91Z"/><path class="cls-29" d="M643.92,79.9l5.41-14.93h2.16l5.4,14.93h-1.95l-1.47-4.08h-6.12l-1.48,4.08h-1.95ZM647.85,74.06h5.09l-2.54-7.22-2.55,7.22Z"/><path class="cls-29" d="M901.46,50.4v-14.93h9.87v2.16h-7.34v4.18h6.47v2.13h-6.5v4.28h7.51v2.19h-10.02Z"/><path class="cls-29" d="M920.17,50.6c-1.38,0-2.49-.23-3.33-.69-.84-.46-1.45-1.12-1.83-1.98-.38-.86-.57-1.91-.57-3.13v-9.34h2.57v9.59c0,1.16.28,2.01.85,2.56.57.55,1.34.83,2.31.83.65,0,1.22-.12,1.7-.36s.85-.61,1.12-1.11.39-1.14.39-1.92v-9.59h2.54v9.48c0,1.18-.19,2.2-.58,3.04-.39.84-1,1.49-1.84,1.94-.84.45-1.95.68-3.33.68Z"/><path class="cls-29" d="M929.17,50.4v-14.93h2.61v7.24l6.01-7.24h2.92l-4.74,5.82,5.24,9.11h-2.78l-4.27-7.28-2.39,2.8v4.48h-2.61Z"/><path class="cls-29" d="M942.86,50.4l5.37-14.93h2.73l5.36,14.93h-2.52l-1.33-3.74h-5.72l-1.34,3.74h-2.54ZM947.34,44.42h4.49l-2.24-6.52-2.25,6.52Z"/><path class="cls-29" d="M958.82,50.4v-14.93h6.06c1.14,0,2.08.18,2.83.53.74.35,1.29.85,1.65,1.5.36.64.54,1.4.54,2.26,0,.8-.13,1.47-.39,2.01s-.6.98-1.02,1.32c-.42.34-.86.62-1.34.83l2.85,6.49h-2.62l-2.57-6.06h-3.47v6.06h-2.51ZM961.33,42.34h2.99c.95,0,1.69-.22,2.23-.66.53-.44.8-1.05.8-1.84s-.25-1.36-.74-1.78c-.5-.42-1.15-.62-1.96-.62h-3.3v4.91Z"/><path class="cls-29" d="M976.11,50.4v-6.32l-5.14-8.61h2.73l3.69,6.42,3.62-6.42h2.75l-5.13,8.62v6.31h-2.51Z"/><path class="cls-29" d="M990.97,50.6c-1.38,0-2.57-.3-3.57-.91s-1.78-1.48-2.32-2.62c-.55-1.14-.82-2.51-.82-4.11s.28-2.99.83-4.14,1.33-2.03,2.34-2.64,2.19-.92,3.55-.92,2.53.31,3.53.92,1.76,1.49,2.31,2.64.82,2.53.82,4.14-.27,2.97-.81,4.1c-.54,1.14-1.3,2.01-2.3,2.62s-2.18.91-3.54.91ZM990.97,48.5c.81,0,1.51-.19,2.1-.57.58-.38,1.03-.98,1.35-1.79.31-.81.47-1.86.47-3.15s-.16-2.38-.48-3.21c-.32-.83-.77-1.44-1.35-1.83s-1.28-.59-2.09-.59-1.51.2-2.1.59c-.59.4-1.04,1.01-1.37,1.84-.32.83-.49,1.9-.49,3.2s.16,2.34.49,3.15c.32.81.78,1.4,1.37,1.79.59.38,1.29.57,2.1.57Z"/><path class="cls-29" d="M1003.9,50.4v-12.67h-4.65v-2.26h11.65v2.26h-4.48v12.67h-2.52Z"/><path class="cls-29" d="M1013.14,50.4v-14.93h9.87v2.16h-7.34v4.18h6.47v2.13h-6.5v4.28h7.51v2.19h-10.02Z"/><path class="cls-29" d="M1026.22,50.4v-14.93h6.06c1.14,0,2.08.18,2.83.53.74.35,1.29.85,1.65,1.5.36.64.54,1.4.54,2.26,0,.8-.13,1.47-.39,2.01s-.6.98-1.02,1.32c-.42.34-.86.62-1.34.83l2.85,6.49h-2.62l-2.57-6.06h-3.47v6.06h-2.51ZM1028.73,42.34h2.99c.95,0,1.69-.22,2.23-.66.53-.44.8-1.05.8-1.84s-.25-1.36-.74-1.78c-.5-.42-1.15-.62-1.96-.62h-3.3v4.91Z"/><path class="cls-29" d="M883.67,79.9v-14.93h2.64l4.5,12.33,4.56-12.33h2.63v14.93h-1.97v-12.07l-4.33,12.07h-1.79l-4.3-11.96v11.96h-1.96Z"/><path class="cls-29" d="M901.96,79.9v-14.93h9.42v1.68h-7.5v4.87h6.74v1.67h-6.75v4.98l7.7.02v1.7h-9.61Z"/><path class="cls-29" d="M914.91,79.9v-14.93s.19,0,.44,0c.24,0,.54,0,.89,0,.35,0,.72,0,1.09,0,.38,0,.73,0,1.04.02,1.83.03,3.32.33,4.46.89,1.14.57,1.98,1.39,2.51,2.47s.8,2.41.8,3.99-.29,3.04-.86,4.16c-.58,1.12-1.45,1.97-2.62,2.54-1.17.57-2.67.86-4.48.86h-3.27ZM916.88,78.26h1.31c1.23,0,2.29-.19,3.18-.57.89-.38,1.57-1,2.05-1.86.48-.86.72-2.01.72-3.45s-.23-2.58-.7-3.42-1.13-1.44-2.01-1.8c-.88-.36-1.93-.54-3.16-.54h-1.39v11.65Z"/><path class="cls-29" d="M939.75,80.11c-1.34,0-2.49-.31-3.43-.92-.95-.61-1.67-1.49-2.17-2.64-.5-1.15-.75-2.54-.75-4.16s.25-3,.74-4.13c.5-1.14,1.22-2,2.16-2.6.95-.6,2.09-.89,3.44-.89,1.05,0,1.99.22,2.8.66.81.44,1.47,1.02,1.96,1.75.5.73.79,1.53.88,2.41h-2.03c-.11-.59-.32-1.12-.63-1.59-.31-.48-.72-.85-1.22-1.14-.5-.28-1.11-.42-1.81-.42-.9,0-1.66.21-2.29.64-.62.42-1.09,1.08-1.42,1.96s-.48,2.01-.48,3.39c0,2.08.36,3.61,1.07,4.58.71.97,1.75,1.46,3.11,1.46.7,0,1.3-.15,1.81-.44.5-.3.91-.69,1.22-1.19.31-.5.52-1.03.63-1.61h2.03c-.08.63-.25,1.24-.51,1.83-.26.59-.63,1.11-1.09,1.57-.46.46-1.03.83-1.7,1.09s-1.45.4-2.34.4Z"/><path class="cls-29" d="M948.48,79.9v-14.93h9.42v1.68h-7.5v4.87h6.74v1.67h-6.75v4.98l7.7.02v1.7h-9.61Z"/><path class="cls-29" d="M961.43,79.9v-14.93h1.96v13.22h7.05v1.71h-9.02Z"/><path class="cls-29" d="M973.36,79.9v-14.93h1.96v13.22h7.05v1.71h-9.02Z"/><path class="cls-29" d="M985.28,79.9v-14.93h1.98v7.72l6.69-7.72h2.28l-4.99,5.87,5.42,9.07h-2.16l-4.66-7.67-2.59,2.96v4.71h-1.98Z"/><path class="cls-29" d="M998.52,79.9l5.41-14.93h2.16l5.4,14.93h-1.95l-1.47-4.08h-6.12l-1.48,4.08h-1.95ZM1002.06,62.56v-1.85h1.88v1.85h-1.88ZM1002.46,74.06h5.09l-2.54-7.22-2.55,7.22ZM1006.08,62.56v-1.85h1.88v1.85h-1.88Z"/><path class="cls-29" d="M1014.31,79.9v-14.93h5.78c1.07,0,1.97.16,2.7.49.72.33,1.26.8,1.62,1.4.36.61.54,1.34.54,2.18s-.14,1.49-.43,2.02c-.29.54-.65.97-1.09,1.3-.44.33-.9.58-1.37.76l2.93,6.77h-2.02l-2.73-6.43h-4.02v6.43h-1.91ZM1016.22,71.89h3.25c1.12,0,1.99-.23,2.6-.69.61-.46.92-1.14.92-2.04s-.27-1.54-.82-1.97c-.55-.43-1.3-.65-2.25-.65h-3.71v5.35Z"/><path class="cls-29" d="M1028.29,79.9v-14.93h1.83l7.89,11.61v-11.61h1.91v14.93h-1.7l-8.01-11.77v11.77h-1.91Z"/><path class="cls-29" d="M1042.73,79.9l5.41-14.93h2.16l5.4,14.93h-1.95l-1.47-4.08h-6.12l-1.48,4.08h-1.95ZM1046.67,74.06h5.09l-2.54-7.22-2.55,7.22Z"/><path class="cls-29" d="M158.73,703.45v-3.54s-6.94,0-6.94,0v-2.14l6.88-9.25h2.5v9.25h2.39v2.14h-2.39v3.54h-2.44ZM154.15,697.77h4.57v-6.13l-4.57,6.13Z"/><path class="cls-29" d="M165.24,703.45v-2.89h2.84v2.89h-2.84Z"/><path class="cls-29" d="M176.19,703.68c-1.22,0-2.27-.3-3.16-.91-.89-.61-1.57-1.46-2.05-2.58-.48-1.11-.72-2.43-.72-3.94,0-1.62.24-3.03.71-4.22s1.17-2.1,2.07-2.75,2-.97,3.29-.97c.88,0,1.7.16,2.45.49.75.33,1.37.8,1.85,1.41.48.61.76,1.35.85,2.22h-2.32c-.19-.67-.52-1.18-.99-1.55-.47-.37-1.06-.55-1.78-.55-.79,0-1.45.22-1.98.67s-.91,1.09-1.14,1.93c-.23.84-.3,1.84-.22,3,.21-.41.5-.76.87-1.06.36-.3.78-.53,1.25-.7.47-.17.96-.25,1.49-.25,1,0,1.87.19,2.62.57.75.38,1.34.92,1.76,1.61s.63,1.52.63,2.47-.23,1.86-.68,2.63c-.45.77-1.09,1.37-1.91,1.81s-1.78.66-2.87.66ZM176.13,701.71c.54,0,1.02-.13,1.45-.38.43-.25.77-.61,1.02-1.06.25-.45.38-.98.38-1.57s-.12-1.12-.35-1.54c-.23-.42-.57-.74-1-.96-.43-.22-.94-.33-1.51-.33-.48,0-.93.11-1.38.33-.44.22-.81.5-1.08.85-.28.35-.42.73-.42,1.13,0,.71.11,1.33.35,1.86s.58.94,1.02,1.23c.44.29.94.44,1.52.44Z"/><path class="cls-29" d="M189.23,703.45v-14.93h3.59l3.91,11.41,3.96-11.41h3.57v14.93h-2.55v-11.71l-3.93,11.71h-2.1l-3.9-11.64v11.64h-2.55Z"/><path class="cls-29" d="M207.88,703.45v-14.93h2.51v14.93h-2.51Z"/><path class="cls-29" d="M214,703.45v-14.93h2.55v12.76h6.74v2.17h-9.29Z"/><path class="cls-29" d="M227.95,703.66c-.5,0-.99-.05-1.47-.15s-.83-.18-1.04-.24l.1-2.33c.21.06.44.14.71.22s.58.13.94.13c.69,0,1.15-.19,1.4-.56.24-.37.37-.98.37-1.83v-10.38h2.52v11.06c0,.89-.1,1.63-.29,2.24s-.55,1.06-1.06,1.37c-.51.31-1.24.47-2.18.47Z"/><path class="cls-29" d="M232.83,703.45l5.37-14.93h2.73l5.36,14.93h-2.52l-1.33-3.74h-5.72l-1.34,3.74h-2.54ZM237.31,697.47h4.49l-2.24-6.52-2.25,6.52Z"/><path class="cls-29" d="M248.79,703.45v-14.93h6.06c1.14,0,2.08.18,2.82.53s1.29.85,1.65,1.5c.36.64.54,1.4.54,2.26,0,.8-.13,1.47-.39,2.01-.26.54-.6.98-1.02,1.32-.42.34-.86.62-1.34.83l2.85,6.49h-2.62l-2.57-6.06h-3.47v6.06h-2.51ZM251.3,695.4h2.98c.95,0,1.69-.22,2.23-.66.53-.44.8-1.05.8-1.84s-.25-1.36-.74-1.78c-.5-.42-1.15-.62-1.96-.62h-3.3v4.91Z"/><path class="cls-29" d="M262.98,703.45v-14.93h1.63c.42,0,.84,0,1.27,0,.43,0,.8,0,1.12.02,1.82.03,3.3.35,4.44.93,1.14.59,1.98,1.42,2.51,2.51.53,1.08.8,2.39.8,3.92s-.28,2.96-.85,4.08c-.57,1.12-1.44,1.98-2.6,2.58-1.17.6-2.65.89-4.45.89h-3.86ZM265.53,701.38h1.35c1.03,0,1.93-.18,2.72-.53.78-.35,1.4-.93,1.84-1.73.44-.8.67-1.87.67-3.2s-.21-2.33-.62-3.11-1.01-1.34-1.78-1.69-1.69-.52-2.77-.52h-1.42v10.78Z"/><path class="cls-29" d="M277.61,703.45v-14.93h9.87v2.16h-7.34v4.18h6.48v2.13h-6.5v4.28h7.51v2.19h-10.02Z"/><path class="cls-29" d="M290.68,703.45v-14.93h6.06c1.14,0,2.08.18,2.82.53s1.29.85,1.65,1.5c.36.64.54,1.4.54,2.26,0,.8-.13,1.47-.39,2.01-.26.54-.6.98-1.02,1.32-.42.34-.86.62-1.34.83l2.85,6.49h-2.62l-2.57-6.06h-3.47v6.06h-2.51ZM293.19,695.4h2.98c.95,0,1.69-.22,2.23-.66.53-.44.8-1.05.8-1.84s-.25-1.36-.74-1.78c-.5-.42-1.15-.62-1.96-.62h-3.3v4.91Z"/><path class="cls-29" d="M175.64,732.96l5.41-14.93h2.16l5.4,14.93h-1.95l-1.47-4.08h-6.12l-1.48,4.08h-1.95ZM179.58,727.11h5.09l-2.54-7.22-2.55,7.22ZM182.14,716.79c-.59,0-1.09-.21-1.51-.62-.41-.42-.62-.93-.62-1.54,0-.56.21-1.05.63-1.45.42-.4.92-.6,1.5-.6.4,0,.76.09,1.08.28.32.19.58.44.77.76.19.32.28.67.28,1.05,0,.6-.21,1.1-.62,1.51-.41.41-.92.61-1.52.61ZM182.12,715.79c.31,0,.57-.11.78-.34s.31-.49.31-.79c0-.32-.1-.59-.31-.79-.21-.2-.47-.3-.78-.3s-.56.1-.78.3c-.22.2-.34.47-.34.79,0,.3.11.56.34.79.22.23.48.34.78.34Z"/><path class="cls-29" d="M191.43,732.96v-14.93h5.78c1.07,0,1.97.16,2.7.49.72.33,1.26.79,1.62,1.4.36.61.54,1.34.54,2.18s-.14,1.49-.43,2.02c-.29.54-.65.97-1.09,1.3-.44.33-.9.58-1.37.76l2.93,6.77h-2.02l-2.73-6.43h-4.02v6.43h-1.91ZM193.34,724.94h3.25c1.12,0,1.99-.23,2.6-.69.61-.46.92-1.14.92-2.04s-.27-1.54-.82-1.97-1.3-.65-2.25-.65h-3.71v5.35Z"/><path class="cls-29" d="M215.48,733.17c-.73,0-1.42-.09-2.08-.26s-1.25-.44-1.78-.79c-.53-.35-.97-.79-1.32-1.31s-.57-1.12-.66-1.81h2c.12.56.37,1.04.74,1.43.37.38.83.67,1.37.87s1.15.29,1.8.29,1.22-.1,1.75-.3c.53-.2.96-.49,1.29-.87.32-.38.49-.84.49-1.38,0-.59-.19-1.07-.58-1.43-.39-.36-.98-.65-1.79-.87l-3.08-.8c-.7-.17-1.31-.41-1.84-.73s-.95-.73-1.25-1.24c-.3-.51-.45-1.15-.45-1.92,0-.84.23-1.58.7-2.21s1.1-1.12,1.91-1.47c.8-.35,1.71-.52,2.72-.52,1.17,0,2.16.2,2.96.61.8.41,1.41.94,1.82,1.6s.62,1.37.62,2.12h-1.96c-.07-.68-.27-1.22-.6-1.62s-.75-.68-1.25-.86c-.5-.18-1.05-.26-1.64-.26-1.07,0-1.87.24-2.42.73s-.82,1.06-.82,1.73c0,.61.2,1.09.59,1.45s.97.62,1.73.82l3,.78c.89.21,1.6.51,2.12.9.53.39.91.85,1.14,1.37.23.52.35,1.08.35,1.69,0,.83-.23,1.56-.69,2.21s-1.11,1.16-1.94,1.52-1.81.55-2.93.55Z"/><path class="cls-29" d="M224.19,732.96v-14.93h9.42v1.68h-7.5v4.88h6.74v1.67h-6.75v4.98l7.7.02v1.7h-9.61Z"/><path class="cls-29" d="M237.14,732.96v-14.93s.19,0,.44,0c.24,0,.54,0,.89,0,.35,0,.72,0,1.09,0,.38,0,.73,0,1.04.02,1.83.03,3.32.33,4.46.89,1.14.57,1.98,1.39,2.51,2.47s.8,2.41.8,3.99-.29,3.04-.86,4.16-1.45,1.97-2.62,2.54c-1.17.57-2.67.86-4.48.86h-3.27ZM239.1,731.32h1.31c1.23,0,2.29-.19,3.18-.57.89-.38,1.57-1,2.05-1.86s.72-2.01.72-3.45-.23-2.58-.7-3.42c-.46-.84-1.13-1.44-2.01-1.8-.87-.36-1.93-.54-3.16-.54h-1.39v11.65Z"/><path class="cls-29" d="M249.75,732.96l5.41-14.93h2.16l5.4,14.93h-1.95l-1.47-4.08h-6.12l-1.48,4.08h-1.95ZM253.68,727.11h5.09l-2.54-7.22-2.55,7.22Z"/><path class="cls-29" d="M265.54,732.96v-14.93h1.83l7.89,11.61v-11.61h1.91v14.93h-1.7l-8.01-11.77v11.77h-1.91Z"/><path class="cls-29" d="M644.99,691.37v-2.03c0-.76.14-1.42.42-1.98.28-.55.66-1.04,1.13-1.45s.98-.78,1.54-1.1c.56-.32,1.12-.62,1.67-.91.55-.29,1.07-.58,1.53-.89.47-.31.84-.65,1.13-1.03.29-.38.43-.83.43-1.34,0-.67-.24-1.22-.71-1.65-.47-.42-1.11-.64-1.92-.64-.85,0-1.56.25-2.11.73-.55.49-.88,1.18-.99,2.08h-2.44c.01-.92.23-1.75.65-2.49.42-.74,1.04-1.34,1.87-1.78s1.85-.67,3.09-.67c1.07,0,1.99.18,2.76.55s1.37.88,1.8,1.54c.42.66.64,1.42.64,2.3,0,.76-.14,1.42-.42,1.96-.28.54-.65,1.01-1.1,1.41-.46.4-.96.75-1.51,1.05-.55.3-1.09.59-1.64.85-.55.26-1.05.54-1.51.83-.46.29-.83.61-1.11.98-.28.37-.42.8-.42,1.31v.22h7.74v2.15h-10.53Z"/><path class="cls-29" d="M663.15,691.37v-14.93h3.59l3.91,11.41,3.96-11.41h3.57v14.93h-2.55v-11.71l-3.93,11.71h-2.1l-3.9-11.64v11.64h-2.55Z"/><path class="cls-29" d="M681.8,691.37v-14.93h2.51v14.93h-2.51Z"/><path class="cls-29" d="M687.93,691.37v-14.93h2.55v12.76h6.74v2.17h-9.29Z"/><path class="cls-29" d="M701.88,691.58c-.5,0-.99-.05-1.47-.15s-.83-.18-1.04-.24l.1-2.33c.21.06.44.14.71.22s.58.13.94.13c.69,0,1.16-.19,1.4-.56s.37-.98.37-1.83v-10.38h2.52v11.06c0,.89-.1,1.63-.29,2.24s-.55,1.06-1.06,1.37c-.51.31-1.24.47-2.18.47Z"/><path class="cls-29" d="M706.75,691.37l5.37-14.93h2.73l5.36,14.93h-2.52l-1.33-3.74h-5.72l-1.34,3.74h-2.54ZM711.23,685.39h4.49l-2.24-6.52-2.25,6.52Z"/><path class="cls-29" d="M722.72,691.37v-14.93h6.06c1.14,0,2.08.18,2.83.53.74.35,1.29.85,1.65,1.5.36.64.54,1.4.54,2.26,0,.8-.13,1.47-.39,2.01s-.6.98-1.02,1.32c-.42.34-.86.62-1.34.83l2.85,6.49h-2.62l-2.57-6.06h-3.47v6.06h-2.51ZM725.23,683.31h2.99c.95,0,1.69-.22,2.23-.66.53-.44.8-1.05.8-1.84s-.25-1.36-.74-1.78c-.5-.42-1.15-.62-1.96-.62h-3.3v4.91Z"/><path class="cls-29" d="M736.91,691.37v-14.93h1.63c.42,0,.84,0,1.27,0,.43,0,.8,0,1.12.02,1.82.03,3.3.35,4.44.93,1.14.59,1.98,1.42,2.51,2.51.53,1.08.8,2.39.8,3.92s-.28,2.96-.85,4.08c-.57,1.12-1.44,1.98-2.6,2.58-1.17.6-2.65.89-4.45.89h-3.86ZM739.46,689.29h1.35c1.03,0,1.93-.18,2.72-.53.79-.35,1.4-.93,1.84-1.73.44-.8.67-1.87.67-3.2s-.21-2.33-.62-3.11-1.01-1.34-1.78-1.69c-.77-.35-1.69-.52-2.77-.52h-1.41v10.78Z"/><path class="cls-29" d="M751.53,691.37v-14.93h9.87v2.16h-7.34v4.18h6.47v2.13h-6.5v4.28h7.51v2.19h-10.02Z"/><path class="cls-29" d="M764.6,691.37v-14.93h6.06c1.14,0,2.08.18,2.83.53.74.35,1.29.85,1.65,1.5.36.64.54,1.4.54,2.26,0,.8-.13,1.47-.39,2.01s-.6.98-1.02,1.32c-.42.34-.86.62-1.34.83l2.85,6.49h-2.62l-2.57-6.06h-3.47v6.06h-2.51ZM767.11,683.31h2.99c.95,0,1.69-.22,2.23-.66.53-.44.8-1.05.8-1.84s-.25-1.36-.74-1.78c-.5-.42-1.15-.62-1.96-.62h-3.3v4.91Z"/><path class="cls-29" d="M659.05,720.87l5.41-14.93h2.16l5.4,14.93h-1.95l-1.47-4.08h-6.12l-1.48,4.08h-1.95ZM662.99,715.03h5.09l-2.54-7.22-2.55,7.22ZM665.55,704.7c-.59,0-1.09-.21-1.51-.62-.41-.42-.62-.93-.62-1.54,0-.56.21-1.05.63-1.45.42-.4.92-.6,1.5-.6.4,0,.76.09,1.08.28.32.19.58.44.77.76.19.32.28.67.28,1.05,0,.6-.21,1.1-.62,1.51-.41.41-.92.61-1.52.61ZM665.53,703.71c.31,0,.57-.11.78-.34s.32-.49.32-.79c0-.32-.11-.59-.32-.79-.21-.2-.47-.3-.78-.3s-.56.1-.78.3c-.22.2-.33.47-.33.79,0,.3.11.56.33.79s.48.34.78.34Z"/><path class="cls-29" d="M674.84,720.87v-14.93h5.78c1.07,0,1.97.16,2.7.49s1.26.79,1.62,1.4c.36.61.54,1.34.54,2.18s-.14,1.49-.43,2.02c-.29.54-.65.97-1.09,1.3-.44.33-.9.58-1.37.76l2.93,6.77h-2.02l-2.73-6.43h-4.02v6.43h-1.91ZM676.75,712.86h3.25c1.12,0,1.99-.23,2.6-.69.61-.46.92-1.14.92-2.04s-.27-1.54-.82-1.97c-.55-.43-1.3-.65-2.25-.65h-3.71v5.35Z"/><path class="cls-29" d="M698.89,721.08c-.73,0-1.42-.09-2.08-.26s-1.25-.44-1.78-.79c-.53-.35-.97-.79-1.32-1.31s-.57-1.12-.66-1.81h2c.12.56.37,1.04.74,1.43.37.38.83.67,1.37.87.55.19,1.15.29,1.8.29s1.22-.1,1.75-.3c.53-.2.96-.49,1.29-.87.32-.38.49-.84.49-1.38,0-.59-.19-1.07-.58-1.43s-.98-.65-1.79-.87l-3.08-.8c-.7-.17-1.31-.41-1.84-.73-.53-.31-.95-.73-1.25-1.24-.3-.51-.46-1.15-.46-1.92,0-.84.23-1.58.7-2.21.47-.63,1.1-1.12,1.91-1.47.8-.35,1.71-.52,2.72-.52,1.17,0,2.16.2,2.96.61s1.41.94,1.82,1.6c.41.66.62,1.37.62,2.12h-1.96c-.07-.68-.27-1.22-.6-1.62s-.75-.68-1.25-.86-1.05-.26-1.64-.26c-1.07,0-1.88.24-2.42.73-.55.49-.82,1.06-.82,1.73,0,.61.2,1.09.59,1.45s.97.62,1.74.82l2.99.78c.89.21,1.6.51,2.12.9.53.39.91.85,1.14,1.37s.35,1.08.35,1.69c0,.83-.23,1.56-.69,2.21-.46.65-1.11,1.16-1.94,1.52-.83.37-1.81.55-2.93.55Z"/><path class="cls-29" d="M707.6,720.87v-14.93h9.42v1.68h-7.5v4.88h6.74v1.67h-6.75v4.98l7.7.02v1.7h-9.61Z"/><path class="cls-29" d="M720.55,720.87v-14.93s.19,0,.44,0c.24,0,.54,0,.89,0,.35,0,.72,0,1.09,0,.38,0,.73,0,1.04.02,1.83.03,3.32.33,4.46.89,1.14.57,1.98,1.39,2.51,2.47s.8,2.41.8,3.99-.29,3.04-.86,4.16c-.58,1.12-1.45,1.97-2.62,2.54-1.17.57-2.67.86-4.48.86h-3.27ZM722.51,719.23h1.31c1.23,0,2.29-.19,3.18-.57.89-.38,1.57-1,2.05-1.86s.72-2.01.72-3.45-.23-2.58-.7-3.42c-.46-.84-1.13-1.44-2.01-1.8-.88-.36-1.93-.54-3.16-.54h-1.39v11.65Z"/><path class="cls-29" d="M733.16,720.87l5.41-14.93h2.16l5.4,14.93h-1.95l-1.47-4.08h-6.12l-1.48,4.08h-1.95ZM737.09,715.03h5.09l-2.54-7.22-2.55,7.22Z"/><path class="cls-29" d="M748.95,720.87v-14.93h1.83l7.89,11.61v-11.61h1.91v14.93h-1.7l-8.01-11.77v11.77h-1.91Z"/><path class="cls-29" d="M862.6,689.48v-11.5h-2.77v-1.5c.87,0,1.57-.07,2.08-.22.51-.15.89-.37,1.13-.66s.37-.64.41-1.05h1.71v14.93h-2.56Z"/><path class="cls-29" d="M874.19,689.48v-14.93h3.59l3.91,11.41,3.96-11.41h3.57v14.93h-2.55v-11.71l-3.93,11.71h-2.1l-3.9-11.64v11.64h-2.55Z"/><path class="cls-29" d="M892.84,689.48v-14.93h2.51v14.93h-2.51Z"/><path class="cls-29" d="M898.96,689.48v-14.93h2.55v12.76h6.74v2.17h-9.29Z"/><path class="cls-29" d="M912.91,689.68c-.5,0-.99-.05-1.47-.15s-.83-.18-1.04-.24l.1-2.33c.21.06.44.14.71.22s.58.13.94.13c.69,0,1.16-.19,1.4-.56s.37-.98.37-1.83v-10.38h2.52v11.06c0,.89-.1,1.63-.29,2.24s-.55,1.06-1.06,1.37c-.51.31-1.24.47-2.18.47Z"/><path class="cls-29" d="M917.79,689.48l5.37-14.93h2.73l5.36,14.93h-2.52l-1.33-3.74h-5.72l-1.34,3.74h-2.54ZM922.27,683.5h4.49l-2.24-6.52-2.25,6.52Z"/><path class="cls-29" d="M933.75,689.48v-14.93h6.06c1.14,0,2.08.18,2.83.53.74.35,1.29.85,1.65,1.5.36.64.54,1.4.54,2.26,0,.8-.13,1.47-.39,2.01s-.6.98-1.02,1.32c-.42.34-.86.62-1.34.83l2.85,6.49h-2.62l-2.57-6.06h-3.47v6.06h-2.51ZM936.26,681.42h2.99c.95,0,1.69-.22,2.23-.66.53-.44.8-1.05.8-1.84s-.25-1.36-.74-1.78c-.5-.42-1.15-.62-1.96-.62h-3.3v4.91Z"/><path class="cls-29" d="M947.94,689.48v-14.93h1.63c.42,0,.84,0,1.27,0,.43,0,.8,0,1.12.02,1.82.03,3.3.35,4.44.93,1.14.59,1.98,1.42,2.51,2.51.53,1.08.8,2.39.8,3.92s-.28,2.96-.85,4.08c-.57,1.12-1.44,1.98-2.6,2.58-1.17.6-2.65.89-4.45.89h-3.86ZM950.49,687.4h1.35c1.03,0,1.93-.18,2.72-.53.79-.35,1.4-.93,1.84-1.73.44-.8.67-1.87.67-3.2s-.21-2.33-.62-3.11-1.01-1.34-1.78-1.69c-.77-.35-1.69-.52-2.77-.52h-1.41v10.78Z"/><path class="cls-29" d="M962.57,689.48v-14.93h9.87v2.16h-7.34v4.18h6.47v2.13h-6.5v4.28h7.51v2.19h-10.02Z"/><path class="cls-29" d="M975.64,689.48v-14.93h6.06c1.14,0,2.08.18,2.83.53.74.35,1.29.85,1.65,1.5.36.64.54,1.4.54,2.26,0,.8-.13,1.47-.39,2.01s-.6.98-1.02,1.32c-.42.34-.86.62-1.34.83l2.85,6.49h-2.62l-2.57-6.06h-3.47v6.06h-2.51ZM978.15,681.42h2.99c.95,0,1.69-.22,2.23-.66.53-.44.8-1.05.8-1.84s-.25-1.36-.74-1.78c-.5-.42-1.15-.62-1.96-.62h-3.3v4.91Z"/><path class="cls-29" d="M872.14,718.98l5.41-14.93h2.16l5.4,14.93h-1.95l-1.47-4.08h-6.12l-1.48,4.08h-1.95ZM876.08,713.14h5.09l-2.54-7.22-2.55,7.22ZM878.64,702.81c-.59,0-1.09-.21-1.51-.62-.41-.42-.62-.93-.62-1.54,0-.56.21-1.05.63-1.45.42-.4.92-.6,1.5-.6.4,0,.76.09,1.08.28.32.19.58.44.77.76.19.32.28.67.28,1.05,0,.6-.21,1.1-.62,1.51-.41.41-.92.61-1.52.61ZM878.62,701.82c.31,0,.57-.11.78-.34s.32-.49.32-.79c0-.32-.11-.59-.32-.79-.21-.2-.47-.3-.78-.3s-.56.1-.78.3c-.22.2-.33.47-.33.79,0,.3.11.56.33.79s.48.34.78.34Z"/><path class="cls-29" d="M887.93,718.98v-14.93h5.78c1.07,0,1.97.16,2.7.49s1.26.79,1.62,1.4c.36.61.54,1.34.54,2.18s-.14,1.49-.43,2.02c-.29.54-.65.97-1.09,1.3-.44.33-.9.58-1.37.76l2.93,6.77h-2.02l-2.73-6.43h-4.02v6.43h-1.91ZM889.84,710.97h3.25c1.12,0,1.99-.23,2.6-.69.61-.46.92-1.14.92-2.04s-.27-1.54-.82-1.97c-.55-.43-1.3-.65-2.25-.65h-3.71v5.35Z"/><path class="cls-29" d="M911.98,719.19c-.73,0-1.42-.09-2.08-.26s-1.25-.44-1.78-.79c-.53-.35-.97-.79-1.32-1.31s-.57-1.12-.66-1.81h2c.12.56.37,1.04.74,1.43.37.38.83.67,1.37.87.55.19,1.15.29,1.8.29s1.22-.1,1.75-.3c.53-.2.96-.49,1.29-.87.32-.38.49-.84.49-1.38,0-.59-.19-1.07-.58-1.43s-.98-.65-1.79-.87l-3.08-.8c-.7-.17-1.31-.41-1.84-.73-.53-.31-.95-.73-1.25-1.24-.3-.51-.46-1.15-.46-1.92,0-.84.23-1.58.7-2.21.47-.63,1.1-1.12,1.91-1.47.8-.35,1.71-.52,2.72-.52,1.17,0,2.16.2,2.96.61s1.41.94,1.82,1.6c.41.66.62,1.37.62,2.12h-1.96c-.07-.68-.27-1.22-.6-1.62s-.75-.68-1.25-.86-1.05-.26-1.64-.26c-1.07,0-1.88.24-2.42.73-.55.49-.82,1.06-.82,1.73,0,.61.2,1.09.59,1.45s.97.62,1.74.82l2.99.78c.89.21,1.6.51,2.12.9.53.39.91.85,1.14,1.37s.35,1.08.35,1.69c0,.83-.23,1.56-.69,2.21-.46.65-1.11,1.16-1.94,1.52-.83.37-1.81.55-2.93.55Z"/><path class="cls-29" d="M920.69,718.98v-14.93h9.42v1.68h-7.5v4.88h6.74v1.67h-6.75v4.98l7.7.02v1.7h-9.61Z"/><path class="cls-29" d="M933.64,718.98v-14.93s.19,0,.44,0c.24,0,.54,0,.89,0,.35,0,.72,0,1.09,0,.38,0,.73,0,1.04.02,1.83.03,3.32.33,4.46.89,1.14.57,1.98,1.39,2.51,2.47s.8,2.41.8,3.99-.29,3.04-.86,4.16c-.58,1.12-1.45,1.97-2.62,2.54-1.17.57-2.67.86-4.48.86h-3.27ZM935.6,717.34h1.31c1.23,0,2.29-.19,3.18-.57.89-.38,1.57-1,2.05-1.86s.72-2.01.72-3.45-.23-2.58-.7-3.42c-.46-.84-1.13-1.44-2.01-1.8-.88-.36-1.93-.54-3.16-.54h-1.39v11.65Z"/><path class="cls-29" d="M946.25,718.98l5.41-14.93h2.16l5.4,14.93h-1.95l-1.47-4.08h-6.12l-1.48,4.08h-1.95ZM950.18,713.14h5.09l-2.54-7.22-2.55,7.22Z"/><path class="cls-29" d="M962.04,718.98v-14.93h1.83l7.89,11.61v-11.61h1.91v14.93h-1.7l-8.01-11.77v11.77h-1.91Z"/></svg>