<?xml version="1.0" encoding="UTF-8"?><svg id="Layer_1" xmlns="http://www.w3.org/2000/svg" width="800" height="500" viewBox="0 0 800 500"><defs><style>.cls-1,.cls-2,.cls-3,.cls-4,.cls-5,.cls-6,.cls-7,.cls-8,.cls-9,.cls-10,.cls-11,.cls-12,.cls-13,.cls-14,.cls-15,.cls-16,.cls-17,.cls-18,.cls-19,.cls-20,.cls-21,.cls-22,.cls-23{stroke-width:1.5px;}.cls-1,.cls-2,.cls-3,.cls-4,.cls-5,.cls-7,.cls-8,.cls-12,.cls-13,.cls-15,.cls-16,.cls-17,.cls-18,.cls-21,.cls-23{fill:none;}.cls-1,.cls-2,.cls-5,.cls-24,.cls-8,.cls-9,.cls-15,.cls-16,.cls-18,.cls-19,.cls-21,.cls-22{stroke-miterlimit:10;}.cls-1,.cls-8,.cls-15,.cls-21{stroke:#d1b69f;}.cls-2{stroke:#856247;}.cls-3{stroke-dasharray:3.98 3.98;}.cls-3,.cls-4,.cls-5,.cls-6,.cls-24,.cls-7,.cls-9,.cls-10,.cls-11,.cls-12,.cls-13,.cls-14,.cls-17,.cls-19,.cls-22,.cls-23{stroke:#b1835e;}.cls-3,.cls-4,.cls-6,.cls-7,.cls-10,.cls-12,.cls-13,.cls-14,.cls-17,.cls-23{stroke-linejoin:round;}.cls-3,.cls-4,.cls-7,.cls-11,.cls-12,.cls-13,.cls-17,.cls-20,.cls-23{stroke-linecap:round;}.cls-25{opacity:.1;}.cls-25,.cls-14,.cls-26,.cls-27{fill:#c19c7e;}.cls-4{stroke-dasharray:4.16 4.16;}.cls-6{fill:#d0b59e;}.cls-24,.cls-28{fill:#b1835e;}.cls-7{stroke-dasharray:3.9 3.9;}.cls-8{stroke-dasharray:4.34 4.34;}.cls-9,.cls-10,.cls-11,.cls-29,.cls-20{fill:#e6d7cb;}.cls-11,.cls-20{stroke-miterlimit:1.25;}.cls-12{stroke-dasharray:4.16 4.16;}.cls-13{stroke-dasharray:3.9 3.9;}.cls-30{letter-spacing:0em;}.cls-15{stroke-dasharray:4 4;}.cls-16,.cls-20{stroke:#8c6239;}.cls-26{font-family:PublicSansRoman-Regular, 'Public Sans';font-size:12.11px;font-variation-settings:'wght' 400;}.cls-17{stroke-dasharray:3.94 3.94;}.cls-18{stroke:#d0b59e;}.cls-31{fill:#8c6239;}.cls-19{fill:#d1b69f;}.cls-32{letter-spacing:-.06em;}.cls-33{letter-spacing:-.11em;}.cls-34{letter-spacing:-.02em;}.cls-35{letter-spacing:-.01em;}.cls-36{letter-spacing:-.02em;}.cls-37{letter-spacing:-.02em;}.cls-38{letter-spacing:-.03em;}.cls-39{letter-spacing:0em;}.cls-40{letter-spacing:-.01em;}.cls-21{stroke-dasharray:4.05 4.05;}.cls-41{letter-spacing:.02em;}.cls-22{fill:#ebded3;}.cls-42{letter-spacing:0em;}.cls-43{letter-spacing:0em;}.cls-44{fill:#885b46;opacity:.08;}.cls-45{letter-spacing:0em;}.cls-46{letter-spacing:.01em;}.cls-47{letter-spacing:0em;}</style></defs><rect class="cls-44" x="226.63" y="43.3" width="190.6" height="367.15" rx="11.77" ry="11.77"/><rect class="cls-25" x="430.25" y="43.3" width="343.1" height="368.13" rx="11.8" ry="11.8"/><path class="cls-6" d="M695.78,224.26c-2.57.67-5.45,1.12-8.66,1.25-2.36,1.83-8.24,5.98-14.12,6.94l2.39-8.05c-7.58-1.76-14.08-7.54-17.97-10.58-1.12.99-2.3,1.93-3.53,2.79-5.42,3.82-11.91,4.29-11.91,4.29,0,0,1.7-7.41,6.17-11.48-4.47-4.07-6.17-11.47-6.17-11.47,0,0,6.49.48,11.91,4.29,1.25.87,2.43,1.81,3.55,2.81,3.9-3.04,10.38-8.8,17.94-10.56l-2.39-8.05c5.92.96,11.86,5.14,14.18,6.94,3.19.14,6.05.58,8.6,1.25-5.04,9.2-5.04,20.4,0,29.61Z"/><path class="cls-11" d="M713.56,209.45c0,2.73-4.9,11.39-17.54,14.74-.08.03-.15.05-.23.06-5.04-9.21-5.04-20.41,0-29.61.07-.15.15-.29.23-.42v.48c12.63,3.38,17.54,12.12,17.54,14.74Z"/><path class="cls-20" d="M696.02,224.2v.48c-.08-.14-.16-.28-.23-.42.08,0,.15-.03.23-.06Z"/><path class="cls-9" d="M503.3,228.26l-27.3,1.97c-8.73,0-17.45-6.25-17.45-13.89h0c0-7.64,8.72-13.89,17.45-13.89l27.3,1.97c11.45,0,15.98,6.79,15.98,11.91h0c0,5.13-4.53,11.91-15.98,11.91Z"/><line class="cls-5" x1="503.3" y1="230.57" x2="503.3" y2="228.26"/><line class="cls-5" x1="511.02" y1="229.44" x2="510.27" y2="227.24"/><line class="cls-5" x1="517.95" y1="225.2" x2="516.21" y2="223.61"/><line class="cls-5" x1="521.6" y1="217.6" x2="519.22" y2="217.35"/><line class="cls-5" x1="519.48" y1="209.4" x2="517.48" y2="210.68"/><line class="cls-5" x1="513.16" y1="204.11" x2="512.13" y2="206.19"/><line class="cls-5" x1="505.55" y1="202.21" x2="505.36" y2="204.51"/><line class="cls-5" x1="498.45" y1="201.77" x2="498.28" y2="204.07"/><line class="cls-5" x1="491.38" y1="201.26" x2="491.21" y2="203.56"/><line class="cls-5" x1="484.37" y1="200.76" x2="484.2" y2="203.06"/><line class="cls-5" x1="477.32" y1="200.25" x2="477.15" y2="202.55"/><line class="cls-5" x1="469.53" y1="201.14" x2="470.23" y2="203.35"/><line class="cls-5" x1="462.51" y1="204.74" x2="463.98" y2="206.56"/><line class="cls-5" x1="457.35" y1="211.01" x2="459.53" y2="211.96"/><line class="cls-5" x1="456.53" y1="219.39" x2="458.86" y2="218.83"/><line class="cls-5" x1="460.75" y1="226.44" x2="462.43" y2="224.8"/><line class="cls-5" x1="467.39" y1="230.78" x2="468.32" y2="228.66"/><line class="cls-5" x1="475.04" y1="232.52" x2="475.15" y2="230.22"/><line class="cls-5" x1="482.35" y1="232.09" x2="482.17" y2="229.79"/><line class="cls-5" x1="489.42" y1="231.58" x2="489.24" y2="229.28"/><line class="cls-5" x1="496.45" y1="231.07" x2="496.28" y2="228.77"/><line class="cls-23" x1="553.06" y1="211.56" x2="555.06" y2="211.56"/><line class="cls-17" x1="559" y1="211.56" x2="620.11" y2="211.56"/><line class="cls-23" x1="622.08" y1="211.56" x2="624.08" y2="211.56"/><path class="cls-23" d="M226.63,214.86c.69,0,1.35.04,2,.12"/><path class="cls-4" d="M232.62,216.09c6.76,3.02,11.28,11.34,16.59,22.23,6.75,13.84,12.12,25.63,21.14,28.32"/><path class="cls-23" d="M272.38,267.08c.65.09,1.31.14,1.99.14"/><path class="cls-23" d="M226.42,214.86c.69,0,1.35-.04,2-.12"/><path class="cls-12" d="M232.41,213.64c6.83-3.01,11.49-11.34,16.8-22.24,6.75-13.84,11.95-25.62,20.92-28.32"/><path class="cls-23" d="M272.16,162.64c.64-.09,1.31-.14,1.99-.14"/><path class="cls-23" d="M366.34,163.14c.67,0,1.34,0,2,0"/><path class="cls-3" d="M372.33,163.1c51.08-.8,80.13-12.42,114.37-28.71,39.74-18.92,69.34-34.71,127.72-35.39"/><path class="cls-23" d="M616.41,98.98c.66,0,1.33,0,2,0"/><path class="cls-23" d="M553.01,211.56c.68,0,1.34.03,1.99.11"/><path class="cls-13" d="M558.78,212.59c11.94,4.53,19.25,23.64,28,49.42,10.61,31.29,18.94,57.7,33.73,61.63"/><path class="cls-23" d="M622.41,324.03c.65.09,1.32.13,1.99.13"/><path class="cls-23" d="M552.68,211.56c.68,0,1.34-.03,2-.11"/><path class="cls-7" d="M558.46,210.54c12.01-4.53,19.57-23.63,28.32-49.43,10.61-31.29,18.67-57.69,33.41-61.63"/><path class="cls-23" d="M622.08,99.1c.65-.09,1.32-.13,1.99-.13"/><path class="cls-23" d="M413.87,214.86c-.69,0-1.35.04-2,.12"/><path class="cls-4" d="M407.88,216.09c-6.76,3.02-11.28,11.34-16.59,22.23-6.75,13.84-12.12,25.63-21.14,28.32"/><path class="cls-23" d="M368.12,267.08c-.65.09-1.31.14-1.99.14"/><path class="cls-23" d="M414.08,214.86c-.69,0-1.35-.04-2-.12"/><path class="cls-12" d="M408.09,213.64c-6.83-3.01-11.49-11.34-16.8-22.24-6.75-13.84-11.95-25.62-20.92-28.32"/><path class="cls-23" d="M368.34,162.64c-.64-.09-1.31-.14-1.99-.14"/><path class="cls-22" d="M677.29,310.71v38.23c-.01,1.47-1.25,2.66-2.77,2.66h-2.35c-1.52,0-2.76-1.19-2.76-2.66v-38.23"/><path class="cls-19" d="M647.46,307.17c-.41-2.56,13.08-9.43,25.89-9.58,12.68-.15,26.23,7.02,25.89,9.58-.63,4.81-51.02,4.79-51.78,0Z"/><path class="cls-29" d="M308.16,166.85c-6.28,0-11.4-5.11-11.4-11.4s5.11-11.4,11.4-11.4h27.54c6.28,0,11.4,5.11,11.4,11.4s-5.11,11.4-11.4,11.4h-27.54Z"/><path class="cls-28" d="M335.7,144.81c5.87,0,10.65,4.78,10.65,10.65s-4.78,10.65-10.65,10.65h-27.54c-5.87,0-10.65-4.78-10.65-10.65s4.78-10.65,10.65-10.65h27.54M335.7,143.31h-27.54c-6.68,0-12.15,5.47-12.15,12.15s5.47,12.15,12.15,12.15h27.54c6.68,0,12.15-5.47,12.15-12.15s-5.47-12.15-12.15-12.15h0Z"/><line class="cls-5" x1="335.7" y1="139.39" x2="335.7" y2="143.31"/><line class="cls-5" x1="351.47" y1="159.18" x2="347.52" y2="158.26"/><line class="cls-5" x1="342.55" y1="170.02" x2="340.81" y2="166.47"/><line class="cls-5" x1="330.07" y1="171.52" x2="330.07" y2="167.6"/><line class="cls-5" x1="319.12" y1="171.52" x2="319.12" y2="167.6"/><line class="cls-5" x1="308.16" y1="171.52" x2="308.16" y2="167.6"/><line class="cls-5" x1="295.51" y1="165.47" x2="298.69" y2="163.03"/><line class="cls-5" x1="292.39" y1="151.73" x2="296.35" y2="152.64"/><line class="cls-5" x1="301.32" y1="140.89" x2="303.06" y2="144.44"/><line class="cls-5" x1="313.8" y1="139.39" x2="313.8" y2="143.31"/><line class="cls-5" x1="324.74" y1="139.39" x2="324.74" y2="143.31"/><line class="cls-5" x1="348.35" y1="145.44" x2="345.18" y2="147.88"/><path class="cls-5" d="M309.04,153.45c2.58,0,2.58,4,5.15,4s2.58-4,5.15-4,2.58,4,5.16,4,2.58-4,5.16-4,2.58,4,5.16,4"/><path class="cls-5" d="M292.21,152.56c-3.46-.63-5.51-4.31-5.65-7.71s1.1-6.69,1.74-10.03c.45-2.31.53-4.96-1.06-6.75-1.4-1.58-3.81-2.05-5.91-1.63s-3.97,1.6-5.65,2.89"/><path class="cls-28" d="M308.3,276.82c-6.28,0-11.4-5.11-11.4-11.4s5.11-11.4,11.4-11.4h27.54c6.28,0,11.4,5.11,11.4,11.4s-5.11,11.4-11.4,11.4h-27.54Z"/><path class="cls-31" d="M335.84,254.77c5.87,0,10.65,4.78,10.65,10.65s-4.78,10.65-10.65,10.65h-27.54c-5.87,0-10.65-4.78-10.65-10.65s4.78-10.65,10.65-10.65h27.54M335.84,253.27h-27.54c-6.68,0-12.15,5.47-12.15,12.15h0c0,6.68,5.47,12.15,12.15,12.15h27.54c6.68,0,12.15-5.47,12.15-12.15h0c0-6.68-5.47-12.15-12.15-12.15h0Z"/><line class="cls-16" x1="335.84" y1="249.36" x2="335.84" y2="253.27"/><line class="cls-28" x1="335.84" y1="249.36" x2="335.84" y2="253.27"/><line class="cls-16" x1="351.61" y1="269.15" x2="347.65" y2="268.23"/><line class="cls-28" x1="351.61" y1="269.15" x2="347.65" y2="268.23"/><line class="cls-16" x1="342.68" y1="279.98" x2="340.94" y2="276.43"/><line class="cls-28" x1="342.68" y1="279.98" x2="340.94" y2="276.43"/><line class="cls-16" x1="330.21" y1="281.48" x2="330.21" y2="277.57"/><line class="cls-16" x1="319.26" y1="281.48" x2="319.26" y2="277.57"/><line class="cls-16" x1="308.3" y1="281.48" x2="308.3" y2="277.57"/><line class="cls-16" x1="295.65" y1="275.43" x2="298.82" y2="272.99"/><line class="cls-28" x1="295.65" y1="275.43" x2="298.82" y2="272.99"/><line class="cls-16" x1="292.53" y1="261.69" x2="296.48" y2="262.61"/><line class="cls-28" x1="292.53" y1="261.69" x2="296.48" y2="262.61"/><line class="cls-16" x1="301.45" y1="250.85" x2="303.19" y2="254.4"/><line class="cls-28" x1="301.45" y1="250.85" x2="303.19" y2="254.4"/><line class="cls-16" x1="313.93" y1="249.36" x2="313.93" y2="253.27"/><line class="cls-28" x1="313.93" y1="249.36" x2="313.93" y2="253.27"/><line class="cls-16" x1="324.88" y1="249.36" x2="324.88" y2="253.27"/><line class="cls-28" x1="324.88" y1="249.36" x2="324.88" y2="253.27"/><line class="cls-16" x1="348.49" y1="255.4" x2="345.31" y2="257.84"/><line class="cls-28" x1="348.49" y1="255.4" x2="345.31" y2="257.84"/><path class="cls-18" d="M309.18,263.42c2.58,0,2.58,4,5.15,4s2.58-4,5.15-4,2.58,4,5.16,4,2.58-4,5.16-4,2.58,4,5.16,4"/><path class="cls-2" d="M292.35,262.53c-3.46-.63-5.51-4.31-5.65-7.71s1.1-6.69,1.74-10.03c.45-2.31.53-4.96-1.06-6.75-1.4-1.58-3.81-2.05-5.91-1.63s-3.97,1.6-5.65,2.89"/><text class="cls-26" transform="translate(287.09 194.12) scale(1.04 1)"><tspan class="cls-39" x="0" y="0">B</tspan><tspan x="8.06" y="0">A</tspan><tspan class="cls-45" x="16.66" y="0">K</tspan><tspan class="cls-30" x="24.96" y="0">T</tspan><tspan class="cls-42" x="32.15" y="0">E</tspan><tspan x="39.75" y="0">RI</tspan><tspan class="cls-42" x="51.37" y="0">E</tspan><tspan x="58.96" y="0">R</tspan></text><text class="cls-26" transform="translate(288.67 308.46) scale(1.04 1)"><tspan x="0" y="0">ARK</tspan><tspan class="cls-42" x="25.05" y="0">ÉE</tspan><tspan x="40.24" y="0">R</tspan></text><text class="cls-26" transform="translate(643.81 381.57) scale(1.04 1)"><tspan class="cls-34" x="0" y="0">S</tspan><tspan class="cls-33" x="7.87" y="0">V</tspan><tspan x="14.64" y="0">AM</tspan><tspan class="cls-32" x="33.96" y="0">P</tspan><tspan x="40.95" y="0">AR</tspan></text><text class="cls-26" transform="translate(455.58 257.7) scale(1.04 1)"><tspan x="0" y="0">P</tspan><tspan class="cls-40" x="7.71" y="0">R</tspan><tspan class="cls-46" x="15.78" y="0">O</tspan><tspan x="24.79" y="0">TI</tspan><tspan class="cls-37" x="35.41" y="0">S</tspan><tspan x="43.33" y="0">T</tspan><tspan class="cls-43" x="50.52" y="0">E</tspan><tspan x="58.11" y="0">R</tspan></text><text class="cls-26" transform="translate(658.42 261.24) scale(1.04 1)"><tspan class="cls-36" x="0" y="0">D</tspan><tspan x="8.2" y="0">JUR</tspan></text><text class="cls-26" transform="translate(649.39 144.97) scale(1.04 1)"><tspan class="cls-33" x="0" y="0">V</tspan><tspan class="cls-41" x="6.76" y="0">Ä</tspan><tspan class="cls-45" x="15.65" y="0">X</tspan><tspan x="24.02" y="0">T</tspan><tspan class="cls-43" x="31.21" y="0">E</tspan><tspan x="38.81" y="0">R</tspan></text><ellipse class="cls-5" cx="489.98" cy="212.64" rx="3.11" ry="3"/><line class="cls-5" x1="492.78" y1="216.05" x2="491.92" y2="214.98"/><line class="cls-5" x1="492.78" y1="209.22" x2="491.92" y2="210.29"/><line class="cls-5" x1="488.97" y1="208.4" x2="489.28" y2="209.72"/><line class="cls-5" x1="485.94" y1="210.69" x2="487.2" y2="211.31"/><line class="cls-5" x1="485.94" y1="214.58" x2="487.2" y2="213.96"/><line class="cls-5" x1="488.97" y1="216.88" x2="489.28" y2="215.55"/><line class="cls-5" x1="494.5" y1="212.64" x2="493.09" y2="212.64"/><ellipse class="cls-5" cx="478.12" cy="220.82" rx="3.28" ry="3.16"/><line class="cls-5" x1="481.07" y1="224.43" x2="480.16" y2="223.3"/><line class="cls-5" x1="481.07" y1="217.21" x2="480.16" y2="218.35"/><line class="cls-5" x1="477.05" y1="216.35" x2="477.37" y2="217.74"/><line class="cls-5" x1="473.85" y1="218.77" x2="475.18" y2="219.42"/><line class="cls-5" x1="473.85" y1="222.87" x2="475.18" y2="222.22"/><line class="cls-5" x1="477.05" y1="225.3" x2="477.37" y2="223.9"/><line class="cls-5" x1="482.89" y1="220.82" x2="481.4" y2="220.82"/><ellipse class="cls-5" cx="477.03" cy="210.3" rx="1.48" ry="1.43"/><ellipse class="cls-5" cx="497.59" cy="221.78" rx="2.18" ry="2.1"/><ellipse class="cls-24" cx="701.63" cy="207.15" rx="2.39" ry="2.3"/><path class="cls-10" d="M689.61,79.51l-39.62,35.75,10.8-9.75v-19.5c0-10.77,14.41-19.5,41.42-19.5.99,0,1.8.73,1.8,1.63,0,24.38-9.67,37.38-21.61,37.38h-21.61l28.81-26ZM675.21,92.51h12.61-12.61ZM675.21,81.14v11.38-11.38Z"/><path class="cls-10" d="M117.8,213.86c0,1.36-.12,2.67-.35,3.96-5.05-1.71-7.89,3.48-11.79,2.73-8.67-1.67-11.13.2-11.13,4.18s0,3.99-1.8,6.97c-1.17,1.95-1.54,3.89.8,5.56-13.41,0-24.28-10.48-24.28-23.4,0-6.27,2.61-12.29,7.26-16.68,2.06.21,3.21,1.27,5.13,3.23,3.64,3.7,7.28,4.01,9.7,2.78,3.64-1.85.58-4.85,4.86-6.49,2.62-.99,3.11-3.62,1.88-5.81,11.23,2.05,19.72,11.56,19.72,22.98Z"/><path class="cls-14" d="M117.45,217.82c-1.95,11.04-11.92,19.44-23.92,19.44-2.34-1.67-1.97-3.62-.8-5.56q1.8-2.98,1.8-6.97c0-3.98,2.46-5.85,11.13-4.18,3.9.75,6.73-4.44,11.79-2.73Z"/><path class="cls-14" d="M96.2,196.69c-4.27,1.64-1.21,4.64-4.86,6.49-2.42,1.24-6.07.93-9.7-2.78-1.92-1.96-3.07-3.02-5.13-3.23,4.53-4.31,10.65-6.72,17.02-6.71,1.53,0,3.05.14,4.55.42,1.24,2.2.75,4.82-1.88,5.81Z"/><text class="cls-26" transform="translate(47.7 263.01) scale(1.04 1)"><tspan x="0" y="0">JORD</tspan><tspan class="cls-42" x="30.19" y="0">E</tspan><tspan x="37.78" y="0">N </tspan><tspan class="cls-47" x="49.86" y="0">B</tspan><tspan x="58.07" y="0">IL</tspan><tspan class="cls-38" x="68.49" y="0">D</tspan><tspan class="cls-35" x="76.54" y="0">A</tspan><tspan x="84.96" y="0">S</tspan></text><line class="cls-1" x1="226.63" y1="428.47" x2="226.63" y2="426.47"/><line class="cls-15" x1="226.63" y1="422.46" x2="226.63" y2="224.29"/><line class="cls-1" x1="226.63" y1="222.29" x2="226.63" y2="220.29"/><line class="cls-1" x1="200.79" y1="433.48" x2="202.79" y2="433.48"/><line class="cls-8" x1="207.12" y1="433.48" x2="248.31" y2="433.48"/><line class="cls-1" x1="250.48" y1="433.48" x2="252.48" y2="433.48"/><line class="cls-1" x1="90.33" y1="432.38" x2="90.33" y2="430.38"/><line class="cls-21" x1="90.33" y1="426.33" x2="90.33" y2="314.9"/><line class="cls-1" x1="90.33" y1="312.87" x2="90.33" y2="310.87"/><line class="cls-1" x1="64.49" y1="437.39" x2="66.49" y2="437.39"/><line class="cls-8" x1="70.82" y1="437.39" x2="112.01" y2="437.39"/><line class="cls-1" x1="114.18" y1="437.39" x2="116.18" y2="437.39"/><line class="cls-1" x1="417.23" y1="423.68" x2="417.23" y2="421.68"/><line class="cls-15" x1="417.23" y1="417.67" x2="417.23" y2="219.5"/><line class="cls-1" x1="417.23" y1="217.5" x2="417.23" y2="215.5"/><line class="cls-1" x1="391.39" y1="428.69" x2="393.39" y2="428.69"/><line class="cls-8" x1="397.72" y1="428.69" x2="438.91" y2="428.69"/><line class="cls-1" x1="441.08" y1="428.69" x2="443.08" y2="428.69"/><line class="cls-1" x1="553.06" y1="423.68" x2="553.06" y2="421.68"/><line class="cls-15" x1="553.06" y1="417.67" x2="553.06" y2="219.5"/><line class="cls-1" x1="553.06" y1="217.5" x2="553.06" y2="215.5"/><line class="cls-1" x1="527.21" y1="428.69" x2="529.21" y2="428.69"/><line class="cls-8" x1="533.55" y1="428.69" x2="574.74" y2="428.69"/><line class="cls-1" x1="576.91" y1="428.69" x2="578.91" y2="428.69"/><path class="cls-27" d="M185.88,459.54c-.76,0-1.42-.14-1.97-.39-.55-.26-.98-.62-1.28-1.1-.31-.48-.47-1.04-.48-1.69h1.66c.1.6.34,1.05.72,1.34s.84.44,1.39.44c.45,0,.84-.07,1.18-.21.33-.14.59-.33.77-.57.18-.24.27-.52.27-.85,0-.34-.1-.63-.29-.88-.19-.24-.46-.43-.79-.56-.34-.13-.71-.2-1.13-.21l-.94-.03v-1.39l.87-.04c.4-.01.75-.09,1.06-.23.31-.14.54-.32.72-.55.17-.23.26-.49.26-.77,0-.26-.08-.5-.24-.71s-.39-.37-.68-.49c-.29-.12-.64-.18-1.04-.18-.34,0-.66.06-.96.18-.3.12-.54.32-.74.58-.19.27-.3.62-.32,1.05h-1.65c0-.69.17-1.27.5-1.75s.78-.83,1.33-1.07,1.18-.36,1.86-.36c.73,0,1.38.1,1.95.3.57.2,1.01.5,1.34.89s.49.89.49,1.48c0,.5-.15.94-.45,1.34-.3.39-.78.7-1.44.92.41.11.77.28,1.09.5.32.22.58.5.77.83s.28.72.28,1.17c0,.48-.1.91-.31,1.28-.21.37-.5.69-.87.94-.37.25-.8.45-1.3.57-.5.13-1.03.19-1.6.19Z"/><path class="cls-27" d="M195.09,459.39v-10.12h2.44l2.65,7.74,2.68-7.74h2.42v10.12h-1.73v-7.94l-2.67,7.94h-1.42l-2.65-7.89v7.89h-1.73Z"/><path class="cls-27" d="M207.73,459.39v-10.12h1.7v10.12h-1.7Z"/><path class="cls-27" d="M211.88,459.39v-10.12h1.73v8.65h4.57v1.47h-6.3Z"/><path class="cls-27" d="M221.34,459.53c-.34,0-.67-.03-1-.1-.33-.07-.56-.12-.7-.16l.07-1.58c.14.04.3.09.48.15s.39.09.64.09c.47,0,.78-.13.95-.38s.25-.67.25-1.24v-7.04h1.71v7.5c0,.6-.07,1.11-.2,1.52-.13.41-.37.72-.72.93-.35.21-.84.32-1.48.32Z"/><path class="cls-27" d="M224.64,459.39l3.64-10.12h1.85l3.63,10.12h-1.71l-.9-2.53h-3.88l-.91,2.53h-1.72ZM227.68,455.33h3.04l-1.52-4.42-1.53,4.42Z"/><path class="cls-27" d="M235.46,459.39v-10.12h4.11c.77,0,1.41.12,1.91.36.5.24.87.58,1.12,1.02.24.44.36.95.36,1.53,0,.54-.09,1-.27,1.36s-.41.67-.69.9c-.28.23-.58.42-.91.56l1.93,4.4h-1.78l-1.74-4.11h-2.35v4.11h-1.7ZM237.16,453.93h2.02c.64,0,1.15-.15,1.51-.45s.54-.71.54-1.25-.17-.92-.5-1.21-.78-.42-1.33-.42h-2.24v3.33Z"/><path class="cls-27" d="M245.08,459.39v-10.12h1.1c.28,0,.57,0,.86,0,.29,0,.54,0,.76,0,1.23.02,2.23.24,3.01.63.77.4,1.34.97,1.7,1.7.36.74.54,1.62.54,2.66s-.19,2-.58,2.77c-.39.76-.97,1.34-1.76,1.75s-1.8.61-3.01.61h-2.62ZM246.81,457.98h.92c.7,0,1.31-.12,1.84-.36.53-.24.95-.63,1.25-1.17.3-.54.45-1.26.45-2.17s-.14-1.58-.42-2.11c-.28-.53-.68-.91-1.2-1.14-.52-.24-1.15-.35-1.88-.35h-.96v7.31Z"/><path class="cls-27" d="M254.99,459.39v-10.12h6.69v1.46h-4.98v2.83h4.39v1.44h-4.4v2.9h5.09v1.48h-6.79Z"/><path class="cls-27" d="M263.85,459.39v-10.12h4.11c.77,0,1.41.12,1.91.36.5.24.87.58,1.12,1.02.24.44.36.95.36,1.53,0,.54-.09,1-.27,1.36s-.41.67-.69.9c-.28.23-.58.42-.91.56l1.93,4.4h-1.78l-1.74-4.11h-2.35v4.11h-1.7ZM265.55,453.93h2.02c.64,0,1.15-.15,1.51-.45s.54-.71.54-1.25-.17-.92-.5-1.21-.78-.42-1.33-.42h-2.24v3.33Z"/><path class="cls-27" d="M192.09,479.39l3.67-10.12h1.46l3.66,10.12h-1.32l-.99-2.76h-4.15l-1,2.76h-1.32ZM194.75,475.42h3.45l-1.72-4.89-1.73,4.89ZM196.49,468.42c-.4,0-.74-.14-1.02-.42-.28-.28-.42-.63-.42-1.05,0-.38.14-.71.43-.98.28-.27.62-.41,1.02-.41.27,0,.52.06.73.19.22.13.39.3.52.51s.19.45.19.71c0,.41-.14.75-.42,1.03-.28.28-.62.42-1.03.42ZM196.48,467.75c.21,0,.39-.08.53-.23.14-.15.21-.33.21-.53,0-.22-.07-.4-.21-.54-.14-.14-.32-.21-.53-.21s-.38.07-.53.21c-.15.14-.23.32-.23.54,0,.2.08.38.23.53.15.15.33.23.53.23Z"/><path class="cls-27" d="M202.79,479.39v-10.12h3.92c.73,0,1.34.11,1.83.33.49.22.86.54,1.1.95s.36.91.36,1.48-.1,1.01-.29,1.37c-.19.36-.44.66-.74.88-.3.22-.61.39-.93.51l1.99,4.59h-1.37l-1.85-4.36h-2.72v4.36h-1.29ZM204.08,473.96h2.21c.76,0,1.35-.16,1.76-.47.42-.31.62-.77.62-1.38s-.19-1.04-.56-1.34-.88-.44-1.52-.44h-2.51v3.63Z"/><path class="cls-27" d="M219.09,479.53c-.49,0-.96-.06-1.41-.18-.44-.12-.85-.3-1.21-.54-.36-.24-.66-.53-.9-.89-.24-.35-.38-.76-.44-1.23h1.36c.08.38.25.71.5.97.25.26.56.46.93.59s.78.2,1.22.2.82-.07,1.19-.2c.36-.14.65-.33.87-.59s.33-.57.33-.93c0-.4-.13-.72-.39-.97s-.67-.44-1.21-.59l-2.09-.54c-.47-.12-.89-.28-1.25-.49-.36-.21-.65-.49-.85-.84-.21-.35-.31-.78-.31-1.3,0-.57.16-1.07.48-1.5.32-.43.75-.76,1.29-1,.54-.24,1.16-.35,1.84-.35.79,0,1.46.14,2.01.41s.96.64,1.24,1.08c.28.45.42.93.42,1.43h-1.33c-.05-.46-.18-.83-.41-1.09-.23-.27-.51-.46-.85-.58s-.71-.18-1.11-.18c-.72,0-1.27.16-1.64.49s-.56.72-.56,1.17c0,.42.13.74.4.98.27.24.66.42,1.18.55l2.03.52c.6.14,1.08.34,1.44.61.36.27.61.58.77.93s.23.73.23,1.14c0,.56-.16,1.06-.47,1.5-.31.44-.75.78-1.31,1.03-.56.25-1.22.37-1.98.37Z"/><path class="cls-27" d="M224.99,479.39v-10.12h6.38v1.14h-5.08v3.3h4.57v1.13h-4.58v3.37h5.22v1.17h-6.52Z"/><path class="cls-27" d="M233.77,479.39v-10.12s.13,0,.3,0c.17,0,.37,0,.61,0,.24,0,.48,0,.74,0,.26,0,.49,0,.71,0,1.24.02,2.25.22,3.02.61.77.39,1.34.94,1.7,1.68.36.73.54,1.63.54,2.7s-.19,2.06-.58,2.82-.98,1.33-1.78,1.72c-.8.39-1.81.58-3.03.58h-2.22ZM235.1,478.27h.89c.83,0,1.55-.13,2.16-.39.6-.26,1.06-.68,1.39-1.26.32-.58.49-1.36.49-2.34s-.16-1.75-.47-2.32c-.32-.57-.77-.98-1.36-1.22s-1.31-.37-2.14-.37h-.94v7.9Z"/><path class="cls-27" d="M242.32,479.39l3.67-10.12h1.46l3.66,10.12h-1.32l-.99-2.76h-4.15l-1,2.76h-1.32ZM244.99,475.42h3.45l-1.72-4.89-1.73,4.89Z"/><path class="cls-27" d="M253.02,479.39v-10.12h1.24l5.35,7.87v-7.87h1.3v10.12h-1.16l-5.43-7.98v7.98h-1.29Z"/><path class="cls-27" d="M268.87,18.59v-10.12h3.59c.73,0,1.38.12,1.96.38.58.25,1.03.62,1.36,1.1.33.49.5,1.08.5,1.79,0,.67-.15,1.24-.45,1.72-.3.47-.72.84-1.26,1.09s-1.16.38-1.88.38h-2.09v3.67h-1.73ZM270.59,13.56h2.06c.59,0,1.08-.18,1.45-.53.38-.35.56-.82.56-1.39s-.2-1.03-.59-1.35c-.39-.32-.88-.48-1.48-.48h-2.01v3.75Z"/><path class="cls-27" d="M277.9,18.59v-10.12h4.11c.77,0,1.41.12,1.91.36.5.24.87.58,1.12,1.02.24.44.36.95.36,1.53,0,.54-.09,1-.27,1.36s-.41.67-.69.9c-.28.23-.58.42-.91.56l1.93,4.4h-1.78l-1.74-4.11h-2.35v4.11h-1.7ZM279.6,13.13h2.02c.64,0,1.15-.15,1.51-.45s.54-.71.54-1.25-.17-.92-.5-1.21-.78-.42-1.33-.42h-2.24v3.33Z"/><path class="cls-27" d="M291.37,18.73c-.93,0-1.74-.21-2.42-.62-.68-.41-1.2-1-1.57-1.78-.37-.77-.56-1.7-.56-2.79s.19-2.03.56-2.81c.37-.78.9-1.38,1.59-1.79.68-.42,1.48-.62,2.4-.62s1.72.21,2.39.62c.67.42,1.2,1.01,1.56,1.79s.55,1.71.55,2.81-.18,2.01-.55,2.78c-.36.77-.88,1.37-1.56,1.78-.68.41-1.48.62-2.4.62ZM291.37,17.3c.55,0,1.02-.13,1.42-.39.4-.26.7-.66.91-1.21.21-.55.32-1.26.32-2.13s-.11-1.61-.32-2.17c-.21-.56-.52-.98-.92-1.24-.4-.27-.87-.4-1.41-.4s-1.03.13-1.42.4-.71.68-.93,1.25c-.22.56-.33,1.28-.33,2.17s.11,1.58.33,2.13c.22.55.53.95.93,1.21s.87.39,1.42.39Z"/><path class="cls-27" d="M297.82,18.59v-10.12h1.77v4.91l4.07-4.91h1.98l-3.21,3.95,3.55,6.17h-1.88l-2.89-4.93-1.62,1.9v3.04h-1.77Z"/><path class="cls-27" d="M307.09,18.59l3.64-10.12h1.85l3.63,10.12h-1.71l-.9-2.53h-3.88l-.91,2.53h-1.72ZM310.13,14.54h3.04l-1.52-4.42-1.53,4.42Z"/><path class="cls-27" d="M317.91,18.59v-10.12h4.11c.77,0,1.41.12,1.91.36.5.24.87.58,1.12,1.02.24.44.36.95.36,1.53,0,.54-.09,1-.27,1.36s-.41.67-.69.9c-.28.23-.58.42-.91.56l1.93,4.4h-1.78l-1.74-4.11h-2.35v4.11h-1.7ZM319.61,13.13h2.02c.64,0,1.15-.15,1.51-.45s.54-.71.54-1.25-.17-.92-.5-1.21-.78-.42-1.33-.42h-2.24v3.33Z"/><path class="cls-27" d="M329.63,18.59v-4.28l-3.49-5.84h1.85l2.5,4.35,2.46-4.35h1.86l-3.48,5.84v4.28h-1.7Z"/><path class="cls-27" d="M339.7,18.73c-.93,0-1.74-.21-2.42-.62-.68-.41-1.2-1-1.57-1.78-.37-.77-.56-1.7-.56-2.79s.19-2.03.56-2.81c.37-.78.9-1.38,1.59-1.79.68-.42,1.48-.62,2.4-.62s1.72.21,2.39.62c.67.42,1.2,1.01,1.56,1.79s.55,1.71.55,2.81-.18,2.01-.55,2.78c-.36.77-.88,1.37-1.56,1.78-.68.41-1.48.62-2.4.62ZM339.7,17.3c.55,0,1.02-.13,1.42-.39.4-.26.7-.66.91-1.21.21-.55.32-1.26.32-2.13s-.11-1.61-.32-2.17c-.21-.56-.52-.98-.92-1.24-.4-.27-.87-.4-1.41-.4s-1.03.13-1.42.4-.71.68-.93,1.25c-.22.56-.33,1.28-.33,2.17s.11,1.58.33,2.13c.22.55.53.95.93,1.21s.87.39,1.42.39Z"/><path class="cls-27" d="M348.47,18.59v-8.59h-3.15v-1.53h7.9v1.53h-3.04v8.59h-1.71Z"/><path class="cls-27" d="M354.73,18.59v-10.12h6.69v1.46h-4.98v2.83h4.39v1.44h-4.4v2.9h5.09v1.48h-6.79Z"/><path class="cls-27" d="M363.6,18.59v-10.12h4.11c.77,0,1.41.12,1.91.36.5.24.87.58,1.12,1.02.24.44.36.95.36,1.53,0,.54-.09,1-.27,1.36s-.41.67-.69.9c-.28.23-.58.42-.91.56l1.93,4.4h-1.78l-1.74-4.11h-2.35v4.11h-1.7ZM365.3,13.13h2.02c.64,0,1.15-.15,1.51-.45s.54-.71.54-1.25-.17-.92-.5-1.21-.78-.42-1.33-.42h-2.24v3.33Z"/><path class="cls-27" d="M262.35,38.73c-.88,0-1.59-.14-2.13-.43-.54-.29-.94-.71-1.19-1.27-.25-.56-.37-1.25-.37-2.06v-6.49h1.34v6.69c0,.82.2,1.43.61,1.83.41.41.99.61,1.74.61.51,0,.94-.09,1.3-.27.36-.18.63-.45.82-.81s.28-.82.28-1.37v-6.69h1.3v6.62c0,.78-.13,1.44-.38,1.98-.26.54-.66.95-1.2,1.24-.54.28-1.25.42-2.12.42Z"/><path class="cls-27" d="M270.71,38.59v-8.93h-3.27v-1.19h7.66v1.19h-3.09v8.93h-1.3Z"/><path class="cls-27" d="M274.77,38.59l3.67-10.12h1.46l3.66,10.12h-1.32l-.99-2.76h-4.15l-1,2.76h-1.32ZM277.43,34.63h3.45l-1.72-4.89-1.73,4.89Z"/><path class="cls-27" d="M285.47,38.59v-10.12h1.24l5.35,7.87v-7.87h1.3v10.12h-1.16l-5.43-7.98v7.98h-1.29Z"/><path class="cls-27" d="M303.15,38.73c-.91,0-1.69-.21-2.33-.62-.64-.42-1.13-1.01-1.47-1.79-.34-.78-.51-1.72-.51-2.82s.17-2.03.5-2.8c.34-.77.83-1.36,1.47-1.76.64-.4,1.42-.61,2.33-.61.71,0,1.35.15,1.9.44.55.3.99.69,1.33,1.19.34.49.53,1.04.59,1.63h-1.38c-.07-.4-.22-.76-.43-1.08s-.49-.58-.83-.77-.75-.29-1.23-.29c-.61,0-1.13.14-1.55.43-.42.29-.74.73-.96,1.33-.22.6-.33,1.36-.33,2.3,0,1.41.24,2.44.72,3.1s1.19.99,2.11.99c.48,0,.88-.1,1.23-.3.34-.2.62-.47.83-.8s.35-.7.43-1.09h1.38c-.05.43-.17.84-.35,1.24-.18.4-.43.75-.74,1.07s-.7.56-1.15.74c-.46.18-.98.27-1.59.27Z"/><path class="cls-27" d="M309.06,38.59v-10.12h6.38v1.14h-5.08v3.3h4.57v1.13h-4.58v3.37h5.22v1.17h-6.52Z"/><path class="cls-27" d="M317.84,38.59v-10.12h1.33v8.96h4.78v1.16h-6.11Z"/><path class="cls-27" d="M325.93,38.59v-10.12h1.33v8.96h4.78v1.16h-6.11Z"/><path class="cls-27" d="M334.01,38.59v-10.12h1.34v5.24l4.54-5.24h1.55l-3.38,3.98,3.68,6.15h-1.46l-3.16-5.2-1.76,2.01v3.19h-1.34Z"/><path class="cls-27" d="M342.99,38.59l3.67-10.12h1.46l3.66,10.12h-1.32l-.99-2.76h-4.15l-1,2.76h-1.32ZM345.39,26.84v-1.25h1.27v1.25h-1.27ZM345.65,34.63h3.45l-1.72-4.89-1.73,4.89ZM348.11,26.84v-1.25h1.27v1.25h-1.27Z"/><path class="cls-27" d="M353.69,38.59v-10.12h3.92c.73,0,1.34.11,1.83.33.49.22.86.54,1.1.95s.36.91.36,1.48-.1,1.01-.29,1.37c-.19.36-.44.66-.74.88-.3.22-.61.39-.93.51l1.99,4.59h-1.37l-1.85-4.36h-2.72v4.36h-1.29ZM354.98,33.16h2.21c.76,0,1.35-.16,1.76-.47.42-.31.62-.77.62-1.38s-.19-1.04-.56-1.34-.88-.44-1.52-.44h-2.51v3.63Z"/><path class="cls-27" d="M363.16,38.59v-10.12h1.24l5.35,7.87v-7.87h1.3v10.12h-1.16l-5.43-7.98v7.98h-1.29Z"/><path class="cls-27" d="M372.95,38.59l3.67-10.12h1.46l3.66,10.12h-1.32l-.99-2.76h-4.15l-1,2.76h-1.32ZM375.62,34.63h3.45l-1.72-4.89-1.73,4.89Z"/><path class="cls-27" d="M547.52,18.59v-10.12h6.69v1.46h-4.98v2.83h4.39v1.44h-4.4v2.9h5.09v1.48h-6.79Z"/><path class="cls-27" d="M560.2,18.73c-.93,0-1.69-.15-2.26-.46-.57-.31-.99-.76-1.24-1.34-.26-.58-.38-1.29-.38-2.12v-6.33h1.74v6.5c0,.78.19,1.36.58,1.74s.91.56,1.56.56c.44,0,.83-.08,1.16-.25.33-.16.58-.41.76-.75.18-.34.27-.77.27-1.3v-6.5h1.72v6.43c0,.8-.13,1.49-.39,2.06-.26.57-.68,1.01-1.25,1.32-.57.31-1.32.46-2.26.46Z"/><path class="cls-27" d="M566.3,18.59v-10.12h1.77v4.91l4.07-4.91h1.98l-3.21,3.95,3.55,6.17h-1.88l-2.89-4.93-1.62,1.9v3.04h-1.77Z"/><path class="cls-27" d="M575.58,18.59l3.64-10.12h1.85l3.63,10.12h-1.71l-.9-2.53h-3.88l-.91,2.53h-1.72ZM578.62,14.54h3.04l-1.52-4.42-1.53,4.42Z"/><path class="cls-27" d="M586.4,18.59v-10.12h4.11c.77,0,1.41.12,1.91.36s.87.58,1.12,1.02c.24.44.36.95.36,1.53,0,.54-.09,1-.27,1.36-.18.37-.41.67-.69.9-.28.23-.58.42-.91.56l1.93,4.4h-1.78l-1.74-4.11h-2.35v4.11h-1.7ZM588.1,13.13h2.02c.64,0,1.15-.15,1.51-.45.36-.3.54-.71.54-1.25s-.17-.92-.5-1.21-.78-.42-1.33-.42h-2.24v3.33Z"/><path class="cls-27" d="M598.12,18.59v-4.28l-3.49-5.84h1.85l2.5,4.35,2.46-4.35h1.86l-3.48,5.84v4.28h-1.7Z"/><path class="cls-27" d="M608.19,18.73c-.93,0-1.74-.21-2.42-.62-.68-.41-1.2-1-1.58-1.78s-.56-1.7-.56-2.79.19-2.03.56-2.81c.37-.78.9-1.38,1.58-1.79.68-.42,1.49-.62,2.4-.62s1.72.21,2.39.62c.67.42,1.2,1.01,1.56,1.79.37.78.55,1.71.55,2.81s-.18,2.01-.55,2.78c-.36.77-.88,1.37-1.56,1.78s-1.48.62-2.4.62ZM608.19,17.3c.55,0,1.02-.13,1.42-.39.4-.26.7-.66.91-1.21.21-.55.32-1.26.32-2.13s-.11-1.61-.32-2.17c-.21-.56-.52-.98-.92-1.24-.4-.27-.87-.4-1.41-.4s-1.03.13-1.42.4c-.4.27-.71.68-.93,1.25s-.33,1.28-.33,2.17.11,1.58.33,2.13c.22.55.53.95.93,1.21.4.26.87.39,1.42.39Z"/><path class="cls-27" d="M616.95,18.59v-8.59h-3.15v-1.53h7.9v1.53h-3.04v8.59h-1.71Z"/><path class="cls-27" d="M623.22,18.59v-10.12h6.69v1.46h-4.98v2.83h4.39v1.44h-4.4v2.9h5.09v1.48h-6.79Z"/><path class="cls-27" d="M632.08,18.59v-10.12h4.11c.77,0,1.41.12,1.91.36s.87.58,1.12,1.02c.24.44.36.95.36,1.53,0,.54-.09,1-.27,1.36-.18.37-.41.67-.69.9-.28.23-.58.42-.91.56l1.93,4.4h-1.78l-1.74-4.11h-2.35v4.11h-1.7ZM633.78,13.13h2.02c.64,0,1.15-.15,1.51-.45.36-.3.54-.71.54-1.25s-.17-.92-.5-1.21-.78-.42-1.33-.42h-2.24v3.33Z"/><path class="cls-27" d="M535.46,38.59v-10.12h1.79l3.05,8.36,3.09-8.36h1.79v10.12h-1.34v-8.18l-2.93,8.18h-1.21l-2.91-8.11v8.11h-1.33Z"/><path class="cls-27" d="M547.86,38.59v-10.12h6.38v1.14h-5.08v3.3h4.57v1.13h-4.58v3.37h5.22v1.17h-6.52Z"/><path class="cls-27" d="M556.64,38.59v-10.12s.13,0,.3,0c.17,0,.37,0,.61,0,.24,0,.49,0,.74,0,.26,0,.49,0,.71,0,1.24.02,2.25.22,3.02.61.77.39,1.34.94,1.7,1.68.36.73.54,1.63.54,2.7s-.19,2.06-.58,2.82-.98,1.33-1.78,1.72-1.81.58-3.03.58h-2.22ZM557.97,37.48h.89c.83,0,1.55-.13,2.16-.39.6-.26,1.07-.68,1.39-1.26.32-.58.49-1.36.49-2.34s-.16-1.75-.47-2.32c-.32-.57-.77-.98-1.36-1.22s-1.31-.37-2.14-.37h-.95v7.9Z"/><path class="cls-27" d="M573.47,38.73c-.91,0-1.69-.21-2.33-.62-.64-.42-1.13-1.01-1.47-1.79-.34-.78-.51-1.72-.51-2.82s.17-2.03.5-2.8c.34-.77.83-1.36,1.47-1.76.64-.4,1.42-.61,2.33-.61.71,0,1.35.15,1.9.44.55.3.99.69,1.33,1.19.34.49.53,1.04.59,1.63h-1.38c-.08-.4-.22-.76-.43-1.08s-.49-.58-.83-.77-.75-.29-1.23-.29c-.61,0-1.13.14-1.55.43-.42.29-.74.73-.96,1.33-.22.6-.33,1.36-.33,2.3,0,1.41.24,2.44.72,3.1.48.66,1.19.99,2.11.99.48,0,.88-.1,1.23-.3.34-.2.62-.47.83-.8s.35-.7.43-1.09h1.38c-.05.43-.17.84-.35,1.24-.18.4-.43.75-.74,1.07s-.7.56-1.15.74c-.46.18-.98.27-1.59.27Z"/><path class="cls-27" d="M579.39,38.59v-10.12h6.38v1.14h-5.08v3.3h4.57v1.13h-4.58v3.37h5.22v1.17h-6.52Z"/><path class="cls-27" d="M588.16,38.59v-10.12h1.33v8.96h4.78v1.16h-6.11Z"/><path class="cls-27" d="M596.25,38.59v-10.12h1.33v8.96h4.78v1.16h-6.11Z"/><path class="cls-27" d="M604.33,38.59v-10.12h1.34v5.24l4.54-5.24h1.55l-3.38,3.98,3.68,6.15h-1.46l-3.16-5.2-1.76,2.01v3.19h-1.34Z"/><path class="cls-27" d="M613.31,38.59l3.67-10.12h1.46l3.66,10.12h-1.32l-.99-2.76h-4.15l-1,2.76h-1.32ZM615.71,26.84v-1.25h1.27v1.25h-1.27ZM615.97,34.63h3.45l-1.72-4.89-1.73,4.89ZM618.43,26.84v-1.25h1.27v1.25h-1.27Z"/><path class="cls-27" d="M624.01,38.59v-10.12h3.92c.73,0,1.34.11,1.83.33.49.22.86.54,1.1.95.24.41.36.91.36,1.48s-.1,1.01-.29,1.37c-.19.36-.44.66-.74.88-.3.22-.61.39-.93.51l1.99,4.59h-1.37l-1.85-4.36h-2.72v4.36h-1.29ZM625.3,33.16h2.21c.76,0,1.35-.16,1.76-.47.42-.31.62-.77.62-1.38s-.19-1.04-.56-1.34-.88-.44-1.52-.44h-2.51v3.63Z"/><path class="cls-27" d="M633.48,38.59v-10.12h1.24l5.35,7.87v-7.87h1.29v10.12h-1.16l-5.43-7.98v7.98h-1.29Z"/><path class="cls-27" d="M643.27,38.59l3.67-10.12h1.46l3.66,10.12h-1.32l-.99-2.76h-4.15l-1,2.76h-1.32ZM645.94,34.63h3.45l-1.72-4.89-1.73,4.89Z"/><path class="cls-27" d="M44.08,461.24v-2.4s-4.7,0-4.7,0v-1.45l4.66-6.27h1.69v6.27h1.62v1.45h-1.62v2.4h-1.65ZM40.98,457.39h3.1v-4.16l-3.1,4.16Z"/><path class="cls-27" d="M48.49,461.24v-1.96h1.92v1.96h-1.92Z"/><path class="cls-27" d="M55.92,461.39c-.83,0-1.54-.21-2.14-.62-.6-.41-1.07-.99-1.39-1.75-.32-.75-.49-1.64-.49-2.67,0-1.1.16-2.05.48-2.86.32-.81.79-1.43,1.4-1.87.61-.44,1.36-.66,2.23-.66.6,0,1.15.11,1.66.33s.93.54,1.25.96c.33.42.52.92.57,1.5h-1.58c-.13-.45-.35-.8-.67-1.05-.32-.25-.72-.37-1.2-.37-.54,0-.98.15-1.34.46-.36.3-.62.74-.77,1.3-.16.57-.21,1.25-.15,2.03.14-.28.34-.51.59-.72.25-.2.53-.36.85-.47s.65-.17,1.01-.17c.68,0,1.27.13,1.78.38.51.26.91.62,1.19,1.09.28.47.43,1.03.43,1.67s-.15,1.26-.46,1.78c-.31.52-.74.93-1.29,1.23s-1.2.45-1.95.45ZM55.88,460.06c.36,0,.69-.09.98-.26.29-.17.52-.41.69-.72s.26-.66.26-1.06-.08-.76-.24-1.04c-.16-.29-.38-.5-.68-.65-.29-.15-.63-.22-1.03-.22-.32,0-.63.07-.93.22-.3.15-.55.34-.74.58s-.28.49-.28.76c0,.48.07.9.24,1.26s.39.64.69.84.64.3,1.03.3Z"/><path class="cls-27" d="M64.75,461.24v-10.12h2.44l2.65,7.74,2.68-7.74h2.42v10.12h-1.73v-7.94l-2.67,7.94h-1.42l-2.65-7.89v7.89h-1.73Z"/><path class="cls-27" d="M77.4,461.24v-10.12h1.7v10.12h-1.7Z"/><path class="cls-27" d="M81.55,461.24v-10.12h1.73v8.65h4.57v1.47h-6.3Z"/><path class="cls-27" d="M91,461.38c-.34,0-.67-.03-1-.1-.33-.07-.56-.12-.7-.16l.07-1.58c.14.04.3.09.48.15s.39.09.64.09c.47,0,.78-.13.95-.38s.25-.67.25-1.24v-7.04h1.71v7.5c0,.6-.07,1.11-.2,1.52-.13.41-.37.72-.72.93-.35.21-.84.32-1.48.32Z"/><path class="cls-27" d="M94.31,461.24l3.64-10.12h1.85l3.63,10.12h-1.71l-.9-2.53h-3.88l-.91,2.53h-1.72ZM97.35,457.19h3.04l-1.52-4.42-1.53,4.42Z"/><path class="cls-27" d="M105.13,461.24v-10.12h4.11c.77,0,1.41.12,1.91.36.5.24.87.58,1.12,1.02.24.44.36.95.36,1.53,0,.54-.09,1-.27,1.36s-.41.67-.69.9c-.28.23-.58.42-.91.56l1.93,4.4h-1.78l-1.74-4.11h-2.35v4.11h-1.7ZM106.83,455.78h2.02c.64,0,1.15-.15,1.51-.45s.54-.71.54-1.25-.17-.92-.5-1.21-.78-.42-1.33-.42h-2.24v3.33Z"/><path class="cls-27" d="M114.75,461.24v-10.12h1.1c.28,0,.57,0,.86,0,.29,0,.54,0,.76,0,1.23.02,2.23.24,3.01.63.77.4,1.34.97,1.7,1.7.36.74.54,1.62.54,2.66s-.19,2-.58,2.77c-.39.76-.97,1.34-1.76,1.75s-1.8.61-3.01.61h-2.62ZM116.48,459.83h.92c.7,0,1.31-.12,1.84-.36.53-.24.95-.63,1.25-1.17.3-.54.45-1.26.45-2.17s-.14-1.58-.42-2.11c-.28-.53-.68-.91-1.2-1.14-.52-.24-1.15-.35-1.88-.35h-.96v7.31Z"/><path class="cls-27" d="M124.66,461.24v-10.12h6.69v1.46h-4.98v2.83h4.39v1.44h-4.4v2.9h5.09v1.48h-6.79Z"/><path class="cls-27" d="M133.52,461.24v-10.12h4.11c.77,0,1.41.12,1.91.36.5.24.87.58,1.12,1.02.24.44.36.95.36,1.53,0,.54-.09,1-.27,1.36s-.41.67-.69.9c-.28.23-.58.42-.91.56l1.93,4.4h-1.78l-1.74-4.11h-2.35v4.11h-1.7ZM135.22,455.78h2.02c.64,0,1.15-.15,1.51-.45s.54-.71.54-1.25-.17-.92-.5-1.21-.78-.42-1.33-.42h-2.24v3.33Z"/><path class="cls-27" d="M55.54,481.24l3.67-10.12h1.46l3.66,10.12h-1.32l-.99-2.76h-4.15l-1,2.76h-1.32ZM58.21,477.28h3.45l-1.72-4.89-1.73,4.89ZM59.95,470.28c-.4,0-.74-.14-1.02-.42-.28-.28-.42-.63-.42-1.05,0-.38.14-.71.43-.98.28-.27.62-.41,1.02-.41.27,0,.52.06.73.19.22.13.39.3.52.51s.19.45.19.71c0,.41-.14.75-.42,1.03-.28.28-.62.42-1.03.42ZM59.93,469.61c.21,0,.39-.08.53-.23.14-.15.21-.33.21-.53,0-.22-.07-.4-.21-.54-.14-.14-.32-.21-.53-.21s-.38.07-.53.21c-.15.14-.23.32-.23.54,0,.2.08.38.23.53.15.15.33.23.53.23Z"/><path class="cls-27" d="M66.25,481.24v-10.12h3.92c.73,0,1.34.11,1.83.33.49.22.86.54,1.1.95s.36.91.36,1.48-.1,1.01-.29,1.37c-.19.36-.44.66-.74.88-.3.22-.61.39-.93.51l1.99,4.59h-1.37l-1.85-4.36h-2.72v4.36h-1.29ZM67.54,475.81h2.21c.76,0,1.35-.16,1.76-.47.42-.31.62-.77.62-1.38s-.19-1.04-.56-1.34-.88-.44-1.52-.44h-2.51v3.63Z"/><path class="cls-27" d="M82.55,481.38c-.49,0-.96-.06-1.41-.18-.44-.12-.85-.3-1.21-.54-.36-.24-.66-.53-.9-.89-.24-.35-.38-.76-.44-1.23h1.36c.08.38.25.71.5.97.25.26.56.46.93.59s.78.2,1.22.2.82-.07,1.19-.2c.36-.14.65-.33.87-.59s.33-.57.33-.93c0-.4-.13-.72-.39-.97s-.67-.44-1.21-.59l-2.09-.54c-.47-.12-.89-.28-1.25-.49-.36-.21-.65-.49-.85-.84-.21-.35-.31-.78-.31-1.3,0-.57.16-1.07.48-1.5.32-.43.75-.76,1.29-1,.54-.24,1.16-.35,1.84-.35.79,0,1.46.14,2.01.41s.96.64,1.24,1.08c.28.45.42.93.42,1.43h-1.33c-.05-.46-.18-.83-.41-1.09-.23-.27-.51-.46-.85-.58s-.71-.18-1.11-.18c-.72,0-1.27.16-1.64.49s-.56.72-.56,1.17c0,.42.13.74.4.98.27.24.66.42,1.18.55l2.03.52c.6.14,1.08.34,1.44.61.36.27.61.58.77.93s.23.73.23,1.14c0,.56-.16,1.06-.47,1.5-.31.44-.75.78-1.31,1.03-.56.25-1.22.37-1.98.37Z"/><path class="cls-27" d="M88.45,481.24v-10.12h6.38v1.14h-5.08v3.3h4.57v1.13h-4.58v3.37h5.22v1.17h-6.52Z"/><path class="cls-27" d="M97.23,481.24v-10.12s.13,0,.3,0c.17,0,.37,0,.61,0,.24,0,.48,0,.74,0,.26,0,.49,0,.71,0,1.24.02,2.25.22,3.02.61.77.39,1.34.94,1.7,1.68.36.73.54,1.63.54,2.7s-.19,2.06-.58,2.82-.98,1.33-1.78,1.72c-.8.39-1.81.58-3.03.58h-2.22ZM98.56,480.13h.89c.83,0,1.55-.13,2.16-.39.6-.26,1.06-.68,1.39-1.26.32-.58.49-1.36.49-2.34s-.16-1.75-.47-2.32c-.32-.57-.77-.98-1.36-1.22s-1.31-.37-2.14-.37h-.94v7.9Z"/><path class="cls-27" d="M105.78,481.24l3.67-10.12h1.46l3.66,10.12h-1.32l-.99-2.76h-4.15l-1,2.76h-1.32ZM108.44,477.28h3.45l-1.72-4.89-1.73,4.89Z"/><path class="cls-27" d="M116.48,481.24v-10.12h1.24l5.35,7.87v-7.87h1.3v10.12h-1.16l-5.43-7.98v7.98h-1.29Z"/><path class="cls-27" d="M373.67,453.05v-1.38c0-.52.1-.96.29-1.34.19-.38.45-.7.76-.98s.67-.53,1.05-.75.76-.42,1.13-.62c.38-.19.72-.39,1.04-.6.32-.21.57-.44.77-.7.19-.26.29-.56.29-.91,0-.46-.16-.83-.48-1.12-.32-.29-.75-.43-1.3-.43-.58,0-1.06.17-1.43.5-.38.33-.6.8-.67,1.41h-1.65c0-.62.16-1.18.44-1.69.28-.5.71-.91,1.27-1.21s1.26-.45,2.09-.45c.72,0,1.35.12,1.87.37.52.25.93.6,1.22,1.04.29.45.43.96.43,1.56,0,.52-.09.96-.28,1.33-.19.37-.44.69-.75.96-.31.27-.65.51-1.02.71s-.74.4-1.11.58c-.37.18-.71.37-1.02.56-.31.19-.56.41-.75.66-.19.25-.28.54-.28.89v.15h5.24v1.46h-7.14Z"/><path class="cls-27" d="M385.99,453.05v-10.12h2.44l2.65,7.74,2.68-7.74h2.42v10.12h-1.73v-7.94l-2.67,7.94h-1.42l-2.65-7.89v7.89h-1.73Z"/><path class="cls-27" d="M398.63,453.05v-10.12h1.7v10.12h-1.7Z"/><path class="cls-27" d="M402.78,453.05v-10.12h1.73v8.65h4.57v1.47h-6.3Z"/><path class="cls-27" d="M412.24,453.19c-.34,0-.67-.03-1-.1-.33-.07-.56-.12-.7-.16l.07-1.58c.14.04.3.09.48.15.18.06.39.09.64.09.47,0,.78-.13.95-.38.17-.25.25-.67.25-1.24v-7.04h1.71v7.5c0,.6-.07,1.11-.2,1.52s-.37.72-.72.93c-.34.21-.84.32-1.48.32Z"/><path class="cls-27" d="M415.54,453.05l3.64-10.12h1.85l3.63,10.12h-1.71l-.9-2.53h-3.88l-.91,2.53h-1.72ZM418.58,449h3.04l-1.52-4.42-1.53,4.42Z"/><path class="cls-27" d="M426.36,453.05v-10.12h4.11c.77,0,1.41.12,1.91.36s.87.58,1.12,1.02c.24.44.36.95.36,1.53,0,.54-.09,1-.27,1.36-.18.37-.41.67-.69.9-.28.23-.58.42-.91.56l1.93,4.4h-1.78l-1.74-4.11h-2.35v4.11h-1.7ZM428.06,447.59h2.02c.64,0,1.15-.15,1.51-.45.36-.3.54-.71.54-1.25s-.17-.92-.5-1.21-.78-.42-1.33-.42h-2.24v3.33Z"/><path class="cls-27" d="M435.98,453.05v-10.12h1.1c.28,0,.57,0,.86,0,.29,0,.54,0,.76,0,1.23.02,2.23.24,3.01.63.77.4,1.34.97,1.7,1.7s.54,1.62.54,2.66-.19,2-.58,2.77-.97,1.34-1.76,1.75-1.8.61-3.01.61h-2.62ZM437.71,451.64h.92c.7,0,1.31-.12,1.84-.36s.95-.63,1.25-1.17c.3-.54.45-1.26.45-2.17s-.14-1.58-.42-2.11c-.28-.53-.68-.91-1.2-1.14-.52-.24-1.15-.35-1.88-.35h-.96v7.31Z"/><path class="cls-27" d="M445.89,453.05v-10.12h6.69v1.46h-4.98v2.83h4.39v1.44h-4.4v2.9h5.09v1.48h-6.79Z"/><path class="cls-27" d="M454.75,453.05v-10.12h4.11c.77,0,1.41.12,1.91.36s.87.58,1.12,1.02c.24.44.36.95.36,1.53,0,.54-.09,1-.27,1.36-.18.37-.41.67-.69.9-.28.23-.58.42-.91.56l1.93,4.4h-1.78l-1.74-4.11h-2.35v4.11h-1.7ZM456.46,447.59h2.02c.64,0,1.15-.15,1.51-.45.36-.3.54-.71.54-1.25s-.17-.92-.5-1.21-.78-.42-1.33-.42h-2.24v3.33Z"/><path class="cls-27" d="M383.21,473.05l3.67-10.12h1.46l3.66,10.12h-1.32l-.99-2.76h-4.15l-1,2.76h-1.32ZM385.88,469.09h3.45l-1.72-4.89-1.73,4.89ZM387.61,462.09c-.4,0-.74-.14-1.02-.42-.28-.28-.42-.63-.42-1.05,0-.38.14-.71.43-.98.28-.27.62-.41,1.02-.41.27,0,.52.06.73.19.22.13.39.3.52.51s.19.45.19.71c0,.41-.14.75-.42,1.03-.28.28-.62.42-1.03.42ZM387.6,461.42c.21,0,.39-.08.53-.23.14-.15.21-.33.21-.53,0-.22-.07-.4-.21-.54-.14-.14-.32-.21-.53-.21s-.38.07-.53.21c-.15.14-.23.32-.23.54,0,.2.08.38.23.53.15.15.33.23.53.23Z"/><path class="cls-27" d="M393.91,473.05v-10.12h3.92c.73,0,1.34.11,1.83.33.49.22.86.54,1.1.95s.36.91.36,1.48-.1,1.01-.29,1.37c-.19.36-.44.66-.74.88-.3.22-.61.39-.93.51l1.99,4.59h-1.37l-1.85-4.36h-2.72v4.36h-1.29ZM395.21,467.62h2.21c.76,0,1.35-.16,1.76-.47.42-.31.62-.77.62-1.38s-.19-1.04-.56-1.34-.88-.44-1.52-.44h-2.51v3.63Z"/><path class="cls-27" d="M410.21,473.19c-.49,0-.96-.06-1.41-.18-.44-.12-.85-.3-1.21-.54-.36-.24-.66-.53-.9-.89-.24-.35-.38-.76-.44-1.23h1.36c.08.38.25.71.5.97.25.26.56.46.93.59s.78.2,1.22.2.82-.07,1.19-.2c.36-.14.65-.33.87-.59.22-.26.33-.57.33-.93,0-.4-.13-.72-.39-.97-.26-.25-.67-.44-1.21-.59l-2.09-.54c-.47-.12-.89-.28-1.25-.49-.36-.21-.65-.49-.85-.84s-.31-.78-.31-1.3c0-.57.16-1.07.48-1.5.32-.43.75-.76,1.29-1,.54-.24,1.16-.35,1.84-.35.79,0,1.46.14,2.01.41.54.28.96.64,1.24,1.08s.42.93.42,1.43h-1.33c-.05-.46-.18-.83-.41-1.09-.23-.27-.51-.46-.85-.58s-.71-.18-1.11-.18c-.72,0-1.27.16-1.64.49s-.56.72-.56,1.17c0,.42.13.74.4.98.27.24.66.42,1.18.55l2.03.52c.6.14,1.08.34,1.44.61s.61.58.77.93.24.73.24,1.14c0,.56-.16,1.06-.47,1.5-.31.44-.75.78-1.31,1.03-.56.25-1.22.37-1.98.37Z"/><path class="cls-27" d="M416.12,473.05v-10.12h6.38v1.14h-5.08v3.3h4.57v1.13h-4.58v3.37h5.22v1.17h-6.52Z"/><path class="cls-27" d="M424.89,473.05v-10.12s.13,0,.3,0c.17,0,.37,0,.61,0,.24,0,.49,0,.74,0,.26,0,.49,0,.71,0,1.24.02,2.25.22,3.02.61.77.39,1.34.94,1.7,1.68.36.73.54,1.63.54,2.7s-.19,2.06-.58,2.82-.98,1.33-1.78,1.72-1.81.58-3.03.58h-2.22ZM426.22,471.94h.89c.83,0,1.55-.13,2.16-.39.6-.26,1.07-.68,1.39-1.26.32-.58.49-1.36.49-2.34s-.16-1.75-.47-2.32c-.32-.57-.77-.98-1.36-1.22s-1.31-.37-2.14-.37h-.95v7.9Z"/><path class="cls-27" d="M433.44,473.05l3.67-10.12h1.46l3.66,10.12h-1.32l-.99-2.76h-4.15l-1,2.76h-1.32ZM436.11,469.09h3.45l-1.72-4.89-1.73,4.89Z"/><path class="cls-27" d="M444.14,473.05v-10.12h1.24l5.35,7.87v-7.87h1.3v10.12h-1.16l-5.43-7.98v7.98h-1.29Z"/><path class="cls-27" d="M511.8,453.05v-7.8h-1.88v-1.02c.59,0,1.06-.05,1.41-.15.35-.1.6-.25.76-.44.16-.2.25-.43.28-.71h1.16v10.12h-1.74Z"/><path class="cls-27" d="M519.66,453.05v-10.12h2.44l2.65,7.74,2.68-7.74h2.42v10.12h-1.73v-7.94l-2.67,7.94h-1.42l-2.65-7.89v7.89h-1.73Z"/><path class="cls-27" d="M532.3,453.05v-10.12h1.7v10.12h-1.7Z"/><path class="cls-27" d="M536.45,453.05v-10.12h1.73v8.65h4.57v1.47h-6.3Z"/><path class="cls-27" d="M545.91,453.19c-.34,0-.67-.03-1-.1-.33-.07-.56-.12-.7-.16l.07-1.58c.14.04.3.09.48.15.18.06.39.09.64.09.47,0,.78-.13.95-.38.17-.25.25-.67.25-1.24v-7.04h1.71v7.5c0,.6-.07,1.11-.2,1.52s-.37.72-.72.93c-.34.21-.84.32-1.48.32Z"/><path class="cls-27" d="M549.21,453.05l3.64-10.12h1.85l3.63,10.12h-1.71l-.9-2.53h-3.88l-.91,2.53h-1.72ZM552.25,449h3.04l-1.52-4.42-1.53,4.42Z"/><path class="cls-27" d="M560.03,453.05v-10.12h4.11c.77,0,1.41.12,1.91.36s.87.58,1.12,1.02c.24.44.36.95.36,1.53,0,.54-.09,1-.27,1.36-.18.37-.41.67-.69.9-.28.23-.58.42-.91.56l1.93,4.4h-1.78l-1.74-4.11h-2.35v4.11h-1.7ZM561.73,447.59h2.02c.64,0,1.15-.15,1.51-.45.36-.3.54-.71.54-1.25s-.17-.92-.5-1.21-.78-.42-1.33-.42h-2.24v3.33Z"/><path class="cls-27" d="M569.65,453.05v-10.12h1.1c.28,0,.57,0,.86,0,.29,0,.54,0,.76,0,1.23.02,2.23.24,3.01.63.77.4,1.34.97,1.7,1.7s.54,1.62.54,2.66-.19,2-.58,2.77-.97,1.34-1.76,1.75-1.8.61-3.01.61h-2.62ZM571.38,451.64h.92c.7,0,1.31-.12,1.84-.36s.95-.63,1.25-1.17c.3-.54.45-1.26.45-2.17s-.14-1.58-.42-2.11c-.28-.53-.68-.91-1.2-1.14-.52-.24-1.15-.35-1.88-.35h-.96v7.31Z"/><path class="cls-27" d="M579.56,453.05v-10.12h6.69v1.46h-4.98v2.83h4.39v1.44h-4.4v2.9h5.09v1.48h-6.79Z"/><path class="cls-27" d="M588.42,453.05v-10.12h4.11c.77,0,1.41.12,1.91.36s.87.58,1.12,1.02c.24.44.36.95.36,1.53,0,.54-.09,1-.27,1.36-.18.37-.41.67-.69.9-.28.23-.58.42-.91.56l1.93,4.4h-1.78l-1.74-4.11h-2.35v4.11h-1.7ZM590.13,447.59h2.02c.64,0,1.15-.15,1.51-.45.36-.3.54-.71.54-1.25s-.17-.92-.5-1.21-.78-.42-1.33-.42h-2.24v3.33Z"/><path class="cls-27" d="M518.27,473.05l3.67-10.12h1.46l3.66,10.12h-1.32l-.99-2.76h-4.15l-1,2.76h-1.32ZM520.94,469.09h3.45l-1.72-4.89-1.73,4.89ZM522.67,462.09c-.4,0-.74-.14-1.02-.42-.28-.28-.42-.63-.42-1.05,0-.38.14-.71.43-.98.28-.27.62-.41,1.01-.41.27,0,.52.06.74.19.22.13.39.3.52.51.13.21.19.45.19.71,0,.41-.14.75-.42,1.03-.28.28-.62.42-1.03.42ZM522.66,461.42c.21,0,.39-.08.53-.23.14-.15.21-.33.21-.53,0-.22-.07-.4-.21-.54s-.32-.21-.53-.21-.38.07-.53.21c-.15.14-.23.32-.23.54,0,.2.08.38.23.53.15.15.33.23.53.23Z"/><path class="cls-27" d="M528.97,473.05v-10.12h3.92c.73,0,1.34.11,1.83.33.49.22.86.54,1.1.95.24.41.36.91.36,1.48s-.1,1.01-.29,1.37c-.19.36-.44.66-.74.88-.3.22-.61.39-.93.51l1.99,4.59h-1.37l-1.85-4.36h-2.72v4.36h-1.29ZM530.27,467.62h2.21c.76,0,1.35-.16,1.76-.47.42-.31.62-.77.62-1.38s-.19-1.04-.56-1.34-.88-.44-1.52-.44h-2.51v3.63Z"/><path class="cls-27" d="M545.28,473.19c-.5,0-.96-.06-1.41-.18-.44-.12-.85-.3-1.21-.54-.36-.24-.66-.53-.9-.89-.24-.35-.38-.76-.44-1.23h1.36c.08.38.25.71.5.97.25.26.56.46.93.59s.78.2,1.22.2.83-.07,1.19-.2c.36-.14.65-.33.87-.59.22-.26.33-.57.33-.93,0-.4-.13-.72-.39-.97-.26-.25-.67-.44-1.21-.59l-2.09-.54c-.47-.12-.89-.28-1.25-.49-.36-.21-.64-.49-.85-.84-.21-.35-.31-.78-.31-1.3,0-.57.16-1.07.48-1.5.32-.43.75-.76,1.29-1s1.16-.35,1.84-.35c.79,0,1.46.14,2,.41.54.28.96.64,1.24,1.08.28.45.42.93.42,1.43h-1.33c-.05-.46-.18-.83-.41-1.09-.23-.27-.51-.46-.85-.58s-.71-.18-1.11-.18c-.72,0-1.27.16-1.64.49s-.56.72-.56,1.17c0,.42.13.74.4.98.27.24.66.42,1.18.55l2.03.52c.6.14,1.08.34,1.44.61.36.27.61.58.77.93s.23.73.23,1.14c0,.56-.16,1.06-.47,1.5-.31.44-.75.78-1.31,1.03-.56.25-1.22.37-1.98.37Z"/><path class="cls-27" d="M551.18,473.05v-10.12h6.38v1.14h-5.08v3.3h4.57v1.13h-4.58v3.37h5.22v1.17h-6.52Z"/><path class="cls-27" d="M559.96,473.05v-10.12s.13,0,.3,0c.17,0,.37,0,.61,0,.24,0,.48,0,.74,0,.26,0,.49,0,.71,0,1.24.02,2.25.22,3.02.61.77.39,1.34.94,1.7,1.68s.54,1.63.54,2.7-.2,2.06-.58,2.82-.98,1.33-1.78,1.72c-.79.39-1.81.58-3.03.58h-2.22ZM561.29,471.94h.89c.83,0,1.55-.13,2.16-.39.6-.26,1.06-.68,1.39-1.26.32-.58.49-1.36.49-2.34s-.16-1.75-.47-2.32-.77-.98-1.36-1.22-1.31-.37-2.14-.37h-.94v7.9Z"/><path class="cls-27" d="M568.5,473.05l3.67-10.12h1.46l3.66,10.12h-1.32l-.99-2.76h-4.15l-1,2.76h-1.32ZM571.17,469.09h3.45l-1.72-4.89-1.73,4.89Z"/><path class="cls-27" d="M579.21,473.05v-10.12h1.24l5.35,7.87v-7.87h1.29v10.12h-1.16l-5.43-7.98v7.98h-1.29Z"/></svg>