<?xml version="1.0" encoding="UTF-8"?><svg id="Layer_1" xmlns="http://www.w3.org/2000/svg" width="1366" height="768" viewBox="0 0 1366 768"><defs><style>.cls-1,.cls-2,.cls-3,.cls-4,.cls-5,.cls-6,.cls-7{font-family:PublicSansRoman-Bold, 'Public Sans';font-variation-settings:'wght' 700;font-weight:700;}.cls-1,.cls-8{letter-spacing:0em;}.cls-2{letter-spacing:.02em;}.cls-9{stroke-dasharray:3.92 3.92;}.cls-9,.cls-10,.cls-11,.cls-12,.cls-13,.cls-14,.cls-15,.cls-16,.cls-17,.cls-18,.cls-19,.cls-20,.cls-21,.cls-22,.cls-23,.cls-24,.cls-25,.cls-26,.cls-27,.cls-28,.cls-29,.cls-30,.cls-31,.cls-32,.cls-33,.cls-34,.cls-35,.cls-36{stroke-width:1.5px;}.cls-9,.cls-10,.cls-11,.cls-12,.cls-13,.cls-14,.cls-17,.cls-20,.cls-21,.cls-23,.cls-24,.cls-25,.cls-26,.cls-27,.cls-28,.cls-29,.cls-30,.cls-33,.cls-34,.cls-36{fill:none;}.cls-9,.cls-11,.cls-12,.cls-15,.cls-37,.cls-16,.cls-18,.cls-19,.cls-20,.cls-21,.cls-22,.cls-23,.cls-25,.cls-26,.cls-27,.cls-28,.cls-31,.cls-33,.cls-34,.cls-35,.cls-36{stroke:#b1835e;}.cls-9,.cls-12,.cls-15,.cls-18,.cls-20,.cls-22,.cls-25,.cls-26,.cls-27,.cls-28,.cls-34,.cls-36{stroke-linejoin:round;}.cls-9,.cls-12,.cls-19,.cls-20,.cls-21,.cls-23,.cls-25,.cls-26,.cls-27,.cls-28,.cls-32,.cls-33,.cls-34,.cls-36{stroke-linecap:round;}.cls-10,.cls-11,.cls-13,.cls-14,.cls-37,.cls-16,.cls-17,.cls-21,.cls-38,.cls-23,.cls-24,.cls-29,.cls-30,.cls-31,.cls-39,.cls-33,.cls-35{stroke-miterlimit:10;}.cls-10,.cls-13,.cls-14,.cls-17,.cls-38,.cls-30,.cls-39{stroke:#d1b69f;}.cls-3{letter-spacing:-.03em;}.cls-12{stroke-dasharray:3.94 3.94;}.cls-4{letter-spacing:-.04em;}.cls-13{stroke-dasharray:4.02 4.02;}.cls-14{stroke-dasharray:3.8 3.8;}.cls-15{fill:#d0b59e;}.cls-37,.cls-38,.cls-40{fill:#b1835e;}.cls-16,.cls-18,.cls-19,.cls-41,.cls-32{fill:#e6d7cb;}.cls-17{stroke-dasharray:3.95 3.95;}.cls-19,.cls-32{stroke-miterlimit:1.25;}.cls-42{font-size:16px;}.cls-42,.cls-43,.cls-22,.cls-44{fill:#c19c7e;}.cls-20{stroke-dasharray:3.96 3.96;}.cls-43{font-size:17.87px;}.cls-43,.cls-45{font-family:PublicSansRoman-Regular, 'Public Sans';font-variation-settings:'wght' 400;}.cls-38,.cls-39{opacity:.1;}.cls-46{letter-spacing:0em;}.cls-23{stroke-dasharray:4.02 4.02;}.cls-5{letter-spacing:0em;}.cls-24,.cls-32{stroke:#8c6239;}.cls-25{stroke-dasharray:3.94 3.94;}.cls-47{letter-spacing:0em;}.cls-26{stroke-dasharray:3.99 3.99;}.cls-48{font-family:PublicSansRoman-SemiBold, 'Public Sans';font-variation-settings:'wght' 600;font-weight:600;}.cls-27{stroke-dasharray:3.99 3.99;}.cls-28{stroke-dasharray:3.76 3.76;}.cls-29{stroke:#d0b59e;}.cls-30{stroke-dasharray:4.56 4.56;}.cls-49{fill:#8c6239;}.cls-31,.cls-39{fill:#d1b69f;}.cls-50{letter-spacing:-.09em;}.cls-51{letter-spacing:-.06em;}.cls-52{letter-spacing:-.11em;}.cls-53{letter-spacing:-.02em;}.cls-54{letter-spacing:-.02em;}.cls-55{letter-spacing:-.02em;}.cls-56{letter-spacing:-.02em;}.cls-57{letter-spacing:-.01em;}.cls-58{letter-spacing:-.02em;}.cls-59{letter-spacing:-.04em;}.cls-60{letter-spacing:-.03em;}.cls-61{letter-spacing:0em;}.cls-62{letter-spacing:-.01em;}.cls-33{stroke-dasharray:3.83 3.83;}.cls-63{letter-spacing:.02em;}.cls-34{stroke-dasharray:3.98 3.98;}.cls-35{fill:#ebded3;}.cls-64{letter-spacing:.02em;}.cls-65{letter-spacing:0em;}.cls-66{letter-spacing:0em;}.cls-67{letter-spacing:0em;}.cls-68{letter-spacing:0em;}.cls-69{letter-spacing:0em;}.cls-70{letter-spacing:.01em;}.cls-7{letter-spacing:0em;}.cls-71{letter-spacing:.01em;}.cls-72{letter-spacing:0em;}.cls-73{letter-spacing:0em;}</style></defs><rect class="cls-39" x="733.38" y="65.89" width="506.19" height="543.11" rx="17.41" ry="17.41"/><rect class="cls-38" x="413.17" y="65.89" width="291.37" height="541.66" rx="17.67" ry="17.67"/><line class="cls-10" x1="554.8" y1="642.63" x2="554.8" y2="640.63"/><line class="cls-17" x1="554.8" y1="636.68" x2="554.8" y2="512.18"/><line class="cls-10" x1="554.8" y1="510.2" x2="554.8" y2="508.2"/><line class="cls-10" x1="516.67" y1="642.63" x2="518.67" y2="642.63"/><line class="cls-14" x1="522.48" y1="642.63" x2="589.04" y2="642.63"/><line class="cls-10" x1="590.94" y1="642.63" x2="592.94" y2="642.63"/><path class="cls-44" d="M508.31,676.96c-.87,0-1.62-.15-2.25-.45-.63-.29-1.12-.71-1.47-1.26-.35-.54-.53-1.19-.55-1.94h1.9c.11.69.39,1.2.82,1.53.43.33.96.5,1.59.5.52,0,.97-.08,1.34-.24.38-.16.67-.38.88-.65.21-.28.31-.6.31-.97,0-.39-.11-.72-.33-1s-.52-.49-.91-.64c-.38-.15-.82-.23-1.3-.24l-1.07-.03v-1.58l.99-.04c.46-.02.86-.1,1.21-.26.35-.16.62-.37.82-.63.2-.26.3-.55.3-.88,0-.3-.09-.57-.28-.81s-.44-.43-.78-.56c-.34-.14-.73-.2-1.19-.2-.39,0-.75.07-1.1.21s-.62.36-.84.67c-.22.31-.34.71-.36,1.2h-1.89c0-.79.19-1.46.57-2,.38-.54.89-.95,1.52-1.22.64-.27,1.35-.41,2.12-.41.84,0,1.58.11,2.23.34s1.16.57,1.53,1.02.56,1.02.56,1.69c0,.57-.17,1.08-.52,1.53-.35.45-.89.8-1.64,1.06.46.13.88.32,1.25.57.37.25.66.57.88.95s.32.82.32,1.34c0,.55-.12,1.04-.36,1.46-.24.43-.57.79-.99,1.08-.42.29-.92.51-1.48.66-.57.15-1.17.22-1.82.22Z"/><path class="cls-44" d="M518.83,676.78v-11.57h2.78l3.03,8.84,3.06-8.84h2.77v11.57h-1.98v-9.07l-3.05,9.07h-1.62l-3.02-9.02v9.02h-1.98Z"/><path class="cls-44" d="M533.28,676.78v-11.57h1.94v11.57h-1.94Z"/><path class="cls-44" d="M538.02,676.78v-11.57h1.98v9.89h5.22v1.68h-7.2Z"/><path class="cls-44" d="M548.83,676.94c-.38,0-.76-.04-1.14-.12s-.64-.14-.8-.19l.08-1.81c.16.05.34.11.55.17.21.07.45.1.73.1.53,0,.89-.14,1.08-.43s.28-.76.28-1.42v-8.04h1.95v8.57c0,.69-.08,1.27-.23,1.73-.15.47-.43.82-.82,1.06-.39.24-.96.36-1.69.36Z"/><path class="cls-44" d="M552.61,676.78l4.16-11.57h2.11l4.15,11.57h-1.95l-1.03-2.9h-4.43l-1.04,2.9h-1.97ZM556.08,672.15h3.48l-1.74-5.05-1.74,5.05Z"/><path class="cls-44" d="M564.98,676.78v-11.57h4.7c.89,0,1.61.14,2.19.41.57.28,1,.66,1.28,1.16.28.5.42,1.08.42,1.75,0,.62-.1,1.14-.3,1.56-.2.42-.47.76-.79,1.02s-.67.48-1.04.64l2.21,5.02h-2.03l-1.99-4.7h-2.69v4.7h-1.94ZM566.92,670.54h2.31c.74,0,1.31-.17,1.72-.51.41-.34.62-.82.62-1.42s-.19-1.06-.58-1.38c-.38-.32-.89-.48-1.52-.48h-2.56v3.8Z"/><path class="cls-44" d="M575.97,676.78v-11.57h1.26c.32,0,.65,0,.98,0,.33,0,.62,0,.87.01,1.41.03,2.55.27,3.44.72s1.53,1.1,1.94,1.94c.41.84.62,1.85.62,3.04s-.22,2.29-.66,3.16c-.44.87-1.11,1.54-2.02,2-.9.46-2.05.69-3.44.69h-2.99ZM577.94,675.18h1.05c.79,0,1.5-.14,2.1-.41.61-.28,1.08-.72,1.43-1.34.34-.62.52-1.45.52-2.48s-.16-1.81-.48-2.41c-.32-.6-.78-1.04-1.38-1.31-.6-.27-1.31-.4-2.14-.4h-1.1v8.35Z"/><path class="cls-44" d="M587.3,676.78v-11.57h7.65v1.67h-5.69v3.24h5.02v1.65h-5.03v3.31h5.82v1.7h-7.76Z"/><path class="cls-44" d="M597.42,676.78v-11.57h4.7c.89,0,1.62.14,2.19.41.57.28,1,.66,1.28,1.16.28.5.42,1.08.42,1.75,0,.62-.1,1.14-.3,1.56-.2.42-.46.76-.79,1.02-.32.26-.67.48-1.04.64l2.21,5.02h-2.03l-1.99-4.7h-2.69v4.7h-1.94ZM599.37,670.54h2.31c.74,0,1.31-.17,1.72-.51.41-.34.62-.82.62-1.42s-.19-1.06-.58-1.38c-.38-.32-.89-.48-1.52-.48h-2.56v3.8Z"/><path class="cls-44" d="M515.4,706.29l4.19-11.57h1.67l4.18,11.57h-1.51l-1.14-3.16h-4.74l-1.14,3.16h-1.51ZM518.45,701.76h3.94l-1.97-5.59-1.98,5.59ZM520.44,693.76c-.46,0-.85-.16-1.17-.48-.32-.32-.48-.72-.48-1.2,0-.44.16-.81.49-1.12.33-.31.71-.47,1.16-.47.31,0,.59.07.84.22.25.15.45.34.6.59.15.25.22.52.22.82,0,.46-.16.85-.48,1.17-.32.32-.71.48-1.18.48ZM520.42,693c.24,0,.44-.09.6-.26.16-.18.24-.38.24-.61,0-.25-.08-.46-.24-.61s-.36-.24-.6-.24-.43.08-.6.24-.26.36-.26.61c0,.23.09.43.26.61.17.18.37.26.6.26Z"/><path class="cls-44" d="M527.64,706.29v-11.57h4.48c.83,0,1.53.13,2.09.38.56.25.98.62,1.26,1.09.28.47.42,1.04.42,1.69s-.11,1.15-.33,1.57-.5.75-.84,1-.7.45-1.06.59l2.27,5.25h-1.57l-2.11-4.98h-3.11v4.98h-1.48ZM529.12,700.08h2.52c.87,0,1.54-.18,2.02-.53.47-.35.71-.88.71-1.58s-.21-1.19-.64-1.53c-.42-.34-1-.5-1.74-.5h-2.87v4.14Z"/><path class="cls-44" d="M546.27,706.45c-.57,0-1.1-.07-1.61-.2s-.97-.34-1.38-.61c-.41-.27-.75-.61-1.02-1.01-.27-.4-.44-.87-.51-1.4h1.55c.1.44.29.81.57,1.1.29.3.64.52,1.06.67.42.15.89.22,1.4.22s.94-.08,1.36-.23c.41-.16.75-.38,1-.68.25-.3.38-.65.38-1.07,0-.46-.15-.83-.45-1.11-.3-.28-.76-.5-1.38-.68l-2.38-.62c-.54-.13-1.01-.32-1.43-.56-.41-.24-.74-.56-.97-.96-.23-.4-.35-.89-.35-1.48,0-.65.18-1.22.54-1.71s.85-.87,1.48-1.14c.62-.27,1.32-.4,2.11-.4.91,0,1.67.16,2.29.47.62.32,1.09.73,1.41,1.24s.48,1.06.48,1.64h-1.52c-.05-.53-.21-.95-.47-1.25-.26-.31-.58-.53-.97-.66-.39-.14-.81-.2-1.27-.2-.83,0-1.45.19-1.88.56-.42.38-.64.82-.64,1.34,0,.47.15.85.46,1.12.3.27.75.48,1.34.63l2.32.6c.69.16,1.24.39,1.64.7.41.3.7.66.88,1.06.18.4.27.84.27,1.31,0,.64-.18,1.21-.54,1.71-.36.5-.86.89-1.5,1.18-.64.29-1.4.43-2.27.43Z"/><path class="cls-44" d="M553.01,706.29v-11.57h7.3v1.3h-5.81v3.78h5.22v1.3h-5.23v3.86l5.97.02v1.32h-7.45Z"/><path class="cls-44" d="M563.04,706.29v-11.57s.15,0,.34,0c.19,0,.42,0,.69,0,.27,0,.55,0,.85,0,.29,0,.56,0,.81.01,1.42.02,2.57.25,3.45.69.88.44,1.53,1.08,1.94,1.92.41.84.62,1.87.62,3.09s-.22,2.36-.67,3.22-1.12,1.53-2.03,1.97c-.91.44-2.07.66-3.47.66h-2.54ZM564.56,705.02h1.02c.95,0,1.78-.15,2.46-.44s1.22-.78,1.59-1.44c.37-.67.56-1.56.56-2.67s-.18-2-.54-2.65c-.36-.65-.88-1.12-1.56-1.4-.68-.28-1.49-.42-2.45-.42h-1.08v9.02Z"/><path class="cls-44" d="M572.81,706.29l4.19-11.57h1.67l4.18,11.57h-1.51l-1.14-3.16h-4.74l-1.14,3.16h-1.51ZM575.86,701.76h3.94l-1.97-5.59-1.98,5.59Z"/><path class="cls-44" d="M585.04,706.29v-11.57h1.42l6.11,8.99v-8.99h1.48v11.57h-1.32l-6.21-9.12v9.12h-1.48Z"/><text class="cls-42" transform="translate(435.68 100.95)"><tspan class="cls-48"><tspan x="0" y="0">P</tspan><tspan class="cls-57" x="10.32" y="0">R</tspan><tspan x="21.1" y="0">O</tspan><tspan class="cls-64" x="33.08" y="0">K</tspan><tspan x="44.54" y="0">A</tspan><tspan class="cls-53" x="56.05" y="0">R</tspan><tspan class="cls-59" x="66.69" y="0">Y</tspan><tspan class="cls-68" x="76.34" y="0">O</tspan><tspan x="88.43" y="0">T</tspan><tspan class="cls-8" x="98.13" y="0">E</tspan><tspan x="108.26" y="0">R </tspan></tspan><tspan class="cls-45"><tspan x="0" y="24">U</tspan><tspan class="cls-50" x="11.21" y="24">T</tspan><tspan x="19.29" y="24">AN C</tspan><tspan class="cls-66" x="57.62" y="24">E</tspan><tspan x="67.65" y="24">LL</tspan><tspan class="cls-70" x="86.13" y="24">K</tspan><tspan class="cls-47" x="97.26" y="24">ÄRNA</tspan></tspan></text><text class="cls-42" transform="translate(757.27 100.95)"><tspan class="cls-6" x="0" y="0">EU</tspan><tspan class="cls-2" x="21.74" y="0">K</tspan><tspan class="cls-5" x="33.48" y="0">A</tspan><tspan class="cls-3" x="45.1" y="0">R</tspan><tspan class="cls-4" x="55.74" y="0">Y</tspan><tspan class="cls-1" x="65.7" y="0">O</tspan><tspan class="cls-6" x="77.94" y="0">T</tspan><tspan class="cls-7" x="87.8" y="0">E</tspan><tspan class="cls-6" x="98" y="0">R</tspan><tspan class="cls-48" x="109.14" y="0"> </tspan><tspan class="cls-45"><tspan x="0" y="24">M</tspan><tspan class="cls-72" x="14.17" y="24">E</tspan><tspan x="24.2" y="24">D C</tspan><tspan class="cls-66" x="50.2" y="24">E</tspan><tspan x="60.23" y="24">LL</tspan><tspan class="cls-70" x="78.71" y="24">K</tspan><tspan class="cls-47" x="89.84" y="24">ÄRNA</tspan></tspan></text><line class="cls-10" x1="233.25" y1="642.63" x2="233.25" y2="640.63"/><line class="cls-13" x1="233.25" y1="636.61" x2="233.25" y2="437.38"/><line class="cls-10" x1="233.25" y1="435.37" x2="233.25" y2="433.37"/><line class="cls-10" x1="195.12" y1="642.63" x2="197.12" y2="642.63"/><line class="cls-14" x1="200.92" y1="642.63" x2="267.48" y2="642.63"/><line class="cls-10" x1="269.38" y1="642.63" x2="271.38" y2="642.63"/><path class="cls-44" d="M177.86,676.78v-2.74s-5.38,0-5.38,0v-1.66l5.33-7.17h1.94v7.17h1.85v1.66h-1.85v2.74h-1.89ZM174.31,672.38h3.54v-4.75l-3.54,4.75Z"/><path class="cls-44" d="M182.9,676.78v-2.24h2.2v2.24h-2.2Z"/><path class="cls-44" d="M191.39,676.96c-.94,0-1.76-.23-2.45-.7-.69-.47-1.22-1.13-1.59-2-.37-.86-.56-1.88-.56-3.05,0-1.26.18-2.35.55-3.27.37-.92.9-1.63,1.6-2.13.7-.5,1.55-.75,2.55-.75.68,0,1.31.13,1.9.38.58.25,1.06.62,1.43,1.09.37.47.59,1.05.66,1.72h-1.8c-.15-.52-.41-.92-.77-1.2-.36-.28-.82-.42-1.38-.42-.61,0-1.13.17-1.54.52s-.71.84-.88,1.49c-.18.65-.24,1.42-.17,2.32.17-.31.39-.59.67-.82.28-.23.6-.41.97-.54s.75-.19,1.15-.19c.77,0,1.45.15,2.03.44.58.29,1.03.71,1.36,1.25.33.54.49,1.18.49,1.91s-.18,1.44-.53,2.04c-.35.59-.85,1.06-1.48,1.4-.63.34-1.38.51-2.22.51ZM191.34,675.43c.42,0,.79-.1,1.12-.3.33-.2.6-.47.79-.82.19-.35.29-.76.29-1.22s-.09-.87-.27-1.19c-.18-.33-.44-.57-.77-.74-.33-.17-.72-.25-1.17-.25-.37,0-.72.08-1.07.25-.34.17-.62.39-.84.66-.22.27-.32.56-.32.87,0,.55.09,1.03.27,1.44.19.41.45.73.79.96.34.23.73.34,1.18.34Z"/><path class="cls-44" d="M201.48,676.78v-11.57h2.78l3.03,8.84,3.06-8.84h2.77v11.57h-1.98v-9.07l-3.05,9.07h-1.62l-3.02-9.02v9.02h-1.98Z"/><path class="cls-44" d="M215.93,676.78v-11.57h1.94v11.57h-1.94Z"/><path class="cls-44" d="M220.67,676.78v-11.57h1.98v9.89h5.22v1.68h-7.2Z"/><path class="cls-44" d="M231.48,676.94c-.38,0-.76-.04-1.14-.12s-.64-.14-.8-.19l.08-1.81c.16.05.34.11.55.17.21.07.45.1.73.1.53,0,.89-.14,1.08-.43s.28-.76.28-1.42v-8.04h1.95v8.57c0,.69-.08,1.27-.23,1.73-.15.47-.43.82-.82,1.06-.39.24-.96.36-1.69.36Z"/><path class="cls-44" d="M235.26,676.78l4.16-11.57h2.11l4.15,11.57h-1.95l-1.03-2.9h-4.43l-1.04,2.9h-1.97ZM238.73,672.15h3.48l-1.74-5.05-1.74,5.05Z"/><path class="cls-44" d="M247.62,676.78v-11.57h4.7c.89,0,1.61.14,2.19.41.57.28,1,.66,1.28,1.16.28.5.42,1.08.42,1.75,0,.62-.1,1.14-.3,1.56-.2.42-.47.76-.79,1.02s-.67.48-1.04.64l2.21,5.02h-2.03l-1.99-4.7h-2.69v4.7h-1.94ZM249.57,670.54h2.31c.74,0,1.31-.17,1.72-.51.41-.34.62-.82.62-1.42s-.19-1.06-.58-1.38c-.38-.32-.89-.48-1.52-.48h-2.56v3.8Z"/><path class="cls-44" d="M258.62,676.78v-11.57h1.26c.32,0,.65,0,.98,0,.33,0,.62,0,.87.01,1.41.03,2.55.27,3.44.72.88.46,1.53,1.1,1.94,1.94.41.84.62,1.85.62,3.04s-.22,2.29-.66,3.16c-.44.87-1.11,1.54-2.02,2-.9.46-2.05.69-3.44.69h-2.99ZM260.59,675.18h1.05c.79,0,1.5-.14,2.1-.41.61-.28,1.08-.72,1.43-1.34.34-.62.52-1.45.52-2.48s-.16-1.81-.48-2.41c-.32-.6-.78-1.04-1.38-1.31-.6-.27-1.31-.4-2.14-.4h-1.1v8.35Z"/><path class="cls-44" d="M269.95,676.78v-11.57h7.65v1.67h-5.69v3.24h5.02v1.65h-5.03v3.31h5.82v1.7h-7.76Z"/><path class="cls-44" d="M280.07,676.78v-11.57h4.7c.89,0,1.61.14,2.19.41.57.28,1,.66,1.28,1.16.28.5.42,1.08.42,1.75,0,.62-.1,1.14-.3,1.56-.2.42-.47.76-.79,1.02s-.67.48-1.04.64l2.21,5.02h-2.03l-1.99-4.7h-2.69v4.7h-1.94ZM282.02,670.54h2.31c.74,0,1.31-.17,1.72-.51.41-.34.62-.82.62-1.42s-.19-1.06-.58-1.38c-.38-.32-.89-.48-1.52-.48h-2.56v3.8Z"/><path class="cls-44" d="M190.96,706.29l4.19-11.57h1.67l4.18,11.57h-1.51l-1.14-3.16h-4.74l-1.14,3.16h-1.51ZM194.01,701.76h3.94l-1.97-5.59-1.98,5.59ZM195.99,693.76c-.46,0-.85-.16-1.17-.48-.32-.32-.48-.72-.48-1.2,0-.44.16-.81.49-1.12.33-.31.71-.47,1.16-.47.31,0,.59.07.84.22.25.15.45.34.6.59.15.25.22.52.22.82,0,.46-.16.85-.48,1.17-.32.32-.71.48-1.18.48ZM195.97,693c.24,0,.44-.09.6-.26.16-.18.24-.38.24-.61,0-.25-.08-.46-.24-.61s-.36-.24-.6-.24-.43.08-.6.24-.26.36-.26.61c0,.23.09.43.26.61.17.18.37.26.6.26Z"/><path class="cls-44" d="M203.19,706.29v-11.57h4.48c.83,0,1.53.13,2.09.38.56.25.98.62,1.26,1.09.28.47.42,1.04.42,1.69s-.11,1.15-.33,1.57-.5.75-.84,1-.7.45-1.06.59l2.27,5.25h-1.57l-2.11-4.98h-3.11v4.98h-1.48ZM204.67,700.08h2.52c.87,0,1.54-.18,2.02-.53.47-.35.71-.88.71-1.58s-.21-1.19-.64-1.53c-.42-.34-1-.5-1.74-.5h-2.87v4.14Z"/><path class="cls-44" d="M221.82,706.45c-.57,0-1.1-.07-1.61-.2s-.97-.34-1.38-.61c-.41-.27-.75-.61-1.02-1.01-.27-.4-.44-.87-.51-1.4h1.55c.1.44.29.81.57,1.1.29.3.64.52,1.06.67.42.15.89.22,1.4.22s.94-.08,1.36-.23c.41-.16.75-.38,1-.68.25-.3.38-.65.38-1.07,0-.46-.15-.83-.45-1.11-.3-.28-.76-.5-1.38-.68l-2.38-.62c-.54-.13-1.01-.32-1.43-.56-.41-.24-.74-.56-.97-.96-.23-.4-.35-.89-.35-1.48,0-.65.18-1.22.54-1.71s.85-.87,1.48-1.14c.62-.27,1.32-.4,2.11-.4.91,0,1.67.16,2.29.47.62.32,1.09.73,1.41,1.24s.48,1.06.48,1.64h-1.52c-.05-.53-.21-.95-.47-1.25-.26-.31-.58-.53-.97-.66-.39-.14-.81-.2-1.27-.2-.83,0-1.45.19-1.88.56-.42.38-.64.82-.64,1.34,0,.47.15.85.46,1.12.3.27.75.48,1.34.63l2.32.6c.69.16,1.24.39,1.64.7.41.3.7.66.88,1.06.18.4.27.84.27,1.31,0,.64-.18,1.21-.54,1.71-.36.5-.86.89-1.5,1.18-.64.29-1.4.43-2.27.43Z"/><path class="cls-44" d="M228.56,706.29v-11.57h7.3v1.3h-5.81v3.78h5.22v1.3h-5.23v3.86l5.97.02v1.32h-7.45Z"/><path class="cls-44" d="M238.6,706.29v-11.57s.15,0,.34,0c.19,0,.42,0,.69,0,.27,0,.55,0,.85,0,.29,0,.56,0,.81.01,1.42.02,2.57.25,3.45.69.88.44,1.53,1.08,1.94,1.92.41.84.62,1.87.62,3.09s-.22,2.36-.67,3.22-1.12,1.53-2.03,1.97c-.91.44-2.07.66-3.47.66h-2.54ZM240.12,705.02h1.02c.95,0,1.78-.15,2.46-.44s1.22-.78,1.59-1.44c.37-.67.56-1.56.56-2.67s-.18-2-.54-2.65c-.36-.65-.88-1.12-1.56-1.4-.68-.28-1.49-.42-2.45-.42h-1.08v9.02Z"/><path class="cls-44" d="M248.36,706.29l4.19-11.57h1.67l4.18,11.57h-1.51l-1.14-3.16h-4.74l-1.14,3.16h-1.51ZM251.41,701.76h3.94l-1.97-5.59-1.98,5.59Z"/><path class="cls-44" d="M260.6,706.29v-11.57h1.42l6.11,8.99v-8.99h1.48v11.57h-1.32l-6.21-9.12v9.12h-1.48Z"/><line class="cls-10" x1="810.76" y1="642.63" x2="810.76" y2="640.63"/><line class="cls-13" x1="810.76" y1="636.61" x2="810.76" y2="437.38"/><line class="cls-10" x1="810.76" y1="435.37" x2="810.76" y2="433.37"/><line class="cls-10" x1="772.62" y1="642.63" x2="774.62" y2="642.63"/><line class="cls-14" x1="778.43" y1="642.63" x2="844.99" y2="642.63"/><line class="cls-10" x1="846.89" y1="642.63" x2="848.89" y2="642.63"/><path class="cls-44" d="M761.23,676.79v-1.58c0-.59.11-1.1.33-1.53.22-.43.51-.8.87-1.12.36-.32.76-.6,1.2-.85s.87-.48,1.3-.7c.43-.22.83-.45,1.19-.69.36-.24.65-.5.88-.8.22-.29.33-.64.33-1.04,0-.52-.18-.95-.55-1.28-.37-.33-.86-.49-1.48-.49-.66,0-1.21.19-1.64.57-.43.38-.68.91-.76,1.61h-1.89c.01-.71.18-1.35.5-1.93s.81-1.04,1.45-1.38,1.44-.52,2.39-.52c.83,0,1.54.14,2.14.43.6.29,1.06.68,1.39,1.19.33.51.49,1.1.49,1.78,0,.59-.11,1.1-.32,1.52-.22.42-.5.79-.86,1.09-.36.31-.74.58-1.17.81-.42.24-.85.46-1.27.66s-.81.42-1.17.64c-.35.22-.64.47-.86.76-.22.28-.32.62-.32,1.02v.17h5.99v1.66h-8.16Z"/><path class="cls-44" d="M775.3,676.79v-11.57h2.78l3.03,8.84,3.06-8.84h2.77v11.57h-1.98v-9.07l-3.05,9.07h-1.62l-3.02-9.02v9.02h-1.98Z"/><path class="cls-44" d="M789.75,676.79v-11.57h1.94v11.57h-1.94Z"/><path class="cls-44" d="M794.49,676.79v-11.57h1.98v9.89h5.22v1.68h-7.2Z"/><path class="cls-44" d="M805.3,676.95c-.38,0-.76-.04-1.14-.12s-.64-.14-.8-.19l.08-1.81c.16.05.34.11.55.17.21.07.45.1.73.1.53,0,.89-.14,1.08-.43.19-.29.28-.76.28-1.42v-8.04h1.95v8.57c0,.69-.08,1.27-.23,1.73-.15.47-.43.82-.82,1.06-.39.24-.96.36-1.69.36Z"/><path class="cls-44" d="M809.08,676.79l4.16-11.57h2.11l4.15,11.57h-1.95l-1.03-2.9h-4.43l-1.04,2.9h-1.97ZM812.55,672.15h3.48l-1.74-5.05-1.74,5.05Z"/><path class="cls-44" d="M821.45,676.79v-11.57h4.7c.89,0,1.62.14,2.19.41.57.28,1,.66,1.28,1.16.28.5.42,1.08.42,1.75,0,.62-.1,1.14-.3,1.56-.2.42-.46.76-.79,1.02-.32.26-.67.48-1.04.64l2.21,5.02h-2.03l-1.99-4.7h-2.69v4.7h-1.94ZM823.39,670.54h2.31c.74,0,1.31-.17,1.72-.51.41-.34.62-.82.62-1.42s-.19-1.06-.58-1.38c-.38-.32-.89-.48-1.52-.48h-2.56v3.8Z"/><path class="cls-44" d="M832.44,676.79v-11.57h1.26c.32,0,.65,0,.98,0,.33,0,.62,0,.87.01,1.41.03,2.55.27,3.44.72s1.53,1.1,1.94,1.94c.41.84.62,1.85.62,3.04s-.22,2.29-.66,3.16c-.44.87-1.11,1.54-2.02,2-.9.46-2.05.69-3.44.69h-2.99ZM834.41,675.18h1.05c.79,0,1.5-.14,2.1-.41.61-.28,1.08-.72,1.43-1.34.34-.62.52-1.45.52-2.48s-.16-1.81-.48-2.41c-.32-.6-.78-1.04-1.38-1.31-.6-.27-1.31-.4-2.14-.4h-1.1v8.35Z"/><path class="cls-44" d="M843.77,676.79v-11.57h7.65v1.67h-5.69v3.24h5.02v1.65h-5.03v3.31h5.82v1.7h-7.76Z"/><path class="cls-44" d="M853.89,676.79v-11.57h4.7c.89,0,1.62.14,2.19.41.57.28,1,.66,1.28,1.16.28.5.42,1.08.42,1.75,0,.62-.1,1.14-.3,1.56-.2.42-.46.76-.79,1.02-.32.26-.67.48-1.04.64l2.21,5.02h-2.03l-1.99-4.7h-2.69v4.7h-1.94ZM855.84,670.54h2.31c.74,0,1.31-.17,1.72-.51.41-.34.62-.82.62-1.42s-.19-1.06-.58-1.38c-.38-.32-.89-.48-1.52-.48h-2.56v3.8Z"/><path class="cls-44" d="M772.12,706.29l4.19-11.57h1.67l4.18,11.57h-1.51l-1.14-3.16h-4.74l-1.14,3.16h-1.51ZM775.17,701.76h3.94l-1.97-5.59-1.98,5.59ZM777.16,693.76c-.46,0-.85-.16-1.17-.48-.32-.32-.48-.72-.48-1.2,0-.44.16-.81.49-1.12.33-.31.71-.47,1.16-.47.31,0,.59.07.84.22.25.15.45.34.6.59s.22.52.22.82c0,.46-.16.85-.48,1.17-.32.32-.71.48-1.18.48ZM777.14,693c.24,0,.44-.09.6-.26.16-.18.24-.38.24-.61,0-.25-.08-.46-.24-.61-.16-.16-.36-.24-.6-.24s-.43.08-.6.24c-.17.16-.26.36-.26.61,0,.23.09.43.26.61.17.18.37.26.6.26Z"/><path class="cls-44" d="M784.36,706.29v-11.57h4.48c.83,0,1.53.13,2.09.38.56.25.98.62,1.26,1.09.28.47.42,1.04.42,1.69s-.11,1.15-.33,1.57c-.22.42-.5.75-.84,1-.34.25-.7.45-1.06.59l2.27,5.25h-1.57l-2.11-4.98h-3.11v4.98h-1.48ZM785.84,700.08h2.52c.87,0,1.54-.18,2.02-.53.47-.35.71-.88.71-1.58s-.21-1.19-.64-1.53-1-.5-1.74-.5h-2.87v4.14Z"/><path class="cls-44" d="M802.99,706.45c-.57,0-1.1-.07-1.61-.2s-.97-.34-1.38-.61c-.41-.27-.75-.61-1.02-1.01-.27-.4-.44-.87-.51-1.4h1.55c.1.44.29.81.57,1.1s.64.52,1.06.67.89.22,1.4.22.94-.08,1.36-.23c.41-.16.75-.38,1-.68.25-.3.38-.65.38-1.07,0-.46-.15-.83-.45-1.11-.3-.28-.76-.5-1.38-.68l-2.38-.62c-.54-.13-1.02-.32-1.43-.56-.41-.24-.74-.56-.97-.96s-.35-.89-.35-1.48c0-.65.18-1.22.54-1.71.36-.49.85-.87,1.48-1.14.62-.27,1.32-.4,2.11-.4.91,0,1.67.16,2.29.47.62.32,1.09.73,1.41,1.24.32.51.48,1.06.48,1.64h-1.52c-.05-.53-.21-.95-.47-1.25s-.58-.53-.97-.66c-.39-.14-.81-.2-1.27-.2-.83,0-1.45.19-1.88.56-.42.38-.64.82-.64,1.34,0,.47.15.85.46,1.12.3.27.75.48,1.34.63l2.32.6c.69.16,1.24.39,1.64.7.41.3.7.66.88,1.06.18.4.27.84.27,1.31,0,.64-.18,1.21-.54,1.71-.36.5-.86.89-1.5,1.18-.64.29-1.4.43-2.27.43Z"/><path class="cls-44" d="M809.73,706.29v-11.57h7.3v1.3h-5.81v3.78h5.22v1.3h-5.23v3.86l5.97.02v1.32h-7.45Z"/><path class="cls-44" d="M819.76,706.29v-11.57s.15,0,.34,0c.19,0,.42,0,.69,0,.27,0,.55,0,.85,0,.29,0,.56,0,.81.01,1.42.02,2.57.25,3.45.69.88.44,1.53,1.08,1.94,1.92.41.84.62,1.87.62,3.09s-.22,2.36-.67,3.22c-.45.87-1.12,1.53-2.03,1.97s-2.07.66-3.47.66h-2.54ZM821.28,705.02h1.02c.95,0,1.78-.15,2.46-.44.69-.3,1.22-.78,1.59-1.44.37-.67.56-1.56.56-2.67s-.18-2-.54-2.65c-.36-.65-.88-1.12-1.56-1.4-.68-.28-1.49-.42-2.45-.42h-1.08v9.02Z"/><path class="cls-44" d="M829.53,706.29l4.19-11.57h1.67l4.18,11.57h-1.51l-1.14-3.16h-4.74l-1.14,3.16h-1.51ZM832.58,701.76h3.94l-1.97-5.59-1.98,5.59Z"/><path class="cls-44" d="M841.76,706.29v-11.57h1.42l6.11,8.99v-8.99h1.48v11.57h-1.32l-6.21-9.12v9.12h-1.48Z"/><line class="cls-10" x1="1111.77" y1="642.63" x2="1111.77" y2="640.63"/><line class="cls-30" x1="1111.77" y1="636.07" x2="1111.77" y2="620.13"/><line class="cls-10" x1="1111.77" y1="617.85" x2="1111.77" y2="615.85"/><line class="cls-10" x1="1073.64" y1="642.63" x2="1075.64" y2="642.63"/><line class="cls-14" x1="1079.44" y1="642.63" x2="1146" y2="642.63"/><line class="cls-10" x1="1147.9" y1="642.63" x2="1149.9" y2="642.63"/><path class="cls-44" d="M1064.62,676.79v-8.91h-2.14v-1.16c.68,0,1.21-.06,1.61-.17.4-.11.69-.28.87-.51.18-.22.29-.5.32-.82h1.33v11.57h-1.98Z"/><path class="cls-44" d="M1073.6,676.79v-11.57h2.78l3.03,8.84,3.06-8.84h2.77v11.57h-1.98v-9.07l-3.05,9.07h-1.62l-3.02-9.02v9.02h-1.98Z"/><path class="cls-44" d="M1088.04,676.79v-11.57h1.94v11.57h-1.94Z"/><path class="cls-44" d="M1092.79,676.79v-11.57h1.98v9.89h5.22v1.68h-7.2Z"/><path class="cls-44" d="M1103.6,676.95c-.38,0-.76-.04-1.14-.12s-.64-.14-.8-.19l.08-1.81c.16.05.34.11.55.17.21.07.45.1.73.1.53,0,.89-.14,1.08-.43.19-.29.28-.76.28-1.42v-8.04h1.95v8.57c0,.69-.08,1.27-.23,1.73-.15.47-.43.82-.82,1.06-.39.24-.96.36-1.69.36Z"/><path class="cls-44" d="M1107.37,676.79l4.16-11.57h2.11l4.15,11.57h-1.95l-1.03-2.9h-4.43l-1.04,2.9h-1.97ZM1110.84,672.15h3.48l-1.74-5.05-1.74,5.05Z"/><path class="cls-44" d="M1119.74,676.79v-11.57h4.7c.89,0,1.62.14,2.19.41.57.28,1,.66,1.28,1.16.28.5.42,1.08.42,1.75,0,.62-.1,1.14-.3,1.56-.2.42-.46.76-.79,1.02-.32.26-.67.48-1.04.64l2.21,5.02h-2.03l-1.99-4.7h-2.69v4.7h-1.94ZM1121.68,670.54h2.31c.74,0,1.31-.17,1.72-.51.41-.34.62-.82.62-1.42s-.19-1.06-.58-1.38c-.38-.32-.89-.48-1.52-.48h-2.56v3.8Z"/><path class="cls-44" d="M1130.73,676.79v-11.57h1.26c.32,0,.65,0,.98,0,.33,0,.62,0,.87.01,1.41.03,2.55.27,3.44.72s1.53,1.1,1.94,1.94c.41.84.62,1.85.62,3.04s-.22,2.29-.66,3.16c-.44.87-1.11,1.54-2.02,2-.9.46-2.05.69-3.44.69h-2.99ZM1132.71,675.18h1.05c.79,0,1.5-.14,2.1-.41.61-.28,1.08-.72,1.43-1.34.34-.62.52-1.45.52-2.48s-.16-1.81-.48-2.41c-.32-.6-.78-1.04-1.38-1.31-.6-.27-1.31-.4-2.14-.4h-1.1v8.35Z"/><path class="cls-44" d="M1142.06,676.79v-11.57h7.65v1.67h-5.69v3.24h5.02v1.65h-5.03v3.31h5.82v1.7h-7.76Z"/><path class="cls-44" d="M1152.19,676.79v-11.57h4.7c.89,0,1.62.14,2.19.41.57.28,1,.66,1.28,1.16.28.5.42,1.08.42,1.75,0,.62-.1,1.14-.3,1.56-.2.42-.46.76-.79,1.02-.32.26-.67.48-1.04.64l2.21,5.02h-2.03l-1.99-4.7h-2.69v4.7h-1.94ZM1154.13,670.54h2.31c.74,0,1.31-.17,1.72-.51.41-.34.62-.82.62-1.42s-.19-1.06-.58-1.38c-.38-.32-.89-.48-1.52-.48h-2.56v3.8Z"/><path class="cls-44" d="M1072.01,706.29l4.19-11.57h1.67l4.18,11.57h-1.51l-1.14-3.16h-4.74l-1.14,3.16h-1.51ZM1075.06,701.76h3.94l-1.97-5.59-1.98,5.59ZM1077.04,693.76c-.46,0-.85-.16-1.17-.48-.32-.32-.48-.72-.48-1.2,0-.44.16-.81.49-1.12.33-.31.71-.47,1.16-.47.31,0,.59.07.84.22.25.15.45.34.6.59s.22.52.22.82c0,.46-.16.85-.48,1.17-.32.32-.71.48-1.18.48ZM1077.03,693c.24,0,.44-.09.6-.26.16-.18.24-.38.24-.61,0-.25-.08-.46-.24-.61-.16-.16-.36-.24-.6-.24s-.43.08-.6.24c-.17.16-.26.36-.26.61,0,.23.09.43.26.61.17.18.37.26.6.26Z"/><path class="cls-44" d="M1084.24,706.29v-11.57h4.48c.83,0,1.53.13,2.09.38.56.25.98.62,1.26,1.09.28.47.42,1.04.42,1.69s-.11,1.15-.33,1.57c-.22.42-.5.75-.84,1-.34.25-.7.45-1.06.59l2.27,5.25h-1.57l-2.11-4.98h-3.11v4.98h-1.48ZM1085.72,700.08h2.52c.87,0,1.54-.18,2.02-.53.47-.35.71-.88.71-1.58s-.21-1.19-.64-1.53-1-.5-1.74-.5h-2.87v4.14Z"/><path class="cls-44" d="M1102.88,706.45c-.57,0-1.1-.07-1.61-.2s-.97-.34-1.38-.61c-.41-.27-.75-.61-1.02-1.01-.27-.4-.44-.87-.51-1.4h1.55c.1.44.29.81.57,1.1s.64.52,1.06.67.89.22,1.4.22.94-.08,1.36-.23c.41-.16.75-.38,1-.68.25-.3.38-.65.38-1.07,0-.46-.15-.83-.45-1.11-.3-.28-.76-.5-1.38-.68l-2.38-.62c-.54-.13-1.02-.32-1.43-.56-.41-.24-.74-.56-.97-.96s-.35-.89-.35-1.48c0-.65.18-1.22.54-1.71.36-.49.85-.87,1.48-1.14.62-.27,1.32-.4,2.11-.4.91,0,1.67.16,2.29.47.62.32,1.09.73,1.41,1.24.32.51.48,1.06.48,1.64h-1.52c-.05-.53-.21-.95-.47-1.25s-.58-.53-.97-.66c-.39-.14-.81-.2-1.27-.2-.83,0-1.45.19-1.88.56-.42.38-.64.82-.64,1.34,0,.47.15.85.46,1.12.3.27.75.48,1.34.63l2.32.6c.69.16,1.24.39,1.64.7.41.3.7.66.88,1.06.18.4.27.84.27,1.31,0,.64-.18,1.21-.54,1.71-.36.5-.86.89-1.5,1.18-.64.29-1.4.43-2.27.43Z"/><path class="cls-44" d="M1109.62,706.29v-11.57h7.3v1.3h-5.81v3.78h5.22v1.3h-5.23v3.86l5.97.02v1.32h-7.45Z"/><path class="cls-44" d="M1119.65,706.29v-11.57s.15,0,.34,0c.19,0,.42,0,.69,0,.27,0,.55,0,.85,0,.29,0,.56,0,.81.01,1.42.02,2.57.25,3.45.69.88.44,1.53,1.08,1.94,1.92.41.84.62,1.87.62,3.09s-.22,2.36-.67,3.22c-.45.87-1.12,1.53-2.03,1.97s-2.07.66-3.47.66h-2.54ZM1121.17,705.02h1.02c.95,0,1.78-.15,2.46-.44.69-.3,1.22-.78,1.59-1.44.37-.67.56-1.56.56-2.67s-.18-2-.54-2.65c-.36-.65-.88-1.12-1.56-1.4-.68-.28-1.49-.42-2.45-.42h-1.08v9.02Z"/><path class="cls-44" d="M1129.42,706.29l4.19-11.57h1.67l4.18,11.57h-1.51l-1.14-3.16h-4.74l-1.14,3.16h-1.51ZM1132.47,701.76h3.94l-1.97-5.59-1.98,5.59Z"/><path class="cls-44" d="M1141.65,706.29v-11.57h1.42l6.11,8.99v-8.99h1.48v11.57h-1.32l-6.21-9.12v9.12h-1.48Z"/><path class="cls-16" d="M832.8,351.37l-40.27,2.91c-12.88,0-25.75-9.22-25.75-20.49h0c0-11.27,12.86-20.49,25.75-20.49l40.27,2.91c16.89,0,23.57,10.01,23.57,17.58h0c0,7.56-6.69,17.58-23.57,17.58Z"/><line class="cls-11" x1="832.8" y1="354.77" x2="832.8" y2="351.37"/><line class="cls-11" x1="844.19" y1="353.1" x2="843.08" y2="349.87"/><line class="cls-11" x1="854.41" y1="346.85" x2="851.85" y2="344.51"/><line class="cls-11" x1="859.8" y1="335.63" x2="856.29" y2="335.26"/><line class="cls-11" x1="856.67" y1="323.54" x2="853.72" y2="325.43"/><line class="cls-11" x1="847.34" y1="315.73" x2="845.84" y2="318.81"/><line class="cls-11" x1="836.07" y1="312.93" x2="835.8" y2="316.33"/><line class="cls-11" x1="825.65" y1="312.29" x2="825.4" y2="315.68"/><line class="cls-11" x1="815.32" y1="311.54" x2="815.06" y2="314.93"/><line class="cls-11" x1="804.88" y1="310.79" x2="804.62" y2="314.18"/><line class="cls-11" x1="794.48" y1="310.03" x2="794.23" y2="313.43"/><line class="cls-11" x1="782.97" y1="311.36" x2="784.02" y2="314.61"/><line class="cls-11" x1="772.62" y1="316.66" x2="774.79" y2="319.35"/><line class="cls-11" x1="765.01" y1="325.91" x2="768.23" y2="327.32"/><line class="cls-11" x1="763.81" y1="338.27" x2="767.23" y2="337.44"/><line class="cls-11" x1="770.07" y1="348.72" x2="772.55" y2="346.29"/><line class="cls-11" x1="779.82" y1="355.08" x2="781.19" y2="351.95"/><line class="cls-11" x1="791.11" y1="357.65" x2="791.27" y2="354.25"/><line class="cls-11" x1="801.89" y1="357.02" x2="801.63" y2="353.62"/><line class="cls-11" x1="812.32" y1="356.26" x2="812.07" y2="352.87"/><line class="cls-11" x1="822.7" y1="355.51" x2="822.44" y2="352.12"/><path class="cls-36" d="M419.19,331.33c.68,0,1.34.02,1.99.08"/><path class="cls-12" d="M425.06,332.08c11.68,3.19,18.86,16.26,27.45,33.86,10.44,21.41,18.65,39.5,33.17,42.26"/><path class="cls-36" d="M487.63,408.48c.65.06,1.32.09,2,.09"/><path class="cls-36" d="M418.87,331.33c.68,0,1.34-.02,1.99-.08"/><path class="cls-25" d="M424.74,330.58c11.76-3.19,19.18-16.25,27.76-33.87,10.44-21.41,18.38-39.49,32.85-42.26"/><path class="cls-36" d="M487.31,254.18c.65-.06,1.32-.09,2-.09"/><path class="cls-36" d="M624.99,254.45c.67,0,1.34,0,2,0"/><path class="cls-26" d="M630.99,254.43c83.27-.73,129.92-18.01,185.05-42.4,63.62-28.14,110.85-51.59,205.08-52.24"/><path class="cls-36" d="M1023.12,159.78c.67,0,1.33,0,2,0"/><path class="cls-36" d="M933.81,342.09c.67,0,1.34.02,1.99.07"/><path class="cls-34" d="M939.73,342.8c19.18,4.82,30.37,33.86,43.9,73.73,16.08,47.4,28.61,87.21,51.54,91.32"/><path class="cls-36" d="M1037.15,508.11c.66.06,1.32.09,2,.09"/><path class="cls-36" d="M886.03,331.8c.7,0,1.36.01,2,.04"/><path class="cls-28" d="M891.77,332.22c4.41.7,7.57,2.24,11.22,4.2,4.86,2.6,8.76,4.84,15.04,5.49"/><path class="cls-36" d="M919.9,342.04c.64.03,1.31.05,2,.05"/><path class="cls-36" d="M886.03,331.8c.67,0,1.34,0,2-.04"/><path class="cls-27" d="M892,331.44c28.36-3.65,44.96-34.25,64.44-76.73,22.87-49.89,40-91.66,73.06-94.75"/><path class="cls-36" d="M1031.49,159.82c.66-.03,1.33-.05,2-.05"/><path class="cls-36" d="M923.41,342.08c.68,0,1.34,0,2-.01"/><path class="cls-20" d="M929.37,341.95c20.69-.94,33.08-6.91,47.55-15.12,17.16-9.74,30.07-17.92,54.58-18.72"/><path class="cls-36" d="M1033.48,308.07c.66-.01,1.32-.02,2-.02"/><path class="cls-36" d="M695.43,331.33c-.68,0-1.34.02-1.99.08"/><path class="cls-12" d="M689.56,332.08c-11.68,3.19-18.86,16.26-27.45,33.86-10.44,21.41-18.65,39.5-33.17,42.26"/><path class="cls-36" d="M626.99,408.48c-.65.06-1.32.09-2,.09"/><path class="cls-36" d="M695.75,331.33c-.68,0-1.34-.02-1.99-.08"/><path class="cls-9" d="M689.9,330.58c-11.7-3.17-19.08-16.18-27.63-33.7-10.39-21.31-18.29-39.3-32.69-42.06"/><path class="cls-36" d="M627.64,254.54c-.65-.06-1.32-.09-2-.09"/><path class="cls-41" d="M542.13,276.01c-9.47,0-17.17-7.7-17.17-17.17s7.7-17.17,17.17-17.17h40.63c9.47,0,17.17,7.7,17.17,17.17s-7.7,17.17-17.17,17.17h-40.63Z"/><path class="cls-40" d="M582.75,242.42c9.05,0,16.42,7.37,16.42,16.42s-7.37,16.42-16.42,16.42h-40.63c-9.05,0-16.42-7.37-16.42-16.42s7.37-16.42,16.42-16.42h40.63M582.75,240.92h-40.63c-9.86,0-17.92,8.06-17.92,17.92h0c0,9.86,8.06,17.92,17.92,17.92h40.63c9.86,0,17.92-8.06,17.92-17.92h0c0-9.86-8.06-17.92-17.92-17.92h0Z"/><line class="cls-11" x1="582.75" y1="235.14" x2="582.75" y2="240.92"/><line class="cls-11" x1="606.02" y1="264.34" x2="600.19" y2="262.99"/><line class="cls-11" x1="592.85" y1="280.33" x2="590.29" y2="275.09"/><line class="cls-11" x1="574.45" y1="282.54" x2="574.45" y2="276.76"/><line class="cls-11" x1="558.3" y1="282.54" x2="558.3" y2="276.76"/><line class="cls-11" x1="542.13" y1="282.54" x2="542.13" y2="276.76"/><line class="cls-11" x1="523.46" y1="273.61" x2="528.15" y2="270.01"/><line class="cls-11" x1="518.86" y1="253.34" x2="524.7" y2="254.69"/><line class="cls-11" x1="532.03" y1="237.35" x2="534.6" y2="242.59"/><line class="cls-11" x1="550.44" y1="235.14" x2="550.44" y2="240.92"/><line class="cls-11" x1="566.59" y1="235.14" x2="566.59" y2="240.92"/><line class="cls-11" x1="601.42" y1="244.06" x2="596.74" y2="247.66"/><path class="cls-11" d="M543.43,256.84c3.8,0,3.8,4,7.6,4s3.8-4,7.61-4,3.8,4,7.6,4,3.8-4,7.61-4,3.8,4,7.61,4"/><path class="cls-11" d="M525.8,251.93c-5.11-.94-8.13-6.36-8.34-11.37s1.62-9.86,2.57-14.79c.66-3.42.78-7.31-1.56-9.96-2.06-2.33-5.62-3.03-8.73-2.41-3.11.62-5.85,2.36-8.33,4.26"/><path class="cls-40" d="M539.68,423.09c-9.47,0-17.17-7.7-17.17-17.17s7.7-17.17,17.17-17.17h40.63c9.47,0,17.17,7.7,17.17,17.17s-7.7,17.17-17.17,17.17h-40.63Z"/><path class="cls-49" d="M580.31,389.5c9.05,0,16.42,7.37,16.42,16.42s-7.37,16.42-16.42,16.42h-40.63c-9.05,0-16.42-7.37-16.42-16.42s7.37-16.42,16.42-16.42h40.63M580.31,388h-40.63c-9.86,0-17.92,8.06-17.92,17.92h0c0,9.86,8.06,17.92,17.92,17.92h40.63c9.86,0,17.92-8.06,17.92-17.92h0c0-9.86-8.06-17.92-17.92-17.92h0Z"/><line class="cls-24" x1="580.31" y1="382.22" x2="580.31" y2="388"/><line class="cls-40" x1="580.31" y1="382.22" x2="580.31" y2="388"/><line class="cls-24" x1="603.58" y1="411.42" x2="597.74" y2="410.07"/><line class="cls-40" x1="603.58" y1="411.42" x2="597.74" y2="410.07"/><line class="cls-24" x1="590.41" y1="427.41" x2="587.84" y2="422.17"/><line class="cls-40" x1="590.41" y1="427.41" x2="587.84" y2="422.17"/><line class="cls-24" x1="572" y1="429.62" x2="572" y2="423.84"/><line class="cls-24" x1="555.85" y1="429.62" x2="555.85" y2="423.84"/><line class="cls-24" x1="539.68" y1="429.62" x2="539.68" y2="423.84"/><line class="cls-24" x1="521.01" y1="420.7" x2="525.7" y2="417.1"/><line class="cls-40" x1="521.01" y1="420.7" x2="525.7" y2="417.1"/><line class="cls-24" x1="516.41" y1="400.42" x2="522.25" y2="401.77"/><line class="cls-40" x1="516.41" y1="400.42" x2="522.25" y2="401.77"/><line class="cls-24" x1="529.58" y1="384.43" x2="532.15" y2="389.67"/><line class="cls-40" x1="529.58" y1="384.43" x2="532.15" y2="389.67"/><line class="cls-24" x1="547.99" y1="382.22" x2="547.99" y2="388"/><line class="cls-40" x1="547.99" y1="382.22" x2="547.99" y2="388"/><line class="cls-24" x1="564.14" y1="382.22" x2="564.14" y2="388"/><line class="cls-40" x1="564.14" y1="382.22" x2="564.14" y2="388"/><line class="cls-24" x1="598.97" y1="391.15" x2="594.29" y2="394.75"/><line class="cls-40" x1="598.97" y1="391.15" x2="594.29" y2="394.75"/><path class="cls-29" d="M540.98,403.92c3.8,0,3.8,4,7.6,4s3.8-4,7.61-4,3.8,4,7.6,4,3.8-4,7.61-4,3.8,4,7.61,4"/><path class="cls-24" d="M523.67,399.38c-5.11-.94-8.13-6.36-8.34-11.37s1.62-9.86,2.57-14.79c.66-3.42.78-7.31-1.56-9.96-2.06-2.33-5.62-3.03-8.73-2.41s-5.85,2.36-8.33,4.26"/><text class="cls-43" transform="translate(506.13 321.04) scale(1.04 1)"><tspan class="cls-61" x="0" y="0">B</tspan><tspan x="11.89" y="0">A</tspan><tspan class="cls-69" x="24.58" y="0">K</tspan><tspan x="36.83" y="0">T</tspan><tspan class="cls-67" x="47.43" y="0">E</tspan><tspan x="58.64" y="0">RI</tspan><tspan class="cls-67" x="75.78" y="0">E</tspan><tspan x="86.99" y="0">R</tspan></text><text class="cls-43" transform="translate(518.78 469.42) scale(1.04 1)"><tspan x="0" y="0">ARK</tspan><tspan class="cls-67" x="36.96" y="0">ÉE</tspan><tspan x="59.37" y="0">R</tspan></text><path class="cls-35" d="M1117.58,472.15l-.02,56.4c0,2.17-1.82,3.92-4.07,3.92h-3.47c-2.25,0-4.07-1.76-4.07-3.92l.02-56.4"/><path class="cls-31" d="M1073.58,466.93c-.6-3.77,19.29-13.91,38.2-14.14,18.71-.22,38.69,10.36,38.2,14.14-.93,7.09-75.26,7.07-76.39,0Z"/><text class="cls-43" transform="translate(1067.58 576.7) scale(1.04 1)"><tspan class="cls-54" x="0" y="0">S</tspan><tspan class="cls-52" x="11.61" y="0">V</tspan><tspan x="21.59" y="0">AM</tspan><tspan class="cls-51" x="50.11" y="0">P</tspan><tspan x="60.42" y="0">AR</tspan></text><text class="cls-43" transform="translate(762.41 394.8) scale(1.04 1)"><tspan x="0" y="0">P</tspan><tspan class="cls-62" x="11.37" y="0">R</tspan><tspan class="cls-71" x="23.28" y="0">O</tspan><tspan x="36.58" y="0">TI</tspan><tspan class="cls-58" x="52.24" y="0">S</tspan><tspan x="63.93" y="0">T</tspan><tspan class="cls-65" x="74.53" y="0">E</tspan><tspan x="85.74" y="0">R</tspan></text><ellipse class="cls-11" cx="813.16" cy="328.31" rx="4.59" ry="4.42"/><line class="cls-11" x1="817.22" y1="333.4" x2="815.97" y2="331.8"/><line class="cls-11" x1="817.22" y1="323.23" x2="815.97" y2="324.82"/><line class="cls-11" x1="811.66" y1="322.06" x2="812.11" y2="324.01"/><line class="cls-11" x1="807.19" y1="325.45" x2="809.04" y2="326.36"/><line class="cls-11" x1="807.19" y1="331.18" x2="809.04" y2="330.27"/><line class="cls-11" x1="811.66" y1="334.57" x2="812.11" y2="332.62"/><line class="cls-11" x1="819.82" y1="328.31" x2="817.74" y2="328.31"/><ellipse class="cls-11" cx="795.66" cy="340.39" rx="4.84" ry="4.67"/><line class="cls-11" x1="799.95" y1="345.76" x2="798.63" y2="344.08"/><line class="cls-11" x1="799.95" y1="335.02" x2="798.63" y2="336.71"/><line class="cls-11" x1="794.14" y1="333.77" x2="794.6" y2="335.84"/><line class="cls-11" x1="789.36" y1="337.37" x2="791.31" y2="338.33"/><line class="cls-11" x1="789.36" y1="343.42" x2="791.31" y2="342.46"/><line class="cls-11" x1="794.14" y1="347.01" x2="794.6" y2="344.95"/><line class="cls-11" x1="802.69" y1="340.39" x2="800.5" y2="340.39"/><ellipse class="cls-11" cx="794.05" cy="324.87" rx="2.18" ry="2.1"/><ellipse class="cls-11" cx="824.38" cy="341.8" rx="3.22" ry="3.1"/><path class="cls-32" d="M1111.94,328.49v.71c-.12-.2-.24-.41-.34-.63.12-.01.23-.05.34-.09Z"/><text class="cls-43" transform="translate(1089.13 383.14) scale(1.04 1)"><tspan class="cls-56" x="0" y="0">D</tspan><tspan x="12.1" y="0">JUR</tspan></text><path class="cls-15" d="M1138.35,328.58c-3.79,1-8.04,1.65-12.78,1.85-3.48,2.71-12.16,8.82-20.83,10.24l3.52-11.87c-11.18-2.6-20.78-11.13-26.51-15.61-1.66,1.47-3.39,2.85-5.2,4.12-8,5.63-17.57,6.33-17.57,6.33,0,0,2.5-10.94,9.1-16.94-6.6-6-9.1-16.93-9.1-16.93,0,0,9.57.7,17.57,6.33,1.84,1.28,3.59,2.67,5.24,4.15,5.75-4.48,15.31-12.98,26.47-15.57l-3.52-11.87c8.74,1.42,17.49,7.58,20.92,10.24,4.7.2,8.93.86,12.69,1.85-7.43,13.57-7.43,30.1,0,43.68Z"/><path class="cls-19" d="M1164.57,306.74c0,4.03-7.23,16.8-25.88,21.75-.12.04-.23.08-.34.09-7.43-13.58-7.43-30.11,0-43.68.11-.22.23-.42.34-.63v.71c18.63,4.99,25.88,17.88,25.88,21.75Z"/><ellipse class="cls-37" cx="1146.98" cy="303.34" rx="3.52" ry="3.39"/><text class="cls-43" transform="translate(1081.61 216.2) scale(1.04 1)"><tspan class="cls-52" x="0" y="0">V</tspan><tspan class="cls-63" x="9.98" y="0">Ä</tspan><tspan class="cls-46" x="23.09" y="0">X</tspan><tspan x="35.44" y="0">T</tspan><tspan class="cls-67" x="46.05" y="0">E</tspan><tspan x="57.25" y="0">R</tspan></text><path class="cls-18" d="M1136.18,119.62l-58.45,52.75,15.94-14.39v-28.77c0-15.89,21.25-28.77,61.11-28.77,1.47,0,2.66,1.07,2.66,2.4,0,35.96-14.27,55.14-31.88,55.14h-31.88l42.51-38.36ZM1114.93,138.8h18.6-18.6ZM1114.93,122.02v16.78-16.78Z"/><path class="cls-18" d="M269.06,331.32c0,2-.17,3.94-.52,5.85-7.46-2.53-11.64,5.13-17.39,4.02-12.79-2.46-16.42.29-16.42,6.17s0,5.88-2.66,10.29c-1.72,2.87-2.28,5.74,1.18,8.21-19.79,0-35.82-15.46-35.82-34.53-.01-9.25,3.85-18.12,10.71-24.61,3.05.31,4.74,1.88,7.58,4.76,5.36,5.46,10.74,5.92,14.32,4.1,5.38-2.73.86-7.16,7.16-9.57,3.87-1.47,4.6-5.34,2.77-8.58,16.57,3.03,29.1,17.05,29.1,33.9Z"/><path class="cls-22" d="M268.55,337.17c-2.87,16.29-17.59,28.68-35.29,28.68-3.46-2.46-2.9-5.34-1.18-8.21q2.66-4.4,2.66-10.29c0-5.87,3.63-8.63,16.42-6.17,5.75,1.11,9.93-6.55,17.39-4.02Z"/><path class="cls-22" d="M237.2,306c-6.3,2.41-1.79,6.84-7.16,9.57-3.58,1.83-8.95,1.37-14.32-4.1-2.83-2.88-4.53-4.45-7.58-4.76,6.69-6.36,15.71-9.92,25.11-9.9,2.25,0,4.5.2,6.71.61,1.83,3.24,1.1,7.11-2.77,8.58Z"/><text class="cls-43" transform="translate(162.01 405.69) scale(1.04 1)"><tspan x="0" y="0">JORD</tspan><tspan class="cls-67" x="44.54" y="0">E</tspan><tspan x="55.74" y="0">N </tspan><tspan class="cls-73" x="73.56" y="0">B</tspan><tspan x="85.67" y="0">IL</tspan><tspan class="cls-60" x="101.04" y="0">D</tspan><tspan class="cls-55" x="112.93" y="0">A</tspan><tspan x="125.35" y="0">S</tspan></text><line class="cls-21" x1="694.49" y1="331.33" x2="696.49" y2="331.33"/><line class="cls-23" x1="700.51" y1="331.33" x2="746.69" y2="331.33"/><line class="cls-21" x1="748.69" y1="331.33" x2="750.69" y2="331.33"/><line class="cls-21" x1="326.49" y1="331.33" x2="328.49" y2="331.33"/><line class="cls-33" x1="332.31" y1="331.33" x2="414.56" y2="331.33"/><line class="cls-21" x1="416.48" y1="331.33" x2="418.48" y2="331.33"/></svg>