<?xml version="1.0" encoding="UTF-8"?><svg id="Layer_1" xmlns="http://www.w3.org/2000/svg" width="500" height="500" viewBox="0 0 500 500"><defs><style>.cls-1{opacity:.5;}.cls-2{opacity:.2;}.cls-3{fill:none;stroke:#b1835e;stroke-miterlimit:10;}</style></defs><path class="cls-3" d="M297.62,410.13c-.74-.14-1.34.13-1.89.63-2.91,2.71-1.45,7.08-3.22,10.74-.04.08-.07.15-.11.23,1.78,1.33,3.54,2.61,5.27,3.83.03-5.58,2.22-10.67,1.33-13.93-.21-.79-.8-1.39-1.4-1.51Z"/><path class="cls-3" d="M417.29,393.52c-2.61.51-5.09-2.24-6.58.51-1.74,3.21-1.18,4.08-4.03,7.52-.9,1.09-1.63,6.24,1.22,6.06,3.92-.25,4.55-6.46,5.1-9.59.2-1.15,1.27-1.89,2.25-1.82.31.02.62.15.89.35.43-1.01.84-2.03,1.25-3.06-.03,0-.06.02-.1.03Z"/><path class="cls-3" d="M415.78,259.58c-2.54,4.27-5.73,4.08-5.29,7.26.61,4.34,2.08,7.14,1.5,11.11-.32,2.22-.68,4.36-1.24,6.49-.22.84-.99,1.28-1.7,1.32-4.05.24-.07-7.1-.58-10.15l-1.47-8.78c-.44-2.65-5.63-3.19-6.57-1.87-.97,1.35.6,3.49,1.58,4.68,1.62,1.96,2.35,4.19,2.25,6.76l-.27,6.94c-.14,3.63,2.15,5.25,2.23,7.19.05,1.09-.66,1.95-1.52,2.09-.94.15-1.82-.29-2.26-1.24-1.93-4.1-2.29-8.65-1.73-13.17.37-2.97-.69-5.76-2.66-7.85-3.05-3.24.15-5.91-2.95-8.68-1.15-1.03-4.03-3.57-5.55-1.71-2,2.44,2.56,3.9,1,10.96-.51,2.32-1.06,4.59-1.13,7.01-.18,6.35-1,12.44-1.61,18.76-.52,5.46,2.77,12.81-1.56,17.74-3,3.42-7.29,5.47-11.74,6-1.09.13-2.19-.61-2.62-1.46-.41-.81-.19-1.69.36-2.22,1.97-1.88,2.93,1.02,7.83-1.76,3-1.7,4.9-4.43,4.79-8.02-.24-7.7-1.01-5.69-.24-14.65l.93-10.79c.33-3.86.69-7.51,1.37-11.33.42-2.35.19-4.69-1.16-6.67-.7-1.03-2.89-1.06-3.34.18-.74,2.01-.47,4.11-.35,6.21.28,5.12.06,10.08-1.13,15.05-1.27,5.32-1.02,13.96.63,19.18.34,1.08-.53,2.28-1.31,2.5-1.09.31-2.11-.33-2.37-1.46-.93-4-1.21-7.96-1.4-12.06-.35-7.54,1.93-8.93,2-17.79.02-2.08.31-4.05.08-6.11-.7-6.33,1.42-5.95-.26-10.75-.52-1.49-1.05-2.95-1.59-4.4-1.46.06-2.94.1-4.45.12,1.66,5.81,2.23,11.7,2.07,17.78-.08,3.26-.02,6.31.28,9.52.08.79-.33,1.6-.8,1.83-.57.28-1.46.42-2.07.04-.92-.57-1.34-1.97-1.24-3.15.31-3.39.48-6.61.3-10.02-.1-1.99.21-3.92-.2-5.89l-2.1-10.11c-1.37-.01-2.75-.05-4.16-.1.39,1.18.78,2.36,1.2,3.54.44,1.25-.48,2.42-1.52,2.61-1.22.21-2.17-.54-2.4-1.84-.29-1.67-.66-3.12-1.05-4.5-1.29-.08-2.6-.18-3.93-.3-.1,0-.2-.02-.31-.03.81,2.66,1.69,5.27,2.16,8.08.9,5.35.89,10.72.58,16.06-.07,1.18-1.27,1.96-2.2,1.89-.71-.06-1.9-1.05-1.72-2.07.51-2.86.76-5.63.59-8.65-.56-9.86-1.51-8.81-3.32-15.67-1.48-.14-2.94-.28-4.36-.42,1.02,4.42,3.35,7.19,3.58,13.29.08,2.08.08,4.07.4,6.16-.35,3.16.17,6.1.82,9.17l2.41,11.34c.14.67-.53,1.44-.87,1.77-.41.41-1.45.72-2.1.25-1.2-.86-1.32-2.39-1.36-3.72-.1-3.77-2.16-9.59-2.34-14.42l-.32-8.5c-.14-3.72-.8-7.11-2.42-10.45-.4-.82-1.17-3.1-1.65-5.27-1.28-.13-2.52-.26-3.74-.39-.61,5.67-2.07,5.71-3.6,12.04-.4,1.64-.15,3.09.05,4.69.32,2.55.57,4.99,1.28,7.6.27,1,.4,2.13.03,2.97-.36.82-1.36.96-2.11.72-.63-.19-1.22-.87-1.41-1.72-.71-3.28-1.18-6.56-1.6-9.92-.76-6.06,2.43-10.24,3.7-15.83.07-.32.13-.63.18-.94-1.07-.12-2.11-.23-3.14-.35-.25.36-.61.64-1.01.78-.84.29-1.88-.22-2.27-1.15-1.31-.15-2.58-.29-3.82-.43l.22.47c1.89,4.03,6.45,6.23,4.33,8.79-.85,1.03-2.59.61-3.24-.5-.96-1.65-1.93-3.14-3.03-4.7-.86-1.22-1.65-2.86-2.4-4.53-1.47-.17-2.87-.32-4.23-.47,2.96,10.25,9.89,12.17,10.74,18.58l.81,6.05c.42,3.17,1.74,5.76,3.82,8.25,3.71,4.45,3.13,11.54-.07,10.82-1.01-.23-1.91-1.29-1.64-2.48.5-2.14.31-4.35-1.14-6.12-3.06-3.73-4.66-8.16-4.88-13.02-.31-6.78-3.97-7.56-7.66-13.54-1.74-2.82-3.04-5.82-3.98-8.98-1.26-.13-2.46-.25-3.62-.35-.03,1.98.4,3.95,1.26,5.81,1.9,4.14,3.88,8.31,7.09,11.47l2.47,2.43c.87.85.75,2.11-.11,2.97-.52.52-2.08.73-2.83-.15-4.08-4.78-7.49-10.06-10.13-15.88-1-2.21-1.42-4.57-1.32-6.94-1.37-.1-2.66-.17-3.89-.22l-.05,3.65c-.03,2.24.89,4.24,1.97,6.13l6.86,11.92c1.7,2.95,3.21,5.87,4.2,9.11.36,1.16-.25,2.24-1.33,2.48-.75.17-2.01-.22-2.32-1.28-1.07-3.59-2.65-6.79-4.55-10.07l-7.35-12.65c-.89-1.54-1.41-6.55-1.23-9.34-1.59.03-3.05.12-4.4.29.11,1.2.23,2.41.36,3.62.92,8.3-3.31,11.67-1.2,16.87,1.67,4.1,4.01,8.85,6.89,12.19.66.76.94,2,.36,2.85-.46.67-1.51.81-2.18.61-.51-.15-1.2-.69-1.58-1.33-2.25-3.73-4.34-7.48-6.21-11.43-1.79-3.79-1.76-7.87-.51-11.75.94-2.92,1.03-5.75.69-8.76-.08-.72-.14-1.43-.21-2.15-1.53.44-2.89,1.04-4.13,1.83.19,2.3.06,4.5-.32,6.76l-1.17,7c-.36,2.17-.14,4.36.75,6.39,1.17,2.7,2.47,5.3,4.19,7.67.83,1.15,1.85,2.27,1.27,3.83-.28.74-1.22.89-1.94.88-.68,0-1.36-.49-1.75-1.22l-4.34-7.98c-4.16-7.65-.73-11.94-.29-20.14-2.52,2.96-4.61,7.19-6.97,13.06-.12,2.09.42,4.11,1.56,5.99,1.46,2.41,2.98,4.65,4.67,6.87.75.98.28,2.37-.53,2.95-.88.62-2.32.4-2.89-.7-1.19-2.28-2.45-4.43-3.99-6.54-.5-.69-.93-1.4-1.3-2.14-.62,1.41-1.52,2.8-2.65,4.18,1.02,1.39,2.08,2.71,3.41,3.86.62.54.81,1.31.68,2.13-.08.49-.38,1.21-1.1,1.48-2.2.85-3.74-2.24-5.55-4.71-1.55,1.51-3.33,3.03-5.26,4.57,3.27.51,5.84,4.34,10.47,3.31,3.8-.85,7.38-2.12,11.04-3.35,1.24-.42,2.4.27,2.67,1.35.31,1.24-.41,2.16-1.73,2.5-3.54.92-7.01,1.76-10.5,2.86-3.96,1.25-6.99.21-10.5-1.95-3.41-2.1-6.65-.2-9.46,1.58-.99.63-1.63,1.43-1.98,2.58-.27.87-.04,1.76.86,2.16,4.24,1.89,8.86-4.13,19.96,2.9.7.45,1.37.82,1.53,1.39.24.88.35,1.72-.31,2.34-.86.8-2.33.55-3.24-.26-3.25-2.84-7.39-3.83-11.67-2.87-7.36,1.66-7.72-1.58-11.05.5-4.15,2.59-8.43,4.64-12.94,6.47-1.32,1.36-2.59,2.77-3.77,4.23.97.55,1.23,1.71.85,2.54-.43.95-1.78,1.44-2.83.85-.13-.07-.26-.15-.4-.22-.71,1.03-1.37,2.09-1.99,3.17,1.11.34,2.25.43,3.51.38,4.09-.16,8.06-.23,12.11-.82,5.75-.85,6.6-2.88,10.5-5.25.97-.59,2.04-.42,2.65.33,2.03,2.47-2.9,4.36-4.94,5.76-2.71,1.86-5.75,2.42-9.03,2.82l-4.09.49-9.51.4c-.83.03-1.85-.24-2.93-.7-.59,1.33-1.1,2.7-1.53,4.11,2.65,2.05,4.48,4.93,6.56,7.46.68.82.1,2.02-.44,2.44-2.42,1.89-3.61-2-7.11-5.71-.31,1.86-.48,3.78-.48,5.78.03.03.06.07.08.1,1.22,1.57,2.84,2.9,4.84,3.19,2.15.32,6.35-.79,6.46,1.98.03.84-.78,2.01-1.91,2.06-1.77.07-3.56-.3-5.34-.5-1.42-.16-2.66-.66-3.74-1.43.26,1.82.65,3.7,1.19,5.63,3.75.66,7.86-1.49,9.76-.27.76.49.92,1.46.57,2.31-.25.6-1.02,1.34-1.97,1.38-2.41.1-4.74.3-7.16.31.51,1.41,1.09,2.85,1.75,4.32l3.02-1.44c.63-.3,1.37-.23,1.94.22.43.34.81,1.06.6,1.83-.26.95-1.03,1.65-1.96,1.97l-2.02.69c.61,1.19,1.26,2.39,1.97,3.61l.24-.13c1.85-.99,3.6-2.42,4.43-4.43,1.2-2.89,1.85-5.93,2.24-9.07.41-3.38-.03-6.65-1.35-9.73-1.07-2.5-1.96-4.96-3.18-7.38-.73-1.44-3.63-3.45-2.24-5.25.62-.81,1.68-1.1,2.63-.52.7.43,1.27,1.07,1.62,1.84l4.27,9.36c1.26,2.76,1.87,5.53,2.2,8.61-.29,3.79-.91,7.44-1.95,11.09-.94,3.26-2.75,5.9-5.59,7.73l-1.46.94c.53.84,1.09,1.7,1.67,2.56.4-.17.88-.21,1.35.03,2.33,1.18,1.93,4.84,6.24,9.12,1.67,1.65,3.52,3.21,4.69,5.27,1.9,3.37,4.56,6.03,8.34,7.25,2.54.82,4.84,1.96,7.07,3.44.87.58,2.05.21,2.74-.37.66-.56,1.35-1.48.93-2.52-.47-1.17-1.68-1.98-2.89-2.37-3.97-1.29-7.92-2.41-11.65-4.24-1.07-.52-1.26-1.96-.77-2.8.45-.77,1.76-1.08,2.72-.57,6.44,3.47,9.07,2.94,12.56,4.87,1.96,1.08,3.61,2.86,4.01,5.04.42,2.25-.6,4.27-2.55,5.22-1.76.86-2.86,2.43-3.24,4.37-.06.3-.12.59-.18.88,1.02.93,2.05,1.86,3.11,2.81.48-1.2,1.02-2.37,1.74-3.47,2.57-3.96,7.15-5.32,11.47-3.42,2.03.89,4.08,1.68,6.2,2.28,5.73,1.63,6.66-4.47,9.27-2.29.84.7,1.07,1.97.11,3.02-1.81,1.96-4.65,3.43-7.49,3.16-3.39-.32-6.52-1.53-9.58-2.74-3.23-1.28-6.28.02-7.69,3.26-.4.92-.79,1.83-1.14,2.74,1.58,1.38,3.21,2.77,4.89,4.19.26.07.52.17.74.34,1.05.79,1.87,1.59,2.56,2.41,2.76,2.28,5.64,4.6,8.65,6.97.49.38.97.76,1.46,1.13,0-.04.02-.07.03-.11l.78-5.41c.4-2.77,1.91-5.4,4.38-6.79,1.24-.69,2.57-1.24,3.19-2.6.97-2.13,1.9-4.07,2.76-6.32.77-2,.76-5.25-1.34-6.38-1.98-1.06-3.95-1.64-5.64-3.2-2.23-2.05-4.74-3.67-7.29-5.32-2.58-1.67-5.17-2.99-8.02-4.07-.67-.25-1.05-1.15-1.15-1.67-.13-.64.11-1.52.76-1.87,1.08-.57,2.29-.1,3.27.46l7.53,4.32c4.01,2.3,6.18,5.21,10.22,7.3.47.25,1.46.34,1.76-.09.94-1.35.03-2.49-.87-3.42-1.99-2.03-3.89-3.91-6.47-5.12-.59-.28-.8-1.04-.86-1.59-.11-.99.23-1.63.87-2,.71-.42,1.57-.43,2.29.08,3.34,2.36,5.96,5.2,8.44,8.45,1.04,1.37,3.79,2,4.86.5,2.21-3.11,2.13-7.03,1.82-10.54-.13-1.46,1.27-2.35,2.26-2.25,1.19.13,1.94,1.1,1.84,2.38-.18,2.3-.44,4.52-.82,6.8-.83,4.96-3.16,5.69-1.61,9.12l3.36,7.44c.62,1.38,1.12,2.74,1.4,4.25l1.94,10.17c.32,1.7.95,3.11,1.95,4.52.74,1.04,1.03,2.72,0,3.65-.85.77-2.29.19-2.89-.75-1.46-2.31-2.25-4.91-2.84-7.61-1.33-6.07-.73-9.4-4.17-15.16-1.94-3.24-1.85-7.17-4.37-7.79-1.09-.27-2.3-.19-2.98.73-1.29,1.77,2.21,4.69.17,9.49l-2.53,5.95c-1.75,4.11,2.38,4.17,1.34,10.14-.64,3.66-1.95,9.06-1.26,13.09,1.61,1.08,3.19,2.1,4.76,3.08.52-1.05.51-2.44.29-3.59-1.64-8.48,1.69-8.89.52-16.73-.46-3.09-.94-6.09-.94-9.18,0-1.14,1-2.02,1.98-1.97.86.05,1.75.97,1.75,2.02,0,2.74.01,5.38.66,8.1.83,3.52.52,6.96-.42,10.4-1.52,5.55,1.39,7.04-.7,12.45-.05.12-.08.24-.12.35,1.99,1.18,3.94,2.29,5.87,3.32-.57-1.03-1.15-2.2-1.73-3.56-.4-.95-.61-1.88.14-2.61.56-.54,1.56-1.01,2.36-.43,1.91,1.38,1.26,4.04,4.17,7.59.62.76,1.18,1.54,1.7,2.33,2.01.93,3.98,1.77,5.92,2.54-.7-2.72.38-4.08-1.69-5.89-2.42-2.11-4.04-4.81-6.03-7.32-2.36-2.99-6.57-3.36-7.08-5.38-.2-.81-.16-1.77.53-2.37,1.54-1.36,4.26,1.51,5.28,2.12,5.15,3.09,5.09,5.42,9.13,9.59,1.29,1.32,2.8,1.55,4.57,1.2,2.41-.48,4.56.63,5.61,2.77.88,1.79,3.41,7.51,2.32,9.15-.02.03-.05.06-.07.09,1.35.31,2.68.58,3.99.8.59-1.73.15-3.83-.35-5.49l-1.93-6.38c-.5-1.65.26-3.53,1.29-4.92,2.3-3.11,3.4-6.37,4.2-10.09.67-3.14,2.78-5.79,4.74-8.16.76-.92,2.11-.97,2.8-.29.7.68.86,2.12.04,2.9-6.79,6.42-2.72,9.58-8.03,16.35-1.44,1.83-1.71,3.99-.9,6.12l1.49,3.89c.76,1.99,0,4.9.45,6.62,1.34.16,2.67.26,3.97.33,2.86-2.04,6.14-3.4,9.73-3.41,2.23,0,3.43,1,4.09,2.42,1.64-.33,3.25-.74,4.81-1.22-1.57-3.07-3.94-5.55-6.8-7.55-2.82-1.98-5.29-4.25-7.47-6.85-2.02-2.4-2.57-5.32-1.83-8.34,1.9-7.77,6.55-8.86,5.75-12.28-.21-.88-.74-2.33-1.94-2.6-2.89-.65-6.14-.07-8.64,1.57-3.15,2.06-4.93,5.31-5.98,8.77-.4,1.31-1.72,1.88-2.72,1.47-1.14-.47-1.61-1.64-1.07-2.79,1.22-2.63,2.66-5.07,4.36-7.41,1.54-2.11,3.52-3.4,5.98-4.25,2.4-.83,4.94-1.81,7.51-1.22,1.57.36,2.96.43,4.2-.8l2.31-2.3c.78-.78,2.34-.79,3.06.05,2.1,2.43-2.92,4.6-3.71,5.79-1.35,2.04.3,4.74,2.45,5.34,3.34.94,3.87,3.8,5.97,5.81.65.62,1.58.75,2.23.41,2.12-1.1.44-4.5-.6-6.1-1.58-2.44-2.42-5-2.57-7.93-.07-1.37-.56-2.68-.45-4.03.1-1.19.84-2.15,1.98-2.02,3.66.41-.32,4.84,4.77,13.23,1.45,2.39,1.89,5.25,1.12,7.89-.43,1.49-1.75,2.21-3.09,2.69-2.38.85-4.75.21-6.3-1.76l-3.05-3.9c-.63-.8-2.25-1.73-3.24-.96-2.32,1.8-3.84,4.51-4.66,7.26-1.24,4.16,1.33,7.04,4.33,9.43l6.28,5.01c2.38,1.9,4.2,4.36,5.4,7.11,1.35-.53,2.68-1.11,3.98-1.75-2.55-5.16-5.92-6.06-4.79-8.32.46-.93,1.42-1.08,2.35-1.02.8.05,1.39.72,1.89,1.55,1.23,2.05,2.63,3.98,3.73,6.09,1.35-.78,2.68-1.62,3.97-2.52-1.63-2.32-3.87-2.61-4.09-4.57-.08-.77.25-1.73,1.1-2.06,1.27-.51,2.42.4,3.24,1.32.93,1.05,1.92,2,2.71,3.12,1.16-.92,2.29-1.88,3.4-2.89-1.2-1.73-2.86-3.01-4.87-3.85-1.51-.64-3.16-1.38-4.79-.97l-9.5,2.34c-2.49.61-5.2.27-7.05-1.59-1.58-1.59-5.66-7.61-2.41-8.83.9-.34,1.98.03,2.49,1,.34.65.46,1.44.63,2.14.69,2.86,3.26,4.27,6.09,3.62,2.33-.53,4.58-1.19,6.85-1.92,1.84-.59,3.56-.74,5.46-.34,3.92.84,7.19,2.87,9.9,5.7,1.36-1.39,2.68-2.84,3.96-4.36-.22-.12-.45-.22-.71-.28-3.21-.72-6-2.29-8.97-3.51-3.81-1.56-6.08-4.36-6.38-8.55-.32-4.42-2.25-8.51-4.22-12.43-.61-1.21-1.15-2.48-.39-3.72.36-.58,1.31-.69,1.91-.51.52.16,1.29.63,1.53,1.31.74,2.06,1.49,4.02,2.44,6.03,2.67,5.61,1.41,5.77,2.62,10.5.46,1.8,1.73,2.96,3.4,3.69,2.66,1.15,5.1,2.57,7.88,3.44,1.14.35,2.56.5,3.29-.55,2-2.88,1.75-6.3,4.35-6.01.28.03.56.1.8.2.96-1.53,1.9-3.09,2.8-4.68-2.07.21-3.66-1.06-5.86,1.01-1.64,1.54-2.89,3.2-3.84,5.39-.54,1.23-2.36,1.47-3.24.62-.72-.7-.69-1.92-.13-2.72,1.26-1.82,2.52-3.55,4.02-5.2.76-.84,1.93-1.41,2.31-2.6.35-1.1.59-4.69-.72-5.47-1.47-.88-3.5.98-5.21,2.1-.88.58-1.55,1.4-1.7,2.49-.36,2.56-.55,7.83-2.51,8.69-.74.32-1.54-.11-1.93-.55-.49-.54-.67-1.35-.48-2.1l1.26-5.17c.42-1.7-.22-3.22-1.71-4.1-1.41-.84-2.44-2.16-3.22-3.6l-2.81-5.2c-.43-.79-1.28-1.33-2.24-1.14l-7.02,1.4c-1.96.39-3.8.92-5.69,1.56-6.17,2.11-8.6-.57-10.64.68-2.59,1.58-5.11,3.03-7.54,4.86-1,.75-2.46,1.47-3.58.47-1.01-.9-.5-2.72.65-3.39l7.61-4.43c2.62-1.53-.14-4.42,2.69-10.04l2.93-5.82c.99-1.96,1.65-3.91,2.2-6.02.21-.81.92-1.41,1.58-1.48.74-.08,1.64.14,1.94.96.36,1,.12,2.11-.33,3.07l-4.92,10.5c-.97,2.08-2.79,7.17.86,7.73,1.85.29,3.77.1,5.56-.54,5.63-2.02,7.61-1.73,12.95-2.98,1.22-.28,1.93-1.14,2.26-2.29.69-2.38,1.34-4.7,1.89-7.11.48-2.14.37-4.08.1-6.24l-1.67-13.56c-.21-1.7-.18-3.41-1.02-4.91-1.56-2.8-3.26-5.44-5.04-8.07-3.24-4.78-6.62-3.37-7.47-5.81-.27-.79-.07-1.75.7-2.18,1.22-.68,2.41.04,3.51.69,8.07,4.75,5.65,5.78,10.38,11.66,1.55,1.93,2.18,4.09,2.4,6.56.44,4.93.76,9.74,1.65,14.59.39,2.13.69,4.02.33,6.18-.55,3.29-1.33,6.47-2.45,9.63-.37,1.05-.37,2.14.16,3.15l2.15,4.03c.94,1.77,2.1,3.42,3.73,4.61,1.95,1.42,5.97-1.66,6.26-3.22.78-4.23,1.38-8.41,1.67-12.71l.32-4.62c.08-1.22.97-1.86,2.12-1.84.82,0,1.94.98,1.76,2.12-.42,2.64-.49,5.25-.91,7.95l-1.26,8.21c-.13.83.28,1.67.94,1.9.51.17,1.75.04,2.09-.78,1.01-2.45,3.28-5.19,3.35-8.04.12-4.86-2.73-14.35-1.86-19.85.59-3.75-1.66-7.03-.29-8.6.51-.59,1.42-.62,2.08-.34.48.21,1.19.79,1.33,1.54.74,4.17.35,8.31.54,12.57.18,3.85,1.03,7.52,1.51,11.29.57,4.43,6,1.5,6.99,4.06,1.27-3.34,2.44-6.71,3.52-10.09-1.68-1.09-.18-5.17.11-6.37.44-1.81,1.47-3.2,2.94-4.07.45-1.67.87-3.34,1.28-4.99-1.4-.2-2.71-.68-4.06-1.28-1.4-.63-3.38.1-3.61,1.6-.53,3.56-.86,7.01-1.04,10.75-.13,2.71.57,4.93,1.96,6.99.73,1.08.74,2.79-.38,3.54-.92.62-2.33.02-2.83-1-1.49-3.01-2.66-7.85-2.28-11.44l.86-8.13c.14-1.35,0-2.48-.93-3.57-3.14-3.66-6.13-4.68-10.26-10.04-2.65-3.43-5.18-3.82-5.28-6.06-.05-1.02.51-1.78,1.34-2.07.82-.29,1.65.03,2.29.75,2.2,2.45,4.03,5.14,6.46,7.43l7.96,7.51c.83.78,2.29.8,3.1.08.76-.68.89-1.71.74-2.7-.1-.67-.75-1.56-1.58-2.07-5.16-3.16-9.38-7.3-12.73-12.36-2.11-3.2-4.66-1.32-6.93-3.68-1.69-1.75-3.31-3.65-4.31-5.82-.56-1.22-.17-2.68,1.03-3.05,3.37-1.05,2.22,4.17,6.39,6.57.67.38,1.54.21,1.97-.15,1.27-1.07.17-2.5-.72-3.45-.79-.84-1.43-2.37-.52-3.37.77-.84,2.4-.53,3.23.2,1.76,1.56,2.47,4.05,1.94,6.33-.42,1.83.03,3.3,1.05,4.76,3.12,4.44,7,7.94,11.51,10.93,3.73,2.48,3.49.24,8.14.55.06,0,.12,0,.19,0,.3-1.52.58-3.02.84-4.51-1.05-.01-2.11-.03-3.17-.07-7.33-.3-12.33-5.79-15.06-12.05-.46-1.06,0-2.21.84-2.63.91-.47,2.15-.2,2.72.74.54.9.77,1.86,1.25,2.87,1.88,3.96,5.52,6.9,10.08,7.31,1.32.12,2.65.21,3.97.28.28-1.61.55-3.19.82-4.74-.07,0-.13,0-.2,0-2.72-.13-5.31-.64-7.76-1.81-3.99-1.92-7.38-7.38-4.44-10.98,2.93-3.59,6.51-1.67,7.72-5.26.4-1.19.13-2.41-.74-3.14-.95-.8-2.26-.75-3.37-.13-5.48,3.03-7.59,8.88-14.02,8.27-4-.38-7.83-.15-11.75.28-1.09.12-2.15-.87-2.3-1.58-.19-.92.11-2.43,1.3-2.44l14.33-.16c1.39-.02,2.63-.99,3.55-1.87l3.17-3.04c4.13-3.97,7.36-2.56,7.88-5.86,1.3-8.3.68-9.32-.07-17.33-.12-1.25.19-2.15,1.45-2.38.82-.15,1.85.26,2.14,1.49.74,3.09.66,6.35.82,9.61.18,3.57-.17,6.88-.96,10.32-.5,2.16,1.06,4.24,3.21,4.31,1.38.04,2.51.19,3.5.37.3-2.05.59-4.03.86-5.97-1.04-1.1-1.69-2.48-1.83-4.13l-.91-10.83c-.48-5.69-3.98-7.24-4.99-9.75-.37-.92,0-1.94.73-2.41.7-.44,1.92-.38,2.52.4,1.31,1.72,2.37,3.56,3.52,5.42,1.55,2.52,2.09,6.77,2.34,10.58,2.83-24.24,2.2-37.71-1.79-44.89.91,4.15,2.33,6.58,1.31,12.11-.66,3.57-.46,10.8,1.06,13.86.68,1.36,1.28,4.15-.69,4.55-.69.14-1.67-.21-2.03-1.03-1.46-3.33-2.06-6.99-2.2-10.69-.09-2.44-.37-4.75.22-7.14,1.67-6.8-1.95-8.79-1.87-16.34-1.29-.86-2.73-1.49-4.33-1.92,0,.48-.02.95-.03,1.43-.06,3.03-1,5.6-2.66,8.08-2.21,3.29-4.32,6.5-6.16,9.99-.36.68-1.13.99-1.7,1-.59,0-1.28-.17-1.6-.81-.48-.98-.3-2.25.39-3.16,2.67-3.53,5.24-7.06,7.09-11.14.84-1.86,1.11-3.95,1.15-6.01-1.35-.14-2.79-.19-4.31-.17-.18,3.44-1.23,6.69-2.97,9.63ZM288.96,408.58c-1.14.49-2.54.39-3.78,0l-9-2.79c-1.03-.32-1.31-1.53-1.16-2.34.56-3.09,5.82-.13,8.01.74,3.51,1.4,6.48-.85,7.2,1.81.27.99-.19,2.11-1.27,2.57ZM354.8,436.32c1.65,1.97,5.53,1.56,4.89,4.38-.23,1.02-1.18,1.86-2.42,1.51-2.86-.8-5.1-2.8-6.52-5.38-.56-1.02-1.27-2.02-1.39-3.2-.12-1.16.91-1.81,1.83-1.89,2.41-.22,2.31,3.02,3.62,4.59ZM392.49,295.94c.99-.07,1.7.42,1.95,1.34.76,2.73,1.25,5.45,1.81,8.25.38,1.95,2.35,2.83,4.28,2.36,3.24-.78,6.15-2.54,8.53-4.88.85-.84,2.55-4.63,4.78-2.99,3.35,2.46-5.63,8.63-7.85,9.85-4.09,2.26-11.41,3.33-12.99-2.25-.49-1.71-.72-3.41-1.02-5.17-.39-2.3-2.84-6.3.51-6.52ZM369.91,285.53c1.52,3.81,2.58,7.58,2.98,11.72l.63,6.45c.26,2.69,1.87,4.42,4.29,5.52,1.12.51,1.56,1.95,1.05,2.83-1.81,3.11-8.35-1.94-8.93-8.13l-.66-7.03c-.34-3.61-1.44-6.86-3.06-10.04-.57-1.12-.02-2.58.92-2.88,1.47-.47,2.28.29,2.78,1.57ZM360.4,281.36c2.16-2.68,3.04-5.88,2.9-9.33-.09-2.28-.13-4.44-.56-6.7-.18-.94.22-1.98.89-2.56.61-.54,1.49-.49,2.12-.13.53.3.98,1.13.98,1.94l-.02,10.27c0,2.82-1.01,5.39-2.75,7.52-1.76,2.17-2.15,4.85-1.23,7.52,1.26,3.68,2.68,7.23,3.59,11.01.29,1.19-.32,2.17-1.28,2.46-3.44,1.04-2.08-3.91-4.58-9.28-1.94-4.15-3.16-8.86-.05-12.74ZM358.62,297.75c.56,1,.09,2.29-1.15,2.81-1.6.66-3.29,1.17-4.81,2.09-5.38,3.27-9.82.75-14.03,4.29-3.59,3.02-7.11,5.87-11.06,8.56-1.06.72-2.21.52-2.89-.29-.59-.7-.59-2.42.45-3.01,3.72-2.09,7.08-4.51,10.36-7.3,2.9-2.47,6.31-3.88,10.15-3.9,5.75-.02,10.98-6.86,12.99-3.24ZM353.81,369.16c-.09,1.01-.95,1.62-1.62,1.71-2.76.37-1.92-4.21-2.61-5.96-1.35-3.41-5.42-6.77-2.87-11.34,1.34-2.4,2.99-4.4,4.7-6.59,2.83-3.61,4.14-8.27,3.2-12.81-.66-3.2-4.25-5.31-4.95-7.4-.32-.96-.1-1.86.82-2.35.62-.33,1.64-.25,2.31.5,1.64,1.83,3.1,3.86,4.43,5.98,1.31,2.09,1.68,4.45,1.35,6.87-.56,4.18-1.2,7.64-3.97,10.93-1.82,2.15-3.54,4.34-4.69,6.96-1.34,3.04,4.61,5.96,3.9,13.51ZM348.83,343.48l-2.73,5.48c-.43.87-1.21,1.3-2.13,1.23-.78-.06-1.81-.7-1.7-1.85.21-2.43,3.85-4.99,4.23-9.92.34-4.4-7.62-15.13-3.07-15.96,3.14-.57,1.83,3.44,5.05,9.45,1.98,3.69,2.23,7.82.36,11.57ZM349.5,376.48c.29,1.01-.02,2.36-1.03,2.89-1.28.67-2.44-.18-2.69-1.35-.31-1.45-.43-2.85-.95-4.24-3.07-8.21-8.04-8.42-8.38-14.77l-.45-8.51c-.07-1.36-.65-2.7-.26-4.03.28-.96,1.41-1.04,2.22-.9.86.15,1.36,1.13,1.45,2.17.34,3.82.35,7.55.91,11.34.21,1.41.62,2.6,1.63,3.64,3.78,3.88,6.05,8.53,7.54,13.76ZM341.83,341.88c-.14.89-1.1,1.5-1.74,1.55-.85.07-1.61-.52-1.89-1.47-.73-2.53,1.39-3.27-.99-8.43-1.3-2.81-1.78-5.78-2.59-8.74-.35-1.27-.11-2.43,1.03-2.93,1.06-.46,2.63,0,2.72,1.39.19,2.87.66,5.52,1.82,8.21,1.43,3.31,2.2,6.87,1.63,10.42ZM334.88,336.91c-.46,3.39-1.65,6.55-2.59,9.85-.69,2.41-.67,4.81-.75,7.3l-.4,12.38c-.03.8-.77,1.39-1.29,1.55-.74.21-1.78.29-2.3-.5-.48-.73-.47-1.76-.36-2.59.59-4.49.79-8.83.81-13.36.03-6.26,2.46-8.23,3.19-15.52.12-1.23,1.27-1.86,2.23-1.7,1.11.19,1.63,1.36,1.46,2.59ZM331.47,329.96c-1.64,2.05-2.94,4.21-3.85,6.73l-3.36,9.23c-.74,2.02-1.57,4.21-.95,6.23l1.06,3.45c.34,1.1-.51,2.09-1.42,2.37-2.84.87-2.99-4.11-3.22-5.41-.4-2.18-.3-4.33.53-6.44l5.26-13.49,2.71-5.25c.3-.59.85-1.01,1.26-1.18.59-.25,1.58-.19,2.04.35.82.96.76,2.4-.05,3.4ZM314.41,354.35c-.57,2.23-1.7,4.17-2.44,6.43-.32.96-1.05,1.38-1.76,1.45-.82.09-1.65-.11-2.01-1.03-1.13-2.89,4.1-4.46,2.81-13.02-.45-3,.77-6,2.66-8.3,1.6-1.95,2.93-3.79,3.6-6.26.27-.99,1.28-1.85,2.3-1.76.87.08,1.33.75,1.55,1.3.31.77.08,1.57-.34,2.33-1.42,2.56-3.04,4.95-4.67,7.38-2.61,3.9-.63,7.27-1.69,11.46ZM303.01,350.03c-.88-4.35-4.37-3.19-8.62-4.18-5.27-1.24-4.25-5.99-6.81-7.34-5.84-3.08-11.85-5.37-18-7.76-2.78-1.08-4.34-3.62-5.48-6.21-.6-1.37-.61-2.97.77-3.78.61-.36,1.37-.16,1.89.17,1.6,1.02.84,4.38,3,5.64,5.68,3.32,11.27,3.91,18.57,8.23.79.47,1.8.48,2.62.12,1.76-.76,2.46-3.86,1.07-5.99-.68-1.03-2-1.68-3.52-1.71-7.38-.12-8.94-.66-15.88-2.84-.75-.23-1.24-.86-1.37-1.46-.16-.74-.1-1.67.69-2.11.68-.38,1.77-.27,2.53.07,9.88,4.44,14.4.8,18.65,3.95,2.99,2.21,4.14,6.17,3,9.66-.71,2.17-4.13,2.94-3.22,5.38,1.17,3.1,5.02,2.42,8.47,3.22,2.46.57,4.29,2.32,4.85,4.82.49,2.18.89,4.4.89,6.63,0,1.06-1.15,1.83-1.98,1.78-.86-.05-1.81-1-1.74-2.02.11-1.5-.08-2.83-.38-4.29ZM258.39,338.37c.62,1.03.59,2.69-.58,3.32-.91.49-2.29-.24-2.74-1.23-.79-1.7-1.48-3.65-1.44-5.67.07-3.44,3.61-6.1,6.9-5.42,2.24.46,3.78,2.34,4.15,4.49l.89,5.28c.62,3.66,4.97,5.02,8.07,6.51,8.27,3.98,6.39,8.16,13.77,9.35,1.03.17,1.77,1.08,1.84,1.85.09.93-.55,2.32-1.78,2.14-2.71-.39-5.34-1.64-7.53-3.24-2.31-1.69-2.58-4.6-9.17-7.4-10.86-4.62-7.43-7.13-9.62-13.61-.32-.94-1.32-1.56-2.05-1.46-.96.12-1.62.85-1.73,1.85-.14,1.24.4,2.2,1.02,3.24ZM288.74,352.06c-5.36-3.5-6.75-6.83-11.9-9.52-2.6-1.35-5.12-2.63-7.6-4.18-1.3-.82-1.69-2.68-.47-3.71.65-.55,1.88-.4,2.54.17,5.24,4.55,8.42,3.74,12.98,8.59,2.08,2.21,4.28,4.16,6.84,5.81,5.4,3.49,9.08,1.41,9.15,4.54.02.98-.7,2.34-2.01,2.12-3.41-.58-6.64-1.94-9.52-3.83ZM301.55,333.39l-2.45-8.61c-.37-1.31.36-2.58,1.39-2.77,1.54-.29,2.4.53,2.69,1.95l1.42,7.01c.17.86.81,1.6,1.41,1.97,2.85,1.73,5.68-4.12,7.85-.97,1.7,2.48-3.48,4.78-6.14,5.23-2.81.48-5.39-1.06-6.17-3.81ZM294.89,307.36c-2.67-3.99-6.15-3.02-7.31-4.94-.39-.65-.47-1.64.06-2.2,1.08-1.14,2.59-.66,3.8.05,2.14,1.26,4.41,2.28,5.96,4.27,2.23,2.89,4.51,5.5,7.02,8.15,3.81,4.02,5.12,10.26,9.81,11.66,6.28,1.87,10.24-.23,10.55,2.9.1.97-.82,2.18-2.05,2.07-3.97-.35-12.14-1.02-14.47-4.44l-6.47-9.52c-2-2.94-4.89-5.03-6.89-8.02ZM340.71,261.32c.06-.96,1.25-1.29,1.92-1.21.8.1,1.74.85,1.7,1.88-.27,7.51.78,9.61.55,16.21-.27,7.67-.2,8.11,2.71,14.96.46,1.09.94,2.22.61,3.52-.22.9-1.17,1.18-1.9,1.18-.57,0-1.44-.64-1.68-1.41-.69-2.15-1.34-4.25-2.27-6.38-1.08-2.47-1.26-5.1-1.1-7.78.23-3.82.18-7.47-.14-11.31-.28-3.27-.59-6.45-.39-9.67ZM335.25,296.15l2.46-1.66c.79-.53,1.88-.77,2.76-.26.73.42.88,1.27.78,2.08-.29,2.16-4.1,2.03-8.22,5.81-5.57,5.1-9.91,4.46-11.76,10.06-.43,1.31-2.18,2.15-3.16,1.28-1.24-1.1-.81-2.91,0-4.13,4.29-6.5,7.86-5.61,11.79-9.3,1.64-1.54,3.5-2.62,5.36-3.87ZM320.13,274.22c1.03-.35,2.02.29,2.44,1.25.51,1.17.49,2.37.76,3.61,1.11,5.06,5.96,8.22,4.74,15.84-.17,1.03-.12,2.04-.67,3.05-.57,1.05-1.54,1.6-2.63,1.17-.83-.33-1.39-1.67-.97-2.71,2.36-5.86-.94-8.67-2.71-12.91-.98-2.35-1.68-4.75-2.25-7.21-.22-.93.67-1.88,1.3-2.1ZM292.41,285.92c.74-.16,1.54-.09,2.15.19,2.28,1.05,4.56,1.58,7.05,1.98,11.74,1.87,9.58,11.92,13.48,11.46,2.59-.3,1.67-5.15,1.2-6.89-1.56-5.86-7.78-3.81-10.78-10.07l-2.84-5.93c-1.94-4.04-4.2-7.83-5.67-12.08-.38-1.11.57-2.19,1.45-2.45.88-.26,2.02.35,2.29,1.45,1.67,6.69,5.12,10.16,7.02,15.31,2.77,7.52,9.13,4.84,11.41,10.75,1.45,3.74,2.52,11.83-2.11,13.65-1.94.76-3.84.24-5.35-1.01-4.14-3.45-2.5-8.72-10.21-10.47l-9.12-2.07c-.87-.2-1.5-1.29-1.52-1.9-.02-.79.53-1.7,1.55-1.93ZM286.22,292.38c4.34.22,8.45,1.35,12.48,2.97,2.39.96,4.35,2.49,5.87,4.6,1.69,2.36,3.45,4.52,5.51,6.58,3.68,3.66,3.25,6.73,6.03,9.43,1.31,1.28,3.09,1.53,4.79,1.99,2.94.8,5.75,1.13,8.79.91,1.37-.1,2.42.93,2.38,2.12-.03,1.17-1,2.22-2.5,2.06-4.21-.45-8.18-1.27-12.18-2.27-6.17-1.54-6-7.78-10.68-12.4-1.67-1.65-3.13-3.36-4.46-5.31-1.47-2.16-3.44-3.81-5.91-4.75-1.93-.73-3.84-1.44-5.88-1.8-1.83-.33-6.45.69-6.41-2,.02-1.16.79-2.22,2.18-2.15ZM277.54,294.54c.97-1.03,2.6-.58,3.26.61,1.33,2.4,2.61,4.74,3.76,7.35.54,1.24-.18,2.56-1.14,2.87-1.12.35-2.28-.44-2.67-1.62-.75-2.26-1.51-4.32-3.13-6.13-.72-.81-.8-2.3-.07-3.08ZM257.75,308.22c-6.89-.13-6.42,1.53-12.13,3.71-2.04.78-4.01,1.49-6.08,2.13-1.26.39-2.44-.39-2.7-1.52-.23-1.04.61-2.3,1.86-2.49,7.39-1.13,9.93-4.79,14.99-5.3,3.29-.33,6.52-.08,9.82-.03,2.44.04,4.64.6,7,1.07l11.72,2.35c1.12.22,1.71,1.42,1.56,2.36-.14.88-1.37,1.99-2.47,1.54-2.76-1.15-5.54-1.49-8.47-2.11-5.01-1.06-9.83-1.6-15.12-1.7ZM250.14,324.81c1.65-1.06,3.35-1.84,4.86-3.13,5.65-4.82,5.9-9.65,13.9-8.39,3.72.59,7.39.78,11.05,1.86,2.19.64,8.47.54,7.54-2.93l-.81-3.01c-.27-1.01.2-1.94.99-2.36.79-.42,2.02-.43,2.5.52,1.78,3.47-.34,6.56,3.02,7.7,2.88.98,6.86,1.63,6.05,4.39-.26.88-1.56,1.62-2.67,1.25-4.16-1.38-5.8-3.97-9.22-2.54-1.34.56-2.97,1.3-4.48,1.03l-10.17-1.82c-2.09-.37-4.2-.34-6.32-.48-1.38-.09-2.48.52-3.34,1.47-3.44,3.83-3.02,4.49-7.12,7.24-1.33.89-2.51,1.72-3.6,2.91-.87.93-2.67.98-3.36-.15-.79-1.31,0-2.79,1.18-3.55ZM240.95,326.61c-.53-1.05-.38-2.24.7-2.8.71-.37,1.54-.26,2.23.15.55.33.93.96,1.11,1.79,1.01,4.48,3.3,6,4.72,12.01.64,2.7,2.44,4.99,4.9,6.27,2.62,1.36,5.04,2.69,7.48,4.38,3.57,2.47,7.34,4.2,11.55,5.53,1.28.4,1.81,1.42,1.7,2.41-.12,1.11-1.26,2.1-2.53,1.56-3.64-1.54-7.26-2.99-10.63-5.07l-8.1-5c-4.43-2.73-6.4-3.76-7.78-8.87-1.19-4.38-3.32-8.33-5.35-12.35ZM278.92,384.55c5.2,4.33,14.01,4.64,12.9,8.09-.33,1.01-1.41,1.65-2.52,1.22-3.37-1.3-11.55-4.65-13.72-7.24l-3.75-4.48c-1.13-1.35-2.46-2.57-4.28-3.06-4.78-1.3-9.44-2.93-14.35-3.79-3.28-.58-5.94-1.55-8.1-4.33l-4.34-5.59c-.63-.82-.85-1.83-.35-2.66.42-.71,1.53-1.23,2.43-.69,1.74,1.06,2.92,4.69,6.31,7.79,1.23,1.13,2.8,1.55,4.45,1.82,4.81.81,9.29,2.46,14.01,3.64,6.8,1.71,6.76,5.45,11.33,9.26ZM291.26,374.1c-.52,1.17-1.92,1.41-3.07.82-8.69-4.47-12.08-1.57-17.66-2.93-4.93-1.2-9.64-2.53-14.47-4.03-2.06-.64-3.95-1.73-5.49-3.19l-5.94-5.62c-.54-.51-.86-1.2-.88-1.8-.02-.72.19-1.53,1.03-1.89.9-.39,2.2.11,2.83.95,2.81,3.74,6.45,7.31,11.1,8.57l12.34,3.33c4.74,1.28,9.12-1.09,18.95,2.95,1.41.58,1.67,1.92,1.26,2.84ZM287.97,365.85c-2.64.59-8.26-1.62-13.36-1.32-3.18.19-6.01-.59-8.97-1.5-10.85-3.34-11.14-6.46-18.84-11.24-.75-.47-1.29-1.01-1.41-1.74-.13-.86-.04-1.7.75-2.27.57-.42,1.85-.35,2.42.26,1.72,1.82,3.75,3.02,5.67,4.64,4.21,3.55,8.87,6,14.25,7.43,1.97.52,3.76,1.03,5.88.84,3.07-.28,6.06.15,9.03.93,6.27,1.65,8.83-2.29,11.52-2.63,1.14-.14,2.06.31,2.34,1.15.3.9.1,2.11-.96,2.54-2.72,1.1-5.4,2.28-8.32,2.93ZM306.79,380.23c-2.84,1.18-2.76-3.36-5.83-5.89-4.6-3.8-8.84-2.95-8.16-5.9.27-1.19,1.51-2.1,2.82-1.5,2.94,1.33,5.66,3.05,8.17,5.09,2.02,1.64,6.01,6.95,3,8.2ZM309.62,369.24c-3.61-.03-6.52-2.03-8.14-5.15-.65-1.26-2.46-4.33-.79-5.63.41-.32.98-.47,1.63-.26.86.27,1.64,1.15,1.77,2.15.47,3.49,3.52,5.82,7.07,5.14,1.14-.22,2.31-.48,3.47-.33,1.09.14,1.89.99,1.89,1.97,0,2.79-4.01,2.14-6.91,2.12ZM340.89,422.54c.78-.21,1.52.54,1.81,1.04.43.74.3,1.81-.34,2.46-3.89,3.94-8.84,5.82-13.56,1.74-2.25-1.94-3.57-4.91-3.73-7.93-.13-2.43-.45-4.55-1.09-6.92-1.16-4.29-1.87-8.6-2.76-12.97-.63-3.1.52-5-1.43-6.84-4.05-3.83-2.72-9.4-1.73-14.4.63-3.19,1.37-6.27,1.83-9.46.42-2.91-.69-5.34-3.1-6.92-1.04-.68-1.83-2.3-.97-3.32,1.06-1.28,2.91-.62,3.79.51l2.47,3.19c1.64,2.12,1.95,4.7,1.34,7.37-1.07,4.7-2.16,9.31-2.78,14.1-.29,2.21.15,4.39,1.38,6.06.96,1.3,2.04,1.3,3.37.83,4.64-1.64,7.41-5.84,6.8-10.81-.11-.86.11-1.93.85-2.41.55-.36,1.18-.5,1.71-.29.48.19,1.09.76,1.14,1.48.47,6.87-2.16,12.74-8.93,15.21-1.61.59-2.72,1.73-2.42,3.6.92,5.73,2.16,11.32,3.53,16.97.77,3.19.14,6.8,2.5,9.56,2.05,2.39,5.59,2.48,7.6.24.79-.88,1.53-1.78,2.72-2.09ZM361.99,367.78c-2.56,4.26-4.65,8.64-6.84,13.17-1.41,2.91-2.95,5.54-4,8.6-2,5.83-6.55,4.79-7.55,8.67l-1.47,5.71c-.57,2.2-.14,7.05-3.27,6.4-.95-.2-1.58-1.33-1.35-2.46.74-3.57,1.71-7.03,2.78-10.51.23-.74.45-1.34-.1-1.92-1.78-1.88-5.62,2.64-6.22,5.5-.68,3.28-.13,6.54.89,9.66.87,2.66,1.31,5.24,1.54,8,.06.71.48,1.34.31,2.06-.28,1.16-.95,1.87-2.02,1.82-1.1-.05-2.06-.79-1.99-2.1.35-6.52-2.12-9.28-2.72-16.06-.85-9.66,7.49-11.66,8.18-14.1l1.91-6.78c-.19-2.88-1.91-10.03-5.54-10.03-2.27,0-4.17,1.43-5.03,3.5-1.73,4.17-.99,7.18-2.02,9.01-.5.87-1.38,1.12-2.23.91-.89-.21-1.38-1.33-1.2-2.39.53-3.04,1.32-5.96,2.14-8.92.57-2.06,2.03-3.56,3.9-4.45,3.29-1.57,6.29-2.66,9.12.55,2.13,2.42,3.16,5.43,3.96,8.56.65,2.56.71,4.98-.4,7.44-.48,1.07-1.45,3.9-.42,4.66,1.53,1.12,4.56-1.76,5.38-4.22.88-2.64,2.18-4.87,3.46-7.33l4.91-9.51c.91-1.76,1.51-3.5,2.14-5.31.44-1.27,1.76-1.77,2.88-1.33,1.01.4,1.59,1.98.86,3.2ZM367.53,389.25c-.43.76-1.18,1.21-1.72,1.28-.83.11-1.65-.12-2.08-.94-.4-.76-.1-1.85.44-2.56,1.88-2.44,3.09-5.05,4.26-7.89,1-2.42,1.43-4.84.62-7.44-1.58-5.06-2.03-8.16-7.31-9.82-3.74-1.18-6.7-3.99-7.09-8.01-.11-1.16.74-2.08,1.68-2.18,3.44-.37,1.02,4.49,5.68,6.48l3.93,1.68c2.08.89,3.52,2.44,4.4,4.5,2.2,5.15,3.74,10.85,1.39,16.2-1.29,2.95-2.6,5.82-4.21,8.69ZM369.22,346.97c.78-.52,2.07-.33,2.71.73,6.16,10.17,7.52,17.73,8.77,29.59-.48,4-1.97,7.84-4.63,10.71-.75.81-2.3.39-2.77-.15-1.89-2.17,1.68-3.93,2.61-6.37.73-1.92,1.18-4.14.96-6.26-.66-6.49-2.93-17.36-6.28-22.55l-2.02-3.13c-.61-.94-.25-1.97.65-2.57ZM382.67,340.37c-.8,1.04-2.41,1.05-3.37.14-2.51-2.39-5.38-3.79-8.76-4.43-1.69-.32-3.07.02-3.69,1.8-.98,2.8-1.67,5.72-2.04,8.88-.29,2.52.49,4.45,2.19,6.07,1.01.96,1.34,2.79.1,3.69-.77.56-2.07.1-2.67-.61-1.03-1.25-1.69-2.72-2.42-4.18-1.09-2.17-1.14-4.52-.64-6.9.62-2.91,1.04-5.83,2.29-8.51.64-1.37.73-2.61-.13-3.91-3.07-4.68-5.07-9.02-10.79-10.94-3.15-1.06-6.27-1.61-9.57-2.03-3.05-.39-5.99-.94-8.98-1.5-.87-.16-1.19-1.17-1.17-1.75.02-.78.22-1.6,1.09-1.88.89-.29,1.97-.12,2.86.2,6.48,2.33,10.27.47,19.11,4.5,3.02,1.38,5.37,3.41,7.11,6.21l3.54,5.69c1.6,2.57,4.24.79,8.61,2.84,2.29,1.07,4.59,2.12,6.59,3.57,1.08.78,1.37,2.18.71,3.04ZM381.39,332.99c-2.5-1.77-5.08-3.03-7.92-4.19-3.86-1.56-6.83-4.36-8.24-8.43-.64-1.86-1.67-2.88-3.54-3.24-7.74-1.47-10.73-6.74-19.37-4.45-1.04.28-2.28-.58-2.47-1.43-.2-.91.27-2.17,1.44-2.35,10.22-1.54,11.51,1.32,19.7,4.49.8.31,2.04.86,2.78.19,1.22-1.13.35-2.95-.95-3.7-3.87-2.24-8.66-1.14-8.12-4.25.17-.98,1.3-1.82,2.51-1.52,2.65.65,5.2,1.6,7.66,2.79,2.67,1.3,3.95,4.19,3.02,6.99-.61,1.86-.2,3.4.49,5.06,1.31,3.15,3.57,5.03,6.61,6.48l8.47,4.05c1.29.62,2.02,2.24,1.07,3.32-.71.81-2.22.82-3.12.19ZM388.26,347.43c.05.71-.43,1.65-.89,1.92-.64.38-1.5.37-2.1-.11-.85-.68-1.24-1.74-.97-2.83l3.21-12.74c.79-3.14-.6-8.47,2.56-8.38,1.03.03,2.04.77,1.89,2.09-.45,4.1-.93,8.23-2.34,12.12-.97,2.65-1.57,5.07-1.36,7.94ZM397.69,354.11c.38-.78,1.3-.9,2.01-.8.8.11,1.45.75,1.67,1.66.71,2.85.75,5.72.76,8.67,0,4.92.74,9.79-3.1,13.25-1.96,1.76-3.25,4.02-3.69,6.68-.36,2.18-.72,4.34-.85,6.58-.13,2.22,1.72,6.52-.91,7.05-.85.17-2.19-.43-2.37-1.63-.72-4.9-.18-9.89,1.05-14.71,1.45-5.67,6.23-6.17,6.24-11.3l.02-8.75c0-3.19-1.74-4.87-.84-6.71ZM395.79,340.24c.48.69.45,1.61.31,2.43-.72,4.19-1.71,8.21-2.15,12.47-.21,2.11.44,4.11.45,6.19l.03,10.28c0,1.27-1.07,1.92-2.11,1.83-1.06-.09-1.83-1.11-1.67-2.35.92-7.03-.83-13.9-.02-18.48.65-3.66,1.61-7.07,1.67-10.85.01-.85.54-1.65,1.17-1.94.72-.33,1.79-.34,2.32.42ZM428.79,279.06c-2.42,4.25-4.51,8.51-6.65,12.9-2.27,4.65-1.12,6.38-1.02,11.73.06,3.28-1.26,6.2-3.77,8.43-2.48,2.2-5.14,4.34-8.14,5.86-6.34,3.23-12.29-.7-19.54,3.69-1.56.94-3.1,1.82-4.6,2.87-1.11.78-2.41,1.45-3.89.82-.69-.29-.91-1.14-.88-1.71.09-2.1,3.46-2.23,7.18-4.88,2.72-1.93,5.75-2.97,9.15-2.96l4.88.02c3.65.02,6.92-1.18,9.69-3.47,2.92-2.42,6.82-4.71,6.35-9.46l-.46-4.6c-.6-6.02,5.64-14.39,7.47-18.98l1.54-3.86c.3-.76.89-1.23,1.59-1.31.7-.08,1.62.09,1.88.93.39,1.27-.07,2.77-.76,3.98ZM415.15,281.25c2.7-9.23,8.52-11.28,9.75-14.95l1.3-3.87c.31-.92,1.24-1.41,2.12-1.28.88.14,1.48.9,1.6,1.92-2.28,10.48-7.69,8.09-11.37,19.43-1.12,3.46-2.99,6.47-4.65,9.7-1.84,3.59-4.68,6.36-8.37,7.98-2.18.96-4.58.48-6.21-1.3-1.52-1.66-2.8-3.48-4.1-5.35-1.72-2.49-2.46-5.35-2.35-8.39l.27-7.71c.04-1.27-.33-2.51.1-3.83.31-.94,1.13-1.2,1.91-1.16,2.2.13,1.77,3.32,1.65,4.5-.37,3.83-.94,10.49.94,13.7.98,1.68,2.12,3.21,3.26,4.74,1.05,1.39,2.66,1.73,4.16.98,2.32-1.16,3.91-3,5.18-5.25,1.82-3.2,3.75-6.28,4.8-9.86Z"/><path class="cls-3" d="M423.58,359.14c-.07,1.76,1.72,2.39,3.57,2.47.38-1.64.73-3.27,1.07-4.89-2.29-.05-4.55.27-4.64,2.41Z"/><path class="cls-3" d="M429.37,325.69c.78,1.5,2.37,2.06,3.89,2.41.3-1.87.58-3.69.86-5.47-.97-.23-1.87-.39-2.76-.35-1.46.06-2.68,2.09-1.99,3.42Z"/><path class="cls-3" d="M427.46,329.19c-1.11-1.28-2.81-1.35-4.22-.49-.65.39-1.28.73-1.51,1.36-.27.72-.18,1.53.23,2.28,1.75,3.21,6.07,3.92,9.94,4.11.26-1.54.51-3.06.75-4.55-2.01-.29-3.81-1.13-5.19-2.71Z"/><path class="cls-3" d="M335.55,439.96c-.62-1.41-1.93-2.49-3.52-1.97-2.16.71-.65,4.2.15,5.95,1.61.55,3.21,1.04,4.77,1.47-.52-1.35-.54-3.49-1.41-5.45Z"/><path class="cls-3" d="M381.46,257.2c.44,1.4,1.48,2.44,2.91,2.29,1.14-.11,2.73-.91,2.66-2.36-.05-1.17-.66-2.28-1.4-3.61-1.7.15-3.44.28-5.22.39l1.04,3.28Z"/><path class="cls-3" d="M397.76,259.29c.84,1.02,2.07,1.55,3.36,1.38,4.74-.6,5.89,2.17,8.28.51,3.94-2.73,5.27-6.77,5.71-11.07-3.92.28-8.33.87-13.21,1.53,1.16.52,2.4.92,3.71,1.16,1.04.19,2.12-.11,3.12.19,1.22.37,1.82.98,1.72,2.18-.1,1.13-.91,1.93-2.29,1.78-2.53-.27-5.12-.63-7.47-1.73-1.78-.83-3.3-1.77-4.63-2.82-2.1.26-4.28.52-6.54.76l.5.98c1.13,2.24,4.71,1.45,7.74,5.14Z"/><path class="cls-3" d="M260.81,394.11c-.69-.36-1.38-.72-2.09-1.07,1.05,1.02,2.13,2.06,3.24,3.1-.05-.83-.35-1.61-1.16-2.03Z"/><path class="cls-3" d="M249.7,295.88c-.68.51-1.35,1.03-2.02,1.56.4-.23.79-.45,1.16-.66.41-.23.67-.54.86-.89Z"/><g class="cls-2"><path class="cls-3" d="M104.86,255.56c.73-.2,1.23-.74,1.32-1.32.34-2.11-2.93-3.73-5.1-3.66-.87.03-1.45.87-1.6,1.51-.16.66-.03,1.43.46,2.06,1.14,1.45,3.15,1.9,4.92,1.41Z"/><path class="cls-3" d="M55.48,208.79c.04.53-.26,1.15-.75,1.58-.18,5.09.21,9.85,1.11,14.29,1.65-5.61,2.48-10.8,2.71-16.85.11-2.93-.55-5.77-1.15-8.59-.21-1.01-.51-1.97-.85-2.9-.84,3.86-1.39,7.57-1.66,11.11.32.31.54.75.59,1.36Z"/><path class="cls-3" d="M127.84,274.13c-1.56-2.16-2.96-4.26-4.07-6.7-1.29-2.84-4.68-3.72-5.73-2.48-1.09,1.29.51,2.85-.17,7.22-.2,1.28-.35,2.54-.46,3.79,1.12.28,2.24.55,3.36.8.03-.56.04-1.15.01-1.79-.05-1.18.83-2.09,1.93-2.09,1,0,1.84.95,1.85,2.1,0,.94-.07,1.78-.18,2.57,2.56.53,5.13.99,7.69,1.41-1.05-1.04-2.31-2.17-4.24-4.83Z"/><path class="cls-3" d="M174.74,273.02c-2-2.48-3.45-5.28-4.46-8.3-1.05-3.13.35-4.55-1.87-6.49-2.42-2.11-4.04-4.81-6.03-7.32-2.36-2.99-6.57-3.36-7.08-5.38-.2-.81-.16-1.77.53-2.37,1.54-1.36,4.26,1.51,5.28,2.12,5.15,3.09,5.09,5.42,9.13,9.59,1.29,1.32,2.8,1.55,4.57,1.2,2.41-.48,4.56.63,5.61,2.77.88,1.79,3.41,7.51,2.32,9.15-.52.78-1.6.71-2.29.49-1.86-.6-1.32-3.86-2.58-6.72-.62-1.41-1.93-2.49-3.52-1.97-2.52.82-.04,5.47.48,6.66,1.08,2.47,2.65,4.57,5.05,5.9.77.43,1.91.76,2.78.19,1.23-.8,2.99-1.65,3.72-3.02.98-1.83.49-4.26-.08-6.14l-1.93-6.38c-.5-1.65.26-3.53,1.29-4.92,2.3-3.11,3.4-6.37,4.2-10.09.67-3.14,2.78-5.79,4.74-8.16.76-.92,2.11-.97,2.8-.29.7.68.86,2.12.04,2.9-6.79,6.42-2.72,9.58-8.03,16.35-1.44,1.83-1.71,3.99-.9,6.12l1.49,3.89c1.01,2.65-.69,6.95,1.42,7.88.52.23,1.51.2,2.18-.32,3.04-2.38,6.62-4.01,10.55-4.01,3.87,0,4.64,2.99,4.88,6.06.13,1.73,1.36,3.08,3.11,3.2,1.32.08,2.33-.85,2.42-2.16.09-1.32-.15-2.59-.59-3.82-1.45-4.06-4.24-7.19-7.72-9.63-2.82-1.98-5.29-4.25-7.47-6.85-2.02-2.4-2.57-5.32-1.83-8.34,1.9-7.77,6.55-8.86,5.75-12.28-.21-.88-.74-2.33-1.94-2.6-2.89-.65-6.14-.07-8.64,1.57-3.15,2.06-4.93,5.31-5.98,8.77-.4,1.31-1.72,1.88-2.72,1.47-1.14-.48-1.61-1.64-1.07-2.79,1.22-2.63,2.66-5.07,4.36-7.41,1.54-2.11,3.52-3.4,5.98-4.25,2.4-.83,4.94-1.81,7.51-1.22,1.57.36,2.96.43,4.2-.8l2.31-2.3c.78-.78,2.34-.79,3.06.05,2.1,2.43-2.92,4.6-3.71,5.79-1.35,2.04.3,4.74,2.45,5.34,3.34.94,3.87,3.8,5.97,5.81.65.62,1.58.75,2.23.41,2.12-1.1.44-4.5-.6-6.1-1.58-2.44-2.42-5-2.57-7.93-.07-1.37-.56-2.68-.45-4.03.1-1.19.84-2.15,1.98-2.02,3.66.41-.32,4.84,4.77,13.23,1.45,2.39,1.89,5.25,1.12,7.89-.43,1.49-1.75,2.21-3.09,2.69-2.38.85-4.75.21-6.3-1.76l-3.05-3.9c-.63-.8-2.25-1.73-3.24-.96-2.32,1.8-3.84,4.51-4.66,7.26-1.24,4.16,1.33,7.04,4.33,9.43l6.28,5.01c4.18,3.33,6.69,8.34,7,13.72.18,2.98,1.23,2.66,2.98,5.22,1.55-.24,3.05-.49,4.5-.76-.02-.04-.04-.08-.06-.13-1.62-3.04-2.77-6.07-3.74-9.36-2.44-8.24-7.43-8.97-6.09-11.66.46-.93,1.42-1.08,2.35-1.02.8.05,1.39.72,1.89,1.55,1.72,2.86,3.79,5.49,4.86,8.72,1.28,3.88,2.6,7.58,4.38,11.19,1.28-.27,2.51-.54,3.71-.83-.24-1.05-.5-2.19-.95-3.2-1.29-2.91-2.27-5.81-2.91-8.93-1.19-5.73-5.19-5.3-5.48-7.96-.08-.77.25-1.73,1.1-2.06,1.27-.51,2.42.4,3.24,1.32,1.27,1.44,2.67,2.67,3.49,4.44.76,1.64,1.02,3.39,1.53,5.14,1.03,3.55,2.4,6.85,3.69,10.3,1.16-.32,2.29-.65,3.37-1-.5-.52-.72-1.35-.47-2.17.29-.97,1.23-1.39,1.94-2.07l8.38-8.07c.92-.88,1.44-2.04,1.19-3.34-.4-2.04-.51-3.99-.66-6.06-.22-3.03.46-6.04,1.27-8.98,1.11-4.07-.53-5.66,1.08-6.89.69-.53,1.61-.54,2.38-.1,2.28,1.3-.94,9.86-1.03,13.41-.06,2.43.09,4.83.19,7.24.08,1.78,1.12,2.88,2.84,3.29,1.39.33,2.74.69,4.09,1.07,1.97-2.45,3.34-5.09,4.22-7.92-.18-2.84.51-6.03,1.27-8.56.05-3.79-.46-7.81-1.35-12.03-2.37-2.23-3.48-5.32-2.98-8.69.09-.61.17-1.2.26-1.81-.72-2.41-1.49-4.88-2.3-7.39-.2.22-.46.39-.82.46-2.61.51-5.09-2.24-6.58.51-1.74,3.21-1.18,4.08-4.03,7.52-.9,1.09-1.63,6.24,1.22,6.06,3.92-.25,4.55-6.46,5.1-9.59.2-1.15,1.27-1.89,2.25-1.82,1.01.07,1.97,1.2,1.73,2.37-.44,2.13-1.09,4.13-1.67,6.25-.71,2.55-2.34,4.72-4.68,5.97-3,1.6-4.79-1.07-7.56,1.53-1.64,1.54-2.89,3.2-3.84,5.39-.54,1.23-2.36,1.47-3.24.62-.72-.7-.69-1.92-.13-2.72,1.26-1.82,2.52-3.55,4.02-5.2.76-.84,1.93-1.41,2.31-2.6.35-1.1.59-4.69-.72-5.47-1.47-.88-3.5.98-5.21,2.1-.88.58-1.55,1.4-1.7,2.49-.36,2.56-.55,7.83-2.51,8.69-.74.32-1.54-.11-1.93-.55-.49-.54-.67-1.35-.48-2.1l1.26-5.17c.42-1.7-.22-3.22-1.71-4.1-1.41-.84-2.44-2.16-3.22-3.6l-2.81-5.2c-.43-.79-1.28-1.33-2.24-1.14l-7.02,1.4c-1.96.39-3.8.92-5.69,1.56-6.17,2.11-8.6-.57-10.64.68-2.59,1.58-5.11,3.03-7.54,4.86-1,.75-2.46,1.47-3.58.47-1.01-.9-.5-2.72.65-3.39l7.61-4.43c2.62-1.53-.14-4.42,2.69-10.04l2.93-5.82c.99-1.96,1.65-3.91,2.2-6.02.21-.81.92-1.41,1.58-1.48.74-.08,1.64.14,1.94.96.36,1,.12,2.11-.33,3.07l-4.92,10.5c-.97,2.08-2.79,7.17.86,7.73,1.85.29,3.77.1,5.56-.54,5.63-2.02,7.61-1.73,12.95-2.98,1.22-.28,1.93-1.14,2.26-2.29.69-2.38,1.34-4.7,1.89-7.11.48-2.14.37-4.08.1-6.24l-1.67-13.56c-.21-1.7-.18-3.41-1.02-4.91-1.56-2.8-3.26-5.44-5.04-8.07-3.24-4.78-6.62-3.37-7.47-5.81-.27-.79-.07-1.75.7-2.18,1.22-.68,2.41.04,3.51.69,8.07,4.75,5.65,5.78,10.38,11.66,1.55,1.93,2.18,4.09,2.4,6.56.44,4.93.76,9.74,1.65,14.59.39,2.13.69,4.02.33,6.18-.55,3.29-1.33,6.47-2.45,9.63-.37,1.05-.37,2.14.16,3.15l2.15,4.03c.94,1.77,2.1,3.42,3.73,4.61,1.95,1.42,5.97-1.66,6.26-3.22.78-4.23,1.38-8.41,1.67-12.71l.32-4.62c.08-1.22.97-1.86,2.12-1.84.83,0,1.94.98,1.76,2.12-.42,2.64-.49,5.25-.91,7.95l-1.26,8.21c-.13.83.28,1.67.94,1.9.51.17,1.75.04,2.09-.78,1.01-2.45,3.28-5.19,3.35-8.04.12-4.86-2.73-14.35-1.86-19.85.59-3.75-1.66-7.03-.29-8.6.51-.59,1.42-.62,2.08-.34.3.13.69.42.97.8-.35-1.57-.67-3.16-.96-4.75-1.34-1.18-2.77-2.6-4.38-4.69-2.65-3.43-5.18-3.82-5.28-6.06-.05-1.02.51-1.78,1.34-2.07.82-.29,1.65.03,2.29.75,1.76,1.96,3.29,4.06,5.07,5.99-.36-2.54-.69-5.2-1.01-7.96-.03-.05-.07-.1-.11-.15-2.11-3.2-4.66-1.32-6.93-3.68-1.69-1.75-3.31-3.65-4.31-5.82-.56-1.22-.17-2.68,1.03-3.05,3.37-1.05,2.22,4.17,6.39,6.57.67.38,1.54.21,1.97-.15,1.27-1.07.17-2.5-.72-3.45-.79-.84-1.43-2.37-.52-3.37.41-.45,1.08-.57,1.74-.46-.1-.93-.2-1.87-.3-2.81-2.57,0-5.1.18-7.68.46-1.09.12-2.15-.87-2.3-1.58-.19-.92.11-2.43,1.3-2.44l8.28-.09c-.15-1.33-.3-2.66-.45-4-4.36.22-8.79-.76-13.84,2.3-1.56.94-3.1,1.82-4.6,2.87-1.11.78-2.41,1.45-3.89.82-.69-.29-.91-1.14-.88-1.71.09-2.1,3.46-2.23,7.18-4.88,2.72-1.93,5.75-2.97,9.15-2.96l4.88.02c.53,0,1.06-.03,1.57-.08-.19-1.5-.38-3-.58-4.5-3.87,1-8.3.57-9.49-3.62-.49-1.71-.72-3.41-1.02-5.17-.39-2.3-2.84-6.3.51-6.52.99-.07,1.7.42,1.95,1.34.76,2.73,1.25,5.45,1.81,8.25.38,1.95,2.35,2.83,4.28,2.37.48-.12.96-.26,1.43-.42-.37-2.51-.77-5.01-1.21-7.48-.51-.28-.99-.65-1.42-1.12-1.52-1.66-2.8-3.48-4.1-5.35-1.72-2.49-2.46-5.35-2.35-8.39l.27-7.71c.04-1.27-.33-2.51.1-3.83.05-.14.1-.26.17-.37-.79-1.9-1.64-3.72-2.56-5.46.03.92-.05,1.96-.32,3.18-.51,2.32-1.06,4.59-1.13,7.01-.18,6.35-1,12.44-1.61,18.76-.52,5.46,2.77,12.81-1.56,17.74-3,3.42-7.29,5.47-11.74,6-1.09.13-2.19-.61-2.62-1.46-.41-.81-.19-1.69.36-2.22,1.97-1.88,2.93,1.02,7.83-1.76,3-1.7,4.9-4.43,4.79-8.02-.24-7.7-1.01-5.69-.24-14.65l.93-10.79c.33-3.86.69-7.51,1.37-11.33.42-2.35.18-4.69-1.16-6.67-.7-1.03-2.89-1.06-3.34.18-.74,2.01-.47,4.11-.35,6.21.28,5.12.06,10.08-1.13,15.05-1.27,5.32-1.02,13.96.63,19.18.34,1.08-.53,2.28-1.31,2.5-1.09.31-2.11-.33-2.37-1.46-.93-4-1.21-7.96-1.4-12.06-.35-7.54,1.93-8.93,2-17.79.02-2.08.31-4.05.08-6.11-.7-6.33,1.42-5.95-.26-10.75-.94-2.67-1.87-5.25-2.96-7.82-1.4-.78-2.87-1.47-4.42-2.04.28,1.55.59,3.09,1.07,4.66,1.87,6.11,2.49,12.3,2.33,18.7-.08,3.26-.02,6.31.28,9.52.08.79-.33,1.6-.8,1.83-.57.28-1.46.42-2.07.04-.92-.57-1.34-1.97-1.24-3.15.31-3.39.48-6.61.3-10.02-.1-1.99.21-3.92-.2-5.89l-3.5-16.83c-1.56-.37-3.2-.64-4.91-.8.93,3.73,2.07,7.34,3.34,10.95.44,1.25-.48,2.42-1.52,2.61-1.22.21-2.17-.54-2.4-1.84-.82-4.75-2.28-7.82-3.08-11.9-1.46,0-2.98.07-4.54.21.57,1.09,1.1,2.39,1.53,4.02.96,3.69,2.34,7.12,2.98,10.92.9,5.35.89,10.72.58,16.06-.07,1.18-1.27,1.96-2.2,1.89-.71-.06-1.9-1.05-1.72-2.07.51-2.86.76-5.63.59-8.65-.59-10.49-1.63-8.62-3.68-17.09-.41-1.68-1.04-3.21-1.95-4.59-1.12.18-2.26.41-3.43.67.45.34.9.89.93,1.52.28,6.73,3.75,9.18,4.04,16.69.08,2.08.08,4.07.4,6.16-.35,3.16.17,6.1.82,9.17l2.41,11.34c.14.67-.53,1.44-.87,1.77-.41.41-1.45.72-2.1.25-1.2-.86-1.32-2.39-1.36-3.72-.1-3.77-2.16-9.59-2.34-14.42l-.32-8.5c-.14-3.72-.8-7.11-2.42-10.45-.68-1.4-2.46-7.11-1.97-9.15-1.05.28-2.12.58-3.22.91-.42,8.34-2.06,7.44-3.8,14.62-.4,1.64-.15,3.09.05,4.69.32,2.55.57,4.99,1.28,7.6.27,1,.4,2.13.03,2.97-.36.82-1.36.96-2.11.72-.63-.19-1.22-.87-1.41-1.72-.71-3.28-1.18-6.56-1.6-9.92-.76-6.06,2.43-10.24,3.7-15.83.16-.69.26-1.34.34-1.97-2.62.92-5.37,2.03-8.21,3.29,1.92,2.32,3.91,3.99,2.37,5.85-.85,1.03-2.59.61-3.24-.5-.78-1.35-1.58-2.58-2.44-3.84-1.17.56-2.35,1.13-3.56,1.75,3.06,4.29,6.49,6.58,7.07,10.97l.81,6.05c.42,3.17,1.74,5.76,3.82,8.25,3.71,4.45,3.13,11.54-.07,10.82-1.01-.23-1.91-1.29-1.64-2.48.5-2.14.31-4.35-1.14-6.12-3.06-3.73-4.66-8.17-4.88-13.02-.29-6.49-3.66-7.5-7.18-12.8-1.2.64-2.43,1.33-3.67,2.03,1.11,1.88,2.37,3.65,3.92,5.18l2.47,2.43c.87.85.75,2.11-.11,2.97-.52.52-2.08.73-2.83-.15-2.35-2.76-4.47-5.68-6.36-8.77-1.13.65-2.25,1.3-3.36,1.95l3.16,5.49c1.7,2.95,3.21,5.87,4.2,9.11.36,1.16-.25,2.24-1.33,2.48-.75.17-2.01-.22-2.32-1.28-1.07-3.59-2.65-6.79-4.55-10.07l-2.27-3.91c-1.16.68-2.3,1.35-3.43,2.03,1.75,3.9,3.97,6.78,5.36,10.56,2.77,7.52,9.13,4.84,11.41,10.75,1.45,3.74,2.52,11.83-2.11,13.65-1.94.76-3.84.24-5.35-1.01-4.14-3.45-2.5-8.72-10.21-10.47l-9.12-2.07c-.87-.2-1.5-1.29-1.52-1.9-.02-.79.53-1.71,1.55-1.93.74-.16,1.54-.09,2.15.19,2.28,1.05,4.56,1.58,7.05,1.98,11.75,1.87,9.58,11.92,13.48,11.46,2.59-.31,1.67-5.15,1.2-6.89-1.56-5.86-7.78-3.82-10.78-10.07l-2.84-5.93c-1.06-2.21-2.21-4.35-3.29-6.52-1.23.74-2.44,1.48-3.64,2.21,1.48,3.17,3.31,6.39,5.43,8.85.66.76.94,2,.36,2.85-.46.67-1.51.81-2.18.61-.51-.15-1.2-.69-1.58-1.33-1.81-2.99-3.5-6-5.07-9.11-1.16.73-2.31,1.45-3.45,2.18.5.85,1.02,1.69,1.6,2.49.83,1.15,1.85,2.27,1.27,3.83-.28.74-1.22.89-1.94.88-.68,0-1.36-.49-1.75-1.21l-2.2-4.03c-1.03.67-2.05,1.35-3.06,2.02.57.97.12,2.22-.64,2.76-.81.58-2.08.42-2.73-.47-2.83,1.96-5.57,3.94-8.24,5.96.85.16,1.77.18,2.79-.05,3.8-.85,7.38-2.12,11.04-3.35,1.24-.42,2.4.27,2.67,1.35.31,1.24-.41,2.16-1.73,2.5-3.54.92-7.01,1.76-10.5,2.86-2.94.93-5.37.59-7.87-.53-1.8,1.43-3.57,2.88-5.3,4.36,2.99-.29,6.79.11,12.03,3.44.7.45,1.37.82,1.53,1.39.24.88.35,1.72-.31,2.34-.86.8-2.33.55-3.24-.26-3.25-2.84-7.39-3.83-11.67-2.87-1.36.31-2.47.44-3.42.48-1.58,1.47-3.13,2.98-4.65,4.52.25-.04.49-.08.75-.11,3.29-.33,6.52-.08,9.82-.03,2.44.04,4.64.6,7,1.07l11.72,2.35c1.12.22,1.71,1.42,1.56,2.36-.14.88-1.37,1.99-2.47,1.54-2.76-1.15-5.54-1.49-8.47-2.11-5.01-1.06-9.83-1.6-15.12-1.7-6.36-.12-6.46,1.28-10.92,3.21-1.64,1.88-3.23,3.82-4.79,5.81.82-.08,1.64-.17,2.47-.29,5.75-.85,6.6-2.88,10.5-5.25.97-.59,2.04-.42,2.65.33,2.03,2.47-2.9,4.36-4.94,5.76-2.71,1.86-5.75,2.42-9.03,2.82l-4.09.49-.48.02c-1.01,1.39-1.99,2.81-2.97,4.26.18.24.34.49.46.76l4.27,9.36c1.26,2.76,1.87,5.53,2.2,8.61-.29,3.79-.91,7.44-1.95,11.09-.94,3.26-2.75,5.9-5.59,7.73l-5.01,3.22c-.88.57-1.69,1.43-2.91,1.43-1.08,0-1.67-.82-1.79-1.56-.16-.99.21-1.89,1.12-2.38l5.5-2.95c1.85-.99,3.6-2.42,4.43-4.43,1.2-2.89,1.85-5.93,2.24-9.07.41-3.38-.03-6.65-1.35-9.73-1.07-2.5-1.96-4.96-3.18-7.38-.17-.34-.47-.71-.8-1.1-.64,1.01-1.26,2.03-1.88,3.07.09.11.17.22.26.32.68.82.1,2.02-.44,2.44-.62.48-1.15.57-1.67.4-.53.93-1.05,1.87-1.57,2.83.18.05.37.09.56.12,2.15.32,6.35-.79,6.46,1.98.03.84-.78,2.01-1.91,2.06-1.77.07-3.56-.3-5.34-.5-.53-.06-1.04-.17-1.52-.32-.71,1.39-1.41,2.8-2.1,4.25,4,1.38,8.76-1.33,10.84,0,.76.49.92,1.46.57,2.31-.25.6-1.02,1.34-1.97,1.38-2.92.12-5.7.4-8.7.3-.8-.03-1.59-.21-2.35-.5-.63,1.38-1.25,2.79-1.85,4.23.87.41,1.75.79,2.65,1.14,1.49.56,3.19.26,4.56-.4l3.3-1.58c.63-.3,1.37-.23,1.94.22.43.34.81,1.06.6,1.83-.26.96-1.03,1.65-1.96,1.97l-5.59,1.91c-1.34.46-2.88.16-4.2-.42-.92-.4-1.82-.81-2.72-1.24-.49,1.22-.95,2.42-1.38,3.61,2.2,1.35,3.62,3.46,4.52,6,1.94,5.52,3.78,10.95,4.59,16.8.1.69-.08,1.35-.45,1.77-.38.43-1.15.71-2,.47-2.34-.66-1.29-3.73-2.3-7.69-1.01-3.97-2.19-7.81-3.92-11.53-.4-.86-.99-1.58-1.7-2.18-.55,1.67-1.06,3.32-1.51,4.94,1.15,2.45,2.23,4.96,2.93,7.65,2.39,9.14.94,12.12,0,20.89-.27,2.47-1.05,4.8-1.5,7.31-.23,1.28-1.35,1.76-2.28,1.68-.14-.01-.27-.05-.4-.09.44,1.62.95,3.2,1.53,4.73l4.72-5.24c.99-1.1,1.52-2.37,1.59-3.9.05-1.14.87-12.19.92-12.44.22-1.12,1.12-1.91,2.17-1.68.93.2,1.73,1.15,1.57,2.3-.49,3.52-.67,6.98-.73,10.53-.06,3.64-1.42,6.65-4.02,9.06-1.72,1.59-3.13,3.38-4.61,5.15.65,1.37,1.35,2.7,2.11,4,.38-.6.77-1.19,1.15-1.8,2.59-4.12,6.8-9.09,12.06-5.68,1.69,1.09,3.02,2.56,4.6,3.86,2.32,1.93,5.99,2.54,5.17,5.07-.27.84-1.39,1.44-2.46,1.13-1.68-.49-3.02-1.67-4.32-2.82l-3.98-3.51c-1.54-1.35-3.84-1.21-5.29.28-1.8,1.85-3.03,4.26-4.73,6.93,1.08,1.56,2.24,3.05,3.47,4.49.57-.57,1.16-1.12,1.78-1.66,2.07-1.81-.95-4.88.89-6.65.53-.51,1.45-.69,2.27-.31,2.08.95.23,4.76,2.77,5.62,4.72,1.59,9.17-.78,9.64,2.23.17,1.09-.44,2.18-1.86,2.33-1.49.16-6.87-.57-8.46-.92-1.16-.25-2.36-.07-3.22.74-.47.44-.91.89-1.34,1.35,1.24,1.29,2.54,2.53,3.89,3.71,3.52-1.14,7.27-1.59,11.04-1.56,1.33,0,2.28-.77,2.66-1.97,1.84-5.88-1.18-10.38,1.65-20.19.31-1.08-.1-2.04-.87-2.78-3.93-3.8-7.5-6.26-9.52-11.71-.41-1.11.23-2.29,1.18-2.66.72-.28,2.06.23,2.43,1.24.72,2.02,1.52,3.83,3.12,5.37l5.11,4.92c1.35,1.3,2.57,1.78,4.45,1.94,1.49.13,3.16.87,4.56-.2,2.65-2.03,4-5.22,4.48-8.52.17-1.17.03-2.46-1.11-3.06-1.65-.87-3.34-1.76-5.15-2.32-8.01-2.46-9.33-8.36-12.73-11.41-2.85-2.57-5.16-5.37-6.79-8.84-.32-.69-2.77-3.05-.96-4.72.46-.42,1.2-.71,1.93-.34,2.33,1.18,1.93,4.84,6.24,9.12,1.67,1.65,3.52,3.21,4.69,5.27,1.9,3.37,4.56,6.03,8.34,7.25,2.54.82,4.84,1.96,7.07,3.44.87.58,2.05.21,2.74-.37.66-.56,1.35-1.48.93-2.52-.47-1.17-1.68-1.98-2.89-2.37-3.97-1.29-7.92-2.41-11.65-4.24-1.07-.52-1.26-1.96-.77-2.8.45-.77,1.76-1.08,2.72-.57,6.44,3.47,9.07,2.94,12.56,4.87,1.96,1.08,3.61,2.86,4.01,5.04.42,2.25-.6,4.27-2.55,5.22-1.76.86-2.86,2.43-3.24,4.37-2.11,11-6.9,9.45-7.45,12.86-.76,4.67-1.64,6.83-.41,11.64,1,3.9,4.01,1.47,8.28,5.16,3.35,2.89.66,5.5,3.27,8.55,1.22,1.43,3.57,4.34,5.25,3.21,1.31-.88-.17-4.28,1.21-7,1.5-2.97-1.24-5.24-3.42-6-5.47-1.9-10.25-4.64-11.86-10.6-.32-1.17.49-2.38,1.5-2.54,3.46-.54,1.35,4.68,6.77,7.61,4.81,2.6,7.97,1.98,9.97,6.11.59,1.23,1.57,1.99,2.85,2.45l4.19,1.48c1.06.37,2.05.2,2.76-.47.79-.74.88-1.71.74-2.79-.61-4.96-5.58-1.1-8.69-6.8-2.18-4-1.23-5.19-4.87-8.07-.71-.56-1.48-1.13-1.69-2.03-.22-.91.13-1.81.8-2.22.61-.37,1.56-.32,2.23.19,3.88,2.92,4.74,6,6.86,10.23.9,1.8,3.53,2.72,4.78,1.94.48-.3.94-.98,1.06-1.76l.78-5.41c.4-2.77,1.91-5.4,4.38-6.79,1.24-.69,2.57-1.24,3.19-2.6.97-2.13,1.9-4.07,2.76-6.32.77-2,.76-5.25-1.34-6.38-1.98-1.06-3.95-1.64-5.64-3.2-2.23-2.05-4.74-3.67-7.29-5.32-2.58-1.67-5.17-2.99-8.02-4.07-.67-.25-1.05-1.15-1.15-1.67-.13-.64.11-1.52.76-1.87,1.08-.57,2.29-.1,3.27.46l7.53,4.32c4.01,2.3,6.18,5.21,10.22,7.3.47.24,1.46.34,1.76-.09.94-1.35.03-2.49-.87-3.42-1.99-2.03-3.89-3.91-6.47-5.12-.59-.28-.8-1.04-.86-1.59-.11-.99.23-1.63.87-2.01.71-.42,1.57-.43,2.29.08,3.34,2.36,5.96,5.2,8.44,8.45,1.04,1.37,3.79,2,4.86.5,2.21-3.11,2.13-7.03,1.82-10.54-.13-1.46,1.27-2.35,2.26-2.25,1.19.13,1.94,1.1,1.84,2.38-.18,2.3-.44,4.52-.82,6.8-.83,4.96-3.16,5.69-1.61,9.12l3.36,7.44c.62,1.38,1.12,2.74,1.4,4.25l1.94,10.17c.32,1.7.95,3.11,1.95,4.52.74,1.04,1.03,2.72,0,3.65-.85.77-2.29.19-2.89-.75-1.46-2.31-2.25-4.91-2.84-7.61-1.33-6.07-.73-9.4-4.17-15.16-1.94-3.24-1.85-7.17-4.37-7.79-1.09-.27-2.3-.19-2.98.73-1.29,1.77,2.21,4.69.17,9.49l-2.53,5.95c-1.75,4.11,2.38,4.17,1.34,10.14-.82,4.71-2.77,12.28-.13,16.13.61.89,1.98,1.77,2.93.96,1.21-1.03,1.29-2.98,1-4.51-1.64-8.48,1.69-8.89.52-16.73-.46-3.09-.94-6.09-.94-9.18,0-1.14,1-2.02,1.98-1.97.86.05,1.75.97,1.75,2.02,0,2.74.01,5.38.66,8.1.83,3.52.52,6.96-.42,10.4-1.52,5.55,1.39,7.04-.7,12.45-1.29,3.32,1.37,3.96,1.06,8.83-.25,3.79-.83,7.48-1.98,11.02-.23.71-1.07,1.2-1.55,1.33-.59.16-1.36.1-1.8-.5-.66-.91-.56-2.43.03-3.41,1.17-1.92,1.35-3.94,1.6-6.13.3-2.63.38-7.33-3.1-7.84-2.22-.33-3.9-1.81-4.78-3.85-3.43-8.01,1.31-16.08.08-20.62-.21-.79-.8-1.39-1.4-1.51-.74-.14-1.34.13-1.89.63-2.91,2.71-1.45,7.08-3.22,10.74-.62,1.29-.93,2.49-.51,3.91.78,2.67.07,4.86,1.94,6.66,3.44,3.32,1.85,5.74,5.08,7.57,2.52,1.42,3.76,4.2,4.2,6.95.19,1.17-.71,2.24-1.74,2.3-3.02.17-1.74-3.55-3.55-5.62-.8-.91-2.42-1.49-3.28-.37-2.03,2.68,4.33,6.8.25,8.51-2.36.99-3.24-3.46-3.55-4.56-1.13-3.96-4.76-5.04-5.86-3.7-.32.4-.67,1.34-.3,2.01,1.8,3.28,3.97,6.41,6.66,9.05,1.19,1.17,2.18,2.37,3.02,3.7,1.72.23,3.44.43,5.14.61l-2.19-3.25c-.71-1.05-.9-2.5.32-3.29.78-.5,2.43-.21,2.88.73.96,1.98,2,3.7,3.33,5.45.2.27.39.54.58.81,1.77.14,3.52.26,5.25.35-.46-.85-.86-1.58-.98-2.54-.13-1.06.28-1.99,1.25-2.33.64-.22,1.87.12,2.34,1.04.65,1.27,1.17,2.62,1.61,4.01,1.61.05,3.19.08,4.75.1.31,0,.62,0,.93,0-.56-3.54-4.73-2.75-6.84-13.61-.26-1.32.32-2.44,1.63-2.55,3.68-.32,1,5.49,5.52,10.22.47.5.9,1.03,1.53,1.04.51,0,1.45-.03,1.7-.67.42-1.07.08-2.33-.37-3.36l-2.28-5.21c-1.58-3.6-4.53-5.68-7.47-12.58-.4-.95-.61-1.88.14-2.61.56-.54,1.56-1.01,2.36-.43,1.91,1.38,1.26,4.04,4.17,7.59,2.12,2.59,3.61,5.4,4.89,8.48.85,2.06,1.82,3.95,2.35,6.13.59,2.44,2.97,2.92,4.19,4.57.68.92,1.14,1.91,1.43,2.94,1.8-.02,3.57-.06,5.31-.1-.03-.89-.07-1.77-.11-2.65-.17-3.5-3.53-2.81-5.79-5.6ZM197.12,258.11c1.65,1.97,5.53,1.56,4.89,4.38-.23,1.02-1.19,1.86-2.42,1.51-2.86-.8-5.1-2.8-6.52-5.38-.56-1.02-1.27-2.02-1.39-3.2-.12-1.16.91-1.81,1.83-1.89,2.41-.22,2.31,3.02,3.62,4.59ZM258.57,231.7c.98-.7,2.48-.2,2.98,1.04.81,2.04,1.54,4.03,2.07,6.18.22.9.04,1.9-.15,2.81l-1.75,8.53c-.5,2.46,1.97,6.87-1.08,7.35-1.34.21-2.46-.73-2.44-2.2.02-1.84-.12-3.65,0-5.49.4-6.05,3.63-9.6-.02-14.99-.76-1.12-.67-2.48.39-3.24ZM235.04,256.82c-1.18-2.57-3.2-4.35-5.78-5.44-1.51-.64-3.16-1.38-4.79-.97l-9.5,2.34c-2.49.61-5.2.27-7.05-1.59-1.58-1.59-5.66-7.61-2.41-8.83.9-.34,1.98.03,2.49,1,.34.65.46,1.44.63,2.14.69,2.86,3.26,4.27,6.09,3.62,2.33-.53,4.58-1.19,6.85-1.92,1.84-.59,3.56-.74,5.46-.34,4.4.94,7.98,3.38,10.88,6.76.98,1.14,1.95,2.74.58,4.22-.99,1.08-2.89.25-3.45-.99ZM220.21,219.67c.36-.58,1.31-.69,1.91-.51.52.16,1.29.63,1.53,1.31.74,2.06,1.49,4.02,2.44,6.03,2.67,5.61,1.41,5.77,2.62,10.5.46,1.8,1.73,2.96,3.4,3.69,2.66,1.15,5.1,2.57,7.88,3.44,1.14.35,2.56.5,3.29-.55,2-2.88,1.75-6.3,4.35-6.01.58.06,1.14.28,1.41.66.32.45.44,1.09.22,1.66-.78,2.01-1.89,3.8-3.06,5.61-2.02,3.11,1.3,4.79.22,11.37-.29,1.75-1.09,3.27-2.29,4.57-1.42,1.54-2.72,3.08-4.01,4.7-.77.96-1.94,1.34-2.82.75-1.05-.71-1.31-2.03-.5-3.1,2.41-3.2,7.05-5.08,6.22-10.13l-.47-2.88c-.21-1.28-.98-2.57-2.39-2.89-3.21-.72-6-2.29-8.97-3.51-3.81-1.56-6.08-4.36-6.38-8.55-.32-4.42-2.25-8.51-4.22-12.43-.61-1.21-1.15-2.48-.39-3.72ZM80.67,204.17c2.79-1.38,3.32,2.99,5.22,5.04l4.21,4.57c6.11,6.63,11.08,2.98,10.46,7.01-.19,1.25-1.44,2.25-2.81,1.74l-2.43-.9c-3.23-1.2-5.97-3.01-8.19-5.62l-5.91-6.94c-.65-.77-1.2-1.59-1.45-2.58-.25-.97.15-1.94.92-2.32ZM76.9,200.36c.39,2.01.06,3.99-.12,5.98l-.81,9.45c-.9,10.55,2.74,8.85,9.2,16.11.9,1.02.73,2.36-.17,3.06-.84.66-2.3.56-2.99-.49-1.34-2.04-2.97-3.63-5.02-5.05-2.39-1.65-4.11-3.98-4.46-6.98-.34-2.93-.28-5.88.09-8.8.42-3.33.71-6.57.86-9.93.33-7.06-4.81-9.87-1.69-11.68.8-.46,2.22-.19,2.76,1.03,1.01,2.29,1.85,4.76,2.34,7.31ZM204.3,189.57c-2.56,4.26-4.65,8.64-6.84,13.17-1.41,2.91-2.95,5.54-4,8.6-2,5.83-6.55,4.79-7.55,8.67l-1.47,5.71c-.57,2.2-.14,7.05-3.27,6.4-.95-.2-1.58-1.33-1.35-2.46.74-3.57,1.71-7.03,2.78-10.51.23-.74.45-1.34-.1-1.92-1.78-1.88-5.62,2.64-6.22,5.5-.68,3.28-.13,6.54.89,9.66.87,2.67,1.31,5.24,1.54,8,.06.71.48,1.34.31,2.06-.28,1.16-.95,1.87-2.02,1.82-1.1-.05-2.06-.79-1.99-2.1.35-6.52-2.12-9.28-2.72-16.06-.85-9.66,7.49-11.66,8.18-14.1l1.91-6.78c-.19-2.88-1.91-10.03-5.54-10.03-2.27,0-4.17,1.43-5.03,3.5-1.73,4.17-.99,7.18-2.02,9.01-.5.87-1.38,1.12-2.23.91-.89-.21-1.38-1.33-1.2-2.39.53-3.04,1.32-5.96,2.14-8.92.57-2.06,2.03-3.56,3.9-4.45,3.29-1.57,6.29-2.66,9.12.55,2.13,2.42,3.16,5.43,3.96,8.56.65,2.56.71,4.98-.4,7.44-.48,1.07-1.45,3.9-.42,4.66,1.53,1.12,4.56-1.76,5.38-4.22.88-2.64,2.18-4.87,3.46-7.33l4.91-9.51c.91-1.76,1.51-3.5,2.14-5.31.44-1.27,1.76-1.77,2.88-1.33,1.01.4,1.59,1.98.86,3.2ZM156.73,176.14c-.57,2.23-1.7,4.17-2.44,6.43-.32.96-1.05,1.38-1.76,1.45-.82.09-1.65-.11-2.01-1.03-1.13-2.89,4.1-4.46,2.81-13.02-.45-3,.77-6,2.66-8.3,1.6-1.95,2.93-3.79,3.6-6.26.27-.99,1.28-1.85,2.3-1.76.87.08,1.33.75,1.55,1.3.31.77.08,1.57-.34,2.33-1.42,2.56-3.04,4.95-4.67,7.38-2.61,3.9-.63,7.27-1.69,11.46ZM145.33,171.82c-.88-4.35-4.37-3.19-8.62-4.18-5.27-1.24-4.25-5.99-6.81-7.34-5.84-3.08-11.85-5.37-18-7.76-2.78-1.08-4.34-3.62-5.48-6.21-.6-1.37-.61-2.97.77-3.78.61-.36,1.37-.16,1.89.17,1.6,1.02.84,4.38,3,5.64,5.68,3.32,11.27,3.91,18.57,8.23.79.47,1.8.48,2.62.12,1.76-.76,2.46-3.86,1.07-5.99-.68-1.03-2-1.68-3.52-1.71-7.38-.12-8.94-.66-15.88-2.84-.75-.23-1.24-.86-1.37-1.46-.16-.74-.1-1.67.69-2.11.68-.38,1.77-.27,2.52.07,9.88,4.44,14.4.8,18.65,3.95,2.99,2.21,4.14,6.17,3,9.66-.71,2.17-4.13,2.94-3.22,5.38,1.17,3.1,5.02,2.42,8.47,3.22,2.46.57,4.29,2.32,4.85,4.82.49,2.18.89,4.4.89,6.63,0,1.06-1.15,1.83-1.98,1.78-.86-.05-1.81-1-1.74-2.02.11-1.5-.08-2.83-.38-4.29ZM100.71,160.16c.62,1.03.59,2.69-.58,3.32-.91.49-2.29-.24-2.74-1.23-.79-1.7-1.48-3.65-1.44-5.67.07-3.44,3.61-6.1,6.9-5.42,2.24.46,3.78,2.34,4.15,4.49l.89,5.28c.62,3.66,4.97,5.02,8.07,6.51,8.27,3.98,6.39,8.16,13.77,9.35,1.03.17,1.77,1.08,1.84,1.85.09.93-.55,2.32-1.78,2.14-2.71-.39-5.34-1.64-7.53-3.24-2.31-1.69-2.58-4.6-9.17-7.4-10.86-4.62-7.43-7.13-9.62-13.61-.32-.94-1.32-1.56-2.05-1.46-.96.12-1.62.85-1.73,1.85-.14,1.24.4,2.2,1.02,3.24ZM131.05,173.85c-5.36-3.5-6.75-6.83-11.9-9.52-2.6-1.35-5.12-2.63-7.6-4.18-1.3-.82-1.69-2.68-.47-3.71.65-.55,1.88-.4,2.54.17,5.24,4.55,8.42,3.74,12.98,8.59,2.08,2.21,4.28,4.16,6.84,5.81,5.4,3.49,9.08,1.41,9.15,4.54.02.98-.7,2.34-2.01,2.12-3.41-.58-6.64-1.94-9.52-3.83ZM143.87,155.17l-2.45-8.61c-.37-1.31.36-2.58,1.39-2.77,1.54-.29,2.4.53,2.69,1.95l1.42,7.01c.17.86.81,1.6,1.41,1.97,2.85,1.73,5.68-4.12,7.85-.97,1.7,2.48-3.48,4.78-6.14,5.23-2.81.48-5.39-1.06-6.17-3.81ZM137.21,129.14c-2.67-3.99-6.15-3.02-7.31-4.94-.39-.65-.47-1.64.06-2.2,1.08-1.14,2.59-.66,3.8.05,2.14,1.26,4.41,2.28,5.96,4.27,2.23,2.89,4.51,5.5,7.02,8.15,3.81,4.02,5.12,10.26,9.81,11.66,6.28,1.87,10.24-.23,10.55,2.9.1.97-.82,2.18-2.05,2.07-3.97-.35-12.14-1.02-14.47-4.44l-6.47-9.52c-2-2.94-4.89-5.03-6.89-8.02ZM162.56,167.91l5.26-13.49,2.71-5.25c.3-.59.85-1.01,1.26-1.18.59-.25,1.58-.19,2.04.35.82.96.76,2.4-.05,3.4-1.64,2.05-2.94,4.21-3.85,6.73l-3.36,9.23c-.74,2.02-1.57,4.21-.95,6.23l1.06,3.45c.34,1.1-.51,2.09-1.42,2.37-2.84.87-2.99-4.11-3.22-5.41-.4-2.18-.3-4.33.53-6.44ZM196.13,190.94c-.09,1.01-.95,1.62-1.62,1.71-2.76.37-1.92-4.21-2.61-5.96-1.35-3.41-5.42-6.77-2.87-11.34,1.34-2.4,2.99-4.4,4.7-6.59,2.83-3.61,4.14-8.27,3.2-12.81-.66-3.2-4.25-5.31-4.95-7.4-.32-.96-.1-1.86.82-2.35.62-.33,1.64-.25,2.31.5,1.64,1.83,3.1,3.86,4.43,5.98,1.31,2.09,1.68,4.45,1.35,6.87-.56,4.18-1.2,7.64-3.97,10.93-1.82,2.15-3.54,4.34-4.69,6.96-1.34,3.04,4.61,5.96,3.9,13.51ZM191.15,165.27l-2.73,5.48c-.43.87-1.21,1.3-2.13,1.23-.78-.06-1.81-.7-1.7-1.85.21-2.43,3.85-4.99,4.23-9.92.34-4.4-7.62-15.13-3.07-15.96,3.14-.57,1.83,3.44,5.05,9.45,1.98,3.69,2.23,7.82.36,11.57ZM191.82,198.26c.29,1.01-.02,2.36-1.03,2.89-1.28.67-2.44-.18-2.69-1.35-.31-1.45-.43-2.85-.95-4.24-3.07-8.21-8.04-8.42-8.38-14.77l-.45-8.51c-.07-1.36-.65-2.7-.26-4.03.28-.96,1.41-1.04,2.22-.9.86.15,1.36,1.13,1.45,2.17.34,3.82.35,7.55.91,11.34.21,1.41.62,2.6,1.63,3.64,3.78,3.88,6.05,8.53,7.54,13.77ZM184.15,163.67c-.14.89-1.1,1.5-1.74,1.55-.85.07-1.61-.52-1.89-1.47-.73-2.53,1.39-3.27-.99-8.43-1.3-2.81-1.78-5.78-2.59-8.74-.35-1.27-.11-2.43,1.03-2.93,1.06-.46,2.63,0,2.72,1.39.19,2.87.66,5.52,1.82,8.21,1.43,3.31,2.2,6.87,1.63,10.42ZM177.2,158.7c-.46,3.39-1.65,6.55-2.59,9.85-.69,2.41-.67,4.81-.75,7.3l-.4,12.38c-.03.8-.77,1.39-1.29,1.55-.74.21-1.78.29-2.3-.5-.48-.73-.47-1.76-.36-2.59.59-4.49.79-8.83.81-13.36.03-6.26,2.46-8.23,3.19-15.52.12-1.23,1.27-1.86,2.23-1.7,1.11.19,1.63,1.36,1.46,2.59ZM209.85,211.03c-.43.76-1.18,1.21-1.72,1.28-.83.11-1.65-.12-2.08-.94-.4-.76-.1-1.85.44-2.56,1.88-2.44,3.09-5.05,4.26-7.89,1-2.42,1.43-4.84.62-7.44-1.58-5.06-2.03-8.16-7.31-9.82-3.74-1.18-6.7-3.99-7.09-8.01-.11-1.16.74-2.08,1.68-2.18,3.44-.37,1.02,4.49,5.68,6.48l3.93,1.68c2.08.89,3.52,2.44,4.4,4.5,2.2,5.15,3.74,10.85,1.39,16.2-1.29,2.95-2.6,5.82-4.21,8.69ZM211.54,168.75c.78-.52,2.07-.33,2.71.73,6.16,10.17,7.52,17.73,8.77,29.59-.48,4-1.97,7.84-4.63,10.71-.75.81-2.3.39-2.77-.15-1.89-2.17,1.68-3.93,2.61-6.37.73-1.92,1.18-4.14.96-6.26-.66-6.49-2.93-17.36-6.28-22.55l-2.02-3.13c-.61-.94-.25-1.97.65-2.57ZM224.98,162.15c-.8,1.04-2.41,1.05-3.37.14-2.51-2.39-5.38-3.79-8.76-4.43-1.69-.32-3.07.02-3.69,1.8-.98,2.8-1.67,5.72-2.04,8.88-.29,2.52.49,4.45,2.19,6.07,1.01.96,1.34,2.79.1,3.69-.77.56-2.07.1-2.67-.61-1.03-1.25-1.69-2.72-2.42-4.18-1.09-2.17-1.14-4.52-.64-6.9.62-2.91,1.04-5.83,2.29-8.51.64-1.37.73-2.61-.13-3.91-3.07-4.68-5.07-9.02-10.79-10.94-3.15-1.06-6.27-1.61-9.57-2.03-3.05-.39-5.99-.94-8.98-1.5-.87-.16-1.19-1.17-1.17-1.75.02-.78.22-1.6,1.09-1.88.89-.29,1.97-.12,2.86.2,6.48,2.33,10.27.47,19.11,4.5,3.02,1.38,5.37,3.41,7.11,6.21l3.54,5.69c1.6,2.57,4.24.79,8.61,2.84,2.29,1.07,4.59,2.12,6.59,3.57,1.08.78,1.37,2.18.71,3.04ZM240.01,175.89c.38-.78,1.3-.9,2.01-.8.8.11,1.45.75,1.67,1.66.71,2.85.75,5.72.76,8.67,0,4.92.74,9.79-3.1,13.25-1.96,1.76-3.25,4.02-3.69,6.68-.36,2.18-.72,4.34-.85,6.58-.13,2.22,1.72,6.52-.91,7.05-.85.17-2.19-.43-2.37-1.63-.72-4.9-.18-9.89,1.05-14.71,1.45-5.67,6.23-6.17,6.24-11.3l.02-8.75c0-3.19-1.74-4.87-.84-6.71ZM235.79,161.61c.72-.33,1.79-.34,2.32.42.48.69.45,1.61.31,2.43-.72,4.19-1.71,8.21-2.15,12.47-.21,2.11.44,4.11.45,6.19l.03,10.28c0,1.27-1.07,1.92-2.11,1.83-1.06-.09-1.83-1.11-1.67-2.35.92-7.03-.83-13.9-.02-18.48.65-3.66,1.61-7.07,1.67-10.85.01-.85.54-1.65,1.17-1.94ZM229.83,155.44c.79-3.14-.6-8.47,2.56-8.38,1.03.03,2.04.77,1.89,2.09-.45,4.1-.93,8.23-2.34,12.12-.97,2.65-1.57,5.07-1.36,7.94.05.71-.43,1.65-.89,1.92-.64.38-1.5.37-2.1-.11-.85-.68-1.24-1.74-.97-2.83l3.21-12.74ZM217.29,147.21l8.47,4.05c1.29.62,2.02,2.24,1.07,3.32-.71.81-2.22.82-3.12.19-2.5-1.77-5.08-3.03-7.92-4.19-3.86-1.56-6.83-4.36-8.24-8.43-.64-1.86-1.67-2.88-3.54-3.24-7.74-1.47-10.73-6.74-19.37-4.45-1.04.28-2.28-.58-2.47-1.43-.2-.91.27-2.17,1.44-2.35,10.22-1.54,11.51,1.32,19.7,4.49.8.31,2.04.86,2.78.19,1.22-1.13.35-2.95-.95-3.7-3.87-2.24-8.66-1.14-8.12-4.25.17-.98,1.3-1.82,2.51-1.52,2.65.65,5.2,1.6,7.66,2.79,2.67,1.3,3.95,4.19,3.02,6.99-.61,1.86-.2,3.4.49,5.06,1.31,3.15,3.57,5.03,6.61,6.48ZM212.22,107.32c1.52,3.81,2.58,7.58,2.98,11.72l.63,6.45c.26,2.69,1.87,4.42,4.29,5.52,1.12.51,1.56,1.95,1.05,2.83-1.81,3.11-8.35-1.94-8.93-8.13l-.66-7.03c-.34-3.61-1.44-6.86-3.06-10.04-.57-1.12-.02-2.58.92-2.88,1.47-.47,2.28.29,2.78,1.57ZM202.72,103.14c2.16-2.68,3.04-5.88,2.9-9.33-.09-2.28-.13-4.44-.56-6.7-.18-.94.22-1.98.89-2.56.61-.54,1.49-.49,2.12-.13.53.3.98,1.13.98,1.94l-.02,10.27c0,2.82-1.01,5.39-2.75,7.52-1.76,2.17-2.15,4.85-1.23,7.52,1.26,3.68,2.68,7.23,3.59,11.01.29,1.19-.32,2.17-1.28,2.46-3.44,1.04-2.08-3.91-4.58-9.28-1.94-4.15-3.16-8.87-.05-12.74ZM200.94,119.54c.55,1,.09,2.29-1.15,2.81-1.6.66-3.29,1.17-4.81,2.09-5.38,3.27-9.82.75-14.03,4.29-3.59,3.02-7.11,5.87-11.06,8.56-1.06.72-2.21.52-2.89-.29-.59-.7-.59-2.42.45-3.01,3.72-2.09,7.08-4.5,10.36-7.3,2.9-2.47,6.31-3.88,10.15-3.9,5.75-.02,10.98-6.86,12.99-3.24ZM183.02,83.1c.06-.96,1.25-1.29,1.92-1.21.8.1,1.74.85,1.7,1.88-.27,7.51.78,9.61.55,16.21-.27,7.67-.2,8.11,2.71,14.96.46,1.09.94,2.22.61,3.52-.22.9-1.17,1.18-1.9,1.18-.57,0-1.44-.64-1.68-1.41-.69-2.15-1.34-4.25-2.27-6.38-1.08-2.47-1.26-5.1-1.1-7.78.23-3.82.18-7.47-.14-11.31-.28-3.27-.59-6.45-.39-9.67ZM161.14,98.1c-.22-.93.67-1.88,1.3-2.1,1.03-.35,2.02.29,2.44,1.25.51,1.17.49,2.37.76,3.61,1.11,5.06,5.96,8.22,4.74,15.84-.17,1.03-.12,2.04-.67,3.05-.57,1.05-1.54,1.6-2.63,1.17-.83-.33-1.39-1.67-.97-2.71,2.36-5.86-.94-8.67-2.71-12.91-.98-2.35-1.68-4.75-2.25-7.21ZM160.42,131.1c4.29-6.5,7.86-5.61,11.79-9.3,1.64-1.54,3.5-2.62,5.36-3.87l2.46-1.66c.79-.53,1.88-.77,2.76-.26.73.42.88,1.27.78,2.08-.29,2.16-4.1,2.03-8.22,5.81-5.57,5.1-9.91,4.46-11.76,10.06-.43,1.31-2.18,2.15-3.16,1.28-1.24-1.1-.81-2.91,0-4.13ZM128.54,114.17c4.34.22,8.45,1.35,12.48,2.97,2.39.96,4.35,2.49,5.87,4.6,1.69,2.36,3.45,4.52,5.51,6.58,3.68,3.66,3.25,6.73,6.03,9.43,1.31,1.28,3.09,1.53,4.79,1.99,2.94.8,5.75,1.13,8.79.91,1.37-.1,2.42.93,2.38,2.12-.03,1.17-1,2.22-2.5,2.06-4.21-.45-8.18-1.27-12.18-2.27-6.17-1.54-6-7.78-10.68-12.4-1.67-1.65-3.13-3.36-4.46-5.31-1.47-2.16-3.44-3.81-5.91-4.75-1.93-.73-3.84-1.44-5.88-1.8-1.83-.33-6.45.69-6.41-2,.02-1.16.79-2.22,2.18-2.15ZM125.73,127.15c-1.12.35-2.28-.44-2.67-1.62-.75-2.26-1.51-4.32-3.13-6.13-.72-.81-.8-2.3-.07-3.08.97-1.03,2.6-.58,3.26.61,1.33,2.4,2.61,4.74,3.76,7.35.54,1.24-.18,2.56-1.14,2.87ZM92.46,146.59c1.65-1.06,3.35-1.84,4.86-3.13,5.65-4.82,5.9-9.65,13.9-8.39,3.72.59,7.39.78,11.05,1.86,2.19.64,8.47.54,7.54-2.93l-.81-3.01c-.27-1.01.2-1.94.99-2.36.79-.42,2.02-.43,2.5.52,1.78,3.47-.34,6.56,3.02,7.7,2.88.98,6.86,1.63,6.05,4.39-.26.88-1.56,1.62-2.67,1.25-4.16-1.38-5.8-3.97-9.22-2.54-1.34.56-2.97,1.3-4.48,1.03l-10.17-1.82c-2.09-.37-4.2-.34-6.32-.48-1.38-.09-2.48.52-3.34,1.47-3.44,3.83-3.02,4.49-7.12,7.24-1.33.89-2.51,1.72-3.6,2.91-.87.93-2.67.98-3.36-.15-.79-1.31,0-2.79,1.18-3.55ZM83.27,148.4c-.53-1.05-.38-2.24.7-2.8.71-.37,1.54-.26,2.23.15.55.33.93.96,1.11,1.79,1.01,4.48,3.3,6,4.72,12.01.64,2.7,2.44,5,4.9,6.27,2.62,1.36,5.04,2.69,7.48,4.38,3.57,2.47,7.34,4.2,11.55,5.53,1.28.4,1.81,1.42,1.7,2.41-.12,1.11-1.26,2.1-2.53,1.56-3.64-1.54-7.26-2.99-10.63-5.07l-8.1-5c-4.43-2.73-6.4-3.76-7.78-8.87-1.19-4.38-3.32-8.33-5.35-12.35ZM131.27,230.36c-1.14.49-2.54.39-3.78,0l-9-2.79c-1.03-.32-1.31-1.53-1.16-2.34.56-3.09,5.82-.13,8.01.74,3.51,1.4,6.48-.85,7.2,1.81.27.99-.19,2.11-1.27,2.57ZM139.24,216.77c.84.7,1.07,1.97.11,3.02-1.81,1.96-4.65,3.43-7.49,3.16-3.39-.32-6.52-1.53-9.58-2.74-3.23-1.28-6.28.02-7.69,3.26-1.29,2.95-2.53,5.83-2.24,9.04.37,4.17,6.26,5.17,4.64,8.15-.65,1.19-2.55,1.03-3.42.13-1.35-1.39-2.46-2.83-3.51-4.39-1.8-2.67-1.96-5.67-.92-8.66.92-2.63,1.68-5.23,3.18-7.54,2.57-3.96,7.15-5.32,11.47-3.42,2.03.89,4.08,1.68,6.2,2.28,5.73,1.63,6.66-4.47,9.27-2.29ZM121.24,206.34c5.2,4.33,14.01,4.64,12.9,8.09-.33,1.01-1.41,1.65-2.52,1.22-3.37-1.3-11.55-4.65-13.72-7.24l-3.75-4.48c-1.13-1.35-2.46-2.57-4.28-3.06-4.78-1.3-9.44-2.93-14.35-3.79-3.28-.58-5.94-1.55-8.1-4.33l-4.34-5.59c-.63-.82-.85-1.83-.35-2.66.42-.71,1.53-1.23,2.43-.69,1.74,1.06,2.92,4.69,6.31,7.79,1.23,1.13,2.8,1.55,4.45,1.82,4.81.81,9.29,2.46,14.01,3.64,6.8,1.71,6.76,5.45,11.33,9.26ZM133.58,195.88c-.52,1.17-1.92,1.41-3.07.82-8.69-4.47-12.08-1.57-17.66-2.93-4.93-1.2-9.64-2.53-14.47-4.03-2.06-.64-3.95-1.73-5.49-3.19l-5.94-5.62c-.54-.51-.86-1.2-.88-1.8-.02-.72.19-1.53,1.03-1.89.9-.39,2.2.11,2.83.95,2.81,3.74,6.45,7.31,11.1,8.57l12.34,3.33c4.74,1.28,9.12-1.09,18.95,2.95,1.41.58,1.67,1.92,1.26,2.84ZM130.29,187.63c-2.64.59-8.26-1.62-13.36-1.32-3.18.19-6.01-.59-8.97-1.5-10.85-3.34-11.14-6.46-18.84-11.24-.75-.47-1.29-1.01-1.41-1.74-.13-.86-.04-1.7.75-2.27.57-.42,1.85-.35,2.42.26,1.72,1.82,3.75,3.02,5.67,4.64,4.21,3.55,8.87,6,14.25,7.43,1.97.52,3.76,1.03,5.88.84,3.07-.28,6.06.15,9.03.93,6.27,1.65,8.83-2.29,11.52-2.63,1.14-.14,2.06.31,2.34,1.15.3.9.1,2.11-.96,2.54-2.72,1.1-5.4,2.28-8.32,2.93ZM149.11,202.02c-2.84,1.18-2.76-3.36-5.83-5.89-4.6-3.8-8.84-2.95-8.16-5.9.27-1.19,1.51-2.1,2.82-1.5,2.94,1.33,5.66,3.05,8.17,5.09,2.02,1.64,6.01,6.95,3,8.2ZM151.93,191.03c-3.61-.03-6.52-2.03-8.14-5.15-.65-1.26-2.46-4.33-.79-5.63.41-.32.98-.47,1.63-.26.86.27,1.64,1.15,1.77,2.15.47,3.49,3.52,5.82,7.07,5.14,1.14-.22,2.31-.48,3.47-.33,1.09.14,1.89.99,1.89,1.97,0,2.79-4.01,2.14-6.91,2.12ZM163.53,221.75c-.63-3.1.52-5-1.43-6.84-4.05-3.83-2.72-9.4-1.73-14.4.63-3.19,1.37-6.27,1.83-9.46.42-2.91-.69-5.34-3.1-6.92-1.04-.68-1.83-2.3-.97-3.32,1.06-1.28,2.91-.62,3.79.51l2.47,3.19c1.64,2.12,1.95,4.7,1.34,7.37-1.07,4.7-2.16,9.31-2.78,14.1-.29,2.21.15,4.39,1.38,6.06.96,1.3,2.04,1.3,3.37.83,4.64-1.64,7.41-5.84,6.8-10.81-.11-.86.11-1.93.85-2.41.55-.36,1.18-.5,1.71-.29.48.19,1.09.76,1.14,1.48.47,6.87-2.17,12.74-8.93,15.21-1.61.59-2.72,1.73-2.42,3.6.92,5.73,2.16,11.32,3.53,16.97.77,3.19.14,6.8,2.5,9.56,2.05,2.39,5.59,2.48,7.6.24.79-.88,1.53-1.78,2.72-2.09.78-.21,1.52.54,1.81,1.04.43.74.3,1.81-.34,2.46-3.89,3.94-8.84,5.82-13.56,1.74-2.25-1.94-3.57-4.91-3.73-7.93-.13-2.43-.45-4.55-1.09-6.92-1.16-4.29-1.87-8.6-2.76-12.97Z"/><path class="cls-3" d="M205.39,271.92c-.99-4.08-6.82-.46-9.02.88-1.08.66-1.98,1.56-2.13,2.95l-.55,5.04c1.79-.09,3.54-.2,5.24-.31,1.01-6.38,7.25-5.23,6.45-8.56Z"/><path class="cls-3" d="M125.78,262.16c1.14-.8,1.01-3.33.79-4.45-.29-1.5-1.62-2.25-2.99-2.6-1.15-.29-2.29,0-2.66,1.29-.32,1.1-.47,2.61.01,3.73.44,1.03,3.32,3.1,4.85,2.03Z"/><path class="cls-3" d="M169.47,279.31c-.84-.53-1.94-.47-2.67.11-.48.37-.87,1.19-.85,2.02,1.84,0,3.64,0,5.42-.01-.43-.84-1.05-1.58-1.9-2.11Z"/><path class="cls-3" d="M94.33,264.55l-4.14-3.75c-2.39-2.17-1.5-3.89-5.7-3.7-2.4.11-4.74.19-6.98.89,1.32,1.01,2.67,1.98,4.07,2.91l1.01-.53c1.05-.56,2.46.15,2.77.94.28.73.19,1.37-.15,1.88.96.57,1.93,1.13,2.92,1.67.8-.35,1.79-.35,2.37.27.37.4.53.84.56,1.28,1.55.78,3.14,1.53,4.74,2.24.93-.63,1.89-1.24,2.88-1.82,1.46-.84,2.37-2.35,3.43-3.58.97-1.11,2.67-1.56,3.68-.3.63.78.25,2.11-.46,2.84-1.69,1.74-3.58,3.16-5.53,4.54,2.29.91,4.62,1.76,6.98,2.55.02-1.32,0-2.65.04-3.99.04-1.3,1.06-2.36,2.18-2.19,1.13.17,2.02,1.11,1.84,2.36-.24,1.64-.46,3.27-.65,4.9,1.25.38,2.51.75,3.78,1.1.34-2.37.44-4.64.41-7.04-.05-4.14-2.31-2.67-6.03-7.87-.78-1.09-2.46-1.37-3.75-1.11-3.07.63-6.32-.38-7.98-3.02-2.72-4.31,1.38-5.45-.12-9.95-2.46-7.4.64-11.35-.11-13.78-.32-1.03-1.54-1.33-2.42-1.12-.95.22-1.39,1.1-1.56,2.13-.76,4.41-.95,8.64-.55,13.11.59,6.59-2.84,7.16-.55,10.18,1.43,1.89,3.31,3.21,5.24,4.52,1.04.7,1.35,2.05.77,2.94-.57.89-2.06,1.33-2.98.5Z"/><path class="cls-3" d="M223.78,78.99c.44,1.4,1.48,2.44,2.91,2.29.31-.03.64-.11.97-.24-1.48-1.82-3.07-3.47-4.8-4.95l.92,2.89Z"/><path class="cls-3" d="M252.59,263.91l-7.58,7.64c-.12.12-.36.46-.7.87,6.13-2.33,10.77-5.09,14.19-8.21-1.03-.3-2.06-.58-3.11-.89-.89-.25-2.15-.07-2.8.59Z"/><path class="cls-3" d="M213.91,279.12c1.06-.13,2.1-.26,3.12-.4-.61-.53-1.27-.76-1.97-.5-.57.21-.92.52-1.16.9Z"/><path class="cls-3" d="M206.99,277.26c-1.85.13-3.41,1.34-4.11,2.94,2.35-.18,4.63-.39,6.82-.61-.31-1.31-1.1-2.44-2.71-2.33Z"/><path class="cls-3" d="M189.85,273.72c-1.45-1-3.08.35-4.58,1.37-1.73,1.18-1.13,3.63-.88,6.08,1.92-.06,3.8-.13,5.64-.21l.67-4.93c.13-.95-.19-1.86-.85-2.31Z"/><path class="cls-3" d="M252.24,197.26c.18,3.85,1.03,7.52,1.51,11.29.43,3.35,3.63,2.5,5.6,2.98-2.57-7.91-5.33-16.24-7.39-24.88.36,3.51.11,7.01.28,10.61Z"/><path class="cls-3" d="M134.17,262.19c1.02-.11,1.82-1.02,1.49-2.2-.54-1.95-2.1-5.24-4.42-4.09-.88.44-1.19,1.34-1.2,2.34-.03,2.4,1.69,4.2,4.14,3.94Z"/><path class="cls-3" d="M241.72,114.96c-.85-3.93-1.82-7.76-2.94-11.43-.12,3.27.07,6.81,1.29,8.89.52.88,1.07,1.71,1.65,2.53Z"/></g><g class="cls-1"><path class="cls-3" d="M267.25,174.12c.66-.56,1.35-1.48.93-2.52-.47-1.17-1.68-1.98-2.89-2.37-1.33-.43-2.66-.84-3.97-1.27.35,1.8.71,3.55,1.08,5.26.71.4,1.42.82,2.12,1.28.87.58,2.05.21,2.74-.37Z"/><path class="cls-3" d="M364.13,233.07c-.99-4.08-6.82-.46-9.02.88-1.07.65-1.96,1.55-2.12,2.91,2.33.2,4.65.36,6.95.48,2.1-1.82,4.72-2.04,4.18-4.27Z"/><path class="cls-3" d="M329.02,225.86c-1.05-3.13.35-4.55-1.87-6.49-2.42-2.11-4.04-4.81-6.03-7.32-2.36-2.99-6.57-3.36-7.08-5.38-.2-.81-.16-1.77.53-2.37,1.54-1.36,4.26,1.51,5.28,2.12,5.15,3.09,5.09,5.42,9.13,9.59,1.29,1.32,2.8,1.55,4.57,1.2,2.41-.48,4.56.63,5.61,2.77.88,1.79,3.41,7.51,2.32,9.15-.52.78-1.6.71-2.29.49-1.86-.6-1.32-3.86-2.58-6.72-.62-1.41-1.93-2.49-3.52-1.97-2.52.82-.04,5.47.48,6.66,1.08,2.47,2.65,4.57,5.05,5.9.77.43,1.91.76,2.78.19,1.23-.8,2.99-1.65,3.72-3.02.98-1.83.49-4.26-.08-6.14l-1.93-6.38c-.5-1.65.26-3.53,1.29-4.92,2.3-3.11,3.4-6.37,4.2-10.09.67-3.14,2.78-5.79,4.74-8.16.76-.92,2.11-.97,2.8-.29.7.68.86,2.12.04,2.9-6.79,6.42-2.72,9.58-8.03,16.35-1.44,1.83-1.71,3.99-.9,6.12l1.49,3.89c1.01,2.65-.69,6.95,1.42,7.88.52.23,1.51.2,2.18-.32,3.04-2.38,6.62-4.01,10.55-4.01,3.87,0,4.64,2.99,4.88,6.06.13,1.73,1.36,3.08,3.11,3.2,1.32.08,2.33-.85,2.42-2.16.09-1.32-.15-2.59-.59-3.82-1.45-4.06-4.24-7.19-7.72-9.63-2.82-1.98-5.29-4.25-7.47-6.85-2.02-2.4-2.57-5.32-1.83-8.34,1.9-7.77,6.55-8.86,5.75-12.28-.21-.88-.74-2.33-1.94-2.6-2.89-.65-6.14-.07-8.64,1.57-3.15,2.06-4.93,5.31-5.98,8.77-.4,1.31-1.72,1.88-2.72,1.47-1.14-.48-1.61-1.64-1.07-2.79,1.22-2.63,2.66-5.07,4.36-7.41,1.54-2.11,3.52-3.4,5.98-4.25,2.4-.83,4.94-1.81,7.51-1.22,1.57.36,2.96.43,4.2-.8l2.31-2.3c.78-.78,2.34-.79,3.06.05,2.1,2.43-2.92,4.6-3.71,5.79-1.35,2.04.3,4.74,2.45,5.34,3.34.94,3.87,3.8,5.97,5.81.65.62,1.58.75,2.23.41,2.12-1.1.44-4.5-.6-6.1-1.58-2.44-2.42-5-2.57-7.93-.07-1.37-.56-2.68-.45-4.03.1-1.19.84-2.15,1.98-2.02,3.66.41-.32,4.84,4.77,13.23,1.45,2.39,1.89,5.25,1.12,7.89-.43,1.49-1.75,2.21-3.09,2.69-2.38.85-4.75.21-6.3-1.76l-3.05-3.9c-.63-.8-2.25-1.73-3.24-.96-2.32,1.8-3.84,4.51-4.66,7.26-1.24,4.16,1.33,7.04,4.33,9.43l6.28,5.01c4.18,3.33,6.69,8.34,7,13.72.11,1.84.55,2.42,1.29,3.2,1.79-.13,3.56-.3,5.31-.52-1.2-2.49-2.13-5.02-2.92-7.71-2.44-8.24-7.43-8.97-6.09-11.66.46-.93,1.42-1.08,2.35-1.02.8.05,1.39.72,1.89,1.55,1.72,2.86,3.79,5.49,4.86,8.72,1.09,3.31,2.21,6.49,3.62,9.59,1.38-.22,2.75-.48,4.09-.76-.16-.57-.34-1.13-.57-1.66-1.29-2.91-2.27-5.81-2.91-8.93-1.19-5.73-5.19-5.3-5.48-7.96-.08-.77.25-1.73,1.1-2.06,1.27-.51,2.42.4,3.24,1.32,1.27,1.44,2.67,2.67,3.49,4.44.76,1.64,1.02,3.39,1.53,5.14.89,3.06,2.03,5.93,3.15,8.87,1.13-.3,2.25-.62,3.35-.97,0-.25.01-.51.09-.77.29-.97,1.23-1.39,1.94-2.07l8.38-8.07c.92-.88,1.44-2.04,1.19-3.34-.4-2.04-.51-3.99-.66-6.06-.22-3.03.46-6.04,1.27-8.98,1.11-4.07-.53-5.66,1.08-6.89.69-.53,1.61-.54,2.38-.1,2.28,1.3-.94,9.86-1.03,13.41-.06,2.43.09,4.83.19,7.24.08,1.78,1.12,2.88,2.84,3.29.86.21,1.71.42,2.55.65,2.13-2.09,4.07-4.42,5.8-7.02-.34-3.44.69-7.51,1.63-10.29.9-2.67,2.77-4.25,5.05-5.01,1.47-5.57,2.32-11.89,2.45-19.04-.15,1.44-.34,2.87-.48,4.34-.28,2.92-.74,9.71-4.05,10.75-1.28.4-2.42-.05-3.44-.76-3.25-2.25-4.85-5.8-4.26-9.74.61-4.1,1.09-8.11,1.98-12.16.47-2.12,1.39-4.03,2.16-6.01.32-.83,1.13-1.29,1.8-1.34.9-.06,1.82.24,2.16,1.19.76,2.11-2.14,3.41-2.85,7.56-.6,3.5-1.2,6.92-1.5,10.49-.17,1.94-.24,6.42,2.44,6.24.87-.06,1.49-.83,1.59-1.81.46-4.27.96-8.48,1.08-12.78.03-1.21-.59-2.38.1-3.49.43-.71,1.1-1.19,1.87-1.18.58,0,.97.24,1.25.6-.13-2.11-.33-4.2-.59-6.27l-2.18-3.29c-.66-1-1.13-2.58-.2-3.55.31-.32.72-.46,1.15-.49-.22-1.08-.46-2.15-.72-3.22l-.37.02c-2.19.13-3.86,1.44-4.04,3.73-.15,1.93-.13,4.68-2.5,4.5-2.93-.23-1.05-5.28-.72-6.64.67-2.72,2.63-4.54,5.5-4.94.41-.06.81-.1,1.22-.15-.37-1.3-.76-2.59-1.18-3.87-1.91-.02-3.61-.59-5.37-1.38-1.4-.63-3.38.1-3.61,1.6-.53,3.56-.86,7.01-1.04,10.75-.13,2.71.57,4.93,1.96,6.99.73,1.08.74,2.79-.38,3.54-.92.62-2.33.02-2.83-1-1.49-3.01-2.66-7.85-2.28-11.44l.86-8.13c.14-1.35,0-2.48-.93-3.57-3.14-3.66-6.13-4.68-10.26-10.04-2.65-3.43-5.18-3.82-5.28-6.06-.05-1.02.51-1.78,1.34-2.07.82-.29,1.65.03,2.29.75,2.2,2.45,4.03,5.14,6.46,7.43l7.96,7.51c.83.78,2.29.8,3.1.08.76-.68.9-1.71.74-2.7-.1-.67-.75-1.56-1.58-2.07-5.16-3.16-9.38-7.3-12.73-12.36-2.11-3.2-4.66-1.32-6.93-3.68-1.69-1.75-3.31-3.65-4.31-5.82-.56-1.22-.17-2.68,1.03-3.05,3.37-1.05,2.22,4.17,6.39,6.57.67.38,1.54.21,1.97-.15,1.27-1.07.17-2.5-.72-3.45-.79-.84-1.43-2.37-.52-3.37.77-.84,2.4-.53,3.23.2,1.76,1.56,2.47,4.05,1.94,6.33-.42,1.83.03,3.3,1.05,4.76,3.12,4.44,7,7.94,11.51,10.93.93.62,1.62.94,2.19,1.09-1.3-2.71-2.72-5.37-4.26-7.96-3.09-2.25-5.42-5.59-7-9.2-.2-.47-.22-.95-.11-1.39-2.09-2.76-4.31-5.43-6.64-8.04-2.73-.03-5.42.16-8.15.46-1.09.12-2.15-.87-2.3-1.58-.19-.92.11-2.43,1.29-2.44l5.78-.06c-1.31-1.35-2.65-2.67-4.02-3.98-2.47.12-5.03.58-7.77,2.25-1.56.94-3.1,1.82-4.6,2.87-1.11.78-2.41,1.45-3.89.82-.69-.29-.91-1.14-.88-1.71.09-2.1,3.46-2.23,7.18-4.88,1.94-1.38,4.04-2.29,6.31-2.7-1.87-1.66-3.79-3.29-5.76-4.88-.35,1.16-.9,2.27-1.78,3.27-3,3.42-7.29,5.47-11.74,6-1.09.13-2.19-.61-2.62-1.46-.41-.81-.19-1.69.36-2.22,1.97-1.88,2.93,1.02,7.83-1.76,2.52-1.43,4.25-3.6,4.68-6.39-1.18-.9-2.37-1.79-3.58-2.66-.26.35-.6.62-.92.71-1.09.31-2.11-.33-2.37-1.46-.14-.61-.26-1.21-.38-1.82-1.41-.97-2.84-1.91-4.29-2.84l.31,3.15c.26,2.69,1.87,4.42,4.29,5.52,1.12.51,1.56,1.95,1.05,2.83-1.81,3.11-8.35-1.94-8.93-8.13l-.54-5.75c-1.56-.95-3.14-1.89-4.74-2.8.63,1.82,1.21,3.65,1.66,5.54.29,1.19-.32,2.17-1.28,2.46-3.44,1.04-2.08-3.91-4.58-9.28-.21-.45-.41-.92-.6-1.38-1.7-.91-3.43-1.8-5.16-2.67l.58,2.75c.14.67-.53,1.44-.87,1.77-.41.41-1.45.72-2.1.25-1.2-.86-1.32-2.39-1.36-3.72-.02-.91-.16-1.95-.36-3.05-1.86-.88-3.74-1.74-5.62-2.57.3,2.13,1.04,3.96,2.62,7.69.46,1.09.94,2.22.61,3.52-.22.9-1.17,1.18-1.9,1.18-.57,0-1.44-.64-1.68-1.41-.69-2.15-1.34-4.25-2.27-6.38-.87-1.99-1.15-4.09-1.15-6.23-2.97-1.25-5.98-2.43-9.01-3.56.47.74.99,1.46,1.58,2.17,3.71,4.45,3.13,11.54-.07,10.82-1.01-.23-1.91-1.29-1.64-2.48.5-2.14.31-4.35-1.14-6.12-1.54-1.87-2.7-3.92-3.51-6.11-1.47-.51-2.94-1.01-4.41-1.49.11.66.18,1.32.33,2,1.11,5.06,5.96,8.22,4.74,15.84-.17,1.03-.12,2.04-.67,3.05-.57,1.05-1.54,1.6-2.63,1.17-.83-.33-1.39-1.67-.97-2.71,2.36-5.86-.94-8.67-2.71-12.91-.98-2.35-1.68-4.75-2.25-7.21-.04-.19-.03-.37,0-.55-1.44-.44-2.89-.88-4.34-1.29.71,1.49,1.33,3.02,1.82,4.62.36,1.16-.25,2.24-1.33,2.48-.75.17-2.01-.22-2.32-1.28-.75-2.52-1.76-4.85-2.95-7.15-1.86-.49-3.72-.97-5.58-1.41,1.32,2.38,2.68,4.55,3.64,7.16,2.77,7.52,9.13,4.84,11.41,10.75,1.45,3.74,2.52,11.83-2.11,13.65-1.94.76-3.84.24-5.35-1.01-4.14-3.45-2.5-8.72-10.21-10.47l-9.12-2.07c-.87-.2-1.5-1.29-1.52-1.9-.02-.79.53-1.7,1.55-1.93.74-.16,1.54-.09,2.15.19,2.28,1.05,4.56,1.58,7.05,1.98,11.75,1.87,9.58,11.92,13.48,11.46,2.59-.3,1.67-5.15,1.2-6.89-1.56-5.86-7.78-3.81-10.78-10.07l-2.84-5.93c-.97-2.02-2.02-3.97-3.01-5.96-.36-.08-.71-.16-1.07-.24-1.39-.3-2.72-.57-4.04-.83,1.65,3.95,3.89,8.39,6.63,11.56.66.76.94,2,.36,2.85-.46.67-1.51.81-2.18.61-.51-.15-1.2-.69-1.58-1.33-2.25-3.73-4.34-7.48-6.21-11.43-.47-.99-.8-2-1.03-3.02-1.61-.28-3.19-.53-4.69-.73.13,1.04.4,2.07.83,3.06,1.17,2.7,2.47,5.3,4.19,7.67.83,1.15,1.85,2.27,1.27,3.83-.28.74-1.22.89-1.94.88-.68,0-1.36-.49-1.75-1.22l-4.34-7.98c-1.37-2.51-1.91-4.66-2.01-6.7-1.83-.19-3.58-.33-5.24-.41-.12,2.1.41,4.13,1.56,6.02,1.46,2.41,2.98,4.65,4.67,6.87.75.98.28,2.37-.53,2.95-.88.62-2.32.4-2.89-.7-1.19-2.28-2.45-4.43-3.99-6.54-1.9-2.6-2.91-5.58-2.63-8.69-2.54.01-4.85.18-6.95.48-.72.6-1.53,1.12-2.45,1.56-4.37,2.1-8.62,4.28-12.75,6.74-1.39,2.09-2.34,4.52-2.94,7.24,1.46-1.33,2.98-2.49,4.79-3.49,3.3-1.83,6.54-3.58,9.99-5.13,3.04-1.37,6.33-.37,8.27,2.32,1.27,1.76,2.49,3.44,4.15,4.87.62.54.81,1.31.68,2.13-.08.49-.38,1.21-1.1,1.48-3.83,1.48-5.67-9-10.42-7.33-2.9,1.02-5.4,2.6-8.11,3.99-5.15,2.64-6.78,5.1-8.99,7.01-.14,2.66-.07,5.51.16,8.54.53-.3,1.04-.59,1.52-.87,2.48-1.43-.14-5.3,5.83-8.88,2.71-1.63,5.59-2.93,8.88-2.66,3.43.29,6.01,4.43,10.8,3.36,3.8-.85,7.38-2.12,11.04-3.35,1.24-.42,2.4.27,2.67,1.35.31,1.24-.41,2.16-1.73,2.5-3.54.92-7.01,1.76-10.5,2.86-3.96,1.25-6.99.21-10.5-1.95-3.41-2.1-6.65-.2-9.46,1.58-.99.63-1.63,1.43-1.98,2.58-.27.87-.04,1.76.86,2.16,4.24,1.89,8.86-4.13,19.96,2.9.7.45,1.37.82,1.53,1.39.24.88.35,1.72-.31,2.34-.86.8-2.33.55-3.24-.26-3.25-2.84-7.39-3.83-11.67-2.87-7.36,1.66-7.72-1.58-11.05.5-.74.46-1.5.89-2.25,1.32.18,1.58.39,3.2.63,4.85,1.7-.85,3.32-1.57,5.36-1.77,3.29-.33,6.52-.08,9.82-.03,2.44.04,4.64.6,7,1.07l11.72,2.35c1.12.22,1.71,1.42,1.56,2.36-.14.88-1.37,1.99-2.47,1.54-2.76-1.15-5.54-1.49-8.47-2.11-5.01-1.06-9.83-1.6-15.12-1.7-5.18-.1-6.2.81-8.82,2.2.26,1.6.53,3.23.82,4.89,1.76-.98,3-2.24,5.26-3.61.97-.59,2.04-.42,2.65.33,2.03,2.47-2.9,4.36-4.94,5.76-.75.51-1.52.92-2.32,1.26.3,1.66.6,3.34.9,5.05,1.27-.74,2.54-1.43,3.69-2.42,5.65-4.82,5.9-9.65,13.9-8.39,3.72.59,7.39.78,11.05,1.86,2.19.64,8.47.54,7.54-2.93l-.81-3.01c-.27-1.01.2-1.94.99-2.36.79-.42,2.02-.43,2.5.52,1.78,3.47-.34,6.56,3.02,7.7,2.88.98,6.86,1.63,6.05,4.39-.26.88-1.56,1.62-2.67,1.25-4.16-1.38-5.8-3.97-9.22-2.54-1.34.56-2.97,1.3-4.48,1.03l-10.17-1.82c-2.09-.37-4.2-.34-6.32-.48-1.38-.09-2.48.52-3.34,1.47-3.44,3.83-3.02,4.49-7.12,7.24-1.33.89-2.51,1.72-3.6,2.91-.06.06-.13.11-.2.17.87,4.96,1.71,10.08,2.41,15.3.03.02.06.04.09.05,2.62,1.36,5.04,2.69,7.48,4.38,3.57,2.47,7.34,4.2,11.55,5.53,1.28.4,1.81,1.42,1.7,2.41-.12,1.11-1.26,2.1-2.53,1.56-3.64-1.54-7.26-2.99-10.63-5.07l-7.09-4.38c.05.45.11.9.16,1.35.15,1.36.3,2.7.45,4.02,3.83,2.93,8.03,4.99,12.79,6.26,1.97.52,3.76,1.03,5.88.84,3.07-.28,6.06.15,9.03.93,6.27,1.65,8.83-2.29,11.52-2.63,1.14-.14,2.06.31,2.34,1.15.3.9.1,2.11-.96,2.54-2.72,1.1-5.4,2.28-8.32,2.93-2.64.59-8.26-1.62-13.36-1.32-3.18.19-6.01-.59-8.97-1.5-4.52-1.39-7.2-2.74-9.35-4.19.23,1.89.46,3.74.7,5.55.56.23,1.14.43,1.73.59l12.34,3.33c4.74,1.28,9.12-1.09,18.95,2.95,1.41.58,1.67,1.92,1.26,2.84-.52,1.17-1.92,1.41-3.07.82-8.69-4.47-12.08-1.57-17.66-2.93-4.43-1.08-8.68-2.27-13-3.59.2,1.44.41,2.86.62,4.25,3.15.82,6.24,1.83,9.44,2.64,6.8,1.71,6.76,5.45,11.33,9.26,5.2,4.33,14.01,4.64,12.9,8.09-.33,1.01-1.41,1.65-2.52,1.22-3.37-1.3-11.55-4.65-13.72-7.24l-3.75-4.48c-1.13-1.35-2.46-2.57-4.28-3.06-2.94-.8-5.84-1.72-8.78-2.52.24,1.48.49,2.94.74,4.37,3.15,1.13,5.16,1.29,7.58,2.62,1.96,1.08,3.61,2.86,4.01,5.04.42,2.25-.6,4.27-2.55,5.22-1.76.86-2.86,2.43-3.24,4.37-.28,1.48-.62,2.72-.98,3.79.62,2.07,1.27,4.06,1.96,5.97.11-.67.27-1.34.5-2.01.92-2.63,1.68-5.23,3.18-7.54,2.57-3.96,7.15-5.32,11.47-3.42,2.03.89,4.08,1.68,6.2,2.28,5.73,1.63,6.66-4.47,9.27-2.29.84.7,1.07,1.97.11,3.02-1.81,1.96-4.65,3.43-7.49,3.16-3.39-.32-6.52-1.53-9.58-2.74-3.23-1.28-6.28.02-7.69,3.26-1.29,2.95-2.53,5.83-2.24,9.04.37,4.17,6.26,5.17,4.64,8.15-.65,1.19-2.55,1.03-3.42.13-.05-.05-.1-.11-.15-.16.83,1.55,1.71,3.03,2.63,4.45,2.01.75,3.55,1.55,4.7,3.93.59,1.23,1.57,1.99,2.85,2.45l4.19,1.48c1.06.37,2.05.2,2.76-.47.79-.74.88-1.71.74-2.79-.61-4.96-5.58-1.1-8.69-6.8-2.18-4-1.23-5.19-4.87-8.07-.71-.56-1.48-1.13-1.69-2.03-.22-.91.13-1.81.8-2.22.61-.37,1.56-.32,2.23.19,3.88,2.92,4.74,6,6.86,10.23.9,1.8,3.53,2.72,4.78,1.94.48-.3.94-.98,1.06-1.76l.78-5.41c.4-2.77,1.91-5.4,4.38-6.79,1.24-.69,2.57-1.24,3.19-2.6.97-2.13,1.9-4.07,2.76-6.32.77-2,.76-5.25-1.34-6.38-1.98-1.06-3.95-1.64-5.64-3.2-2.23-2.05-4.74-3.67-7.29-5.32-2.58-1.67-5.17-2.99-8.02-4.07-.67-.25-1.05-1.15-1.15-1.67-.13-.64.11-1.52.76-1.87,1.08-.57,2.29-.1,3.27.46l7.53,4.32c4.01,2.3,6.18,5.21,10.22,7.3.47.25,1.46.34,1.76-.09.94-1.35.03-2.49-.87-3.42-1.99-2.03-3.89-3.91-6.47-5.12-.59-.28-.8-1.04-.86-1.59-.11-.99.23-1.63.87-2,.71-.42,1.57-.43,2.29.08,3.34,2.36,5.96,5.2,8.44,8.45,1.04,1.37,3.79,2,4.86.5,2.21-3.11,2.13-7.03,1.82-10.54-.13-1.46,1.27-2.35,2.26-2.25,1.19.13,1.94,1.1,1.84,2.38-.18,2.3-.44,4.52-.82,6.8-.83,4.96-3.16,5.69-1.61,9.12l3.36,7.44c.62,1.38,1.12,2.74,1.4,4.25l1.94,10.17c.32,1.7.95,3.11,1.95,4.52.74,1.04,1.03,2.72,0,3.65-.85.77-2.29.19-2.89-.75-1.46-2.31-2.25-4.91-2.84-7.61-1.33-6.07-.73-9.4-4.17-15.16-1.94-3.24-1.85-7.17-4.37-7.79-1.09-.27-2.3-.19-2.98.73-1.29,1.77,2.21,4.69.17,9.49l-2.53,5.95c-1.75,4.11,2.38,4.17,1.34,10.14-.82,4.71-2.77,12.28-.13,16.13.61.89,1.98,1.77,2.93.96,1.21-1.03,1.29-2.98,1-4.51-1.64-8.48,1.69-8.89.52-16.73-.46-3.09-.94-6.09-.94-9.18,0-1.14,1-2.02,1.98-1.97.86.05,1.75.97,1.75,2.02,0,2.74.01,5.38.66,8.1.83,3.52.52,6.96-.42,10.4-1.52,5.55,1.39,7.04-.7,12.45-1.29,3.32,1.37,3.96,1.06,8.83-.12,1.87-.33,3.71-.64,5.52,1.24.32,2.51.63,3.81.92-.16-.64-.32-1.32-.46-2.06-.26-1.32.32-2.44,1.63-2.55,2.47-.22,2.08,2.34,2.92,5.47.21.04.41.08.62.12,1.48.28,2.98.56,4.48.83l-1.92-4.39c-1.58-3.6-4.53-5.68-7.47-12.58-.4-.95-.61-1.88.14-2.61.56-.54,1.56-1.01,2.36-.43,1.91,1.38,1.26,4.04,4.17,7.59,2.12,2.59,3.61,5.4,4.89,8.48.66,1.58,1.37,3.07,1.91,4.66,1.91.33,3.82.64,5.74.94-.09-.1-.19-.2-.28-.31-2-2.48-3.45-5.28-4.46-8.3ZM355.86,219.25c1.65,1.97,5.53,1.56,4.89,4.38-.23,1.02-1.19,1.86-2.42,1.51-2.86-.8-5.1-2.8-6.52-5.38-.56-1.02-1.27-2.02-1.39-3.2-.12-1.16.91-1.81,1.83-1.89,2.41-.22,2.31,3.02,3.62,4.59ZM290.01,191.51c-1.14.49-2.54.39-3.78,0l-9-2.79c-1.03-.32-1.31-1.53-1.16-2.34.56-3.09,5.82-.13,8.01.74,3.51,1.4,6.48-.85,7.2,1.81.27.99-.19,2.11-1.27,2.57ZM344.66,181.16l-1.47,5.71c-.57,2.2-.14,7.05-3.27,6.4-.95-.2-1.58-1.33-1.35-2.46.74-3.57,1.71-7.03,2.78-10.51.23-.74.45-1.34-.1-1.92-1.78-1.88-5.62,2.64-6.22,5.5-.68,3.28-.13,6.54.89,9.66.87,2.66,1.31,5.24,1.54,8,.06.71.48,1.34.31,2.06-.28,1.16-.95,1.87-2.02,1.82-1.1-.05-2.06-.79-1.99-2.1.35-6.52-2.12-9.28-2.72-16.06-.85-9.66,7.49-11.66,8.18-14.1l1.91-6.78c-.19-2.88-1.91-10.03-5.54-10.03-2.27,0-4.17,1.43-5.03,3.5-1.73,4.17-.99,7.18-2.02,9.01-.5.87-1.38,1.12-2.23.91-.89-.21-1.38-1.33-1.2-2.39.53-3.04,1.32-5.96,2.14-8.92.57-2.06,2.03-3.56,3.9-4.45,3.29-1.57,6.29-2.66,9.12.55,2.13,2.42,3.16,5.43,3.96,8.56.65,2.56.71,4.98-.4,7.44-.48,1.07-1.45,3.9-.42,4.66,1.53,1.12,4.56-1.76,5.38-4.22.88-2.64,2.18-4.87,3.46-7.33l4.91-9.51c.91-1.76,1.51-3.5,2.14-5.31.44-1.27,1.76-1.77,2.88-1.33,1.01.4,1.59,1.98.86,3.2-2.56,4.26-4.65,8.64-6.84,13.17-1.41,2.91-2.95,5.54-4,8.6-2,5.83-6.55,4.79-7.55,8.67ZM315.47,137.28c-.57,2.23-1.7,4.17-2.44,6.43-.32.96-1.05,1.38-1.76,1.45-.82.09-1.65-.11-2.01-1.03-1.13-2.89,4.1-4.46,2.81-13.02-.45-3,.77-6,2.66-8.3,1.6-1.95,2.93-3.79,3.6-6.26.27-.99,1.28-1.85,2.3-1.76.87.08,1.33.75,1.55,1.3.31.77.08,1.57-.34,2.33-1.42,2.56-3.04,4.95-4.67,7.38-2.61,3.9-.63,7.27-1.69,11.46ZM321.3,129.06l5.26-13.49,2.71-5.25c.3-.59.85-1.01,1.26-1.18.59-.25,1.58-.19,2.04.35.82.96.76,2.4-.05,3.4-1.64,2.05-2.94,4.21-3.85,6.73l-3.36,9.23c-.74,2.02-1.57,4.21-.95,6.23l1.06,3.45c.34,1.1-.51,2.09-1.42,2.37-2.84.87-2.99-4.11-3.22-5.41-.4-2.18-.3-4.33.53-6.44ZM370.11,154.62c-1.58-5.06-2.03-8.16-7.31-9.82-3.74-1.18-6.7-3.99-7.09-8.01-.11-1.16.74-2.08,1.68-2.18,3.44-.37,1.02,4.49,5.68,6.48l3.93,1.68c2.08.89,3.52,2.44,4.4,4.5,2.2,5.15,3.74,10.85,1.39,16.2-1.29,2.95-2.6,5.82-4.21,8.69-.43.76-1.18,1.21-1.72,1.28-.83.11-1.65-.12-2.08-.94-.4-.76-.1-1.85.44-2.56,1.88-2.44,3.09-5.05,4.26-7.89,1-2.42,1.43-4.84.62-7.44ZM354.86,152.08c-.09,1.01-.95,1.62-1.62,1.71-2.76.37-1.92-4.21-2.61-5.96-1.35-3.41-5.42-6.77-2.87-11.34,1.34-2.4,2.99-4.4,4.7-6.59,2.83-3.61,4.14-8.27,3.2-12.81-.66-3.2-4.25-5.31-4.95-7.4-.32-.96-.1-1.86.82-2.35.62-.33,1.64-.25,2.31.5,1.64,1.83,3.1,3.86,4.43,5.98,1.31,2.09,1.68,4.45,1.35,6.87-.56,4.18-1.2,7.64-3.97,10.93-1.82,2.15-3.54,4.34-4.69,6.96-1.34,3.04,4.61,5.96,3.9,13.51ZM338.27,116.46c-1.3-2.81-1.78-5.78-2.59-8.74-.35-1.27-.11-2.43,1.03-2.93,1.06-.46,2.63,0,2.72,1.39.19,2.87.66,5.52,1.82,8.21,1.43,3.31,2.2,6.87,1.63,10.42-.14.89-1.1,1.5-1.74,1.55-.85.07-1.61-.52-1.89-1.47-.73-2.53,1.39-3.27-.99-8.43ZM336.8,129.38c.28-.96,1.41-1.04,2.22-.9.86.15,1.36,1.13,1.45,2.17.34,3.82.35,7.55.91,11.34.21,1.41.62,2.6,1.63,3.64,3.78,3.88,6.05,8.53,7.54,13.76.29,1.01-.02,2.36-1.03,2.89-1.28.67-2.44-.18-2.69-1.35-.31-1.45-.43-2.85-.95-4.24-3.07-8.21-8.04-8.42-8.38-14.77l-.45-8.51c-.07-1.36-.65-2.7-.26-4.03ZM344.48,105.39c3.14-.57,1.83,3.44,5.05,9.45,1.98,3.69,2.23,7.82.36,11.57l-2.73,5.48c-.43.87-1.21,1.3-2.13,1.23-.78-.06-1.81-.7-1.7-1.85.21-2.43,3.85-4.99,4.23-9.92.34-4.4-7.62-15.13-3.07-15.96ZM376.98,164.41c.73-1.92,1.18-4.14.96-6.26-.66-6.49-2.93-17.36-6.28-22.55l-2.02-3.13c-.61-.94-.25-1.97.65-2.57.78-.52,2.07-.33,2.71.73,6.16,10.17,7.52,17.73,8.77,29.59-.48,4-1.97,7.84-4.63,10.71-.75.81-2.3.39-2.77-.15-1.89-2.17,1.68-3.93,2.61-6.37ZM367.9,120.81c-.98,2.8-1.67,5.72-2.04,8.88-.29,2.52.49,4.45,2.19,6.07,1.01.96,1.34,2.79.1,3.69-.77.56-2.07.1-2.67-.61-1.03-1.25-1.69-2.72-2.42-4.18-1.09-2.17-1.14-4.52-.64-6.9.62-2.91,1.04-5.83,2.29-8.51.64-1.37.73-2.61-.13-3.91-3.07-4.68-5.07-9.02-10.79-10.94-3.15-1.06-6.27-1.61-9.57-2.03-3.05-.39-5.99-.94-8.98-1.5-.87-.16-1.19-1.17-1.17-1.75.02-.78.22-1.6,1.09-1.88.89-.29,1.97-.12,2.86.2,6.48,2.33,10.27.47,19.11,4.5,3.02,1.38,5.37,3.41,7.11,6.21l3.54,5.69c1.6,2.57,4.24.79,8.61,2.84,2.29,1.07,4.59,2.12,6.59,3.57,1.08.78,1.37,2.18.71,3.04-.8,1.04-2.41,1.05-3.37.14-2.51-2.39-5.38-3.79-8.76-4.43-1.69-.32-3.07.02-3.69,1.8ZM334.47,117.25c1.11.19,1.63,1.36,1.46,2.59-.46,3.39-1.65,6.55-2.59,9.85-.69,2.41-.67,4.81-.75,7.3l-.4,12.38c-.03.8-.77,1.39-1.29,1.55-.74.21-1.78.29-2.3-.5-.48-.73-.47-1.76-.36-2.59.59-4.49.79-8.83.81-13.36.03-6.26,2.46-8.23,3.19-15.52.12-1.23,1.27-1.86,2.23-1.7ZM393.78,217.96c-1.18-2.57-3.2-4.35-5.78-5.44-1.51-.64-3.16-1.38-4.79-.97l-9.5,2.34c-2.49.61-5.2.27-7.05-1.59-1.58-1.59-5.66-7.61-2.41-8.83.9-.34,1.98.03,2.49,1,.34.65.46,1.44.63,2.14.69,2.86,3.26,4.27,6.09,3.62,2.33-.53,4.58-1.19,6.85-1.92,1.84-.59,3.56-.74,5.46-.34,4.4.94,7.98,3.38,10.88,6.76.98,1.14,1.95,2.74.58,4.22-.99,1.08-2.89.25-3.45-.99ZM408.01,201.03c-.78,2.01-1.89,3.8-3.06,5.61-2.02,3.11,1.3,4.79.22,11.37-.29,1.75-1.09,3.27-2.29,4.57-1.42,1.54-2.72,3.08-4.01,4.7-.77.96-1.94,1.34-2.82.75-1.05-.71-1.31-2.03-.5-3.1,2.41-3.2,7.05-5.08,6.22-10.13l-.47-2.88c-.21-1.28-.98-2.57-2.39-2.89-3.21-.72-6-2.29-8.97-3.51-3.81-1.56-6.08-4.36-6.38-8.55-.32-4.42-2.25-8.51-4.22-12.43-.61-1.21-1.15-2.48-.39-3.72.36-.58,1.31-.69,1.91-.51.52.16,1.29.63,1.53,1.31.74,2.06,1.49,4.02,2.44,6.03,2.67,5.61,1.41,5.77,2.62,10.5.46,1.8,1.73,2.96,3.4,3.69,2.66,1.15,5.1,2.57,7.88,3.44,1.14.35,2.56.5,3.29-.55,2-2.88,1.75-6.3,4.35-6.01.58.06,1.14.28,1.41.66.32.45.44,1.09.22,1.66ZM420.29,193.89c.81,2.04,1.54,4.03,2.07,6.18.22.9.04,1.9-.15,2.81l-1.75,8.53c-.5,2.46,1.97,6.87-1.08,7.35-1.34.21-2.46-.73-2.44-2.2.02-1.84-.12-3.65,0-5.49.4-6.05,3.63-9.6-.02-14.99-.76-1.12-.67-2.48.39-3.24.98-.7,2.48-.2,2.98,1.04ZM404.97,163.85c-.42,2.64-.49,5.25-.91,7.95l-1.26,8.21c-.13.83.28,1.67.94,1.9.51.17,1.75.04,2.09-.78,1.01-2.45,3.28-5.19,3.35-8.04.12-4.86-2.73-14.35-1.86-19.85.59-3.75-1.66-7.03-.29-8.6.51-.59,1.42-.62,2.07-.34.48.21,1.19.79,1.33,1.54.74,4.17.35,8.31.54,12.57.18,3.85,1.03,7.52,1.51,11.29.6,4.71,6.71,1.09,7.12,4.62.1.87-.2,1.92-1.27,2.13-2.61.51-5.09-2.24-6.58.51-1.74,3.21-1.18,4.08-4.03,7.52-.9,1.09-1.63,6.24,1.22,6.06,3.92-.25,4.55-6.46,5.1-9.59.2-1.15,1.27-1.89,2.25-1.82,1.01.07,1.97,1.2,1.73,2.37-.44,2.13-1.09,4.13-1.67,6.25-.71,2.55-2.34,4.72-4.68,5.97-3,1.6-4.79-1.07-7.56,1.53-1.64,1.54-2.89,3.2-3.84,5.39-.54,1.23-2.36,1.47-3.24.62-.72-.7-.69-1.92-.13-2.72,1.26-1.82,2.52-3.55,4.02-5.2.76-.84,1.93-1.41,2.31-2.6.35-1.1.59-4.69-.72-5.47-1.47-.88-3.5.98-5.21,2.1-.88.58-1.55,1.4-1.7,2.49-.36,2.56-.55,7.83-2.51,8.69-.74.32-1.54-.11-1.93-.55-.49-.54-.67-1.35-.48-2.1l1.26-5.17c.42-1.7-.22-3.22-1.71-4.1-1.41-.84-2.44-2.16-3.22-3.6l-2.81-5.2c-.43-.79-1.28-1.33-2.24-1.14l-7.02,1.4c-1.96.39-3.8.92-5.69,1.56-6.17,2.11-8.6-.57-10.64.68-2.59,1.58-5.11,3.03-7.54,4.86-1,.75-2.46,1.47-3.58.47-1.01-.9-.5-2.72.65-3.39l7.61-4.43c2.62-1.53-.14-4.42,2.69-10.04l2.93-5.82c.99-1.96,1.65-3.91,2.2-6.02.21-.81.92-1.41,1.58-1.48.74-.08,1.64.14,1.94.96.36,1,.12,2.11-.33,3.07l-4.92,10.5c-.97,2.08-2.79,7.17.86,7.73,1.85.29,3.77.1,5.56-.54,5.63-2.02,7.61-1.73,12.95-2.98,1.22-.28,1.93-1.14,2.26-2.29.69-2.38,1.34-4.7,1.89-7.11.48-2.14.37-4.08.1-6.24l-1.67-13.56c-.21-1.7-.18-3.41-1.02-4.91-1.56-2.8-3.26-5.44-5.04-8.07-3.24-4.78-6.62-3.37-7.47-5.81-.27-.79-.07-1.75.7-2.18,1.22-.68,2.41.04,3.51.69,8.07,4.75,5.65,5.78,10.38,11.66,1.55,1.93,2.18,4.09,2.4,6.56.44,4.93.76,9.74,1.65,14.59.39,2.13.69,4.02.33,6.18-.55,3.29-1.33,6.47-2.45,9.63-.37,1.05-.37,2.14.16,3.15l2.15,4.03c.94,1.77,2.1,3.42,3.73,4.61,1.95,1.42,5.97-1.66,6.26-3.22.78-4.23,1.38-8.41,1.67-12.71l.32-4.62c.08-1.22.97-1.86,2.12-1.84.82,0,1.94.98,1.76,2.12ZM398.74,137.04c.38-.78,1.3-.9,2.01-.8.8.11,1.45.75,1.67,1.66.71,2.85.75,5.72.76,8.67,0,4.92.74,9.79-3.1,13.25-1.96,1.76-3.25,4.02-3.69,6.68-.36,2.18-.72,4.34-.85,6.58-.13,2.22,1.72,6.52-.91,7.05-.85.17-2.19-.43-2.37-1.63-.72-4.9-.18-9.89,1.05-14.71,1.45-5.67,6.23-6.17,6.24-11.3l.02-8.75c0-3.19-1.74-4.87-.84-6.71ZM394.53,122.75c.72-.33,1.79-.34,2.32.42.48.69.45,1.61.31,2.43-.72,4.19-1.71,8.21-2.15,12.47-.21,2.11.44,4.11.45,6.19l.03,10.28c0,1.27-1.07,1.92-2.11,1.83-1.06-.09-1.83-1.11-1.67-2.35.92-7.03-.83-13.9-.02-18.48.65-3.66,1.61-7.07,1.67-10.85.01-.85.54-1.65,1.17-1.94ZM388.57,116.59c.79-3.14-.6-8.47,2.56-8.38,1.03.03,2.04.77,1.89,2.09-.45,4.1-.93,8.23-2.34,12.12-.97,2.65-1.57,5.07-1.36,7.94.05.71-.43,1.65-.89,1.92-.64.38-1.5.37-2.1-.11-.85-.68-1.24-1.74-.97-2.83l3.21-12.74ZM365.91,89.82c2.67,1.3,3.95,4.19,3.02,6.99-.61,1.86-.2,3.4.48,5.06,1.31,3.15,3.57,5.03,6.61,6.48l8.47,4.05c1.29.62,2.02,2.24,1.07,3.32-.71.81-2.22.82-3.12.19-2.5-1.77-5.08-3.03-7.92-4.19-3.86-1.56-6.83-4.36-8.24-8.43-.64-1.86-1.67-2.88-3.54-3.24-7.74-1.47-10.73-6.74-19.37-4.45-1.04.28-2.28-.58-2.47-1.43-.2-.91.27-2.17,1.44-2.35,10.22-1.54,11.51,1.32,19.7,4.49.8.31,2.04.86,2.78.19,1.22-1.13.35-2.95-.95-3.7-3.87-2.24-8.66-1.14-8.12-4.25.17-.98,1.3-1.82,2.51-1.52,2.65.65,5.2,1.6,7.66,2.79ZM346.68,83.92c5.75-.02,10.98-6.86,12.99-3.24.56,1,.09,2.29-1.15,2.81-1.6.66-3.29,1.17-4.81,2.09-5.38,3.27-9.82.75-14.03,4.29-3.59,3.02-7.11,5.87-11.06,8.56-1.06.72-2.21.52-2.89-.29-.59-.7-.59-2.42.45-3.01,3.72-2.09,7.08-4.51,10.36-7.3,2.9-2.47,6.31-3.88,10.15-3.9ZM319.16,92.24c4.29-6.5,7.86-5.61,11.79-9.3,1.64-1.54,3.5-2.62,5.36-3.87l2.46-1.66c.79-.53,1.88-.77,2.76-.26.73.42.88,1.27.78,2.08-.29,2.16-4.1,2.03-8.22,5.81-5.57,5.1-9.91,4.46-11.76,10.06-.43,1.31-2.18,2.15-3.16,1.28-1.24-1.1-.81-2.91,0-4.13ZM284.47,88.29c-1.12.35-2.28-.44-2.67-1.62-.75-2.26-1.51-4.32-3.13-6.13-.72-.81-.8-2.3-.07-3.08.97-1.03,2.6-.58,3.26.61,1.33,2.4,2.61,4.74,3.76,7.35.54,1.24-.18,2.56-1.14,2.87ZM285.1,77.46c.02-1.16.79-2.22,2.18-2.15,4.34.22,8.45,1.35,12.48,2.97,2.39.96,4.35,2.49,5.87,4.6,1.69,2.36,3.45,4.52,5.51,6.58,3.68,3.66,3.25,6.73,6.03,9.43,1.31,1.28,3.09,1.53,4.79,1.99,2.94.8,5.75,1.13,8.79.91,1.37-.1,2.42.93,2.38,2.12-.03,1.17-1,2.22-2.5,2.06-4.21-.45-8.18-1.27-12.18-2.27-6.17-1.54-6-7.78-10.68-12.4-1.67-1.65-3.13-3.36-4.46-5.31-1.47-2.16-3.44-3.81-5.91-4.75-1.93-.73-3.84-1.44-5.88-1.8-1.83-.33-6.45.69-6.41-2ZM295.94,90.29c-2.67-3.99-6.15-3.02-7.31-4.94-.39-.65-.47-1.64.06-2.2,1.08-1.14,2.59-.66,3.8.05,2.14,1.26,4.41,2.28,5.96,4.27,2.23,2.89,4.51,5.5,7.02,8.15,3.81,4.02,5.12,10.26,9.81,11.66,6.28,1.87,10.24-.23,10.55,2.9.1.97-.82,2.18-2.05,2.07-3.97-.35-12.14-1.02-14.47-4.44l-6.47-9.52c-2-2.94-4.89-5.03-6.89-8.02ZM301.55,104.93c1.54-.29,2.4.53,2.69,1.95l1.42,7.01c.17.86.81,1.6,1.41,1.97,2.85,1.73,5.68-4.12,7.85-.97,1.7,2.48-3.48,4.78-6.14,5.23-2.81.48-5.39-1.06-6.17-3.81l-2.45-8.61c-.37-1.31.36-2.58,1.39-2.77ZM265.93,103.69c.61-.36,1.37-.16,1.89.17,1.6,1.02.84,4.38,3,5.64,5.68,3.32,11.27,3.91,18.57,8.23.79.47,1.8.48,2.62.12,1.76-.76,2.46-3.86,1.07-5.99-.68-1.03-2-1.68-3.52-1.71-7.38-.12-8.94-.66-15.88-2.84-.75-.23-1.24-.86-1.37-1.46-.16-.74-.1-1.67.69-2.11.68-.38,1.77-.27,2.52.07,9.88,4.44,14.4.8,18.65,3.95,2.99,2.21,4.14,6.17,3,9.66-.71,2.17-4.13,2.94-3.22,5.38,1.17,3.1,5.02,2.42,8.47,3.22,2.46.57,4.29,2.32,4.85,4.82.49,2.18.89,4.4.89,6.63,0,1.06-1.15,1.83-1.98,1.78-.86-.05-1.81-1-1.74-2.02.11-1.5-.08-2.83-.38-4.29-.88-4.35-4.37-3.19-8.62-4.18-5.27-1.24-4.25-5.99-6.81-7.34-5.84-3.08-11.85-5.37-18-7.76-2.78-1.08-4.34-3.62-5.48-6.21-.6-1.37-.61-2.97.77-3.78ZM288.51,141.92c-2.71-.39-5.34-1.64-7.53-3.24-2.31-1.69-2.58-4.6-9.17-7.4-10.86-4.62-7.43-7.13-9.62-13.61-.32-.94-1.32-1.56-2.05-1.46-.96.12-1.62.85-1.73,1.85-.14,1.24.4,2.2,1.02,3.24.62,1.03.59,2.69-.58,3.32-.91.49-2.29-.24-2.74-1.23-.79-1.7-1.48-3.65-1.44-5.67.07-3.44,3.61-6.1,6.9-5.42,2.24.46,3.78,2.34,4.15,4.49l.89,5.28c.62,3.66,4.97,5.02,8.07,6.51,8.27,3.98,6.39,8.16,13.77,9.35,1.03.17,1.77,1.08,1.84,1.85.09.93-.55,2.32-1.78,2.14ZM289.79,134.99c-5.36-3.5-6.75-6.83-11.9-9.52-2.6-1.35-5.12-2.63-7.6-4.18-1.3-.82-1.69-2.68-.47-3.71.65-.55,1.88-.4,2.54.17,5.24,4.55,8.42,3.74,12.98,8.59,2.08,2.21,4.28,4.16,6.84,5.81,5.4,3.49,9.08,1.41,9.15,4.54.02.98-.7,2.34-2.01,2.12-3.41-.58-6.64-1.94-9.52-3.83ZM307.84,163.16c-2.84,1.18-2.76-3.36-5.83-5.89-4.6-3.8-8.84-2.95-8.16-5.9.27-1.19,1.51-2.1,2.82-1.5,2.94,1.33,5.66,3.05,8.17,5.09,2.02,1.64,6.01,6.95,3,8.2ZM310.67,152.17c-3.61-.03-6.52-2.03-8.14-5.15-.65-1.26-2.46-4.33-.79-5.63.41-.32.98-.47,1.63-.26.86.27,1.64,1.15,1.77,2.15.47,3.49,3.52,5.82,7.07,5.14,1.14-.22,2.31-.48,3.47-.33,1.09.14,1.89.99,1.89,1.97,0,2.79-4.01,2.14-6.91,2.12ZM322.27,182.89c-.63-3.1.52-5-1.43-6.84-4.05-3.83-2.72-9.4-1.73-14.4.63-3.19,1.37-6.27,1.83-9.46.42-2.91-.69-5.34-3.1-6.92-1.04-.68-1.83-2.3-.97-3.32,1.06-1.28,2.91-.62,3.79.51l2.47,3.19c1.64,2.12,1.95,4.7,1.34,7.37-1.07,4.7-2.16,9.31-2.78,14.1-.29,2.21.15,4.39,1.38,6.06.96,1.3,2.04,1.3,3.37.83,4.64-1.64,7.41-5.84,6.8-10.81-.11-.86.11-1.93.85-2.41.55-.36,1.18-.5,1.71-.29.48.19,1.09.76,1.14,1.48.47,6.87-2.16,12.74-8.93,15.21-1.61.59-2.72,1.73-2.42,3.6.92,5.73,2.16,11.32,3.53,16.97.77,3.19.14,6.8,2.5,9.56,2.05,2.39,5.59,2.48,7.6.24.79-.88,1.53-1.78,2.72-2.09.78-.21,1.52.54,1.81,1.04.43.74.3,1.81-.34,2.46-3.89,3.94-8.84,5.82-13.56,1.74-2.25-1.94-3.57-4.91-3.73-7.93-.13-2.43-.45-4.55-1.09-6.92-1.16-4.29-1.87-8.6-2.76-12.97Z"/><path class="cls-3" d="M300.07,194.57c-.21-.79-.8-1.39-1.4-1.51-.74-.14-1.34.13-1.89.63-2.91,2.71-1.45,7.08-3.22,10.74-.62,1.29-.93,2.49-.51,3.91.78,2.67.07,4.86,1.94,6.66,3.44,3.32,1.85,5.74,5.08,7.57,2.05,1.16,3.24,3.21,3.85,5.41,1.19.41,2.41.8,3.66,1.17.12-.74.2-1.5.29-2.29.3-2.63.38-7.33-3.1-7.84-2.22-.33-3.9-1.81-4.78-3.85-3.43-8.01,1.31-16.08.08-20.62Z"/><path class="cls-3" d="M294.4,221.14c-.54-1.95-2.1-5.24-4.42-4.09-.88.44-1.19,1.34-1.2,2.34,0,.48.08.92.2,1.34,1.34.9,2.73,1.75,4.19,2.55.89-.22,1.53-1.06,1.23-2.14Z"/><path class="cls-3" d="M411.33,225.06l-5.65,5.7c3.46-1.63,6.68-3.61,9.61-5.96-.39-.11-.77-.22-1.16-.33-.89-.25-2.15-.07-2.8.59Z"/><path class="cls-3" d="M348.59,234.87c-1.33-.91-2.79.13-4.18,1.09,1.68.2,3.37.39,5.05.56-.06-.69-.36-1.31-.87-1.66Z"/><path class="cls-3" d="M427.27,144.45c-.52-1.39-1.07-2.77-1.66-4.13-.57.37-.94.92-.98,1.76-.06,1.46,1.16,2.14,2.64,2.38Z"/><path class="cls-3" d="M298.77,226.01c-.47-.44-1.12-.76-1.75-.78.57.26,1.15.52,1.75.78Z"/></g></svg>