<?xml version="1.0" encoding="UTF-8"?><svg id="Layer_1" xmlns="http://www.w3.org/2000/svg" width="500" height="500" viewBox="0 0 500 500"><defs><style>.cls-1{stroke-width:4px;}.cls-1,.cls-2,.cls-3,.cls-4{fill:none;stroke-linecap:round;stroke-linejoin:round;}.cls-1,.cls-2,.cls-4{stroke:#b1835e;}.cls-2{stroke-dasharray:4.05 4.05;}.cls-2,.cls-3,.cls-4{stroke-width:2px;}.cls-3{stroke:#885b46;}.cls-5{fill:#b1835e;}.cls-4{stroke-dasharray:4.02 4.02;}</style></defs><path class="cls-5" d="M249.3,415.27c-3.44.35-8.41.6-8.41-3.58l-.06-43.25c-5.15-.29-22.07-.41-24.05-5.08-.88-6.84,9.48-11.47,15.08-12.8,9.6-2.28,19.58-2.57,29.29-.77,6,1.11,16.95,5.49,16.54,12.72-.58,5.19-20.35,5.5-24.85,5.86l-.04,42.93c0,1.99-1.41,3.75-3.52,3.96h.02ZM274.12,361.52c-5.68-12.87-48-11.81-53.69.41,2.78,1.27,5.48,1.73,8.38,2.02,10.55,1.05,35.35,1.78,45.32-2.42h-.01ZM249.15,411.21l-.03-41.78c-1.62-.42-3.01-.42-4.56-.02v41.95c1.51.46,3.06.67,4.59-.15h0Z"/><path class="cls-5" d="M444.36,366.43v5.1c-1.94,4.78-2.63,7.87-7.74,11.27l-39.8,26.45c-1.68,1.12-3.62,1-4.95,2.17h-6.04c-.16-.22-.4-.49-.9-.61-6.63-1.61-11.39-7.03-12.36-13.92-.99-7.05,3.27-12.85,9-16.63l35.15-23.22c3.83-2.53,7.92-4.9,12.47-4.31,7.34.95,13.01,5.77,14.58,12.79.11.48.38.74.6.9h-.01ZM404.8,399.3l29.83-19.74c5.84-3.87,7.48-11.32,3.83-17.12-3.46-5.51-11.07-7.88-16.9-4l-30.62,20.37c10.29,2.05,15.42,10.37,13.86,20.49h0ZM386.77,382.8c-7.28,1.31-11.57,8.03-10.2,14.73s7.71,11.04,14.47,9.8,11.28-7.59,10.05-14.45c-1.14-6.36-7.31-11.34-14.32-10.08h0Z"/><path class="cls-5" d="M415.86,387.99c-1.74,1.53-4.58,2.03-7.06,1.22-1.94-.64-3.99-3.14-3.75-5.57.29-3.08,2.9-4.77,5.24-6.21,5.51-3.39,10.47-4.55,12.07-9.51,1.27-3.93,5.18-6.7,9.28-5.82,4.23.91,5.47,5.22,4.85,8.98-.34,2.07-.88,2.96-2.02,4.51-1.3,1.75-1.96,2.89-4.28,3.65-1.47.48-2.81,1.72-4.67,1.63-5.12-.24-5.39,3.38-9.64,7.11h-.02Z"/><path class="cls-5" d="M398.47,379.09c-.59.4-1.34-.15-1.48-.42-.15-.3.13-.59.4-1.22l18.03-11.91c.47-.31,1.06-.14,1.26.09s.29,1.12-.14,1.41l-18.08,12.04h.01Z"/><path class="cls-5" d="M403.02,379.97c-.54.36-1.23-.12-1.38-.37-.16-.28-.02-.84.42-1.19l8.55-5.74c.51-.34.85-.26,1.12-.19.52.14.74,1.18.19,1.54l-8.91,5.95h.01Z"/><path class="cls-5" d="M386.31,387.25c4.6-1.42,9.1,1.16,10.35,5.46,1.25,4.28-1.01,8.98-5.73,10.28-3.93,1.09-8.49-.95-9.94-5.33-1.33-4,.56-8.95,5.32-10.42h0ZM388.13,388.8c-3.85.46-6.19,3.92-5.55,7.38.59,3.18,3.59,5.61,7.08,5.12,3.22-.45,5.88-3.52,5.41-7.03-.42-3.11-3.29-5.92-6.95-5.48h.01Z"/><path class="cls-5" d="M94.31,416.02c-6.09,2.08-12.72,1.29-18.53-.34-2.61-.73-3.75-2.83-3.98-5.32-.68-7.54.79-14.65,2.72-21.86,1.41-5.28,1.38-10.67,1.93-16.2-5.6-.82-22.91-1.12-20.6-9.72,2.12-7.9,10.28-12.69,17.89-14.38,7.9-1.76,16.04-1.93,23.95-.23,7.74,1.66,16.23,6.61,18.91,14.29,3.23,9.26-15.7,9.23-21.24,10.1.51,5.45.57,10.57,1.66,15.71,1.31,6.14,2.69,11.91,2.78,18.31.05,3.72-1.46,8.26-5.48,9.64h-.01ZM113.28,364.77c-1.16-7.04-9.92-11.81-16.44-13.17-11-2.29-29.22-1.65-36.1,9-.57.88-1.97,3.25-.98,4.07,6.62,5.5,45.08,5.75,53.51.1h.01ZM92.51,412.72c2.75-.78,3.61-3.94,3.57-6.35-.11-6.08-1.44-11.6-2.71-17.45-1.16-5.35-1.1-10.59-1.81-16.27l-11.42-.09c-.41,6.16-.89,11.52-1.95,17.19-2.2,6.54-3.16,13.27-2.75,20.18.06,1.1.66,2.05,1.77,2.34,4.86,1.27,10.17,1.92,15.3.46h0Z"/><path class="cls-1" d="M246.75,147.06v-50.25M235.17,131.61c-6.4,0-11.6-5.33-11.6-11.73-7.4-1.06-12.54-7.91-11.48-15.3.7-4.89,4-9.01,8.62-10.75-2.62-5.84,0-12.7,5.84-15.32,2.86-1.28,6.11-1.35,9.02-.2,1.69-6.18,8.07-9.82,14.25-8.13,3.96,1.08,7.05,4.18,8.13,8.14,5.95-2.36,12.69.55,15.05,6.5,1.16,2.91,1.08,6.16-.2,9.02,6.99,2.65,10.51,10.46,7.86,17.45-1.74,4.6-5.85,7.89-10.72,8.6,0,6.4-5.19,11.73-11.6,11.73M246.75,120.01l9.66-9.66M246.75,112.28l-9.66-9.66M239.02,147.06h15.46"/><line class="cls-2" x1="246.75" y1="176.41" x2="246.75" y2="328.41"/><line class="cls-3" x1="246.75" y1="330.44" x2="246.75" y2="332.44"/><path class="cls-4" d="M246.43,180.6c-3.32,29.29-31.89,45.84-71.56,65.97-46.57,23.63-85.55,41.96-88.36,76.22"/><path class="cls-3" d="M86.39,324.79c-.03.66-.04,1.32-.04,1.99"/><path class="cls-4" d="M247.08,179.91c3.32,29.37,31.89,46.53,71.56,66.66,46.57,23.63,85.55,41.32,88.36,75.52"/><path class="cls-3" d="M407.12,324.1c.03.66.04,1.32.04,2"/></svg>