<?xml version="1.0" encoding="UTF-8"?><svg id="Layer_1" xmlns="http://www.w3.org/2000/svg" width="500" height="500" xmlns:xlink="http://www.w3.org/1999/xlink" viewBox="0 0 500 500"><defs><style>.cls-1{mask:url(#mask);}.cls-2{filter:url(#luminosity-noclip);}.cls-3,.cls-4{fill:#e0cdbf;}.cls-5,.cls-6,.cls-7,.cls-8,.cls-9,.cls-4,.cls-10,.cls-11,.cls-12,.cls-13,.cls-14{stroke:#b1835e;}.cls-5,.cls-6,.cls-8,.cls-9,.cls-10,.cls-11,.cls-12,.cls-13,.cls-14{stroke-width:1.5px;}.cls-5,.cls-6,.cls-9,.cls-12,.cls-14{fill:none;}.cls-5,.cls-7,.cls-8,.cls-4,.cls-10,.cls-11,.cls-13{stroke-miterlimit:10;}.cls-6{stroke-dasharray:4.02 4.02;}.cls-6,.cls-9,.cls-12,.cls-14{stroke-linecap:round;stroke-linejoin:round;}.cls-15{fill:url(#linear-gradient);}.cls-7{fill:#c19c7e;}.cls-7,.cls-4{stroke-width:.75px;}.cls-16{fill:url(#linear-gradient-2);mix-blend-mode:screen;}.cls-17{fill:#fff;}.cls-18,.cls-13{fill:#ebded3;}.cls-8,.cls-19{fill:#b1835e;}.cls-9{stroke-dasharray:4.02 4.02;}.cls-10{fill:#d1b69f;}.cls-11{fill:#e9dbcf;}.cls-12{stroke-dasharray:4.05 4.05;}</style><filter id="luminosity-noclip" x="214.16" y="39.05" width="75.46" height="136.18" color-interpolation-filters="sRGB" filterUnits="userSpaceOnUse"><feFlood flood-color="#fff" result="bg"/><feBlend in="SourceGraphic" in2="bg"/></filter><linearGradient id="linear-gradient" x1="221.8" y1="81.63" x2="280.38" y2="81.63" gradientUnits="userSpaceOnUse"><stop offset="0" stop-color="#fff"/><stop offset="0" stop-color="#f5f5f5"/><stop offset="0" stop-color="#c7c7c7"/><stop offset="0" stop-color="#9c9c9c"/><stop offset="0" stop-color="#777"/><stop offset="0" stop-color="#565656"/><stop offset="0" stop-color="#3b3b3b"/><stop offset=".01" stop-color="#252525"/><stop offset=".01" stop-color="#141414"/><stop offset=".02" stop-color="#080808"/><stop offset=".02" stop-color="#010101"/><stop offset=".04" stop-color="#000"/><stop offset=".97" stop-color="#000"/><stop offset=".98" stop-color="#010101"/><stop offset=".99" stop-color="#080808"/><stop offset=".99" stop-color="#141414"/><stop offset=".99" stop-color="#252525"/><stop offset=".99" stop-color="#3b3b3b"/><stop offset=".99" stop-color="#565656"/><stop offset="1" stop-color="#777"/><stop offset="1" stop-color="#9c9c9c"/><stop offset="1" stop-color="#c7c7c7"/><stop offset="1" stop-color="#f5f5f5"/><stop offset="1" stop-color="#fff"/></linearGradient><linearGradient id="linear-gradient-2" x1="251.09" y1="39.05" x2="251.09" y2="124.42" gradientUnits="userSpaceOnUse"><stop offset="0" stop-color="#000"/><stop offset=".98" stop-color="#000"/><stop offset=".99" stop-color="#010101"/><stop offset=".99" stop-color="#080808"/><stop offset=".99" stop-color="#141414"/><stop offset=".99" stop-color="#252525"/><stop offset=".99" stop-color="#3b3b3b"/><stop offset="1" stop-color="#565656"/><stop offset="1" stop-color="#777"/><stop offset="1" stop-color="#9c9c9c"/><stop offset="1" stop-color="#c7c7c7"/><stop offset="1" stop-color="#f5f5f5"/><stop offset="1" stop-color="#fff"/></linearGradient><mask id="mask" x="214.16" y="39.05" width="75.46" height="136.18" maskUnits="userSpaceOnUse"><g class="cls-2"><rect class="cls-17" x="214.44" y="39.05" width="74.77" height="125.62"/><rect class="cls-15" x="221.8" y="39.05" width="58.57" height="85.15"/><rect class="cls-16" x="221.95" y="39.05" width="58.28" height="85.37"/></g></mask></defs><g id="Generative_Object"><g class="cls-1"><g id="Expanded_Art"><path class="cls-7" d="M232.7,174.86c-1.31-.53-1.11-3.36-.98-4.6.55-5.28,4.53-8.24,6.74-12.39.99-1.86,1.46-4.37,2.82-6.13-1.86.27-5.53.05-6.62,1.96l-2.45,4.29c-.44.77-1.93,1.01-2.33.12-.37-.83,2.9-6.07,3.74-6.81,2.95-2.61,7.05-.84,11.15-4.54,1.87-1.69,3.56-6.03,6.37-2.82,2.79-3.32,4.55,1.32,6.37,2.94,4.16,3.7,9.76,1.65,12.2,5.7l2.57,4.29c.88,1.47-1.31,2.84-2.57.61l-2.08-3.68c-1.16-2.04-4.59-1.91-6.62-2.09,1.38,1.87,1.85,4.42,2.94,6.38,2.59,4.67,6.92,7.76,6.74,13.98-.03.98-.11,2.29-1.1,2.76h-.61c-1.49-.82-.67-3.08-.86-4.6-.09-.77-3.2-7.94-3.68-6.99-.09,1.3.08,5.28-2.02,4.85-1.47-.3-.46-2.49-.43-3.37.28-7.81-2.66-11.35-7.23-16.93-.58-.71-1.83-3.82-2.21-1.59-.17,1.02,2.3,10.65,2.94,11.41l3.8,4.54c1.13,1.35-.85,2.84-1.53,2.02l-4.41-5.27c-1.24,2.69-3.45,4.96-2.51,8.16.38,1.29,2.8,3.36,1.41,4.35-1.18.84-2.35-.87-2.88-1.78-4.48-7.65,5.33-11.08,1.65-18.58-.23,4.23-3.25,6.98-4.96,10.37s-1.68,5.74.37,8.96c.63.99,2.48,2.24,1.84,3.56-1.02,2.09-3.77-1.94-4.29-2.82-5.39-9.17,4.11-12.94,4.66-21.1.08-1.15,0-2.36-.18-3.5-3.84,4.26-8.07,9.74-8.27,15.76-.05,1.4,1.29,5.71-.55,5.83s-1.78-3.63-1.78-4.85c-1.56,1.48-3.42,4.88-3.68,7.11-.17,1.5.6,3.6-.86,4.48h-.61Z"/><path class="cls-7" d="M244.89,134.2c.18.22-1.31,4.57-2.75,6.98-1.3,2.18-3.61,2.52-5.7,3.5-2.03-1.3-13.56-3.09-14.53-1.04-.23.48-.06,1.8.43,1.78l6.25-.25c.79-.03,2.56.53,3.37.8-1.53,1.33-3.61.34-5.45.67l-2.7.49c-4.39.8-11.35,6.23-8.7,11.41,1.76-5.69,7.12-9.56,13.05-9.51-2.4,2.52-2.1,6.97-3.92,9.57l-1.72,2.45c-.89,1.27-4.78,3.35-4.29,4.78.95,2.76,6.19-3.19,6.99-4.29,2.29-3.17,2.16-5.19,3.43-8.46,3.41-8.76,17.08-1.89,18.97-20.69"/><path class="cls-7" d="M254.96,133.91c.96,5.13,2.01,7.37,3.73,9.42,4.5,5.35,12.1,2.03,15.08,10.24,1.72,4.74,1.62,6.97,5.7,10.73.77.71,4.07,3.75,4.6,1.41.29-1.31-1.79-2.19-2.64-3.01-1.74-1.68-3.49-3.65-4.35-5.95-.97-2.59-1.08-5.45-3-7.79,5.79.19,10.35,3.26,12.69,8.53.47,1.06.95,5.07,2.45,2.64v-2.58c-1.78-6.48-7.9-10.49-14.4-11.04-1.64-.14-3.18.58-4.47-.55,3.01-1.12,8.3-1.16,11.22.18l3.19,1.47c.8.37,4.09,1.45,4.35.55.7-2.41-1.24-1.96-2.64-2.51-5.47-2.17-8.19-3.59-14.46-2.7-4.16.59-6.34,3.35-10.17.12-2.4-2.03-3.67-5.76-4.35-7.91"/></g></g></g><path class="cls-4" d="M261.57,136.31c-1.35,0-2.75-.33-4.18-1-2.26-1.04-4.19-2.71-5.35-3.71-.64-.55-1.13-.87-1.75-.91-.62.04-1.11.36-1.75.91-.96.83-2.57,2.22-4.42,3.24-2.4,1.32-4.7,1.75-6.83,1.28-2.16-.48-3.39-1.91-4.38-3.05-.34-.39-.65-.76-.97-1.04-.29-.27-.61-.46-.97-.61-.62-.25-1.37-.43-2.16-.52l-2.21.06-1.47.21s-.02,0-.04,0c-8.76,1.27-10.51,1.49-11.23,1.36h-.03c-1.68-.24-2.33-1.17-2.58-1.91-.53-1.57-.18-4.35,7.33-11.98,1.8-1.83,3.34-3.81,4.34-5.3-.21.07-.44.14-.67.21l-.11.03c-5.04,1.54-8.21,2.1-9.52.38-1.19-1.55.07-3.52.82-4.69,1.09-1.71,3.04-4.29,5.98-8.19l.34-.46c2.56-3.39,7-9.05,6.17-8.65-.55.15-1.18.37-1.65.53-2.09.71-4.07,1.39-5.2.04-1.1-1.3-.03-2.96.42-3.67.66-1.03,1.72-2.39,3.18-4.27.61-.79,1.31-1.68,2.06-2.66,3.2-4.17,4.67-6.34,5.3-7.45-.62.15-1.39.4-1.93.57-2.23.72-4.15,1.34-5.23-.03-.97-1.23-.07-2.79.23-3.3.45-.78,1.15-1.71,2.14-2.87,1.73-2.01,3.97-4.26,5.77-6.06,1.09-1.09,2.01-2.14,2.77-3.07.06-.07,0-.17-.1-.15-1.42.23-2.79.17-3.57-.8-1.24-1.55-.08-3.88,4-8.04.6-.61,1.18-1.19,1.74-1.75,1.62-1.61,3.15-3.14,4.66-5.01,1.73-2.14,3.69-6.18,5.59-10.09.37-.76.74-1.52,1.1-2.25.04-.09.09-.18.12-.27.51-1.16,1.64-1.87,2.95-1.87h0c1.3,0,2.43.72,2.94,1.87.04.08.08.17.12.26.36.74.73,1.49,1.09,2.25,1.9,3.92,3.86,7.97,5.59,10.11,1.51,1.88,3.05,3.4,4.67,5.02.56.56,1.14,1.13,1.73,1.74,4.08,4.16,5.24,6.49,4,8.04-.78.97-2.16,1-3.64.72-.09-.02-.16.08-.1.15.79.97,1.75,2.05,2.84,3.15,1.8,1.81,4.04,4.05,5.77,6.07.99,1.16,1.69,2.1,2.14,2.87.3.51,1.2,2.07.23,3.3-1.08,1.37-3,.75-5.23.03-.54-.18-1.31-.42-1.93-.57.62,1.11,2.1,3.28,5.3,7.45.75.98,1.45,1.87,2.06,2.66,1.46,1.88,2.52,3.24,3.18,4.27.45.71,1.52,2.37.42,3.67-1.13,1.34-3.11.67-5.2-.04-.46-.16-1.1-.38-1.65-.53.98,1.77,3.61,5.26,6.17,8.65l.34.46c2.94,3.9,4.89,6.47,5.98,8.19.75,1.18,2,3.14.82,4.69-1.31,1.72-4.48,1.16-9.52-.38l-.11-.03c-.24-.07-.46-.14-.67-.21,1,1.49,2.54,3.47,4.34,5.3,7.05,7.16,7.68,9.77,7.36,11.39-.28,1.42-1.42,1.96-1.91,2.17-.71.68-2.04.62-4.64.33-2.28-.25-5.47-.73-7.99-1.11-.86-.13-1.73-.27-2.62-.41-.96-.03-1.81.1-2.53.39-.36.14-.67.34-.97.61-.31.28-.63.65-.96,1.04-.99,1.15-2.22,2.57-4.38,3.05-.56.13-1.14.19-1.72.19Z"/><path class="cls-3" d="M214.36,129.61s.04,0,.06.01c-.02,0-.04,0-.06-.01Z"/><path class="cls-4" d="M266.51,59.46c-.8-.2-3.52-1.13-4.3-1.38l-1.08-.34c-.52-.16-1.08-.08-1.53.23-.45.31-.73.81-.76,1.35l-.09,1.63c-.06,1.12-.74,2.07-1.78,2.49-1.04.42-2.19.2-3.01-.56-.04-.04-.08-.08-.11-.12l-1.49-1.73c-.6-.7-1.45-1.11-2.37-1.14-.92-.04-1.8.31-2.45.96l-2.23,2.22s-.09.08-.14.12c-.51.4-1.13.61-1.75.61-.44,0-.88-.1-1.29-.31-.99-.5-1.59-1.51-1.56-2.62"/><path class="cls-4" d="M248.71,74.24c-.05.08-1.22,1.86-2.97,3.38-1.94,1.68-3.64,2.23-5.05,2.23-.98,0-1.82-.27-2.48-.62-1.09-.57-1.92-1.51-2.34-2.64-.6-1.64-2.36-3.27-5.83-2.08"/><path class="cls-4" d="M264.21,76.59c-.42,1.14-1.25,2.08-2.34,2.64-.66.35-1.5.62-2.48.62-1.4,0-3.11-.55-5.05-2.23-1.75-1.52-2.92-3.3-2.97-3.38"/><path class="cls-4" d="M262.75,98.16c-4.81,1.57-8.87-3.54-11.04-6.28-.46-.58-.95-1.12-1.41-1.19-.46.07-.95.61-1.41,1.19-1.9,2.39-5.22,6.57-9.23,6.57-.59,0-1.2-.09-1.82-.29-2.12-.69-3.28-2.64-4.21-4.21-.33-.55-.63-1.07-.94-1.48-.28-.37-.58-.65-.9-.84"/><path class="cls-4" d="M275.47,92.26c-.77-.28-.36-.07-1.11-.39-1.04-.44-3.98-1.17-5.55-.24-.32.19-.63.47-.9.84-.29.39-.74.59-1.19.59-.31,0-.63-.1-.9-.3"/><path class="cls-4" d="M251.88,112.48c-.58-.68-1.08-1.15-1.59-1.21-.51.06-1.01.53-1.59,1.21-1.99,2.35-5.49,6.47-9.66,6.47-.61,0-1.23-.09-1.86-.28-2.21-.67-3.43-2.6-4.4-4.15-.34-.54-.67-1.06-1-1.46-.3-.37-.62-.65-.97-.85-1.72-.95-3.87-.34-5.01.1-.76.3-3.57,1.3-4.37,1.49"/><path class="cls-4" d="M277.89,113.44c-.79-.23-2.34-.82-3.1-1.12-1.13-.45-3.28-1.05-5.01-.1-.35.2-.67.47-.97.85-.33.41-.65.92-1,1.46-.98,1.55-2.2,3.47-4.4,4.15-.14.04-.29.07-.43.07-.64,0-1.23-.41-1.42-1.06"/><line class="cls-14" x1="252.84" y1="182.83" x2="252.84" y2="184.83"/><line class="cls-12" x1="252.84" y1="188.88" x2="252.84" y2="340.88"/><line class="cls-14" x1="252.84" y1="342.91" x2="252.84" y2="344.91"/><path class="cls-14" d="M252.84,187.07c0,.67,0,1.34-.03,2"/><path class="cls-9" d="M252.52,193.08c-3.32,29.29-31.89,45.84-71.56,65.97-46.57,23.63-85.55,41.96-88.36,76.22"/><path class="cls-14" d="M92.48,337.27c-.03.66-.04,1.32-.04,1.99"/><path class="cls-14" d="M252.84,186.38c0,.67,0,1.34.03,2"/><path class="cls-6" d="M253.17,192.39c3.32,29.37,31.89,46.53,71.56,66.66,46.57,23.63,85.55,41.32,88.36,75.52"/><path class="cls-14" d="M413.21,336.58c.03.66.04,1.32.04,2"/><path class="cls-13" d="M257.3,378.64v44.91c-.01,1.72-1.41,3.12-3.14,3.12h-2.66c-1.72,0-3.12-1.4-3.12-3.12v-44.91"/><path class="cls-10" d="M223.54,374.48c-.46-3,14.8-11.07,29.31-11.25,14.35-.18,29.69,8.25,29.31,11.25-.72,5.65-57.75,5.63-58.62,0Z"/><path class="cls-11" d="M100.46,382.95c0,28.34,16.03,45.41-8.03,45.4-24.06,0-8.08-17.06-8.08-45.4"/><path class="cls-8" d="M63.64,377.78c-.45-4.05,5.16-16.21,28.74-16.24,23.34-.02,29.12,12.19,28.74,16.24-.7,7.61-56.64,7.58-57.49,0Z"/><path class="cls-18" d="M378.49,405.6c.49,1.59-.28,4,.96,5.22,1.11,1.09,3.63.43,5.25,1.21,1.41.68,2.3,3.11,4.03,3.55,1.54.39,3.54-1.28,5.29-1.09,1.59.18,3.15,2.26,4.89,2.27,1.62,0,3.21-2.06,4.93-2.2,1.62-.14,3.53,1.64,5.22,1.37s2.87-2.55,4.53-2.94,3.74,1.12,5.37.62,2.56-2.93,4.1-3.52,3.91.58,5.4-.11,2.14-3.26,3.56-4.06c1.5-.84,3.98-.03,5.32-.94,1.44-.98,1.56-3.58,2.78-4.62,1.34-1.14,3.94-.88,4.99-2.07,1.19-1.33.57-3.85,1.35-5.2.9-1.56,3.37-2.42,3.67-3.95.34-1.7-1.65-3.27-2.13-4.86s.28-4-.96-5.22c-1.11-1.09-3.63-.43-5.25-1.21-1.41-.68-2.3-3.11-4.03-3.55-1.54-.39-3.54,1.28-5.29,1.09-1.59-.18-3.15-2.26-4.89-2.27-1.62,0-3.21,2.06-4.93,2.2-1.62.14-3.53-1.64-5.22-1.37s-2.87,2.55-4.53,2.94-3.74-1.12-5.37-.62-2.56,2.93-4.1,3.52-3.91-.58-5.4.11-2.14,3.26-3.56,4.06c-1.5.84-3.98.03-5.32.94-1.44.98-1.56,3.58-2.78,4.62-1.34,1.14-3.94.88-4.99,2.07-1.19,1.33-.57,3.85-1.35,5.2-.9,1.56-3.37,2.42-3.67,3.95-.34,1.7,1.65,3.27,2.13,4.86Z"/><path class="cls-5" d="M378.49,405.6c.49,1.59-.28,4,.96,5.22,1.11,1.09,3.63.43,5.25,1.21,1.41.68,2.3,3.11,4.03,3.55,1.54.39,3.54-1.28,5.29-1.09,1.59.18,3.15,2.26,4.89,2.27,1.62,0,3.21-2.06,4.93-2.2,1.62-.14,3.53,1.64,5.22,1.37s2.87-2.55,4.53-2.94,3.74,1.12,5.37.62,2.56-2.93,4.1-3.52,3.91.58,5.4-.11,2.14-3.26,3.56-4.06c1.5-.84,3.98-.03,5.32-.94,1.44-.98,1.56-3.58,2.78-4.62,1.34-1.14,3.94-.88,4.99-2.07,1.19-1.33.57-3.85,1.35-5.2.9-1.56,3.37-2.42,3.67-3.95.34-1.7-1.65-3.27-2.13-4.86s.28-4-.96-5.22c-1.11-1.09-3.63-.43-5.25-1.21-1.41-.68-2.3-3.11-4.03-3.55-1.54-.39-3.54,1.28-5.29,1.09-1.59-.18-3.15-2.26-4.89-2.27-1.62,0-3.21,2.06-4.93,2.2-1.62.14-3.53-1.64-5.22-1.37s-2.87,2.55-4.53,2.94-3.74-1.12-5.37-.62-2.56,2.93-4.1,3.52-3.91-.58-5.4.11-2.14,3.26-3.56,4.06c-1.5.84-3.98.03-5.32.94-1.44.98-1.56,3.58-2.78,4.62-1.34,1.14-3.94.88-4.99,2.07-1.19,1.33-.57,3.85-1.35,5.2-.9,1.56-3.37,2.42-3.67,3.95-.34,1.7,1.65,3.27,2.13,4.86Z"/><path class="cls-19" d="M395.79,402.92c1.34-.99,2.9.46,4.23-.07,1.52-.53,1.28-2.47,2.76-3.29.59-.37,1.2-.57,1.94-.59,1.15-.05,1.99.73,2.89.79,1.5.05,1.66-1.41,2.66-2.37.5-.46,1.12-.72,1.72-.81,1.18-.26,2.21.53,3.11,1.01.41.19.91.27,1.42.19-.43.27-.99.41-1.56.35-.56-.05-1.06-.28-1.5-.35-.77-.19-1.62.14-2.07.7-.52.78-.83,2.06-1.86,2.66-1.03.77-2.79.72-3.79.13-.82-.39-1.24-.44-1.98-.1-.81.42-.91,1.42-1.72,2.12-.95.89-2.41,1.11-3.52.55-.96-.52-1.61-1.12-2.73-.93h0Z"/><path class="cls-19" d="M408.28,388.61c1.34-.99,2.9.46,4.23-.07,1.52-.53,1.28-2.47,2.76-3.29.59-.37,1.2-.57,1.94-.59,1.15-.05,1.99.73,2.89.79,1.5.05,1.66-1.41,2.66-2.37.5-.46,1.12-.72,1.72-.81,1.18-.26,2.21.53,3.11,1.01.41.19.91.27,1.42.19-.43.27-.99.41-1.56.35-.56-.05-1.06-.28-1.5-.35-.77-.19-1.62.14-2.07.7-.52.78-.83,2.06-1.86,2.66-1.03.77-2.79.72-3.79.13-.82-.39-1.24-.44-1.98-.1-.81.42-.91,1.42-1.72,2.12-.95.89-2.41,1.11-3.52.55-.96-.52-1.61-1.12-2.73-.93h0Z"/></svg>