<?xml version="1.0" encoding="UTF-8"?><svg id="Layer_1" xmlns="http://www.w3.org/2000/svg" width="500" height="500" viewBox="0 0 500 500"><defs><style>.cls-1{stroke-dasharray:4.02 4.02;}.cls-1,.cls-2,.cls-3,.cls-4{stroke-linecap:round;stroke-linejoin:round;}.cls-1,.cls-2,.cls-3,.cls-4,.cls-5{fill:none;stroke:#b1835e;}.cls-2{stroke-dasharray:4.02 4.02;}.cls-3{stroke-dasharray:4.05 4.05;}.cls-6{fill:#b1835e;}.cls-5{stroke-miterlimit:10;}</style></defs><path class="cls-4" d="M256.13,144.99v-50.25M244.54,129.54c-6.4,0-11.6-5.33-11.6-11.73-7.4-1.06-12.54-7.91-11.48-15.3.7-4.89,4-9.01,8.62-10.75-2.62-5.84,0-12.7,5.84-15.32,2.86-1.28,6.11-1.35,9.02-.2,1.69-6.18,8.07-9.82,14.25-8.13,3.96,1.08,7.05,4.18,8.13,8.14,5.95-2.36,12.69.55,15.05,6.5,1.16,2.91,1.08,6.16-.2,9.02,6.99,2.65,10.51,10.46,7.86,17.45-1.74,4.6-5.85,7.89-10.72,8.6,0,6.4-5.19,11.73-11.6,11.73M256.13,117.94l9.66-9.66M256.13,110.21l-9.66-9.66M248.4,144.99h15.46"/><line class="cls-4" x1="256.13" y1="168.29" x2="256.13" y2="170.29"/><line class="cls-3" x1="256.13" y1="174.34" x2="256.13" y2="326.34"/><line class="cls-4" x1="256.13" y1="328.37" x2="256.13" y2="330.37"/><path class="cls-4" d="M256.13,172.53c0,.67,0,1.34-.03,2"/><path class="cls-2" d="M255.8,178.53c-3.32,29.29-31.89,45.84-71.56,65.97-46.57,23.63-85.55,41.96-88.36,76.22"/><path class="cls-4" d="M95.76,322.72c-.03.66-.04,1.32-.04,1.99"/><path class="cls-4" d="M256.13,171.83c0,.67,0,1.34.03,2"/><path class="cls-1" d="M256.45,177.84c3.32,29.37,31.89,46.53,71.56,66.66,46.57,23.63,85.55,41.32,88.36,75.52"/><path class="cls-4" d="M416.49,322.03c.03.66.04,1.32.04,2"/><path class="cls-5" d="M226.82,359.94c-.46-3,14.8-11.07,29.31-11.25,14.35-.18,29.69,8.25,29.31,11.25-.72,5.65-57.75,5.63-58.62,0Z"/><path class="cls-5" d="M260.59,364.1v44.91c-.01,1.72-1.41,3.12-3.14,3.12h-2.66c-1.72,0-3.12-1.4-3.12-3.12v-44.91"/><path class="cls-5" d="M66.93,363.23c-.45-4.05,5.16-16.21,28.74-16.24,23.34-.02,29.12,12.19,28.74,16.24-.7,7.61-56.64,7.58-57.49,0Z"/><path class="cls-5" d="M103.75,368.41c0,28.34,16.03,45.41-8.03,45.4-24.06,0-8.08-17.06-8.08-45.4"/><path class="cls-5" d="M381.77,391.06c.49,1.59-.28,4,.96,5.22,1.11,1.09,3.63.43,5.25,1.21,1.41.68,2.3,3.11,4.03,3.55,1.54.39,3.54-1.28,5.29-1.09,1.59.18,3.15,2.26,4.89,2.27,1.62,0,3.21-2.06,4.93-2.2,1.62-.14,3.53,1.64,5.22,1.37s2.87-2.55,4.53-2.94,3.74,1.12,5.37.62,2.56-2.93,4.1-3.52,3.91.58,5.4-.11,2.14-3.26,3.56-4.06c1.5-.84,3.98-.03,5.32-.94,1.44-.98,1.56-3.58,2.78-4.62,1.34-1.14,3.94-.88,4.99-2.07,1.19-1.33.57-3.85,1.35-5.2.9-1.56,3.37-2.42,3.67-3.95.34-1.7-1.65-3.27-2.13-4.86s.28-4-.96-5.22c-1.11-1.09-3.63-.43-5.25-1.21-1.41-.68-2.3-3.11-4.03-3.55-1.54-.39-3.54,1.28-5.29,1.09-1.59-.18-3.15-2.26-4.89-2.27-1.62,0-3.21,2.06-4.93,2.2-1.62.14-3.53-1.64-5.22-1.37s-2.87,2.55-4.53,2.94-3.74-1.12-5.37-.62-2.56,2.93-4.1,3.52-3.91-.58-5.4.11-2.14,3.26-3.56,4.06c-1.5.84-3.98.03-5.32.94-1.44.98-1.56,3.58-2.78,4.62-1.34,1.14-3.94.88-4.99,2.07-1.19,1.33-.57,3.85-1.35,5.2-.9,1.56-3.37,2.42-3.67,3.95-.34,1.7,1.65,3.27,2.13,4.86Z"/><path class="cls-6" d="M399.07,388.38c1.42-.84,2.89.72,4.3.25,1.66-.38,1.54-2.38,2.93-3.2.51-.31,1.07-.49,1.69-.5,1.09-.04,1.93.77,2.89.79.85-.01,1.62-.45,2.04-1.26.24-.41.47-.93.91-1.33.83-.8,2.13-1.05,3.16-.58.93.46,1.75,1,2.81.7-.93.53-2.08.06-2.98-.24-1.46-.45-2.64.53-3.13,1.87-.46,1.05-1.61,1.82-2.81,1.82-1.51,0-2.65-1.41-4.08-.47-.87.47-1,1.55-1.76,2.26-.83.8-2.12,1.06-3.15.59-.93-.46-1.75-1.01-2.81-.7h0Z"/><path class="cls-6" d="M411.56,374.06c1.42-.84,2.89.72,4.3.25,1.66-.38,1.54-2.38,2.93-3.2.51-.31,1.07-.49,1.69-.5,1.09-.04,1.93.77,2.89.79.85-.01,1.62-.45,2.04-1.26.24-.41.47-.93.91-1.33.83-.8,2.13-1.05,3.16-.58.93.46,1.75,1,2.81.7-.93.53-2.08.06-2.98-.24-1.46-.45-2.64.53-3.13,1.87-.46,1.05-1.61,1.82-2.81,1.82-1.51,0-2.65-1.41-4.08-.47-.87.47-1,1.55-1.76,2.26-.83.8-2.12,1.06-3.15.59-.93-.46-1.75-1.01-2.81-.7h0Z"/></svg>