<?xml version="1.0" encoding="UTF-8"?><svg id="Layer_1" xmlns="http://www.w3.org/2000/svg" width="1366" height="768" viewBox="0 0 1366 768"><defs><style>.cls-1{stroke-dasharray:3.96 3.96;}.cls-1,.cls-2,.cls-3,.cls-4,.cls-5,.cls-6,.cls-7,.cls-8,.cls-9,.cls-10,.cls-11,.cls-12,.cls-13,.cls-14,.cls-15,.cls-16,.cls-17,.cls-18,.cls-19,.cls-20,.cls-21{stroke:#b1835e;}.cls-1,.cls-2,.cls-3,.cls-4,.cls-5,.cls-6,.cls-8,.cls-9,.cls-10,.cls-11,.cls-12,.cls-13,.cls-14,.cls-15,.cls-22,.cls-23,.cls-16,.cls-17,.cls-24,.cls-18,.cls-19,.cls-20,.cls-21{stroke-width:1.5px;}.cls-1,.cls-2,.cls-3,.cls-4,.cls-5,.cls-9,.cls-12,.cls-13,.cls-15,.cls-22,.cls-23,.cls-17,.cls-18,.cls-19,.cls-21{fill:none;}.cls-1,.cls-2,.cls-4,.cls-5,.cls-9,.cls-11,.cls-12,.cls-13,.cls-15,.cls-17,.cls-24,.cls-18,.cls-19,.cls-21{stroke-linecap:round;}.cls-1,.cls-2,.cls-4,.cls-6,.cls-9,.cls-10,.cls-14,.cls-15,.cls-17,.cls-18,.cls-19,.cls-21{stroke-linejoin:round;}.cls-2{stroke-dasharray:4.05 4.05;}.cls-3,.cls-5,.cls-7,.cls-8,.cls-12,.cls-13,.cls-22,.cls-23,.cls-16,.cls-20{stroke-miterlimit:10;}.cls-4{stroke-dasharray:3.94 3.94;}.cls-5{stroke-dasharray:4.01 4.01;}.cls-6{fill:#d0b59e;}.cls-7,.cls-25{fill:#b1835e;}.cls-8,.cls-10,.cls-11,.cls-26,.cls-24{fill:#e6d7cb;}.cls-9{stroke-dasharray:3.95 3.95;}.cls-11,.cls-24{stroke-miterlimit:1.25;}.cls-12{stroke-dasharray:3.8 3.8;}.cls-27{letter-spacing:0em;}.cls-14,.cls-28{fill:#c19c7e;}.cls-15{stroke-dasharray:4.03 4.03;}.cls-22,.cls-24{stroke:#8c6239;}.cls-23{stroke:#d0b59e;}.cls-28{font-family:PublicSansRoman-Regular, &apos;Public Sans&apos;;font-size:21.8px;font-variation-settings:&apos;wght&apos; 400;}.cls-29{fill:#8c6239;}.cls-16{fill:#d1b69f;}.cls-17{stroke-dasharray:3.83 3.83;}.cls-30{letter-spacing:-.06em;}.cls-31{letter-spacing:-.11em;}.cls-32{letter-spacing:-.02em;}.cls-33{letter-spacing:-.02em;}.cls-34{letter-spacing:-.02em;}.cls-35{letter-spacing:-.02em;}.cls-36{letter-spacing:-.03em;}.cls-37{letter-spacing:0em;}.cls-38{letter-spacing:0em;}.cls-18{stroke-dasharray:4.02 4.02;}.cls-19{stroke-dasharray:3.95 3.95;}.cls-39{letter-spacing:.02em;}.cls-20{fill:#ebded3;}.cls-40{letter-spacing:0em;}.cls-41{letter-spacing:0em;}.cls-42{letter-spacing:0em;}.cls-43{letter-spacing:0em;}</style></defs><path class="cls-8" d="M874.98,396.5l-49.13,3.55c-15.72,0-31.41-11.25-31.41-24.99h0c0-13.75,15.69-24.99,31.41-24.99l49.13,3.55c20.6,0,28.76,12.22,28.76,21.44h0c0,9.23-8.16,21.44-28.76,21.44Z"/><line class="cls-3" x1="874.98" y1="400.65" x2="874.98" y2="396.5"/><line class="cls-3" x1="888.82" y1="398.62" x2="887.48" y2="394.68"/><line class="cls-3" x1="901.35" y1="390.98" x2="898.22" y2="388.13"/><line class="cls-3" x1="907.92" y1="377.3" x2="903.64" y2="376.85"/><line class="cls-3" x1="904.1" y1="362.55" x2="900.51" y2="364.85"/><line class="cls-3" x1="892.73" y1="353.02" x2="890.89" y2="356.78"/><line class="cls-3" x1="878.97" y1="349.61" x2="878.64" y2="353.75"/><line class="cls-3" x1="866.27" y1="348.82" x2="865.96" y2="352.96"/><line class="cls-3" x1="853.66" y1="347.91" x2="853.35" y2="352.05"/><line class="cls-3" x1="840.92" y1="346.99" x2="840.61" y2="351.13"/><line class="cls-3" x1="828.27" y1="346.08" x2="827.96" y2="350.22"/><line class="cls-3" x1="814.21" y1="347.69" x2="815.48" y2="351.66"/><line class="cls-3" x1="801.58" y1="354.15" x2="804.22" y2="357.44"/><line class="cls-3" x1="792.32" y1="365.38" x2="796.24" y2="367.11"/><line class="cls-3" x1="790.82" y1="380.52" x2="795" y2="379.51"/><line class="cls-3" x1="798.46" y1="393.26" x2="801.49" y2="390.3"/><line class="cls-3" x1="810.36" y1="401.03" x2="812.03" y2="397.2"/><line class="cls-3" x1="824.13" y1="404.16" x2="824.33" y2="400.01"/><line class="cls-3" x1="837.28" y1="403.38" x2="836.97" y2="399.24"/><line class="cls-3" x1="850" y1="402.46" x2="849.69" y2="398.32"/><line class="cls-3" x1="862.66" y1="401.55" x2="862.35" y2="397.41"/><path class="cls-21" d="M370.45,372.05c.68,0,1.34.02,2,.06"/><path class="cls-9" d="M376.35,372.66c14.99,3.29,23.95,19.52,34.73,41.61,12.94,26.54,23.07,48.88,41.32,51.7"/><path class="cls-21" d="M454.37,466.2c.66.05,1.32.07,2,.07"/><path class="cls-21" d="M370.06,372.05c.68,0,1.34-.02,2-.06"/><path class="cls-1" d="M375.96,371.44c15.07-3.28,24.34-19.52,35.12-41.62,12.94-26.54,22.73-48.88,40.93-51.7"/><path class="cls-21" d="M453.98,277.9c.65-.05,1.32-.07,2-.07"/><path class="cls-21" d="M621.49,278.27c.67,0,1.34,0,2,0"/><path class="cls-18" d="M627.51,278.25c102.39-.73,159.49-21.86,227.03-51.74,77.8-34.42,135.51-63.08,251.04-63.73"/><path class="cls-21" d="M1107.59,162.78c.67,0,1.33,0,2,0"/><path class="cls-21" d="M998.21,385.18c.67,0,1.34.02,2,.06"/><path class="cls-19" d="M1004.11,385.74c24.21,4.86,38.06,40.69,54.86,90.24,19.82,58.43,35.22,107.41,63.76,111.54"/><path class="cls-21" d="M1124.7,587.74c.66.05,1.32.07,2,.07"/><path class="cls-21" d="M939.92,372.63c.69,0,1.36.01,2,.03"/><path class="cls-17" d="M945.74,372.96c6.02.76,10.09,2.73,14.87,5.29,6.13,3.29,11.02,6.09,19.15,6.77"/><path class="cls-21" d="M981.67,385.14c.65.03,1.31.04,2,.04"/><path class="cls-21" d="M939.92,372.63c.67,0,1.34,0,2-.03"/><path class="cls-2" d="M945.96,372.33c35.36-3.71,55.81-41.31,79.84-93.74,28.09-61.28,49.08-112.52,89.97-115.66"/><path class="cls-21" d="M1117.79,162.81c.66-.02,1.33-.04,2-.04"/><path class="cls-21" d="M985.52,385.16c.67,0,1.34,0,2-.01"/><path class="cls-15" d="M991.54,385.06c25.99-.96,41.31-8.31,59.24-18.5,21.13-12,36.97-22.05,67.42-22.86"/><path class="cls-21" d="M1120.22,343.66c.66,0,1.33-.01,2-.01"/><path class="cls-21" d="M707.41,372.05c-.68,0-1.34.02-2,.06"/><path class="cls-9" d="M701.5,372.66c-14.99,3.29-23.95,19.52-34.73,41.61-12.94,26.54-23.07,48.88-41.32,51.7"/><path class="cls-21" d="M623.49,466.2c-.66.05-1.32.07-2,.07"/><path class="cls-21" d="M707.8,372.05c-.68,0-1.34-.02-2-.06"/><path class="cls-4" d="M701.91,371.44c-14.99-3.27-24.22-19.43-34.94-41.42-12.88-26.41-22.62-48.64-40.73-51.46"/><path class="cls-21" d="M624.28,278.34c-.65-.05-1.32-.07-2-.07"/><path class="cls-26" d="M520.41,304.73c-11.64,0-21.11-9.47-21.11-21.11s9.47-21.11,21.11-21.11h49.56c11.64,0,21.11,9.47,21.11,21.11s-9.47,21.11-21.11,21.11h-49.56Z"/><path class="cls-25" d="M569.97,263.26c11.23,0,20.36,9.13,20.36,20.36s-9.13,20.36-20.36,20.36h-49.56c-11.23,0-20.36-9.13-20.36-20.36s9.13-20.36,20.36-20.36h49.56M569.97,261.76h-49.56c-12.02,0-21.86,9.84-21.86,21.86h0c0,12.02,9.84,21.86,21.86,21.86h49.56c12.02,0,21.86-9.84,21.86-21.86h0c0-12.02-9.84-21.86-21.86-21.86h0Z"/><line class="cls-3" x1="569.97" y1="254.71" x2="569.97" y2="261.76"/><line class="cls-3" x1="598.35" y1="290.33" x2="591.23" y2="288.68"/><line class="cls-3" x1="582.28" y1="309.83" x2="579.15" y2="303.44"/><line class="cls-3" x1="559.83" y1="312.53" x2="559.83" y2="305.48"/><line class="cls-3" x1="540.13" y1="312.53" x2="540.13" y2="305.48"/><line class="cls-3" x1="520.41" y1="312.53" x2="520.41" y2="305.48"/><line class="cls-3" x1="497.6" y1="301.59" x2="503.32" y2="297.22"/><line class="cls-3" x1="492.02" y1="276.91" x2="499.14" y2="278.56"/><line class="cls-3" x1="508.09" y1="257.41" x2="511.22" y2="263.8"/><line class="cls-3" x1="530.54" y1="254.71" x2="530.54" y2="261.76"/><line class="cls-3" x1="550.24" y1="254.71" x2="550.24" y2="261.76"/><line class="cls-3" x1="592.78" y1="265.65" x2="587.05" y2="270.03"/><path class="cls-3" d="M521.99,281.62c4.64,0,4.64,4,9.27,4s4.64-4,9.28-4,4.64,4,9.28,4,4.64-4,9.28-4,4.64,4,9.28,4"/><path class="cls-3" d="M500.49,275.2c-6.24-1.14-9.92-7.76-10.17-13.87-.25-6.11,1.97-12.03,3.14-18.05.81-4.17.95-8.92-1.9-12.14-2.52-2.84-6.85-3.7-10.64-2.94-3.79.75-7.14,2.88-10.17,5.2"/><path class="cls-25" d="M517.42,484.15c-11.64,0-21.11-9.47-21.11-21.11s9.47-21.11,21.11-21.11h49.56c11.64,0,21.11,9.47,21.11,21.11s-9.47,21.11-21.11,21.11h-49.56Z"/><path class="cls-29" d="M566.98,442.68c11.23,0,20.36,9.13,20.36,20.36s-9.13,20.36-20.36,20.36h-49.56c-11.23,0-20.36-9.13-20.36-20.36s9.13-20.36,20.36-20.36h49.56M566.98,441.18h-49.56c-12.02,0-21.86,9.84-21.86,21.86h0c0,12.02,9.84,21.86,21.86,21.86h49.56c12.02,0,21.86-9.84,21.86-21.86h0c0-12.02-9.84-21.86-21.86-21.86h0Z"/><line class="cls-22" x1="566.98" y1="434.13" x2="566.98" y2="441.18"/><line class="cls-25" x1="566.98" y1="434.13" x2="566.98" y2="441.18"/><line class="cls-22" x1="595.37" y1="469.75" x2="588.25" y2="468.1"/><line class="cls-25" x1="595.37" y1="469.75" x2="588.25" y2="468.1"/><line class="cls-22" x1="579.3" y1="489.26" x2="576.17" y2="482.86"/><line class="cls-25" x1="579.3" y1="489.26" x2="576.17" y2="482.86"/><line class="cls-22" x1="556.85" y1="491.95" x2="556.85" y2="484.9"/><line class="cls-22" x1="537.14" y1="491.95" x2="537.14" y2="484.9"/><line class="cls-22" x1="517.42" y1="491.95" x2="517.42" y2="484.9"/><line class="cls-22" x1="494.61" y1="481.01" x2="500.34" y2="476.64"/><line class="cls-25" x1="494.61" y1="481.01" x2="500.34" y2="476.64"/><line class="cls-22" x1="489.04" y1="456.34" x2="496.16" y2="457.98"/><line class="cls-25" x1="489.04" y1="456.34" x2="496.16" y2="457.98"/><line class="cls-22" x1="505.1" y1="436.83" x2="508.24" y2="443.22"/><line class="cls-25" x1="505.1" y1="436.83" x2="508.24" y2="443.22"/><line class="cls-22" x1="527.56" y1="434.13" x2="527.56" y2="441.18"/><line class="cls-25" x1="527.56" y1="434.13" x2="527.56" y2="441.18"/><line class="cls-22" x1="547.26" y1="434.13" x2="547.26" y2="441.18"/><line class="cls-25" x1="547.26" y1="434.13" x2="547.26" y2="441.18"/><line class="cls-22" x1="589.79" y1="445.07" x2="584.07" y2="449.45"/><line class="cls-25" x1="589.79" y1="445.07" x2="584.07" y2="449.45"/><path class="cls-23" d="M519.01,461.04c4.64,0,4.64,4,9.27,4s4.64-4,9.28-4,4.64,4,9.28,4,4.64-4,9.28-4,4.64,4,9.28,4"/><path class="cls-22" d="M497.89,455.07c-6.24-1.14-9.92-7.76-10.17-13.87s1.97-12.03,3.14-18.05c.81-4.17.95-8.92-1.9-12.14-2.52-2.84-6.85-3.7-10.64-2.94s-7.14,2.88-10.17,5.2"/><text class="cls-28" transform="translate(476.5 349.33) scale(1.04 1)"><tspan class="cls-37" x="0" y="0">B</tspan><tspan x="14.51" y="0">A</tspan><tspan class="cls-41" x="29.98" y="0">K</tspan><tspan x="44.93" y="0">T</tspan><tspan class="cls-40" x="57.86" y="0">E</tspan><tspan x="71.53" y="0">RI</tspan><tspan class="cls-40" x="92.45" y="0">E</tspan><tspan x="106.11" y="0">R</tspan></text><text class="cls-28" transform="translate(482.09 540.5) scale(1.04 1)"><tspan x="0" y="0">ARK</tspan><tspan class="cls-40" x="45.09" y="0">ÉE</tspan><tspan class="cls-27" x="72.42" y="0">R</tspan></text><path class="cls-20" d="M1222.38,543.84l-.02,68.8c0,2.64-2.22,4.78-4.96,4.78h-4.23c-2.74,0-4.96-2.14-4.96-4.78l.02-68.8"/><path class="cls-16" d="M1168.7,537.47c-.73-4.6,23.53-16.97,46.59-17.24,22.82-.27,47.2,12.63,46.59,17.24-1.14,8.65-91.81,8.62-93.19,0Z"/><text class="cls-28" transform="translate(1161.38 671.37) scale(1.04 1)"><tspan class="cls-32" x="0" y="0">S</tspan><tspan class="cls-31" x="14.17" y="0">V</tspan><tspan x="26.34" y="0">AM</tspan><tspan class="cls-30" x="61.12" y="0">P</tspan><tspan x="73.7" y="0">AR</tspan></text><text class="cls-28" transform="translate(789.12 449.48) scale(1.04 1)"><tspan x="0" y="0">P</tspan><tspan class="cls-38" x="13.87" y="0">R</tspan><tspan class="cls-42" x="28.4" y="0">O</tspan><tspan x="44.62" y="0">TI</tspan><tspan class="cls-35" x="63.73" y="0">S</tspan><tspan x="77.98" y="0">T</tspan><tspan class="cls-40" x="90.92" y="0">E</tspan><tspan x="104.59" y="0">R</tspan></text><ellipse class="cls-3" cx="851.03" cy="368.37" rx="5.59" ry="5.39"/><line class="cls-3" x1="855.99" y1="374.58" x2="854.46" y2="372.63"/><line class="cls-3" x1="855.99" y1="362.17" x2="854.46" y2="364.11"/><line class="cls-3" x1="849.28" y1="360.72" x2="849.81" y2="363.11"/><line class="cls-3" x1="843.75" y1="364.88" x2="846.01" y2="365.98"/><line class="cls-3" x1="843.75" y1="371.87" x2="846.01" y2="370.76"/><line class="cls-3" x1="849.28" y1="376.02" x2="849.81" y2="373.63"/><line class="cls-3" x1="859.15" y1="368.37" x2="856.62" y2="368.37"/><ellipse class="cls-3" cx="829.68" cy="383.1" rx="5.9" ry="5.69"/><line class="cls-3" x1="834.91" y1="389.65" x2="833.3" y2="387.6"/><line class="cls-3" x1="834.91" y1="376.55" x2="833.3" y2="378.61"/><line class="cls-3" x1="827.83" y1="375.03" x2="828.39" y2="377.55"/><line class="cls-3" x1="822" y1="379.41" x2="824.38" y2="380.58"/><line class="cls-3" x1="822" y1="386.79" x2="824.38" y2="385.62"/><line class="cls-3" x1="827.83" y1="391.18" x2="828.39" y2="388.66"/><line class="cls-3" x1="838.25" y1="383.1" x2="835.58" y2="383.1"/><ellipse class="cls-3" cx="827.71" cy="364.16" rx="2.66" ry="2.57"/><ellipse class="cls-3" cx="864.72" cy="384.82" rx="3.93" ry="3.78"/><path class="cls-24" d="M1215.5,368.59v.87c-.15-.25-.29-.5-.42-.76.15-.02.27-.06.42-.11Z"/><text class="cls-28" transform="translate(1187.67 435.25) scale(1.04 1)"><tspan class="cls-34" x="0" y="0">D</tspan><tspan x="14.76" y="0">JUR</tspan></text><path class="cls-6" d="M1247.71,368.69c-4.62,1.21-9.81,2.01-15.59,2.26-4.25,3.3-14.83,10.76-25.41,12.49l4.3-14.48c-13.63-3.18-25.35-13.58-32.34-19.04-2.02,1.79-4.14,3.47-6.35,5.03-9.76,6.87-21.44,7.72-21.44,7.72,0,0,3.05-13.34,11.1-20.66-8.05-7.32-11.1-20.65-11.1-20.65,0,0,11.68.86,21.44,7.72,2.25,1.56,4.38,3.25,6.4,5.06,7.01-5.47,18.67-15.84,32.29-19l-4.3-14.48c10.66,1.73,21.34,9.25,25.52,12.49,5.73.25,10.89,1.04,15.48,2.26-9.06,16.55-9.06,36.71,0,53.28Z"/><path class="cls-11" d="M1279.7,342.05c0,4.92-8.82,20.49-31.57,26.53-.15.05-.27.09-.42.11-9.06-16.57-9.06-36.73,0-53.28.13-.26.27-.51.42-.76v.87c22.73,6.09,31.57,21.81,31.57,26.53Z"/><ellipse class="cls-7" cx="1258.24" cy="337.91" rx="4.29" ry="4.14"/><text class="cls-28" transform="translate(1178.5 231.61) scale(1.04 1)"><tspan class="cls-31" x="0" y="0">V</tspan><tspan class="cls-39" x="12.17" y="0">Ä</tspan><tspan class="cls-41" x="28.16" y="0">X</tspan><tspan x="43.24" y="0">T</tspan><tspan class="cls-40" x="56.17" y="0">E</tspan><tspan x="69.84" y="0">R</tspan></text><path class="cls-10" d="M1245.07,113.8l-71.3,64.34,19.45-17.55v-35.1c0-19.38,25.93-35.1,74.54-35.1,1.79,0,3.24,1.31,3.24,2.92,0,43.87-17.41,67.27-38.89,67.27h-38.89l51.85-46.8ZM1219.14,137.19h22.69-22.69ZM1219.14,116.72v20.47-20.47Z"/><path class="cls-10" d="M187.31,372.04c0,2.44-.21,4.81-.63,7.13-9.1-3.08-14.2,6.26-21.21,4.9-15.61-3.01-20.03.36-20.03,7.52s0,7.18-3.25,12.55c-2.1,3.5-2.78,7.01,1.44,10.01-24.14,0-43.7-18.86-43.7-42.12-.02-11.29,4.7-22.11,13.07-30.02,3.72.37,5.78,2.29,9.24,5.81,6.54,6.66,13.1,7.22,17.46,5,6.56-3.33,1.05-8.73,8.74-11.68,4.72-1.79,5.61-6.51,3.38-10.46,20.21,3.69,35.49,20.8,35.49,41.35Z"/><path class="cls-14" d="M186.68,379.18c-3.51,19.87-21.45,34.99-43.05,34.99-4.22-3.01-3.54-6.51-1.44-10.01q3.25-5.37,3.25-12.55c0-7.16,4.43-10.53,20.03-7.52,7.01,1.35,12.12-7.99,21.21-4.9Z"/><path class="cls-14" d="M148.44,341.15c-7.69,2.94-2.18,8.35-8.74,11.68-4.36,2.23-10.92,1.67-17.46-5-3.46-3.52-5.53-5.43-9.24-5.81,8.16-7.75,19.16-12.1,30.63-12.08,2.75,0,5.49.25,8.19.75,2.23,3.95,1.34,8.67-3.38,10.46Z"/><text class="cls-28" transform="translate(56.72 462.76) scale(1.04 1)"><tspan x="0" y="0">JORD</tspan><tspan class="cls-40" x="54.33" y="0">E</tspan><tspan x="68" y="0">N </tspan><tspan class="cls-43" x="89.73" y="0">B</tspan><tspan x="104.5" y="0">IL</tspan><tspan class="cls-36" x="123.26" y="0">D</tspan><tspan class="cls-33" x="137.75" y="0">A</tspan><tspan x="152.9" y="0">S</tspan></text><line class="cls-13" x1="706.27" y1="372.05" x2="708.27" y2="372.05"/><line class="cls-12" x1="712.07" y1="372.05" x2="770.93" y2="372.05"/><line class="cls-13" x1="772.83" y1="372.05" x2="774.83" y2="372.05"/><line class="cls-13" x1="257.36" y1="372.05" x2="259.36" y2="372.05"/><line class="cls-5" x1="263.36" y1="372.05" x2="365.57" y2="372.05"/><line class="cls-13" x1="367.57" y1="372.05" x2="369.57" y2="372.05"/></svg>