<?xml version="1.0" encoding="UTF-8"?><svg id="Layer_1" xmlns="http://www.w3.org/2000/svg" width="1500" height="844" xmlns:xlink="http://www.w3.org/1999/xlink" viewBox="0 0 1500 844"><defs><style>.cls-1,.cls-2{fill:none;}.cls-2{stroke-width:180px;}.cls-2,.cls-3{stroke:#fff;stroke-miterlimit:10;}.cls-3{fill:url(#New_Pattern_Swatch_4);}.cls-4{clip-path:url(#clippath);}</style><clipPath id="clippath"><rect class="cls-1" x="0" y="0" width="500" height="500"/></clipPath><pattern id="New_Pattern_Swatch_4" x="0" y="0" width="500" height="500" patternTransform="translate(-7308.66 -6768.49) scale(.05)" patternUnits="userSpaceOnUse" viewBox="0 0 500 500"><rect class="cls-1" width="500" height="500"/><g class="cls-4"><line class="cls-2" x1="0" y1="0" x2="500" y2="500"/><line class="cls-2" x1="-250" y1="250" x2="250" y2="750"/><line class="cls-2" x1="250" y1="-250" x2="750" y2="250"/></g></pattern></defs><g id="Fröträd"><path class="cls-3" d="M448.12,118.64c-4.52,2.12-8.44,5.3-11.46,9.21-3.63-1.48-7.6-2.31-11.76-2.31s-7.9.78-11.45,2.18c-5.69-7.31-14.57-12.02-24.55-12.02-7.02,0-13.5,2.33-18.71,6.26-5.21-3.93-11.68-6.26-18.71-6.26-9.83,0-18.6,4.57-24.3,11.69-.7-.25-1.41-.48-2.13-.68-4.15-12.29-15.77-21.14-29.47-21.14-2.57,0-5.06.32-7.45.91-4.76-2.95-10.37-4.67-16.38-4.67-17.18,0-31.1,13.93-31.1,31.1,0,7.03,2.33,13.51,6.27,18.72-2.02-.41-4.12-.63-6.27-.63-3.48,0-6.83.58-9.95,1.64v103.94c2.14.72,4.39,1.23,6.71,1.47-2.56,4.52-4.03,9.74-4.03,15.31,0,3.21.49,6.31,1.39,9.23-1.43.77-2.79,1.66-4.07,2.64v97.94c2.47,1.34,5.14,2.36,7.96,2.99,3.94,5.85,9.82,10.29,16.72,12.4-.72,2.62-1.1,5.37-1.1,8.22,0,17.18,13.93,31.1,31.1,31.1,10.13,0,19.12-4.84,24.8-12.33.43.55.88,1.1,1.34,1.62-.16,1.26-.25,2.55-.25,3.86,0,8.6,3.49,16.39,9.14,22.02-.02.48-.04.96-.04,1.44,0,17.18,13.93,31.1,31.1,31.1s31.1-13.93,31.1-31.1c0-8.6-3.49-16.39-9.14-22.02.02-.48.04-.96.04-1.44s-.01-.91-.03-1.37c2.89.89,5.96,1.37,9.14,1.37,17.18,0,31.1-13.93,31.1-31.1,0-4.16-.82-8.13-2.31-11.76,2.54-2.66,4.61-5.76,6.09-9.18,2.38.58,4.87.9,7.43.9,11.21,0,21.03-5.93,26.5-14.82,3.11,1.05,6.45,1.62,9.91,1.62,15.91,0,29.03-11.95,30.87-27.37,3.26,1.16,6.78,1.8,10.44,1.8,2.49,0,4.91-.3,7.23-.85,5.54,7.2,14.15,11.9,23.88,12.14-.12,1.12-.19,2.26-.19,3.42,0,17.18,13.93,31.1,31.1,31.1,8.95,0,17.01-3.79,22.69-9.84,4.28,12.06,15.79,20.7,29.31,20.7,8.55,0,16.3-3.46,21.92-9.04,5.32,4.25,12.05,6.79,19.39,6.79,17.18,0,31.1-13.93,31.1-31.1,0-6.79-2.18-13.07-5.88-18.19,1.21-3.33,1.88-6.92,1.88-10.66,0-5.07-1.22-9.85-3.37-14.07,2.15-4.23,3.37-9.01,3.37-14.07,0-6.77-2.17-13.04-5.85-18.14.57.03,1.14.05,1.72.05,17.18,0,31.1-13.93,31.1-31.1s-13.93-31.1-31.1-31.1-30.94,13.77-31.1,30.82c-5.1-5.58-12.2-9.3-20.17-10.01,1.49-3.64,2.32-7.62,2.32-11.8,0-17.18-13.93-31.1-31.1-31.1-1.63,0-3.23.13-4.79.37.41-2.02.63-4.12.63-6.26,0-17.18-13.93-31.1-31.1-31.1-7.98,0-15.26,3.01-20.77,7.95-3.46-1.32-7.2-2.06-11.13-2.06s-7.76.75-11.25,2.11c.27-1.03.5-2.07.66-3.14,2.54.67,5.21,1.03,7.96,1.03,17.18,0,31.1-13.93,31.1-31.1,0-14.68-10.17-26.97-23.84-30.24-.47-4.67-1.98-9.03-4.28-12.86h-65.64c-9.39,2.77-16.93,9.84-20.33,18.94ZM577.2,311.72c-.37,1.92-.57,3.91-.57,5.94,0,3.58.61,7.02,1.73,10.22-3.91-1.92-8.29-3.04-12.92-3.16.12-1.12.19-2.26.19-3.42,0-1.64-.13-3.25-.37-4.82,4.36-.75,8.41-2.4,11.94-4.76ZM357.43,177.33c4.72-.91,9.06-2.89,12.76-5.68,5.21,3.93,11.68,6.26,18.71,6.26,4.04,0,7.9-.78,11.44-2.18.16.2.31.4.47.6-4.39,5.36-7.02,12.21-7.02,19.68,0,.6.02,1.19.05,1.78-3.24-1.15-6.73-1.78-10.37-1.78-6.76,0-13.01,2.16-18.12,5.83-2.82-3.1-6.27-5.61-10.13-7.37,1.64-3.79,2.56-7.96,2.56-12.35,0-1.62-.13-3.22-.37-4.77ZM268.72,242.54c-.33-.05-.66-.09-1-.13,2.56-4.52,4.03-9.74,4.03-15.31,0-8.85-3.7-16.84-9.64-22.5,5.94-5.66,9.64-13.65,9.64-22.5,0-7.03-2.33-13.51-6.27-18.72,2.02.41,4.12.63,6.27.63,2.57,0,5.06-.32,7.45-.91,2.43,1.51,5.09,2.69,7.92,3.49,1.71,5.07,4.69,9.56,8.57,13.08-.06.8-.1,1.61-.1,2.42,0,1.29.09,2.57.24,3.82-4.1,5.27-6.55,11.89-6.55,19.09,0,4.47.95,8.72,2.65,12.57-11.92,2.93-21.13,12.73-23.2,24.96ZM419.64,318.11c-10.5,1.79-19.21,8.84-23.31,18.35-2.38-.58-4.87-.9-7.43-.9-17.18,0-31.1,13.93-31.1,31.1,0,4.16.82,8.13,2.31,11.76-1.55,1.63-2.94,3.41-4.11,5.34-2.79-2.61-6.07-4.71-9.68-6.15.82-2.79,1.27-5.75,1.27-8.81,0-17.18-13.93-31.1-31.1-31.1-9.61,0-18.19,4.36-23.9,11.2,1.92-4.04,3-8.56,3-13.34,0-4.2-.84-8.21-2.35-11.86,13.37-3.48,23.24-15.64,23.24-30.1,0-6.32-1.89-12.19-5.13-17.1,10.16-4.24,17.58-13.72,18.91-25.06,1.34.57,2.72,1.04,4.15,1.41-4.8,5.47-7.72,12.64-7.72,20.5,0,11.67,6.43,21.84,15.94,27.16-.16,1.29-.26,2.61-.26,3.95,0,17.18,13.93,31.1,31.1,31.1s31.1-13.93,31.1-31.1c0-3.85-.7-7.53-1.98-10.93.66.04,1.31.07,1.98.07,5.8,0,11.23-1.59,15.87-4.36-2.53,4.5-3.98,9.69-3.98,15.22,0,4.9,1.14,9.53,3.15,13.65ZM503.68,197.01c-.68,2.55-1.04,5.24-1.04,8,0,6.99,2.31,13.44,6.2,18.64-3.41,4.99-5.41,11.03-5.41,17.53,0,16.33,12.58,29.71,28.58,30.99-2.02,4.12-3.16,8.76-3.16,13.66,0,1.64.13,3.25.37,4.82-.65.11-1.28.24-1.92.39-4.29-5.58-10.44-9.66-17.52-11.33,0-.28.02-.55.02-.83,0-17.18-13.93-31.1-31.1-31.1-15.29,0-28,11.04-30.61,25.58-.17,0-.33-.01-.5-.01-5.8,0-11.23,1.59-15.87,4.36,2.53-4.5,3.98-9.69,3.98-15.22,0-13.88-9.09-25.63-21.64-29.63.35-1.86.54-3.78.54-5.75,0-.6-.02-1.19-.05-1.78,3.24,1.15,6.73,1.78,10.37,1.78,16.48,0,29.96-12.82,31.03-29.03,5.5-1.45,10.4-4.38,14.26-8.33,5.65,5.77,13.52,9.36,22.23,9.36,3.97,0,7.76-.75,11.25-2.11Z"/><path class="cls-3" d="M678.86,213.21c3.47,0,6.81-.58,9.93-1.63,3.02,14.02,15.48,24.53,30.4,24.53,7.04,0,13.53-2.34,18.74-6.28,2.13,4.55,5.33,8.5,9.27,11.53-15.6,1.68-27.74,14.88-27.74,30.92,0,17.18,13.93,31.1,31.1,31.1s31.1-13.93,31.1-31.1c0-10.06-4.78-19-12.19-24.69,15.6-1.68,27.74-14.88,27.74-30.92s-12.69-29.82-28.78-31.01c7.68-5.66,12.67-14.77,12.67-25.05,0-17.18-13.93-31.1-31.1-31.1s-31.1,13.93-31.1,31.1c0,4.8,1.09,9.35,3.04,13.41-.9-.08-1.81-.13-2.74-.13-3.47,0-6.81.58-9.93,1.63-3.02-14.02-15.48-24.53-30.4-24.53-17.18,0-31.1,13.93-31.1,31.1s13.93,31.1,31.1,31.1ZM747.26,191.6c.14.01.28.02.42.03-.1.07-.2.15-.3.22-.04-.08-.08-.17-.12-.26Z"/><path class="cls-3" d="M1117.31,119.9c0,17.18,13.93,31.1,31.1,31.1,6.67,0,12.85-2.11,17.92-5.69,5.29,4.16,11.96,6.65,19.21,6.65,17.18,0,31.1-13.93,31.1-31.1,0-8.18-3.16-15.61-8.32-21.16h-83.56c-4.65,5.44-7.46,12.49-7.46,20.2Z"/><circle class="cls-3" cx="1039.58" cy="375.66" r="31.1" transform="translate(-58.5 248.9) rotate(-13.28)"/><path class="cls-3" d="M1269.3,211.86c-5.7-6.59-14.13-10.77-23.53-10.77-17.18,0-31.1,13.93-31.1,31.1s13.93,31.1,31.1,31.1c9.4,0,17.82-4.18,23.53-10.77v-40.66Z"/><path class="cls-3" d="M1224.75,111.7c0,17.18,13.93,31.1,31.1,31.1,4.82,0,9.38-1.1,13.45-3.05v-40.05h-42.15c-1.55,3.69-2.4,7.75-2.4,12Z"/><path class="cls-3" d="M1269.3,489.29c-5.7-6.59-14.13-10.77-23.53-10.77-7.23,0-13.89,2.48-19.17,6.62,0-.19.01-.38.01-.58,0-8.45-3.38-16.11-8.85-21.72,7.62-5.67,12.55-14.74,12.55-24.96,0-2.49-.3-4.9-.85-7.22,14.94-2.27,26.38-15.17,26.38-30.75,0-17.18-13.93-31.1-31.1-31.1-11.28,0-21.17,6.01-26.62,15,.7-2.6,1.08-5.33,1.08-8.14,0-9.3-4.09-17.64-10.56-23.34,6.47-5.7,10.56-14.04,10.56-23.34,0-1.52-.11-3.01-.32-4.46,15.59-1.68,27.73-14.88,27.73-30.92,0-17.18-13.93-31.1-31.1-31.1-8.25,0-15.75,3.22-21.31,8.46-5.57-5.24-13.06-8.46-21.31-8.46-2.36,0-4.65.27-6.86.77-.13-.3-.26-.6-.4-.9.92.08,1.85.13,2.78.13,17.18,0,31.1-13.93,31.1-31.1,0-12.47-7.34-23.21-17.92-28.17-2.72-14.41-15.36-25.3-30.56-25.3-4.69,0-9.14,1.05-13.13,2.91-3.13-5.58-7.93-10.11-13.73-12.88,2.8-4.67,4.41-10.13,4.41-15.97,0-17.18-13.93-31.1-31.1-31.1-15.71,0-28.69,11.64-30.8,26.77-2.29-.54-4.67-.83-7.11-.83-2.26,0-4.46.25-6.58.7-1.01-9.05-5.91-16.93-12.99-21.92,0-.01,0-.03,0-.04,0-10.77-5.47-20.26-13.79-25.84h-34.63c-8.32,5.58-13.79,15.07-13.79,25.84,0,6.67,2.11,12.85,5.69,17.92-3.55-1.41-7.41-2.19-11.45-2.19-13.32,0-24.68,8.37-29.11,20.14-5.7-6.39-13.98-10.41-23.21-10.41-.37,0-.74.02-1.11.03.72-2.62,1.11-5.38,1.11-8.23,0-15.9-11.93-29-27.33-30.87-2.42-4.97-6.13-9.18-10.69-12.24h-34.6c-8.32,5.58-13.79,15.07-13.79,25.84,0,2.87.4,5.65,1.12,8.28-.37-.01-.75-.03-1.12-.03-17.18,0-31.1,13.93-31.1,31.1s13.93,31.1,31.1,31.1c1.26,0,2.5-.08,3.72-.23,4.88,4.27,11.11,7.04,17.96,7.59-1.03,3.1-1.6,6.4-1.6,9.84,0,7.63,2.75,14.62,7.32,20.03-1.73.63-3.38,1.41-4.95,2.32-4.58-2.65-9.88-4.17-15.55-4.17-17.18,0-31.1,13.93-31.1,31.1s13.93,31.1,31.1,31.1c5.67,0,10.98-1.52,15.55-4.17,3.53,2.05,7.51,3.41,11.75,3.93-2.74,4.64-4.33,10.04-4.33,15.82,0,4.77,1.08,9.29,3,13.34-4.37,1.25-8.34,3.44-11.69,6.32-4.76-11.08-15.77-18.85-28.59-18.85s-23.95,7.84-28.67,19.01c-.31,0-.61-.02-.92-.02-17.18,0-31.1,13.93-31.1,31.1,0,15.22,10.94,27.88,25.38,30.57-.01.08-.02.17-.03.25-17.02.19-30.75,14.03-30.75,31.1s13.93,31.1,31.1,31.1c15.9,0,29.01-11.94,30.87-27.34,17.02-.19,30.75-14.03,30.75-31.1,0-10.54-5.25-19.85-13.27-25.48,2.51-1.2,4.84-2.73,6.92-4.52,4.03,9.38,12.53,16.37,22.82,18.3,1.8,15.46,14.94,27.47,30.89,27.47,17.18,0,31.1-13.93,31.1-31.1,0-15.21-10.91-27.86-25.34-30.56-.4-3.44-1.36-6.7-2.78-9.7,13-3.73,22.51-15.7,22.51-29.89,0-5.87-1.63-11.36-4.45-16.04,4.12-.71,7.96-2.23,11.36-4.4,0,.06,0,.12,0,.19,0,7.13,2.4,13.69,6.44,18.94-3.13,4.85-4.96,10.63-4.96,16.84,0,8.62,3.51,16.42,9.17,22.05-5.66,5.63-9.17,13.43-9.17,22.05,0,9.06,3.87,17.21,10.05,22.89-13.8,3.18-24.1,15.53-24.1,30.3,0,17.18,13.93,31.1,31.1,31.1,14.09,0,25.99-9.37,29.81-22.22,15.85-1.43,28.28-14.74,28.28-30.97,0-.93-.05-1.85-.13-2.76,10.78-4.88,18.29-15.73,18.29-28.34,0-3.8-.68-7.44-1.93-10.8,8.66-3.34,15.45-10.44,18.36-19.3,3.68,1.53,7.72,2.39,11.96,2.39,4.48,0,8.73-.95,12.58-2.66,5.18,3.84,11.59,6.12,18.53,6.12,2.68,0,5.28-.34,7.76-.98.57,1.08,1.21,2.11,1.9,3.11-3.49,5.03-5.54,11.13-5.54,17.72,0,17.18,13.93,31.1,31.1,31.1,11.66,0,21.81-6.42,27.14-15.91,1.3.17,2.62.26,3.97.26,1.48,0,2.94-.11,4.37-.31.01.1.03.2.04.3-6.03,3.5-10.77,8.97-13.35,15.52-2.14-.46-4.35-.72-6.63-.72-17.18,0-31.1,13.93-31.1,31.1,0,6.05,1.74,11.7,4.73,16.48-11.08,4.76-18.84,15.77-18.84,28.59,0,2.3.26,4.54.73,6.7-.43-.27-.86-.53-1.3-.78.37-1.92.57-3.89.57-5.92,0-8.6-3.49-16.39-9.14-22.02.88-2.87,1.35-5.92,1.35-9.08,0-17.18-13.93-31.1-31.1-31.1s-31.1,13.93-31.1,31.1c0,8.6,3.49,16.39,9.14,22.02-.88,2.87-1.35,5.92-1.35,9.08,0,11.59,6.35,21.7,15.75,27.05-.37,1.92-.57,3.89-.57,5.92,0,7.32,2.53,14.04,6.76,19.35-1.34-.18-2.7-.28-4.09-.28-17.18,0-31.1,13.93-31.1,31.1,0,14.61,10.07,26.86,23.65,30.2-2.62,1.2-5.05,2.75-7.22,4.6-5.7-7.02-14.4-11.51-24.15-11.51-.49,0-.98.01-1.46.04.95-2.97,1.46-6.14,1.46-9.43,0-17.18-13.93-31.1-31.1-31.1-11.62,0-21.74,6.38-27.08,15.81.06-.77.1-1.54.1-2.32,0-17.18-13.93-31.1-31.1-31.1-1.84,0-3.64.17-5.39.47.85-2.84,1.32-5.85,1.32-8.97,0-11.36-6.09-21.29-15.19-26.72,14.22-2.87,24.92-15.43,24.92-30.49,0-17.18-13.93-31.1-31.1-31.1s-31.1,13.93-31.1,31.1c0,11.36,6.09,21.29,15.19,26.72-6.48,1.31-12.23,4.63-16.57,9.29-4.81-10.96-15.75-18.62-28.49-18.62-9.85,0-18.63,4.59-24.33,11.74-5.05-10.37-15.68-17.51-27.98-17.51-13.97,0-25.79,9.21-29.72,21.9-11.21,4.7-19.09,15.78-19.09,28.7,0,17.18,13.93,31.1,31.1,31.1,2.98,0,5.86-.43,8.59-1.21,4.35,11.94,15.79,20.46,29.23,20.46,9.53,0,18.06-4.29,23.76-11.04,5.17,10.01,15.61,16.86,27.65,16.86,1.98,0,3.91-.19,5.79-.55-8.79,5.5-14.65,15.26-14.65,26.39,0,17.18,13.93,31.1,31.1,31.1,8.52,0,16.23-3.43,21.85-8.97,5.69,6.31,13.93,10.28,23.1,10.28,4.57,0,8.91-.99,12.82-2.77,1.92,15.33,15,27.2,30.85,27.2,13.19,0,24.46-8.22,28.98-19.81,4.79,3.02,10.46,4.77,16.54,4.77,7.68,0,14.71-2.79,20.14-7.41,5.7,7.02,14.4,11.51,24.15,11.51.8,0,1.6-.04,2.39-.1-.08.89-.12,1.79-.12,2.7,0,16.28,12.51,29.63,28.44,30.98,1.25,7.47,5.15,14.03,10.71,18.69-2.5,4.48-3.93,9.64-3.93,15.13,0,4.53.98,8.83,2.72,12.72h98.79c1.02-3.08,1.58-6.37,1.58-9.79,0-8.48-3.4-16.17-8.91-21.78,1.07.11,2.15.17,3.24.17,17.18,0,31.1-13.93,31.1-31.1s-13.93-31.1-31.1-31.1c-.8,0-1.58.04-2.36.1,4.99-5.52,8.03-12.83,8.03-20.86,0-12.48-7.35-23.23-17.95-28.19,3.96-5.22,6.32-11.73,6.32-18.79,0-5.86-1.62-11.34-4.44-16.02,1.4-3.54,2.17-7.39,2.17-11.42,0-15.18-10.88-27.81-25.26-30.55,4.35-2.92,7.91-6.91,10.33-11.58,8.95-5.46,14.93-15.32,14.93-26.57s-5.91-20.99-14.78-26.47c.42-.84.81-1.7,1.15-2.58,2.14.46,4.35.72,6.63.72,5.65,0,10.94-1.51,15.51-4.15-.18,1.36-.28,2.74-.28,4.15,0,8.45,3.38,16.11,8.85,21.72-7.62,5.67-12.55,14.74-12.55,24.96,0,17.18,13.93,31.1,31.1,31.1,7.23,0,13.89-2.48,19.17-6.62,0,.19-.01.38-.01.58,0,4.8,1.09,9.35,3.03,13.41-1-.1-2.01-.15-3.03-.15-17.18,0-31.1,13.93-31.1,31.1s13.93,31.1,31.1,31.1c6.56,0,12.65-2.04,17.67-5.51,5.02,3.47,11.1,5.51,17.67,5.51,7.29,0,14-2.52,19.3-6.72v-89.08ZM868.61,182.39c-.53-.07-1.07-.13-1.61-.17.88-2.63,1.42-5.42,1.56-8.31.01,0,.03,0,.04,0,.37,0,.74-.02,1.11-.03-.72,2.62-1.11,5.38-1.11,8.23,0,.09,0,.19,0,.28ZM895.59,231.39c-2.18,0-4.3.23-6.35.65,3.98-5.23,6.35-11.75,6.35-18.82,0-.09,0-.19,0-.28.09.01.18.02.27.03,1.1,8.68,5.77,16.24,12.5,21.16-3.89-1.75-8.21-2.74-12.76-2.74ZM1094.03,298.85c-5.23-9.82-15.56-16.5-27.46-16.5-4.48,0-8.73.95-12.58,2.66-5.18-3.84-11.59-6.12-18.53-6.12-.01,0-.02,0-.04,0-4.53-11.58-15.79-19.79-28.97-19.79-17.18,0-31.1,13.93-31.1,31.1,0,4.32.88,8.44,2.48,12.18-2.51,1.53-4.79,3.4-6.77,5.56-.48-.75-.99-1.48-1.53-2.18,3.13-4.85,4.96-10.63,4.96-16.84,0-17.18-13.93-31.1-31.1-31.1-6.14,0-11.87,1.79-16.69,4.86,0-.06,0-.12,0-.19,0-10.32-5.03-19.45-12.76-25.11,3.89,1.75,8.21,2.74,12.76,2.74,17.18,0,31.1-13.93,31.1-31.1,0-2.04-.2-4.04-.58-5.97,6.34-1.06,12.02-4.04,16.44-8.32,3.81,8.58,11.38,15.12,20.62,17.51-.21,1.46-.32,2.94-.32,4.45,0,17.18,13.93,31.1,31.1,31.1,5.33,0,10.35-1.34,14.74-3.71-.14,1.22-.23,2.45-.23,3.71,0,17.18,13.93,31.1,31.1,31.1,5.66,0,10.96-1.52,15.54-4.16,0,.17-.01.33-.01.5,0,9.17,3.97,17.42,10.29,23.11-.83.14-1.66.31-2.47.52ZM1117.31,244.12c-5.66,0-10.96,1.52-15.54,4.16,0-.17.01-.33.01-.5,0-8.01-3.03-15.31-8-20.82,3.58-.35,6.99-1.3,10.11-2.76,3.17,5.66,8.06,10.22,13.96,12.99.47,2.47,1.22,4.83,2.24,7.06-.92-.08-1.85-.13-2.79-.13ZM1122.6,305.87c.53-.09,1.05-.19,1.57-.31.69,1.65,1.52,3.22,2.47,4.71-1.2-1.59-2.55-3.07-4.03-4.4ZM1132.89,317.65c-.71,0-1.41.03-2.1.08-.74-1.91-1.66-3.72-2.75-5.43,1.5,1.98,3.22,3.78,5.14,5.36-.1,0-.19,0-.29,0ZM877.86,576.85c-5.69-6.31-13.93-10.28-23.1-10.28-1.98,0-3.91.19-5.79.55,8.52-5.33,14.28-14.66,14.62-25.37.31,0,.63.02.94.02,1.84,0,3.64-.17,5.39-.47-.85,2.84-1.32,5.85-1.32,8.97,0,9.87,4.6,18.66,11.77,24.36-.88.7-1.72,1.44-2.52,2.23ZM930.56,595.07c-1.04-8.26-5.31-15.52-11.52-20.45,3.13-2.49,5.77-5.57,7.75-9.07-.06.77-.1,1.54-.1,2.32,0,10.1,4.81,19.07,12.27,24.75-2.96.42-5.78,1.26-8.41,2.45ZM1068.58,592.38c-3.48.23-6.8,1.03-9.87,2.31-4.25-6.09-10.63-10.59-18.06-12.42,8.22-3.76,14.51-10.99,17-19.81,3.91,2.05,8.31,3.3,12.99,3.51-2.59,4.54-4.08,9.79-4.08,15.39,0,3.88.72,7.59,2.01,11.01ZM1087.03,507.63c.15-1.25.24-2.53.24-3.82,0-2.3-.26-4.54-.73-6.7,2.84,1.81,6,3.16,9.37,3.97,4.23,4.02,9.59,6.85,15.56,7.99-4.79,3.22-8.63,7.73-11.03,13.04-2.79-6.15-7.51-11.24-13.4-14.48ZM1101.9,550.56c-.92-.12-1.85-.21-2.79-.26.48-.84.92-1.7,1.32-2.59.44.98.93,1.92,1.47,2.84ZM1106.05,643.09c-2.77-1.1-5.73-1.81-8.82-2.08-.06-.37-.12-.74-.2-1.1,3-4.79,4.75-10.44,4.75-16.51,0-3.88-.72-7.59-2.01-11.01,4.22-.28,8.21-1.4,11.8-3.2,0,.04,0,.09,0,.13,0,5.3,1.33,10.28,3.66,14.65-5.07,4.97-8.44,11.66-9.18,19.12ZM1137.01,677.28c1.46,0,2.9-.11,4.31-.3,1.29,2.18,2.84,4.2,4.6,6-1.07-.11-2.15-.17-3.24-.17-7.05,0-13.56,2.35-18.78,6.31-.69-.69-1.4-1.35-2.15-1.98,2.03-3.63,3.35-7.71,3.78-12.05,3.55,1.41,7.42,2.2,11.48,2.2ZM1194.49,407.12c-3.88.59-7.52,1.91-10.79,3.79.18-1.36.28-2.74.28-4.15s-.1-2.82-.29-4.19c4.52-2.62,8.32-6.35,11.03-10.81-.7,2.6-1.08,5.33-1.08,8.14,0,2.49.3,4.9.85,7.22Z"/><circle class="cls-3" cx="977.94" cy="503.8" r="31.1" transform="translate(-69.81 839.07) rotate(-45)"/><path class="cls-3" d="M1269.3,625.84c-5.7-6.59-14.13-10.77-23.53-10.77-17.18,0-31.1,13.93-31.1,31.1s13.93,31.1,31.1,31.1c9.4,0,17.82-4.18,23.53-10.77v-40.66Z"/><path class="cls-3" d="M1207.45,679.88c-17.18,0-31.1,13.93-31.1,31.1,0,4.53.98,8.83,2.72,12.72h56.77c1.74-3.88,2.72-8.19,2.72-12.72,0-17.18-13.93-31.1-31.1-31.1Z"/><path class="cls-3" d="M241.64,502.19c-3.92.48-7.61,1.7-10.94,3.5v54.72c3.17,1.72,6.67,2.9,10.38,3.43.16.93.35,1.86.59,2.76-.34-.01-.68-.03-1.02-.03-3.48,0-6.83.58-9.95,1.64v58.94c3.13,1.06,6.47,1.64,9.95,1.64s7.11-.63,10.35-1.77c5.61,8.11,14.98,13.42,25.58,13.42,1.18,0,2.33-.07,3.48-.2-2.22,4.28-3.48,9.13-3.48,14.29,0,7.54,2.68,14.45,7.14,19.83-1.06.44-2.08.93-3.08,1.47-5.5-8.78-15.25-14.63-26.38-14.63-9.43,0-17.87,4.2-23.58,10.83v40.55c5.7,6.63,14.15,10.83,23.58,10.83,5.41,0,10.5-1.38,14.93-3.82.92,1.46,1.96,2.83,3.1,4.12h70.01c4.85-5.49,7.8-12.69,7.8-20.6,0-12.76-7.68-23.72-18.67-28.51,4.59-5.42,7.36-12.42,7.36-20.08,0-4.44-.94-8.66-2.61-12.48.33-.44.64-.89.95-1.34,4.68,11.26,15.78,19.19,28.73,19.19,14.24,0,26.23-9.57,29.93-22.63,5.61,5.51,13.3,8.92,21.79,8.92,16.75,0,30.4-13.24,31.07-29.82,1.91,15.35,14.99,27.22,30.85,27.22,17.18,0,31.1-13.93,31.1-31.1,0-15.14-10.82-27.75-25.15-30.53,1.47-1.81,2.75-3.79,3.79-5.91,3.75-1.3,7.18-3.3,10.12-5.84,2.57.69,5.26,1.06,8.05,1.06,16.73,0,30.38-13.22,31.07-29.78,1.41.19,2.84.3,4.3.3,10.2,0,19.24-4.91,24.92-12.48,5.05,3.54,11.2,5.63,17.83,5.63,13.52,0,25.01-8.62,29.3-20.66,4.92,3.25,10.81,5.15,17.14,5.15,8.88,0,16.89-3.73,22.56-9.7,1.39.34,2.81.59,4.26.74-12.67,3.93-21.87,15.75-21.87,29.71,0,16.72,13.19,30.35,29.74,31.07-.73,2.12-1.24,4.33-1.5,6.63-4.97-3.37-10.97-5.33-17.42-5.33-17.18,0-31.1,13.93-31.1,31.1s12.76,29.9,28.92,31.02c-7.13,5.7-11.7,14.46-11.7,24.3s4.4,18.29,11.31,23.99c-.93,2.96-1.44,6.1-1.44,9.37,0,17.18,13.93,31.1,31.1,31.1,7.58,0,14.53-2.72,19.92-7.22,2.47,3.04,5.51,5.6,8.95,7.53h30.33c6.77-3.79,11.99-10.01,14.43-17.51,5.1,10.2,15.64,17.2,27.82,17.2,11.01,0,20.67-5.72,26.2-14.35,3.37,1.25,7,1.93,10.8,1.93,17.18,0,31.1-13.93,31.1-31.1s-13.93-31.1-31.1-31.1c-11.01,0-20.67,5.72-26.2,14.35-3.37-1.25-7-1.93-10.8-1.93-13.81,0-25.52,9.01-29.57,21.47-5.1-10.2-15.64-17.2-27.82-17.2-7.58,0-14.53,2.72-19.92,7.22-1.3-1.6-2.75-3.06-4.34-4.37.93-2.96,1.44-6.1,1.44-9.37,0-3.45-.57-6.76-1.61-9.86,5,3.43,11.05,5.44,17.57,5.44,17.18,0,31.1-13.93,31.1-31.1,0-12.88-7.83-23.93-18.99-28.66,1.94-4.05,3.02-8.59,3.02-13.38,0-16.72-13.19-30.35-29.74-31.07,1.1-3.18,1.71-6.6,1.71-10.16,0-16.12-12.26-29.37-27.96-30.95,10.08-3.13,17.95-11.25,20.76-21.46,15.36-1.9,27.25-14.99,27.25-30.86,0-10.54-5.24-19.84-13.26-25.47,0-.13,0-.26,0-.39,0-17.18-13.93-31.1-31.1-31.1s-31.1,13.93-31.1,31.1c0,7.39,2.58,14.17,6.88,19.51-4.29,1.68-8.11,4.28-11.23,7.56-2.37-.58-4.85-.89-7.4-.89-13.52,0-25.01,8.62-29.3,20.66-4.92-3.25-10.81-5.15-17.14-5.15-10.2,0-19.25,4.91-24.92,12.48-5.05-3.54-11.2-5.63-17.83-5.63-16.73,0-30.38,13.22-31.07,29.78-1.41-.19-2.84-.3-4.3-.3-7.77,0-14.86,2.85-20.31,7.56-2.57-.69-5.26-1.06-8.05-1.06-12.27,0-22.87,7.1-27.93,17.42-12.17,4.22-20.91,15.78-20.91,29.39,0,15.14,10.82,27.75,25.15,30.53-4.1,5.04-6.64,11.39-6.92,18.32-1.8-14.45-13.5-25.82-28.1-27.1,2.89-4.72,4.56-10.28,4.56-16.22,0-17.18-13.93-31.1-31.1-31.1-.06,0-.12,0-.18,0-.57-5.25-2.44-10.11-5.29-14.25.1-1.03.16-2.07.16-3.13,0-17.18-13.93-31.1-31.1-31.1s-31.1,13.93-31.1,31.1c0,6.54,2.02,12.6,5.47,17.61-.1,1.03-.16,2.07-.16,3.13,0,17.18,13.93,31.1,31.1,31.1.06,0,.12,0,.18,0,1.58,14.69,13.39,26.31,28.17,27.61-1.46,2.39-2.6,4.99-3.38,7.74-5.61-5.51-13.3-8.92-21.79-8.92-10.78,0-20.28,5.49-25.86,13.82-4.68-11.26-15.78-19.19-28.73-19.19-2.77,0-5.44.37-8,1.04-2.75-4.58-6.65-8.4-11.3-11.05,6.66-5.7,10.88-14.17,10.88-23.62,0-4.04-.78-7.89-2.18-11.43,4.38-5.36,7.01-12.21,7.01-19.67,0-13.87-9.08-25.61-21.61-29.62,4.27-5.32,6.83-12.08,6.83-19.43,0-17.18-13.93-31.1-31.1-31.1s-31.1,13.93-31.1,31.1c0,9.48,4.25,17.97,10.94,23.67Z"/><path class="cls-3" d="M547.65,661.19c-2.87,0-5.65.4-8.3,1.13-4.07-12.44-15.76-21.42-29.56-21.42-17.18,0-31.1,13.93-31.1,31.1s13.93,31.1,31.1,31.1c2.87,0,5.65-.4,8.3-1.13,4.07,12.44,15.76,21.42,29.56,21.42,17.18,0,31.1-13.93,31.1-31.1s-13.93-31.1-31.1-31.1Z"/><path class="cls-3" d="M392.53,686.31c-17.18,0-31.1,13.93-31.1,31.1,0,2.15.22,4.26.64,6.28h60.94c.42-2.03.64-4.13.64-6.28,0-17.18-13.93-31.1-31.1-31.1Z"/><path class="cls-3" d="M957.8,679.88c-17.18,0-31.1,13.93-31.1,31.1,0,4.53.98,8.83,2.72,12.72h56.77c1.74-3.88,2.72-8.19,2.72-12.72,0-17.18-13.93-31.1-31.1-31.1Z"/><circle class="cls-3" cx="585.55" cy="567.87" r="31.1" transform="translate(-114.81 149.72) rotate(-13.28)"/><circle class="cls-3" cx="573.9" cy="435.1" r="31.1" transform="translate(-139.57 533.25) rotate(-45)"/></g></svg>