<?xml version="1.0" encoding="UTF-8"?><svg id="Layer_1" xmlns="http://www.w3.org/2000/svg" width="1500" height="844" xmlns:xlink="http://www.w3.org/1999/xlink" viewBox="0 0 1500 844"><defs><style>.cls-1,.cls-2,.cls-3{fill:none;}.cls-2{stroke-width:180px;}.cls-2,.cls-3,.cls-4{stroke:#fff;stroke-miterlimit:10;}.cls-3{stroke-width:3px;}.cls-4{fill:url(#New_Pattern_Swatch_4);}.cls-5{opacity:.65;}.cls-6{clip-path:url(#clippath);}</style><clipPath id="clippath"><rect class="cls-1" x="0" y="0" width="500" height="500"/></clipPath><pattern id="New_Pattern_Swatch_4" x="0" y="0" width="500" height="500" patternTransform="translate(-7562.18 -7284.77) scale(.05)" patternUnits="userSpaceOnUse" viewBox="0 0 500 500"><rect class="cls-1" width="500" height="500"/><g class="cls-6"><line class="cls-2" x1="0" y1="0" x2="500" y2="500"/><line class="cls-2" x1="-250" y1="250" x2="250" y2="750"/><line class="cls-2" x1="250" y1="-250" x2="750" y2="250"/></g></pattern></defs><image width="1500" height="844" transform="translate(0)" xlink:href="../../images/thumbnails/trakthygge_efter_visa_visa_naturskog.webp"/><rect id="Best책ndsgr채ns" class="cls-3" x="230.7" y="99.7" width="1038.6" height="624"/><g id="H채nsynstr채d_enstaka" class="cls-5"><circle class="cls-4" cx="575.75" cy="151" r="31.1" transform="translate(61.86 451.35) rotate(-45)"/><circle class="cls-4" cx="633.87" cy="247.78" r="31.1" transform="translate(10.45 520.78) rotate(-45)"/><circle class="cls-4" cx="271.76" cy="442.8" r="31.1" transform="translate(-94.47 74.28) rotate(-13.28)"/><circle class="cls-4" cx="595.75" cy="687.8" r="31.1"/><circle class="cls-4" cx="1247.75" cy="682.8" r="31.1" transform="translate(10.94 1385.23) rotate(-58.28)"/><circle class="cls-4" cx="913.75" cy="368.8" r="31.1" transform="translate(223.34 1071.87) rotate(-67.5)"/><circle class="cls-4" cx="944.86" cy="146.8" r="31.1" transform="translate(-8.45 221.01) rotate(-13.28)"/><path class="cls-4" d="M1193.64,142.8c-5.17,0-10.04,1.27-14.33,3.5.13-1.15.2-2.31.2-3.5,0-17.18-13.93-31.1-31.1-31.1s-31.1,13.93-31.1,31.1,13.93,31.1,31.1,31.1c5.17,0,10.04-1.27,14.33-3.5-.13,1.15-.2,2.31-.2,3.5,0,17.18,13.93,31.1,31.1,31.1s31.1-13.93,31.1-31.1-13.93-31.1-31.1-31.1Z"/><circle class="cls-4" cx="696.07" cy="132.92" r="31.1" transform="translate(109.89 531.13) rotate(-45)"/></g></svg>