<?xml version="1.0" encoding="UTF-8"?><svg id="Layer_1" xmlns="http://www.w3.org/2000/svg" width="1500" height="844" xmlns:xlink="http://www.w3.org/1999/xlink" viewBox="0 0 1500 844"><defs><style>.cls-1,.cls-2,.cls-3{fill:none;}.cls-2{stroke-width:180px;}.cls-2,.cls-3,.cls-4,.cls-5{stroke:#fff;stroke-miterlimit:10;}.cls-3{stroke-width:3px;}.cls-4{fill:url(#New_Pattern_Swatch_4);}.cls-5{fill:url(#New_Pattern_Swatch_4-2);}.cls-5,.cls-6{opacity:.65;}.cls-7{clip-path:url(#clippath);}</style><clipPath id="clippath"><rect class="cls-1" x="0" y="0" width="500" height="500"/></clipPath><pattern id="New_Pattern_Swatch_4" x="0" y="0" width="500" height="500" patternTransform="translate(-7562.18 -7284.77) scale(.05)" patternUnits="userSpaceOnUse" viewBox="0 0 500 500"><rect class="cls-1" width="500" height="500"/><g class="cls-7"><line class="cls-2" x1="0" y1="0" x2="500" y2="500"/><line class="cls-2" x1="-250" y1="250" x2="250" y2="750"/><line class="cls-2" x1="250" y1="-250" x2="750" y2="250"/></g></pattern><pattern id="New_Pattern_Swatch_4-2" patternTransform="translate(-7549.56 -7311.14) scale(.05)" xlink:href="#New_Pattern_Swatch_4"/></defs><image width="1500" height="844" transform="translate(0)" xlink:href="../../images/thumbnails/trakthygge_efter_visa_visa_naturskog.webp"/><rect id="Beståndsgräns" class="cls-3" x="230.7" y="99.7" width="1038.6" height="624"/><g id="Hänsynsträd_enstaka" class="cls-6"><circle class="cls-4" cx="575.75" cy="151" r="31.1" transform="translate(61.86 451.35) rotate(-45)"/><circle class="cls-4" cx="633.87" cy="247.78" r="31.1" transform="translate(10.45 520.78) rotate(-45)"/><circle class="cls-4" cx="271.76" cy="442.8" r="31.1" transform="translate(-94.47 74.28) rotate(-13.28)"/><circle class="cls-4" cx="595.75" cy="687.8" r="31.1"/><circle class="cls-4" cx="1247.75" cy="682.8" r="31.1" transform="translate(10.94 1385.23) rotate(-58.28)"/><circle class="cls-4" cx="913.75" cy="368.8" r="31.1" transform="translate(223.34 1071.87) rotate(-67.5)"/><circle class="cls-4" cx="944.86" cy="146.8" r="31.1" transform="translate(-8.45 221.01) rotate(-13.28)"/><path class="cls-4" d="M1193.64,142.8c-5.17,0-10.04,1.27-14.33,3.5.13-1.15.2-2.31.2-3.5,0-17.18-13.93-31.1-31.1-31.1s-31.1,13.93-31.1,31.1,13.93,31.1,31.1,31.1c5.17,0,10.04-1.27,14.33-3.5-.13,1.15-.2,2.31-.2,3.5,0,17.18,13.93,31.1,31.1,31.1s31.1-13.93,31.1-31.1-13.93-31.1-31.1-31.1Z"/><circle class="cls-4" cx="696.07" cy="132.92" r="31.1" transform="translate(109.89 531.13) rotate(-45)"/></g><path id="Hänsyn_yta" class="cls-5" d="M561.59,428.87c0-5.06-1.21-9.83-3.36-14.05.98-3.03,1.52-6.26,1.52-9.62,0-12.41-7.27-23.12-17.78-28.11-4-10.27-13.29-17.89-24.52-19.5-3.88-12.75-15.73-22.03-29.76-22.03-13.16,0-24.4,8.17-28.94,19.71-1.18-.14-2.38-.21-3.6-.21-13.69,0-25.31,8.85-29.47,21.15-.54-.03-1.09-.04-1.64-.04-17.18,0-31.1,13.93-31.1,31.1,0,9.92,4.65,18.75,11.89,24.45-1.01,3.06-1.56,6.32-1.56,9.72,0,.96.05,1.92.14,2.86-5.58,5.62-9.03,13.36-9.03,21.91,0,17.18,13.93,31.1,31.1,31.1,10.92,0,20.51-5.63,26.06-14.13,4.12-1.88,7.75-4.63,10.67-8.02,6.76-1.57,12.68-5.34,16.95-10.52,4.48,2.84,9.73,4.58,15.37,4.81,5.59,8.27,15.05,13.7,25.78,13.7,17.18,0,31.1-13.93,31.1-31.1,0-.05,0-.11,0-.16,6.25-5.69,10.17-13.89,10.17-23.01Z"/></svg>