<?xml version="1.0" encoding="UTF-8"?><svg id="Layer_1" xmlns="http://www.w3.org/2000/svg" width="1500" height="844" xmlns:xlink="http://www.w3.org/1999/xlink" viewBox="0 0 1500 844"><defs><style>.cls-1{filter:url(#drop-shadow-1);}.cls-2{fill:#fff;}</style><filter id="drop-shadow-1" x="336" y="147" width="862" height="500" filterUnits="userSpaceOnUse"><feOffset dx="7" dy="7"/><feGaussianBlur result="blur" stdDeviation="5"/><feFlood flood-color="#000" flood-opacity=".75"/><feComposite in2="blur" operator="in"/><feComposite in="SourceGraphic"/></filter></defs><g id="Högstubbar" class="cls-1"><path class="cls-2" d="M1006.77,532.01c-2.61,0-4.99.61-6.84,1.72-1.86,1.11-3.3,2.87-3.3,5.04v6.76c0,.32-.13.72-.49.49l-3.38-3.38c-.66-.66-1.73-.66-2.39,0-.66.66-.66,1.73,0,2.39l3.38,3.38c1.69,1.69,2.88,2.75,2.88,5.56v15.21c0,2.16,1.44,3.92,3.3,5.04,1.85,1.12,4.24,1.72,6.84,1.72s4.99-.61,6.84-1.72c1.86-1.11,3.3-2.87,3.3-5.04v-5.07c0-4.69,1.59-8.6,4.32-10.42l5.07-3.38c.79-.49,1.03-1.54.54-2.33-.49-.79-1.54-1.03-2.33-.54-.03.02-.06.04-.08.05l-5.12,3.41c-1.5,1-2.39-.34-2.39-1.32v-10.83c0-2.16-1.44-3.92-3.3-5.04-1.85-1.12-4.24-1.72-6.84-1.72M1006.77,535.39c2.06,0,3.9.52,5.1,1.24,1.2.72,1.66,1.5,1.66,2.14s-.45,1.42-1.66,2.14-3.04,1.24-5.1,1.24-3.9-.52-5.1-1.24c-1.2-.72-1.66-1.5-1.66-2.14s.45-1.42,1.66-2.14,3.04-1.24,5.1-1.24"/><path class="cls-2" d="M691.2,418.45c-2.61,0-4.99.61-6.84,1.72-1.86,1.11-3.3,2.87-3.3,5.04v6.76c0,.32-.13.72-.49.49l-3.38-3.38c-.66-.66-1.73-.66-2.39,0-.66.66-.66,1.73,0,2.39l3.38,3.38c1.69,1.69,2.88,2.75,2.88,5.56v15.21c0,2.16,1.44,3.92,3.3,5.04,1.85,1.12,4.24,1.72,6.84,1.72s4.99-.61,6.84-1.72c1.86-1.11,3.3-2.87,3.3-5.04v-5.07c0-4.69,1.59-8.6,4.32-10.42l5.07-3.38c.79-.49,1.03-1.54.54-2.33-.49-.79-1.54-1.03-2.33-.54-.03.02-.06.04-.08.05l-5.12,3.41c-1.5,1-2.39-.34-2.39-1.32v-10.83c0-2.16-1.44-3.92-3.3-5.04-1.85-1.12-4.24-1.72-6.84-1.72M691.2,421.83c2.06,0,3.9.52,5.1,1.24,1.2.72,1.66,1.5,1.66,2.14s-.45,1.42-1.66,2.14-3.04,1.24-5.1,1.24-3.9-.52-5.1-1.24c-1.2-.72-1.66-1.5-1.66-2.14s.45-1.42,1.66-2.14,3.04-1.24,5.1-1.24"/><path class="cls-2" d="M769.85,580.94c-2.61,0-4.99.61-6.84,1.72-1.86,1.11-3.3,2.87-3.3,5.04v6.76c0,.32-.13.72-.49.49l-3.38-3.38c-.66-.66-1.73-.66-2.39,0-.66.66-.66,1.73,0,2.39l3.38,3.38c1.69,1.69,2.88,2.75,2.88,5.56v15.21c0,2.16,1.44,3.92,3.3,5.04,1.85,1.12,4.24,1.72,6.84,1.72s4.99-.61,6.84-1.72c1.86-1.11,3.3-2.87,3.3-5.04v-5.07c0-4.69,1.59-8.6,4.32-10.42l5.07-3.38c.79-.49,1.03-1.54.54-2.33-.49-.79-1.54-1.03-2.33-.54-.03.02-.06.04-.08.05l-5.12,3.41c-1.5,1-2.39-.34-2.39-1.32v-10.83c0-2.16-1.44-3.92-3.3-5.04-1.85-1.12-4.24-1.72-6.84-1.72M769.85,584.32c2.06,0,3.9.52,5.1,1.24,1.2.72,1.66,1.5,1.66,2.14s-.45,1.42-1.66,2.14-3.04,1.24-5.1,1.24-3.9-.52-5.1-1.24c-1.2-.72-1.66-1.5-1.66-2.14s.45-1.42,1.66-2.14,3.04-1.24,5.1-1.24"/><path class="cls-2" d="M741.1,385.28c-2.61,0-4.99.61-6.84,1.72-1.86,1.11-3.3,2.87-3.3,5.04v6.76c0,.32-.13.72-.49.49l-3.38-3.38c-.66-.66-1.73-.66-2.39,0-.66.66-.66,1.73,0,2.39l3.38,3.38c1.69,1.69,2.88,2.75,2.88,5.56v15.21c0,2.16,1.44,3.92,3.3,5.04,1.85,1.12,4.24,1.72,6.84,1.72s4.99-.61,6.84-1.72c1.86-1.11,3.3-2.87,3.3-5.04v-5.07c0-4.69,1.59-8.6,4.32-10.42l5.07-3.38c.79-.49,1.03-1.54.54-2.33-.49-.79-1.54-1.03-2.33-.54-.03.02-.06.04-.08.05l-5.12,3.41c-1.5,1-2.39-.34-2.39-1.32v-10.83c0-2.16-1.44-3.92-3.3-5.04-1.85-1.12-4.24-1.72-6.84-1.72M741.1,388.66c2.06,0,3.9.52,5.1,1.24,1.2.72,1.66,1.5,1.66,2.14s-.45,1.42-1.66,2.14-3.04,1.24-5.1,1.24-3.9-.52-5.1-1.24c-1.2-.72-1.66-1.5-1.66-2.14s.45-1.42,1.66-2.14,3.04-1.24,5.1-1.24"/><path class="cls-2" d="M1155.58,482.92c-2.61,0-4.99.61-6.84,1.72-1.86,1.11-3.3,2.87-3.3,5.04v6.76c0,.32-.13.72-.49.49l-3.38-3.38c-.66-.66-1.73-.66-2.39,0-.66.66-.66,1.73,0,2.39l3.38,3.38c1.69,1.69,2.88,2.75,2.88,5.56v15.21c0,2.16,1.44,3.92,3.3,5.04,1.85,1.12,4.24,1.72,6.84,1.72s4.99-.61,6.84-1.72c1.86-1.11,3.3-2.87,3.3-5.04v-5.07c0-4.69,1.59-8.6,4.32-10.42l5.07-3.38c.79-.49,1.03-1.54.54-2.33-.49-.79-1.54-1.03-2.33-.54-.03.02-.06.04-.08.05l-5.12,3.41c-1.5,1-2.39-.34-2.39-1.32v-10.83c0-2.16-1.44-3.92-3.3-5.04-1.85-1.12-4.24-1.72-6.84-1.72M1155.58,486.3c2.06,0,3.9.52,5.1,1.24,1.2.72,1.66,1.5,1.66,2.14s-.45,1.42-1.66,2.14-3.04,1.24-5.1,1.24-3.9-.52-5.1-1.24c-1.2-.72-1.66-1.5-1.66-2.14s.45-1.42,1.66-2.14,3.04-1.24,5.1-1.24"/><path class="cls-2" d="M1118.36,288.95c-2.61,0-4.99.61-6.84,1.72-1.86,1.11-3.3,2.87-3.3,5.04v6.76c0,.32-.13.72-.49.49l-3.38-3.38c-.66-.66-1.73-.66-2.39,0-.66.66-.66,1.73,0,2.39l3.38,3.38c1.69,1.69,2.88,2.75,2.88,5.56v15.21c0,2.16,1.44,3.92,3.3,5.04,1.85,1.12,4.24,1.72,6.84,1.72s4.99-.61,6.84-1.72c1.86-1.11,3.3-2.87,3.3-5.04v-5.07c0-4.69,1.59-8.6,4.32-10.42l5.07-3.38c.79-.49,1.03-1.54.54-2.33-.49-.79-1.54-1.03-2.33-.54-.03.02-.06.04-.08.05l-5.12,3.41c-1.5,1-2.39-.34-2.39-1.32v-10.83c0-2.16-1.44-3.92-3.3-5.04-1.85-1.12-4.24-1.72-6.84-1.72M1118.36,292.33c2.06,0,3.9.52,5.1,1.24,1.2.72,1.66,1.5,1.66,2.14s-.45,1.42-1.66,2.14-3.04,1.24-5.1,1.24-3.9-.52-5.1-1.24c-1.2-.72-1.66-1.5-1.66-2.14s.45-1.42,1.66-2.14,3.04-1.24,5.1-1.24"/><path class="cls-2" d="M842.14,167.27c-2.61,0-4.99.61-6.84,1.72-1.86,1.11-3.3,2.87-3.3,5.04v6.76c0,.32-.13.72-.49.49l-3.38-3.38c-.66-.66-1.73-.66-2.39,0-.66.66-.66,1.73,0,2.39l3.38,3.38c1.69,1.69,2.88,2.75,2.88,5.56v15.21c0,2.16,1.44,3.92,3.3,5.04,1.85,1.12,4.24,1.72,6.84,1.72s4.99-.61,6.84-1.72c1.86-1.11,3.3-2.87,3.3-5.04v-5.07c0-4.69,1.59-8.6,4.32-10.42l5.07-3.38c.79-.49,1.03-1.54.54-2.33-.49-.79-1.54-1.03-2.33-.54-.03.02-.06.04-.08.05l-5.12,3.41c-1.5,1-2.39-.34-2.39-1.32v-10.83c0-2.16-1.44-3.92-3.3-5.04-1.85-1.12-4.24-1.72-6.84-1.72M842.14,170.65c2.06,0,3.9.52,5.1,1.24,1.2.72,1.66,1.5,1.66,2.14s-.45,1.42-1.66,2.14-3.04,1.24-5.1,1.24-3.9-.52-5.1-1.24c-1.2-.72-1.66-1.5-1.66-2.14s.45-1.42,1.66-2.14,3.04-1.24,5.1-1.24"/><path class="cls-2" d="M398.29,189.24c-2.61,0-4.99.61-6.84,1.72-1.86,1.11-3.3,2.87-3.3,5.04v6.76c0,.32-.13.72-.49.49l-3.38-3.38c-.66-.66-1.73-.66-2.39,0-.66.66-.66,1.73,0,2.39l3.38,3.38c1.69,1.69,2.88,2.75,2.88,5.56v15.21c0,2.16,1.44,3.92,3.3,5.04,1.85,1.12,4.24,1.72,6.84,1.72s4.99-.61,6.84-1.72c1.86-1.11,3.3-2.87,3.3-5.04v-5.07c0-4.69,1.59-8.6,4.32-10.42l5.07-3.38c.79-.49,1.03-1.54.54-2.33-.49-.79-1.54-1.03-2.33-.54-.03.02-.06.04-.08.05l-5.12,3.41c-1.5,1-2.39-.34-2.39-1.32v-10.83c0-2.16-1.44-3.92-3.3-5.04-1.85-1.12-4.24-1.72-6.84-1.72M398.29,192.62c2.06,0,3.9.52,5.1,1.24,1.2.72,1.66,1.5,1.66,2.14s-.45,1.42-1.66,2.14-3.04,1.24-5.1,1.24-3.9-.52-5.1-1.24c-1.2-.72-1.66-1.5-1.66-2.14s.45-1.42,1.66-2.14,3.04-1.24,5.1-1.24"/><path class="cls-2" d="M442.77,223.04c-2.61,0-4.99.61-6.84,1.72-1.86,1.11-3.3,2.87-3.3,5.04v6.76c0,.32-.13.72-.49.49l-3.38-3.38c-.66-.66-1.73-.66-2.39,0-.66.66-.66,1.73,0,2.39l3.38,3.38c1.69,1.69,2.88,2.75,2.88,5.56v15.21c0,2.16,1.44,3.92,3.3,5.04,1.85,1.12,4.24,1.72,6.84,1.72s4.99-.61,6.84-1.72c1.86-1.11,3.3-2.87,3.3-5.04v-5.07c0-4.69,1.59-8.6,4.32-10.42l5.07-3.38c.79-.49,1.03-1.54.54-2.33-.49-.79-1.54-1.03-2.33-.54-.03.02-.06.04-.08.05l-5.12,3.41c-1.5,1-2.39-.34-2.39-1.32v-10.83c0-2.16-1.44-3.92-3.3-5.04-1.85-1.12-4.24-1.72-6.84-1.72M442.77,226.42c2.06,0,3.9.52,5.1,1.24,1.2.72,1.66,1.5,1.66,2.14s-.45,1.42-1.66,2.14-3.04,1.24-5.1,1.24-3.9-.52-5.1-1.24c-1.2-.72-1.66-1.5-1.66-2.14s.45-1.42,1.66-2.14,3.04-1.24,5.1-1.24"/><path class="cls-2" d="M361.69,155.45c-2.61,0-4.99.61-6.84,1.72-1.86,1.11-3.3,2.87-3.3,5.04v6.76c0,.32-.13.72-.49.49l-3.38-3.38c-.66-.66-1.73-.66-2.39,0-.66.66-.66,1.73,0,2.39l3.38,3.38c1.69,1.69,2.88,2.75,2.88,5.56v15.21c0,2.16,1.44,3.92,3.3,5.04,1.85,1.12,4.24,1.72,6.84,1.72s4.99-.61,6.84-1.72c1.86-1.11,3.3-2.87,3.3-5.04v-5.07c0-4.69,1.59-8.6,4.32-10.42l5.07-3.38c.79-.49,1.03-1.54.54-2.33-.49-.79-1.54-1.03-2.33-.54-.03.02-.06.04-.08.05l-5.12,3.41c-1.5,1-2.39-.34-2.39-1.32v-10.83c0-2.16-1.44-3.92-3.3-5.04-1.85-1.12-4.24-1.72-6.84-1.72M361.69,158.83c2.06,0,3.9.52,5.1,1.24,1.2.72,1.66,1.5,1.66,2.14s-.45,1.42-1.66,2.14-3.04,1.24-5.1,1.24-3.9-.52-5.1-1.24c-1.2-.72-1.66-1.5-1.66-2.14s.45-1.42,1.66-2.14,3.04-1.24,5.1-1.24"/><path class="cls-2" d="M408.43,555.59c-2.61,0-4.99.61-6.84,1.72-1.86,1.11-3.3,2.87-3.3,5.04v6.76c0,.32-.13.72-.49.49l-3.38-3.38c-.66-.66-1.73-.66-2.39,0-.66.66-.66,1.73,0,2.39l3.38,3.38c1.69,1.69,2.88,2.75,2.88,5.56v15.21c0,2.16,1.44,3.92,3.3,5.04,1.85,1.12,4.24,1.72,6.84,1.72s4.99-.61,6.84-1.72c1.86-1.11,3.3-2.87,3.3-5.04v-5.07c0-4.69,1.59-8.6,4.32-10.42l5.07-3.38c.79-.49,1.03-1.54.54-2.33-.49-.79-1.54-1.03-2.33-.54-.03.02-.06.04-.08.05l-5.12,3.41c-1.5,1-2.39-.34-2.39-1.32v-10.83c0-2.16-1.44-3.92-3.3-5.04-1.85-1.12-4.24-1.72-6.84-1.72M408.43,558.97c2.06,0,3.9.52,5.1,1.24,1.2.72,1.66,1.5,1.66,2.14s-.45,1.42-1.66,2.14-3.04,1.24-5.1,1.24-3.9-.52-5.1-1.24c-1.2-.72-1.66-1.5-1.66-2.14s.45-1.42,1.66-2.14,3.04-1.24,5.1-1.24"/></g></svg>