<?xml version="1.0" encoding="UTF-8"?><svg id="Layer_1" xmlns="http://www.w3.org/2000/svg" width="1500" height="844" xmlns:xlink="http://www.w3.org/1999/xlink" viewBox="0 0 1500 844"><defs><style>.cls-1,.cls-2{fill:none;}.cls-2{stroke:#fff;stroke-width:180px;}.cls-2,.cls-3{stroke-miterlimit:10;}.cls-3{fill:url(#New_Pattern_Swatch_4);stroke:rgba(255,255,255,.5);}.cls-4{clip-path:url(#clippath);}</style><clipPath id="clippath"><rect class="cls-1" x="0" y="0" width="500" height="500"/></clipPath><pattern id="New_Pattern_Swatch_4" x="0" y="0" width="500" height="500" patternTransform="translate(-7062.5 -7331.9) scale(.05)" patternUnits="userSpaceOnUse" viewBox="0 0 500 500"><rect class="cls-1" width="500" height="500"/><g class="cls-4"><line class="cls-2" x1="0" y1="0" x2="500" y2="500"/><line class="cls-2" x1="-250" y1="250" x2="250" y2="750"/><line class="cls-2" x1="250" y1="-250" x2="750" y2="250"/></g></pattern></defs><g id="kanteffekt_luckhuggning"><path id="_3rd" class="cls-3" d="M230.7,307.8v207.7h207.7v-207.7h-207.7ZM412.4,489.6h-155.8v-155.8h155.8v155.8h0Z"/><path id="_3rd-2" class="cls-3" d="M438.4,515.9v207.7h207.7v-207.7h-207.7,0ZM620.2,697.7h-155.8v-155.8h155.8v155.8Z"/><path id="_3rd-3" class="cls-3" d="M853.9,307.8v207.7h207.7v-207.7h-207.7,0ZM1035.6,489.6h-155.8v-155.8h155.8v155.8h0Z"/><path id="_3rd-4" class="cls-3" d="M1061.6,99.7v207.7h207.7V99.7h-207.7ZM1243.4,281.4h-155.8V125.6h155.8v155.8Z"/><path id="_3rd-5" class="cls-3" d="M1061.6,515.9v207.7h207.7v-207.7h-207.7ZM1243.4,697.7h-155.8v-155.8h155.8v155.8Z"/></g></svg>