<?xml version="1.0" encoding="UTF-8"?><svg id="Layer_2" xmlns="http://www.w3.org/2000/svg" width="1500" height="844" xmlns:xlink="http://www.w3.org/1999/xlink" viewBox="0 0 1500 844"><defs><style>.cls-1{fill:none;stroke:red;stroke-linecap:round;stroke-linejoin:round;stroke-width:9px;}.cls-2{fill:#fff;filter:url(#drop-shadow-1);}</style><filter id="drop-shadow-1" x="749" y="348" width="98" height="98" filterUnits="userSpaceOnUse"><feOffset dx="7" dy="7"/><feGaussianBlur result="blur" stdDeviation="5"/><feFlood flood-color="#000" flood-opacity=".75"/><feComposite in2="blur" operator="in"/><feComposite in="SourceGraphic"/></filter></defs><g id="myc-8-x"><line class="cls-1" x1="723.27" y1="457.97" x2="795.21" y2="386.03"/><line class="cls-1" x1="795.21" y1="457.97" x2="723.27" y2="386.03"/><circle class="cls-2" cx="790.83" cy="389.73" r="33.59"/><path d="M787.47,398.67l-7.79-10.78,28.16-19.17,3.99,5.99v5.99h-5.99v5.99h-5.99v5.99h-5.99v5.99M787.27,402.06l-1,5.59-3.19,2.4c-1.8,1.2-4.19.8-5.59-1l-6.99-9.78c-1.2-1.8-.8-4.19,1-5.59l6.59-4.59,9.19,12.98ZM777.09,394.67l-3.19,2.2,6.99,9.78,3.19-2.4-6.99-9.58Z"/></g></svg>