<?xml version="1.0" encoding="UTF-8"?><svg id="Layer_1" xmlns="http://www.w3.org/2000/svg" width="1500" height="844" xmlns:xlink="http://www.w3.org/1999/xlink" viewBox="0 0 1500 844"><defs><style>.cls-1{fill:none;}.cls-2{fill:url(#_10_dpi_10_);}.cls-3{fill:#fff;}</style><pattern id="_10_dpi_10_" x="0" y="0" width="28.8" height="28.8" patternTransform="translate(3926.33 -6918.57) rotate(-45)" patternUnits="userSpaceOnUse" viewBox="0 0 28.8 28.8"><rect class="cls-1" x="0" width="28.8" height="28.8"/><circle class="cls-3" cx="28.8" cy="28.8" r="2.66"/><circle class="cls-3" cx="14.4" cy="28.8" r="2.66"/><circle class="cls-3" cx="0" cy="28.8" r="2.66"/><circle class="cls-3" cx="28.8" cy="28.8" r=".72"/><path class="cls-3" d="M14.4,29.52c.4,0,.72-.32.72-.72s-.32-.72-.72-.72-.72.32-.72.72.32.72.72.72Z"/><path class="cls-3" d="M28.8,15.12c.4,0,.72-.32.72-.72s-.32-.72-.72-.72-.72.32-.72.72.32.72.72.72Z"/><path class="cls-3" d="M14.4,15.12c.4,0,.72-.32.72-.72s-.32-.72-.72-.72-.72.32-.72.72.32.72.72.72Z"/><path class="cls-3" d="M7.2,22.32c.4,0,.72-.32.72-.72s-.32-.72-.72-.72-.72.32-.72.72.32.72.72.72Z"/><path class="cls-3" d="M21.6,22.32c.4,0,.72-.32.72-.72s-.32-.72-.72-.72-.72.32-.72.72.32.72.72.72Z"/><path class="cls-3" d="M7.2,7.92c.4,0,.72-.32.72-.72s-.32-.72-.72-.72-.72.32-.72.72.32.72.72.72Z"/><path class="cls-3" d="M21.6,7.92c.4,0,.72-.32.72-.72s-.32-.72-.72-.72-.72.32-.72.72.32.72.72.72Z"/><circle class="cls-3" cx="7.2" cy="7.2" r="2.66"/><circle class="cls-3" cx="7.2" cy="21.6" r="2.66"/><circle class="cls-3" cx="14.4" cy="14.4" r="2.66"/><circle class="cls-3" cx="21.6" cy="7.2" r="2.66"/><circle class="cls-3" cx="21.6" cy="21.6" r="2.66"/><circle class="cls-3" cx="28.8" cy="14.4" r="2.66"/><circle class="cls-3" cx="28.8" cy="0" r="2.66"/><circle class="cls-3" cx="14.4" cy="0" r="2.66"/><circle class="cls-3" cx="0" cy="28.8" r=".72"/><path class="cls-3" d="M0,15.12c.4,0,.72-.32.72-.72S.4,13.68,0,13.68s-.72.32-.72.72S-.4,15.12,0,15.12Z"/><circle class="cls-3" cx="0" cy="14.4" r="2.66"/><circle class="cls-3" cx="0" cy="0" r="2.66"/><circle class="cls-3" cx="28.8" cy="0" r=".72"/><path class="cls-3" d="M14.4.72c.4,0,.72-.32.72-.72s-.32-.72-.72-.72S13.68-.4,13.68,0s.32.72.72.72Z"/><circle class="cls-3" cx="0" cy="0" r=".72"/></pattern></defs><image width="1500" height="844" transform="translate(0)" xlink:href="../../images/thumbnails/trakthygge_efter_visa_visa_naturskog.webp"/><path class="cls-2" d="M1247.75,651.7c8.37,0,15.96,3.31,21.55,8.68V99.7H230.7v624h1038.6v-18.48c-5.59,5.37-13.18,8.68-21.55,8.68-17.18,0-31.1-13.93-31.1-31.1s13.93-31.1,31.1-31.1ZM575.75,119.9c17.18,0,31.1,13.93,31.1,31.1s-13.93,31.1-31.1,31.1-31.1-13.93-31.1-31.1,13.93-31.1,31.1-31.1ZM271.76,473.91c-17.18,0-31.1-13.93-31.1-31.1s13.93-31.1,31.1-31.1,31.1,13.93,31.1,31.1-13.93,31.1-31.1,31.1ZM551.42,451.88c0,.05,0,.11,0,.16,0,17.18-13.93,31.1-31.1,31.1-10.73,0-20.19-5.43-25.78-13.7-5.64-.23-10.89-1.96-15.37-4.81-4.27,5.18-10.19,8.95-16.95,10.52-2.92,3.39-6.55,6.14-10.67,8.02-5.55,8.51-15.15,14.13-26.06,14.13-17.18,0-31.1-13.93-31.1-31.1,0-8.55,3.45-16.29,9.03-21.91-.09-.94-.14-1.89-.14-2.86,0-3.39.55-6.66,1.56-9.72-7.24-5.7-11.89-14.53-11.89-24.45,0-17.18,13.93-31.1,31.1-31.1.55,0,1.1.02,1.64.04,4.15-12.29,15.77-21.15,29.47-21.15,1.22,0,2.42.08,3.6.21,4.55-11.54,15.79-19.71,28.94-19.71,14.02,0,25.87,9.28,29.76,22.03,11.23,1.62,20.52,9.23,24.52,19.5,10.51,4.99,17.78,15.7,17.78,28.11,0,3.36-.54,6.59-1.52,9.62,2.14,4.22,3.36,8.99,3.36,14.05,0,9.12-3.92,17.32-10.17,23.01ZM595.75,718.91c-17.18,0-31.1-13.93-31.1-31.1s13.93-31.1,31.1-31.1,31.1,13.93,31.1,31.1-13.93,31.1-31.1,31.1ZM633.87,278.89c-17.18,0-31.1-13.93-31.1-31.1s13.93-31.1,31.1-31.1,31.1,13.93,31.1,31.1-13.93,31.1-31.1,31.1ZM696.07,164.02c-17.18,0-31.1-13.93-31.1-31.1s13.93-31.1,31.1-31.1,31.1,13.93,31.1,31.1-13.93,31.1-31.1,31.1ZM913.75,399.91c-17.18,0-31.1-13.93-31.1-31.1s13.93-31.1,31.1-31.1,31.1,13.93,31.1,31.1-13.93,31.1-31.1,31.1ZM944.86,177.91c-17.18,0-31.1-13.93-31.1-31.1s13.93-31.1,31.1-31.1,31.1,13.93,31.1,31.1-13.93,31.1-31.1,31.1ZM1193.64,205.01c-17.18,0-31.1-13.93-31.1-31.1,0-1.18.07-2.35.2-3.5-4.29,2.23-9.16,3.5-14.33,3.5-17.18,0-31.1-13.93-31.1-31.1s13.93-31.1,31.1-31.1,31.1,13.93,31.1,31.1c0,1.18-.07,2.35-.2,3.5,4.29-2.23,9.16-3.5,14.33-3.5,17.18,0,31.1,13.93,31.1,31.1s-13.93,31.1-31.1,31.1Z"/></svg>