<?xml version="1.0" encoding="UTF-8"?><svg id="Layer_1" xmlns="http://www.w3.org/2000/svg" width="500" height="500" viewBox="0 0 500 500"><defs><style>.cls-1{fill:#b1835e;}</style></defs><path class="cls-1" d="M214.33,414.6l-2.72,1.85c2.87.68,5.77,1.29,8.7,1.82-1.29-2.96-3.35-5.46-5.98-3.67Z"/><path class="cls-1" d="M151.85,389.34s-.05-.04-.08-.06c.03.02.05.04.08.06Z"/><path class="cls-1" d="M205.58,403.32c3.08-.9,4.94-3.51,5.02-6.73.18-7.98-5.89-12.28-8.18-17.72-.43-1.01-.94-1.85-1.81-2.17-1.02-.38-2.22-.55-3.11.25-1.3,1.17-1.02,2.91-.1,4.27l6.97,10.34c1.18,1.75,1.54,3.95.56,5.82-.59,1.13-1.67,1.83-2.75,1.9-1.21.07-2.5-.67-3.05-1.92l-3.67-8.39c-1.07-2.45-2.17-4.91-4.09-6.85-4.44-4.48-8.46-9.22-11.36-14.85-.42-.81-.12-1.99.33-2.64.42-.61,1.43-1.04,2.41-.83,6.22,1.34,5.53,7.76,7.46,10.72.79,1.2,2.15,1.83,3.28,1.32,1.26-.56,1.99-1.74,1.69-3.23-.49-2.39-4.05-5.61-2.21-8.31,1.06-1.54,3.25-.97,4.4.2,2.7,2.76.87,7.99,4.86,7.92,1.72-.03,2.86-1.59,2.56-3.36-.62-3.74-2.37-7.43-5.75-9.35-4.35-2.48-2.31-5.79-6.81-10.26-2.86-2.84-1.65-5.2-2.83-9.31-.55-1.91-.2-3.53.64-5.26,2.52-5.16.5-11.09,4.39-14.82.79-.75,1.68-1.25,2.73-.98.81.2,1.58,1,1.88,2.05,1.74,6.05-4.94,17.74.01,28.64,1.27,2.8,3.68,4.69,6.7,5.13,6.54.96,4.1,15.35,1.9,19.02-.85,1.42-1.08,3.44-.11,4.83.57.82,1.76.9,2.58.63.67-.22,1.76-.89,2.07-1.89,1.53-4.91,2.37-9.96,2.69-15.16.41-6.66-3.25-7.39-1.42-12.19,2.84-7.46-1.23-9.28.96-17.11,1.34-4.81,1.63-9.61.49-14.52-.83-3.57-.92-7.03-.85-10.68.03-1.58-1.25-2.9-2.61-2.87-1.36.03-2.56,1.25-2.54,2.86.05,4.31.7,8.46,1.33,12.73,1.5,10.2-2.97,11.68-.8,22.36.39,1.94.33,3.97-.53,5.68-.6,1.2-1.85,1.71-3.02,1.09-6.28-3.34-2.78-17.43-1.64-23.58,1.45-7.85-3.96-8.87-2.06-13.41l3.85-9.21c2.56-6.12-2.21-10.41-.3-12.77.98-1.21,2.59-1.31,4.04-.91,1.11.31,2.46,1.4,2.88,2.88,1.12,3.99,2.88,7.44,4.8,11.09,3.88,7.37,2.1,17.51,7.55,27.47.76,1.4,2.56,2.76,4.08,1.84,1.69-1.02,1.37-3.53.42-5.02-1.04-1.65-2.11-3.1-2.49-5.04l-2.82-14.45c-.5-2.58-1.25-4.89-2.33-7.26l-4.52-10c-1.92-4.24,1.19-5.86,2.24-11.87.58-3.29.96-6.53,1.19-9.88.1-1.56-.73-2.79-1.98-3.08-1.56-.36-2.83.34-3.47,1.82-.56,1.3-.13,2.32,0,3.72.34,3.91-.33,8.2-2.43,11.67-1.34,2.21-5.21,1.74-6.77-.23-3.47-4.39-6.97-8.38-11.57-11.66-1.38-.98-3.05-.86-4.06.36-.77.93-.82,3.43.52,4.16,3.53,1.92,6.32,4.29,9.08,7.28,1.16,1.25,2.5,2.67,1.25,4.56-.55.83-1.89.55-2.72.11-5.31-2.79-8.51-6.87-13.4-9.66l-11.7-6.67c-1.08-.61-2.64-.77-3.66-.15-.92.56-1.14,1.58-.98,2.5.12.71.61,1.94,1.59,2.31,4.4,1.67,8.36,3.81,12.3,6.44,3.05,2.03,6.08,3.97,8.74,6.47,2.37,2.23,5.25,2.94,7.93,4.53,2.8,1.65,2.7,6.13,1.64,8.78-1.24,3.1-2.47,5.75-3.82,8.67-.86,1.86-2.74,2.56-4.43,3.53-3.29,1.89-5.35,5.4-5.89,9.12l-1.13,7.71c-.15,1.02-.75,1.88-1.32,2.26-1.8,1.21-5.5-.05-6.93-3.07-1.17-2.49-2.23-4.93-3.61-7.34-1.25-2.17-5.72-8.21-8.56-6.57-1.02.59-1.49,1.79-1.2,3.06.6,2.65,4.88,3.46,6.5,8,1.97,5.52,3.93,10.5,10.57,11.16,2.4.24,3.63,1.96,3.92,4.17.2,1.49,0,2.79-.98,3.74-1.05,1.02-2.43,1.21-3.88.7l-5.48-1.93c-5.92-2.09-3.21-6.42-10.16-8.67-2.7-.88-5.3-1.85-7.76-3.19-7.59-4.14-4.36-11.14-9.33-10.44-1.36.19-2.46,1.85-2.01,3.53.85,3.16,2.66,6.17,5.1,8.45,6.32,5.9,12.57,4.91,15.72,9.48,1.14,1.65,1.02,3.27.13,4.99-1.74,3.37.04,8.2-1.5,9.42-2.44,1.92-6.49-3.22-7.93-5.17-2.48-3.36.47-7.15-3.92-10.94-5.81-5.01-9.95-1.82-11.3-6.87-1.01-3.76-1.09-7.48-.39-11.32l.92-5.05c.82-4.5,7.33-2.56,10.18-17.44.51-2.64,1.94-4.9,4.4-6.07,3.21-1.53,4.56-5.17,3.23-8.57-1.15-2.95-3.64-5.04-6.56-6.3-5.27-2.27-8.89-1.94-14.95-5.58-1.2-.72-2.85-1-4.04-.27-.91.56-1.06,1.6-.92,2.55.12.83.76,1.72,1.77,2.18,5.16,2.35,10.45,3.91,15.85,5.68,1.69.55,3.36,1.76,3.83,3.45.41,1.44-.68,2.65-1.48,3.29-1.09.87-2.68,1.09-3.86.29-8.99-6.12-14.83-3.63-21-14.6-1.46-2.59-3.77-4.66-5.89-6.71-5.92-5.72-5.73-9.65-7.98-12.21-.87-.99-2.14-1.38-3.15-.87-1.13.57-1.67,1.78-1.51,3.1.18,1.5,1.44,2.39,2.04,3.64,2.34,4.93,5.58,8.97,9.67,12.58,4.25,3.75,6.25,12.15,17.58,15.6,2.33.71,4.45,1.91,6.63,2.97,1.13.54,1.83,1.83,1.77,3.08-.21,4.54-1.92,8.65-4.95,11.91-3.02,3.25-5.88,1.33-8.82,1.13-1.38-.09-2.67-.46-3.7-1.44l-7.8-7.4c-2.2-2.09-3.6-4.48-4.46-7.36-.39-1.32-1.91-2.46-3.28-2.19-5.5,1.09,1.95,11.07,3.93,12.95l7.29,6.92c.93.88,1.61,2.15,1.21,3.58-3.93,13.97.18,19.5-2.26,27.86-.49,1.7-1.9,2.91-3.77,2.86-3.25-.08-6.39.18-9.5.74,1.1,1.53,2.23,3.04,3.37,4.53,1.95-.24,3.93-.31,5.94-.4,5.04-.23,3.75,1.82,8.49,6.12l4.59,4.16c1.28,1.16,3.26.52,4.04-.61.9-1.29.41-3.13-1.01-4.11-2.71-1.86-5.38-3.73-7.35-6.45-2.88-3.99,1.71-4.94.92-13.53-.57-6.27-.33-12.23.76-18.42.25-1.39.89-2.54,2.23-2.82,1.25-.26,3,.29,3.31,1.81.67,3.29-3.14,9.23-.06,18.15,2.41,7-4.02,8.81.85,15.03,2.53,3.23,6.71,4.1,10.61,3.34,2.68-.52,4.83.78,6.09,2.97,1.8,3.14,6.54,4.56,6.91,7.27,1.49,10.8-3.91,21.63,1.88,20.99,1.19-.13,2.27-1.21,2.31-2.67.1-3.6.36-7.02.92-10.58.42-2.64.17-5.2-.32-7.78-.29-1.54.81-2.85,2.32-2.81,2.53.06,4.85,1.57,5.96,3.94,1.56,3.34,3.42,6.26,5.57,9.23,5.98,8.27,7.67,6.13,11.29,16.01,3.81,10.38,6.71,7.83,4.98,14.78-.35,1.4-.57,2.8-.65,4.19,1.69.57,3.39,1.12,5.11,1.64.08-4.52.15-9,4.52-10.27ZM184.82,352.31c1.09-.68,2.62-.73,3.59.25,1.3,1.32,3.65,5.19,2.62,7.05-.43.78-1.18,1.09-2.08,1.16-3.19.24-5.35-2.08-5.44-5.18-.04-1.35.29-2.65,1.31-3.28ZM150.7,349.7c-.1.69-.58,1.51-1.57,1.84-2.48.82-5.23.19-6.88-1.64-.76-.85-.99-1.89-.82-2.9.12-.75.72-1.96,1.86-2.12,3.19-.46,7.79,2.11,7.41,4.83ZM178.65,359.23c-.28,1.33-1.62,2.19-2.86,1.89-1.82-.44-3.95-1.44-4.78-3.2-.74-1.55-.46-3.72,0-5.21.53-1.74,2.1-2.1,3.63-1.68,1.73.48,3.58,1.33,4.01,3.27.34,1.52.36,3.26.01,4.94Z"/><path class="cls-1" d="M311.1,404.84c5.57-4.19,3.54-10.81,1.06-16.08-1.37-2.93-2.68-6.06-5.01-8.29-1.56-1.5-2.21-2.83-2.33-5.06-.39-7.18-4-13.62-9.25-18.45-4.19-3.85-9.63-7.01-13.16-11.31-5.13-6.25.06-15.44,4.73-18.95,1.33-1,3.54.33,4.35,1.37l4.19,5.38c2.21,2.84,5.71,3.6,9.08,2.27,1.63-.64,3.23-1.6,3.79-3.41,3.11-10.06-6.21-12.22-5.53-26.46.07-1.57-1.45-2.76-2.72-2.74-4.02.05-1.99,6.56-1.91,8.26.2,4.16,1.44,7.77,3.69,11.22,1.37,2.1,3.48,6.57.79,8.09-4.18,2.36-5.24-6.82-11.39-8.5-2.92-.8-5.17-4.4-3.4-7.27,1.15-1.87,7.31-4.15,5.47-7.59-.68-1.26-2.6-1.73-3.92-.91-3.31,2.05-3.69,6.09-9.66,4.66-3.35-.8-6.71.5-9.87,1.54-3.67,1.21-6.61,3.12-8.84,6.29-2.18,3.11-4.11,6.29-5.72,9.75-.76,1.63-.24,3.32,1.43,3.97,1.31.51,3.14-.17,3.68-1.91,1.44-4.62,3.63-8.88,7.8-11.83,3.41-2.41,8.54-3.77,12.54-2.29,3.41,1.26,3.08,5.93,1.07,8.15-5.43,6.01-10.09,16.25-3.99,23.55,3.3,3.96,7.08,7.19,11.3,10.21,4.91,3.53,8.68,8.48,10.15,14.35.45,1.81.63,3.94-.53,5.31-1.03,1.22-2.67,1.22-4.08.65-3.16-1.28-2.57-4.69-3.31-7.77-.7-2.91-3.05-4.57-6.1-4.6-5.46-.04-10.4,2.29-14.65,5.58-.94.73-2.35.67-3.12.26-2.42-1.3-.53-6.16-1.64-10.39-.55-2.07-1.55-3.92-2.22-5.95-2.57-7.82,4.61-8.35,5.93-18.83.61-4.83,3.1-8.68,6.53-11.93,1.07-1.02.73-3.01-.15-3.87-.92-.9-2.74-.91-3.76.3-10.6,12.51-4.41,14.35-12.32,25.09-1.45,1.97-2.55,4.59-1.83,6.95l2.65,8.69c.8,2.63,1.48,6.04.06,8.56-.99,1.75-3.19,2.78-4.73,3.87-1.17.83-2.79.62-3.93.02-3.09-1.61-5.25-4.16-6.71-7.28-.96-2.06-4.44-8.33-1.49-9.92,2.07-1.12,4.17.31,5.08,2.28,1.89,4.09,1.1,8.65,3.63,9.47,1.08.35,2.62.38,3.25-.73,1.35-2.38-2.03-10.05-3.26-12.52-1.5-3.03-4.53-4.49-7.87-3.8-2.34.49-4.38.09-6.09-1.65-5.41-5.51-5.64-9.1-12.4-13.07-1.54-.9-5.17-4.83-7.36-3.12-.95.74-1.06,1.94-.88,3.11.46,2.96,6.52,3.47,9.81,7.65,2.73,3.45,4.95,7.16,8.3,10.05,3.95,3.39-1.06,5.88,7.31,18.59,4.26,6.48,9.08,4.12,9.34,9.51.16,3.32.39,6.71.02,10.09l-.89,8.24c-.33,3.08-.77,5.99.04,9.04,1.02,3.84-2.15,6.17-3.04,10.24.64,0,1.28.02,1.93.02,1.1,0,2.19-.02,3.28-.04.28-1.27.86-2.49,1.87-3.45,1.71-1.62,4.67-.92,5.65,1.17.3.65.56,1.29.81,1.92,1.68-.11,3.36-.25,5.04-.41l-.98-3.01c-.35-1.07-.61-2.53-.07-3.58,1.85-3.6,2.27-7.27,2.71-11.26l2.54-23.15c.19-1.76,1.41-2.93,2.78-3.78,2.88-1.79,10.89-6.79,12.46-1.54,1.55,5.21-8.46,2.87-8.97,13.64-.19,4.09-.31,8.09-1.24,12.07-1.2,5.16-2.59,10.13-2.87,15.48-.08,1.51.14,2.94.44,4.34,1.69-.23,3.36-.49,5.03-.77-1.46-8.42,3.24-17.75,3.47-24.77l.19-5.87c.1-3.22,2.63-6.11,5.96-6.52,2.81-.35,4.05,2.17,4.2,4.51.33,5.25-.57,9.86-3.36,14.28-3.11,4.93-4.85,10.72-4.64,16.57,0,.25.04.49.07.73,1.66-.34,3.31-.71,4.95-1.09-.47-5.94,2.77-11.34,5.57-16.47,5.03-9.23.06-15.79,4.46-17.17,3.92-1.23,6.64,7.01,7.99,10.29.68,1.66,1.45,3.37.9,5.23-.53,1.8-2.18,3.2-3.86,4.01-5.23,2.52-8.36,7.02-9.06,12.58,1.84-.5,3.66-1.03,5.47-1.59,1.58-4.84,5.32-5.53,9.3-8.52ZM266.97,379.71l-2.17,15.89c-.57,4.16-.15,16.74-4.89,16.69-4.04-.04-3.36-5.42-3.03-8.55l1.46-13.84c.42-4.01-1.96-9.19,1.05-11.32,2.03-1.43,4.48-3.36,6.39-1.96.88.64,1.36,1.84,1.18,3.1Z"/><path class="cls-1" d="M102.5,172.47c2.86-2.98,6-5.22,9.94-6.7,7.51-2.81,5.4-8.42,9.36-9.77,7.81-2.67,7.88-7.54,17.48-12.58,3.86-2.03,7.47-4.19,11.55-5.81,2.31-.91,4.77.2,6.14,2.16,1.63,2.32,3.08,4.58,4.97,6.65,1.03,1.13,2.61,1.75,3.99.98.99-.55,1.19-1.66,1.22-2.6.03-1-.55-1.82-1.38-2.54-2.06-1.79-3.58-3.95-5.16-6.18-2.63-3.72-7.13-5.34-11.42-3.42-5.37,2.4-10.44,5.12-15.51,8.1-6.21,3.66-10.26,11.06-15.21,10.62-1.87-.17-3.56-1.77-5.07-2.91-1.02,1.38-2.01,2.78-2.99,4.19.56.2,1.09.47,1.55.8,1.15.85,2.28,1.42,2.38,2.73.08,1.05-.38,2.7-1.54,3.39-3.58,2.12-7.25,4.07-10.71,6.33-1.21,2.14-2.39,4.31-3.51,6.51.93.86,2.92,1.09,3.93.04Z"/><path class="cls-1" d="M109.7,186.41c.61-1.28.17-3-1.34-3.7-4.05-1.9-8.02-3.87-11.66-6.48-.71,1.48-1.4,2.98-2.07,4.49,3.65,2.43,7.39,4.65,11.22,6.79,1.41.79,3.29.07,3.85-1.09Z"/><path class="cls-1" d="M320.11,108.53c.19,2.03-1.91,3.15-3.52,3.37-1.99.27-3.47-1.16-4.13-3.15l-4.52-13.73c-.5-1.5-2.15-2.22-3.37-1.89-1.33.36-2.51,2.16-1.83,3.68,2.01,4.54,3.74,9.02,5.35,13.75,2.24,6.6-.53,5.44.43,15.8.25,2.68-.21,5.28-.21,8.01,0,11.64-3.27,13.23-2.68,24.35.29,5.46.66,10.77,1.9,16.11.33,1.44,1.61,2.29,2.9,2.07,1.15-.19,2.61-1.73,2.18-3.23-2.37-8.14-2.65-19.39-.68-27.76,1.61-6.85,1.69-13.73,1.28-20.75-.15-2.54-.4-5.18.63-7.55.7-1.62,3.6-1.48,4.53-.11,1.82,2.69,2.16,5.87,1.6,9.04-.94,5.33-1.45,10.47-1.91,15.86l-1.28,14.96c-1.02,11.88-.02,9.27.36,19.81.17,4.9-2.37,8.67-6.46,11.03-6.84,3.95-7.95-.11-10.83,2.42-.79.69-1.13,2.03-.58,3.1.71,1.39,2.34,2.26,4.03,2.01,6.05-.88,11.79-3.67,15.83-8.33,5.88-6.8,1.3-16.95,2.08-24.39.96-9.24,1.96-18.19,2.34-27.44.12-2.87.97-5.59,1.52-8.35,1.86-9.46-4.28-11.42-1.41-14.72,2.13-2.44,6.1,1.1,7.6,2.39,4.21,3.64-.26,7.31,4.19,12.14,2.56,2.78,4.02,6.53,3.52,10.44-.79,6.26-.33,12.58,2.39,18.29.64,1.34,1.94,1.96,3.11,1.7,1.34-.29,2.15-1.46,2.05-2.96-.17-2.82-3.27-4.61-3.04-10.26l.37-9.18c.31-7.67-4.39-9.19-5.6-13.46-.44-1.57.44-2.95,2.03-3.1,2.48-.24,6.79.35,7.4,3.8l1.66,9.27c1.25,6.97-1.96,10.16-1.34,14.78.16,1.19,1.3,1.74,2.21,1.7.97-.04,2.21-.54,2.53-1.71.81-3.01,1.32-6.03,1.75-9.16.71-5.14-1.08-9.18-2.04-14.91-.58-3.48,1.69-4.13,4.38-6.69-1.29-1.02-2.59-2.01-3.91-2.99-.57.54-1.19,1.05-1.88,1.54-1.28.91-2.68,1.04-4.14.43-6.29-2.64-8.98.73-12.01-2.96-4.23-5.15-9.04-3.96-10.64-7.11l-2.99-5.9c-1.09-2.15-1.69-3.91-2.01-5.49-1.7-.74-3.41-1.46-5.13-2.14.2,3.41.82,7.07,3.69,11.98.99,1.7,2.14,3.53,2.33,5.56Z"/><path class="cls-1" d="M129.09,364.79c-1.1-1.19-3.38-.73-4.43.45,1.3,1.42,2.63,2.82,3.97,4.19,1.27-1.24,1.83-3.16.46-4.64Z"/><path class="cls-1" d="M246.11,394.53c.64-4.23.19-8.42-2.56-11.8-1.37-1.68-4.71-2.77-5.48-5.93-.77-3.17-2.18-5.93-3.42-8.92-1.73-4.15-3.81-7.88-6.66-11.37-3.83-4.71-2.96-8.32-5.59-10.24-1.08-.79-2.48-.19-3.18.51-.98.99-.86,2.19-.36,3.41,4.06,9.77,8.09,12.32,10.49,17.81l3.03,6.93c.59,1.35,1.04,3,.59,4.43-.33,1.04-1.55,1.07-2.38,1.1-.88.03-1.43-.7-2.12-1.41-6.26-6.45-2.53-14.76-7.8-14.08-1.48.19-2.41,1.57-2.09,3.25,3.02,15.89,9.06,13.78,9.52,19.53.66,8.33.98,16.49,1.14,24.85.02,1.23.13,2.36.51,3.47.48,1.37,1.84,2.2,3.1,1.86,1.18-.32,2.26-1.76,2.04-3.27-.73-4.95-1.32-9.75-1.17-14.82.12-4.22-.22-8.22-.79-12.36-.19-1.39.51-2.72,1.49-3.28,1.03-.58,2.42-.58,3.55.2,2.64,1.82,3.68,5.04,3.31,8.29-.61,5.36-1.02,10.54-.77,15.98.2,4.3-.87,8.18-3.06,11.78,1.86.15,3.72.26,5.6.35,4.3-9.69,1.63-16.75,3.08-26.3Z"/><path class="cls-1" d="M280.59,92.36c1.03,6.53,3.21,10.9,4.64,18.4.31,1.66,1.77,2.49,3.32,2.2,1.35-.26,2.57-1.87,1.99-3.54-2.01-5.76-3.83-11.48-5.19-17.5-.28-1.25.44-2.5,1.4-2.99.9-.46,2.41-.38,3.39.61.9.9,1.81,2.51,2.11,3.97,1.77,8.55,3.98,16.8,5.19,25.49.84,6.05.27,12.1.21,18.15,0,.81-1.53,8.28,2.92,7.96,1.58-.11,2.61-1.26,2.44-3.05-1.46-14.98,1.44-22.43-3.72-39.16-2.39-7.72-.93-13.09-5.89-16.99-.76-.6-1.27-1.28-1.64-2.03-1.83-.45-3.67-.87-5.52-1.26-.11,1.02-.79,1.95-1.48,2.34-1.14.65-2.4.31-3.41-.51-1.11-.9-1.89-1.99-2.46-3.19-1.89-.31-3.79-.6-5.7-.84,1.6,7.27,6.65,7.24,7.39,11.95Z"/><path class="cls-1" d="M157.12,388.13c-1.09-1.21-1.64-2.5-1.55-4.21.25-4.66.89-9.16,1.5-13.79.23-1.77-1.05-3.03-2.65-3.17-1.41-.12-2.77,1.15-2.84,2.88-.17,3.98.17,7.9-.57,11.86-.17.89-.91,1.58-1.58,1.7-.94.16-1.97-.41-2.22-1.39l-1.09-4.18c-.36-1.36-1.83-2.13-3.06-1.95-1.38.21-2.43,1.56-2.29,3.15.07.87.35,1.6.7,2.29,3.33,2.78,6.76,5.44,10.29,7.96.03.02.05.04.08.06,3.93,2.8,7.99,5.44,12.16,7.9-.6-1.63-1.49-3.13-2.72-4.49l-4.17-4.62Z"/><path class="cls-1" d="M387.74,150.95c.77.1,1.63-.17,2.13-.82-2.04-2.83-4.16-5.6-6.36-8.29.47,2.56,1.17,5.06,2.17,7.48.37.91,1.41,1.54,2.07,1.63Z"/><path class="cls-1" d="M188,113.19c-1.65,5.19-1.6,10.74.79,15.8,2.53,5.36,5.37,10.42,8.4,15.5.54.9,1.39,1.72,2.11,1.98.88.31,2.51.22,3.17-.68.79-1.07.55-2.82-.31-3.83-4.09-4.78-7.23-11.11-9.62-16.96-2.83-6.95,2.79-12.3,1.74-22.31-.48-4.57-.9-9.09-1.19-13.64-1.65.59-3.29,1.21-4.92,1.85.23,3.26.51,6.52.88,9.81.49,4.34.28,8.32-1.05,12.48Z"/><path class="cls-1" d="M166.77,134.27c2.14,2.96,3.98,5.97,5.61,9.21.77,1.52,2.77,1.78,3.93,1.01,1.21-.81,1.81-2.8.79-4.13-2.28-2.97-4.3-5.99-6.29-9.2-2.21-3.57-2.92-7.52-1.75-11.61,1.11-3.89,2.01-7.74,2.75-11.74.75-4.07.69-6.84.35-9.6-1.6.83-3.19,1.69-4.76,2.58.34,13.19-8.86,22.07-.63,33.48Z"/><path class="cls-1" d="M176.68,114.54c-.93,3.71-1.22,7.42-.6,11.18.73,4.48,6.09,13.63,8.55,17.88.53.91,1.54,1.49,2.37,1.52,1,.05,2.28-.35,2.63-1.4.7-2.09-.68-3.58-1.8-5.14-2.36-3.27-4.18-6.84-5.77-10.56-1.21-2.83-1.5-5.89-.99-8.92l1.7-10.25c.49-2.98.66-5.83.32-8.87l-.74-6.64c-1.59.7-3.17,1.42-4.74,2.16.74,5.73,1.05,11.14-.92,19.03Z"/><path class="cls-1" d="M201.39,108.94l10.29,17.95c2.55,4.45,4.71,8.76,6.11,13.62.43,1.48,2.11,1.99,3.1,1.79,1.51-.31,2.44-1.73,1.93-3.4-1.4-4.64-3.61-8.82-6.04-13.02l-9.32-16.15c-1.97-3.41-2.72-6.85-2.66-10.82l.23-13.67c-1.71.48-3.42.97-5.11,1.5l-.09,9.23c-.04,4.17-.59,9.23,1.55,12.97Z"/><path class="cls-1" d="M271.31,99.15l3.9,12.76c2.19,7.17,2.39,17.51,1.04,24.83-.26,1.42,1.42,2.82,2.43,2.88,1.13.07,2.87-.97,2.96-2.48.45-7.5.47-15.03-.86-22.54-.94-5.31-2.85-10.1-4.2-15.24-2.54-9.68-8.38-10.98-9.44-16.06-.26-1.24-.4-2.44-.49-3.61-1.64-.15-3.28-.27-4.93-.38.01.5.03,1,.03,1.51,0,9.75,7.18,10.52,9.56,18.32Z"/><path class="cls-1" d="M212.13,106.34c3.65,8,8.34,15.26,13.95,21.86,1,1.17,3.23.88,3.95.12,1.11-1.16,1.29-2.89.09-4.05l-3.23-3.13c-4.45-4.3-7.15-10.06-9.81-15.7-2.14-4.52-2.39-9.37-.79-14.09,1.03-3.03,1.62-6.06,1.74-9.18-1.78.35-3.55.72-5.31,1.12-.19,2.31-.64,4.88-1.59,8.34-1.34,4.91-1.12,10.06,1.01,14.71Z"/><path class="cls-1" d="M357.72,126.75c.36.91,1.31,1.29,2.08,1.33.82.03,1.98-.37,2.47-1.28.82-1.51,1.67-2.98,2.54-4.45-1.26-1.12-2.53-2.23-3.82-3.31-.89,1.23-1.8,2.45-2.7,3.67-.88,1.18-1.09,2.75-.57,4.05Z"/><path class="cls-1" d="M339.71,386.84c.48-2.08.71-5.48-1.92-5.64-.98-.06-1.74.44-2.37,1.25-1.34,1.71-1.16,3.84-1.09,5.93.11,3.3,1.29,6.26,3.95,8.3.1.08.19.16.29.24,1.49-.89,2.96-1.79,4.42-2.72-2.32-2.13-4.04-4.07-3.29-7.36Z"/><path class="cls-1" d="M221,408.39c.28-5.34,2.09-9.28.78-15.27-.88-4.03-1.99-8.03-3.81-11.61-.63-1.24-2.3-1.68-3.28-1.34-1.16.4-1.83,1.67-1.65,3.09.56,4.55,5.76,5.68,3.37,22.75-.67,4.8-5.99,3.39-9.49,6.46-.76.67-1.1,1.61-1.08,2.51,1.92.52,3.85,1.02,5.79,1.48l2.72-1.85c2.63-1.79,4.69.71,5.98,3.67,1.92.35,3.86.66,5.8.94-.73-2.37-1.92-4.62-3.47-6.73-.86-1.17-1.72-2.58-1.64-4.09Z"/><path class="cls-1" d="M175.98,378.3c-.01-1.58-1.13-2.78-2.49-2.83-1.37-.05-2.73,1.08-2.68,2.64.26,9-3.4,11.48-1.14,19.16.36,1.24.69,2.48,1,3.72,1.91,1.02,3.84,2.01,5.79,2.96-.47-2.24-1.03-4.47-1.66-6.68-2.37-8.22,1.25-11.23,1.19-18.96Z"/><path class="cls-1" d="M234.42,104.5c1.58,2.39,3.18,4.58,4.56,7.07.44.79,1.29,1.32,1.89,1.43.94.17,2.12.05,2.7-.79,2.59-3.74-3.41-6.33-6.06-11.98l-5.44-11.59c-1.21-2.58-1.66-5.11-2.1-7.91l-.07-.45c-1.7.21-3.39.44-5.07.7.41,4.43,1.76,8.27,3.97,12.18,2.1,3.7,3.26,7.78,5.62,11.35Z"/><path class="cls-1" d="M184,388.1c-.49-1.84-1.93-2.66-3.63-2.21-1.78.47-2.13,2.15-1.54,3.98l4.94,15.22c.11.34.25,1.2.4,2.37,1.83.78,3.68,1.52,5.54,2.23-.28-2.93-.82-5.75-1.83-8.56-1.56-4.33-2.71-8.63-3.89-13.03Z"/><path class="cls-1" d="M240.13,92.46c.99,2.44,1.51,4.88,2.19,7.33.42,1.52,1.92,2.39,3.18,2,1.28-.39,2.31-1.85,1.91-3.34-.99-3.69-2.36-7.25-3.72-10.8-1.23-3.24-.72-5.94.43-8.51-1.9.08-3.8.17-5.68.31-1.54,4.16,0,8.86,1.69,13.01Z"/><path class="cls-1" d="M309.08,89.09c-2.02-.73-4.05-1.42-6.1-2.07.62.72,1.26,1.43,1.96,2.12,1.07,1.06,3.27,1.2,4.15-.05Z"/><path class="cls-1" d="M405.48,319.52c-2.55.31-2.74,4.83-3.25,6.79-.47,1.79-.78,3.58-.92,5.38,2.12-3.9,4.1-7.89,5.92-11.97-.53-.23-1.17-.28-1.75-.21Z"/><path class="cls-1" d="M359,299.94c-1.29-.19-2.93.96-3.21,2.65-.57,3.54-1.05,7.01-2.79,10.29-1.25,2.34-4.41,3.65-6.05,2.12-1.21-1.13-1.28-5.91.28-7.79,3.96-4.76,3.13-6.13,5.53-10.36,2.07-3.65,5.57.27,9.14-.63,1.39-.35,1.71-1.77,1.54-3.03-.61-4.57-8.94.2-9.75-6.18-.66-5.17-1.83-10.23-2.09-15.51-.27-5.73.27-11.34-.69-17.04-.19-1.16-.98-2.03-1.9-2.41-.9-.37-2.15-.4-2.9.56-1.75,2.24,1.24,6.34.49,11.69-.65,4.66.24,8.93.89,13.53l1.5,10.63c.18,1.27.79,2.77.28,4.04-1.4,3.52-2.85,6.94-4.74,10.13-.59,1-1.96,1.45-2.7,1.24-1.16-.32-1.66-1.58-1.47-2.78l1.7-10.95c.59-3.81.71-7.53,1.27-11.24.25-1.67-1.5-2.95-2.66-2.86-1.61.13-2.6,1.07-2.71,2.74l-.5,7.15c-.39,5.53-1.2,10.88-2.16,16.33-.37,2.07-2.53,3.18-4.04,4.18-2.31,1.53-4.47,1.04-6.23-.92-2.45-2.72-4.02-5.92-5.73-9.19-.83-1.59-1.79-3.15-1.15-5.03,1.58-4.62,2.83-9.26,3.58-14.07.44-2.81.1-5.26-.42-8.03-1.26-6.79-1.71-13.53-2.32-20.39-.3-3.39-1.17-6.37-3.3-9.04-5.2-6.51-4.5-10.12-11.84-14.54-1.97-1.19-6.58-4.69-8.13-1.47-.79,1.63.35,3.61,2.1,4.17,3.26,1.04,5.95,2.75,7.93,5.67,2.56,3.76,5.03,7.51,7.18,11.56,1.08,2.04,1.08,4.47,1.34,6.77l2.54,22.64c.53,4.74-1.89,9.18-2.87,13.68-.4,1.84-1.54,3.19-3.37,3.6-7.45,1.67-10.27,1.41-17.85,4.11-2.42.86-5,1.13-7.49.71-1.92-.33-3.18-1.72-3.04-3.7.14-2.11.59-4.14,1.49-6.06l7.07-15.2c.67-1.44,1.07-3.14.39-4.57-.49-1.05-1.76-1.2-2.84-1.03-2.26.36-2.29,4.92-4.4,9.16l-4.59,9.2c-3.9,7.82.05,11.57-3.77,13.78l-10.27,5.93c-1.6.93-2.38,3.44-.99,4.73,1.47,1.37,3.49.46,4.83-.57,3.32-2.53,6.82-4.49,10.34-6.68,2.97-1.85,5.58,1.7,13.84-.72,2.11-.62,4.06-1.44,6.22-1.88l12.05-2.46c1.31-.27,2.57.47,3.22,1.57,3.39,5.71,3.91,9.33,9.15,12.75,1.61,1.05,1.87,3.32,1.45,5.07l-1.71,7.14c-.27,1.11.04,2.24.85,2.93.6.52,1.63,1.04,2.6.55,1.06-.54,1.74-1.84,2-3.04.62-2.88.92-5.69,1.3-8.62.22-1.65,1.12-2.89,2.48-3.75,2.1-1.34,4.98-3.9,6.83-2.93,2.11,1.11,1.74,6.04,1.19,7.71-.52,1.58-2.06,2.31-3.08,3.42-2.11,2.3-3.9,4.77-5.64,7.32-.91,1.34-.6,3.29.69,3.99,1.15.63,3.28.47,3.96-1.1,1.32-3.04,3.05-5.45,5.42-7.57,3.82-3.44,6.1.12,10.19-1.97,3.24-1.65,5.55-4.63,6.5-8.12l2.3-8.39c.45-1.64-.61-3.36-2.26-3.61Z"/><path class="cls-1" d="M380.49,193.07c-2.85-.17-4.72-3.17-4.05-5.97,1.21-5.01,1.56-9.82,1.28-14.96-.23-4.17-.11-8.36-1.11-12.35-.42-1.68-1.71-2.26-3.03-2.01-1.58.29-2.03,1.43-1.88,3.17.99,11.47,1.92,11.75.13,23.78-.7,4.7-5.17,2.76-10.78,8.12l-4.86,4.65c-1.98,1.9-4.25,2.36-6.91,2.32-5.81-.08-11.54-.2-17.33.07-1.67.08-2.01,2.37-1.66,3.57.27.91,1.72,2.1,3.15,1.95,5.29-.55,10.47-.92,15.85-.38,9.15.91,11.77-6.97,19.43-11.3,1.7-.96,3.63-1,4.95.3,1.2,1.18,1.42,2.86.68,4.56-1.66,3.84-4.3,2.13-8.76,5.21-2.71,1.87-3.86,5.06-2.84,8.37,2.29,7.48,9.86,10.32,17.19,10.76,5.72.34,11.42.27,17.12-.61,8.04-1.25,15.45-5.27,22.23-3.12-.34-1.89-.72-3.76-1.13-5.62-1.78-.48-3.54-.46-5.39-.07-10.33,2.2-15.23,4.67-26.45,4.41-5.9-.14-15.12-.08-18.16-5.8-.52-.98-.65-2.01-.36-3.02.24-.84,1.12-1.4,2.01-1.94,2-1.21,4.35-1.17,5.9.62,2.42,2.8,5.73,3.8,9.36,3.92,5.78.18,11.29-.06,16.95-1.32l10.17-2.27c1.7-.38,3.1-.89,4.31-1.48-.45-1.7-.92-3.4-1.42-5.08-1.98.99-4.11,1.73-6.42,2.25-5.4,1.21-10.59,2.45-16.18,2.66-2.62.1-4.92.59-7.59.07-2.35-.46-5-1.02-6.44-3.33-1.04-1.66.34-4.6,2.33-4.86,4.79-.63,10.55,4.13,21.25,1.4,3.91-1,7.66-2.11,11.42-3.39-.55-1.67-1.12-3.33-1.72-4.97-3.18,1.51-6.44,2.52-9.93,3.37-10.09,2.45-10.6-1-21.32-1.65Z"/><path class="cls-1" d="M337.05,222.33c3.19,3.04,6.08.16,9.3,4.97,4.59,6.87,10.37,12.49,17.37,16.81,1.22.75,2.13,2,2.22,3.12.09,1.26-.1,2.68-1.16,3.51-1.29,1.01-3.2.76-4.38-.36l-10.39-9.81c-3.45-3.26-6.12-7.03-9.24-10.58-.84-.95-1.88-1.4-3.22-.98-.78.24-1.72,1.18-1.79,2.41-.07,1.3.58,2.56,1.62,3.35,6.13,4.64,6.52,7.7,13.66,13.56,2.17,1.78,7.75,5.97,7.46,8.91l-1.25,12.69c-.27,2.72-.17,5.34.53,7.96.71,2.66,1.36,5.23,2.49,7.72.63,1.4,2.57,2.41,3.94,1.61,1.62-.95,1.61-3.4.61-4.91-1.82-2.73-2.85-5.6-2.7-9.09.23-5.34.57-10.53,1.57-15.73.38-1.99,3.44-2.51,5.03-1.75,2.59,1.25,4.95,2.14,7.86,1.83l7.04-.76c3.23-.35,18-.57,18.92-3.88.34-1.21.39-2.53-.65-3.3-.94-.69-2.43-.71-3.52-.23-6.42,2.85-12.17,1.61-19.65,2.74-2.58.39-5.21.66-7.44-1.02-.93-.7-1.03-2.08-.71-3.13.97-3.14,7.14-2.26,10.12-2.11,6.03.29,11.82-.78,17.83-1.46,4.05-.46,7.68-1.16,11.38-2.83,2.96-1.34,9.86-2.33,8.05-6.26-.64-1.38-2.3-1.88-3.71-1.24l-6.32,2.89c-4.09,1.87-8.43,2.32-12.94,2.71-4.9.43-9.57,1.17-14.51.96-10.33-.44-9.11,2.53-14.13-.79-6.19-4.1-11.52-8.95-15.82-15.04-1.38-1.95-2.04-3.94-1.47-6.38.75-3.19-.15-6.69-2.67-8.88-1.15-.99-3.2-1.41-4.36-.34-1.24,1.14-.58,3.17.35,4.3.83,1.01,3.34,3.38,1.38,5.09-.64.56-1.88.79-2.78.27-5.81-3.41-4.17-10.78-9.07-8.93-1.3.49-1.95,2.4-1.16,4.08,1.47,3.11,3.78,5.9,6.32,8.31Z"/><path class="cls-1" d="M99.78,291.21c.17-1.44-1.29-2.72-2.38-2.8-3.55-.27-2.8,4.88-3.04,6.96-.48,4.17-.8,8.25-.97,12.44-.08,1.81-.62,3.34-1.6,4.7.7,1.79,1.44,3.55,2.2,5.31,3.04-3.11,4.7-6.94,4.77-11.47.08-5.12.42-10.09,1.02-15.14Z"/><path class="cls-1" d="M395.27,327.59c4.35-6.91,7.35-14.46,9.4-22.37.57-2.21.64-4.41.08-6.59-2.39-9.37-4.53-19.54-11.35-26.33-1.31-1.31-3.46-1.91-4.83-.59-1.3,1.25-.74,3.61.71,4.57,2.8,1.85,4.62,4.33,5.85,7.45,1.94,4.95,3.55,9.91,4.65,15.14.39,1.85.43,3.6-.05,5.45-1.91,7.33-4.61,14.35-8.66,20.73-.93,1.46-2.45,2.75-4.16,2.53-6.2-.8-12.47.9-14.68,7.32-1.86,5.43-4.01,14.61-.54,19.63,1.82,2.64,5.4,3.19,8.33,2.32,1.7-.51,3.26-.69,4.9-.44,1.17-1.47,2.32-2.96,3.45-4.48-1.12-.11-2.3-.58-2.47-1.74-.82-5.68,2.1-11.85-2.09-12.5-5.62-.87-1.73,10.74-3.37,13.25-.65,1-1.83,1.06-2.95.94-3.8-.41-2.66-6.05-2.32-8.19.49-3.05.72-6.45,2.93-8.9,1.91-2.12,5.34-2.68,8-2.42,2.25.22,3.35,1.66,3.84,3.63.44,1.81,1.84,6.73,2.34,10.43,1.37-2.01,2.7-4.04,3.99-6.11-.66-2.82-1.56-5.57-2.59-8.31-.64-1.69.76-3.1,1.6-4.44Z"/><path class="cls-1" d="M270.7,290.93c1.46-4.22,3.56-7.84,5.5-11.85,3.06-6.31,6-12.41,9.52-18.38.97-1.64.04-3.78-1.22-4.25-1.51-.56-3.32.05-3.92,1.72-.92,2.56-1.77,5.04-3.06,7.53l-6.75,13.07c-1.76,3.4-3.51,6.49-4.76,10.13-1.18,3.43-5.54,7.43-7.54,5.51-.33-.32-.59-1.02-.49-1.74.86-5.83,3.77-6.78,1.79-14.73-1.07-4.32-2.5-8.44-5.43-11.76-3.91-4.44-8.2-2.98-12.88-.59-2.36,1.2-4.23,3.18-4.98,5.82-1.16,4.1-2.22,8.13-2.96,12.33-.27,1.49.37,3.09,1.63,3.36,5.33,1.14,2.78-6.98,6.02-13.99,1.35-2.91,4.32-4.92,7.59-4.33,4.13.74,6.81,9.9,6.54,13.5-.24,3.13-1.42,6.19-2.35,9.36-.53,1.79-2.52,2.91-3.81,3.81-10.07,7.02-8.03,17.01-5.07,27.12,1.01,3.45,1.56,6.81,1.32,10.42-.07,1.05.37,2.17.97,2.59.8.56,2.12.73,2.93.35,2.1-.97,1.58-3.06,1.33-4.83-.58-4.01-1.01-7.72-2.33-11.59-1.43-4.2-2.05-8.74-1.11-13.14.81-3.75,6.1-10.03,8.53-7.42.69.75.47,1.52.17,2.49-1.5,4.81-2.79,9.59-3.87,14.52-.34,1.57.54,3.17,1.88,3.47,4.21.92,3.7-5.82,4.44-8.67l2.1-8.12c1.31-5.09,7.58-3.86,10.28-11.67Z"/><path class="cls-1" d="M88.87,230.84c2.18,2.82,5.45,4.93,9.02,5.04,4.12.12,7.99-.24,12.01-.46,1.22-.06,2.14-.99,2.52-1.75.54-1.07.41-2.38-.55-3.15-3.45-2.78-13.2,4.45-19.4-3.32-2.86-3.59-5.87-7.04-9.31-10.04-.39,1.98-.74,3.97-1.06,5.98,2.18,2.14,4.35,4.6,6.76,7.7Z"/><path class="cls-1" d="M88.98,215.16l5.78,6.25c1.85,2,4.2,3.23,6.96,3.55,2.44.28,4.89.79,7.27.72,1.62-.04,2.81-1.67,2.72-2.97-.25-3.68-5.76-2.18-8.88-2.62-2.65-.37-4.85-2.14-6.47-4.2-2.82-3.57-5.86-6.47-9.55-9.15l-1.07-.78c-.46,1.74-.91,3.49-1.32,5.26,1.79,1.34,3.36,2.64,4.56,3.93Z"/><path class="cls-1" d="M118.67,344.29c2.05-.11,3.07-1.61,2.8-3.26-.68-4.14-6.91-.85-13.24-3.04-3.52-1.22-.93-6.31-3.85-7.73-1.24-.6-2.56-.18-3.22.55-.22.24-.38.48-.5.73,2.14,3.93,4.43,7.76,6.86,11.5,1.82.25,3.98.77,6.33.87,1.54.06,3.05.49,4.83.39Z"/><path class="cls-1" d="M107.03,326.32l6.2,5.48c1.41,1.25,2.94,2.35,4.74,2.92,1.39.44,3-.36,3.39-1.42,1.32-3.58-3.75-4.43-6.87-6.97-4.22-3.44-9.64-10.49-16.69-5.1-.57.44-1.12.91-1.64,1.4.75,1.59,1.51,3.16,2.3,4.72.37-.42.74-.83,1.15-1.21,2.14-2.05,5.27-1.71,7.41.18Z"/><path class="cls-1" d="M121.28,358.6c-.88-.55-1.82-.63-2.73-.44,1.09,1.34,2.2,2.66,3.33,3.96.69-1.1.42-2.88-.6-3.51Z"/><path class="cls-1" d="M234.93,332.8c.29,4.8,2.76,9.27,6.67,11.77,3.51,2.25,7.49,2.67,11.13.78,2.28-1.18,8.06-4.58,6.5-7.53-.47-.89-1.44-1.88-2.63-1.6-1.6.38-2.59,1.61-3.73,2.85-2.97,3.24-7.86,2.8-10.54-.46-3.2-3.88-2.23-8.56-3.47-13.61-1.87-7.59-3.5-15.09-4.74-22.81-.4-2.47,1.08-4.04,3.22-4.83,4.8-1.77,8.83-5.1,10.78-9.87,1.24-3.03,3.91-14.82-1.58-13.15-1.02.31-2.1,1.62-1.91,3.02.97,7.13-2.68,13.3-9.49,15.6-1.84.62-3.39.47-4.63-1.37-1.56-2.32-2.12-5.25-1.73-8.25.87-6.63,2.39-12.98,3.84-19.48,1.54-6.86-2.01-10.04-5.47-14.55-1.12-1.46-3.57-2.16-4.94-.61-1.28,1.44-.22,3.73,1.26,4.69,3.6,2.34,5.02,6.01,4.19,10.24l-3.2,16.25c-1.16,5.87-1.29,11.48,3.12,15.81,2.74,2.68,1.12,5.05,1.89,8.9,1.21,6.09,2.22,12.09,3.83,18.08.93,3.46,1.39,6.59,1.61,10.12Z"/><path class="cls-1" d="M207.85,245.12c1.05-.11,2.38-1.2,2.35-2.6-.06-2.99-.59-5.99-1.25-8.94-.77-3.46-3.26-5.83-6.64-6.66-4.04-.98-8.2-.36-10.53-2.65-.94-.92-1.48-2.01-1.26-3.33.47-2.86,4.23-2.87,4.95-7.36.68-4.2-.66-8.55-3.96-11.35-5.94-5.05-12.32.29-25.75-5.68-1.18-.53-2.74-.85-3.93-.34-1.03.44-1.12,1.73-1.03,2.68.07.8.67,1.82,1.71,2.17,3.92,1.3,7.77,2.48,11.86,3.29,7.1,1.41,12.51-.68,15.04,3.08,2.08,3.09.76,7.44-1.6,8.28-1.16.41-2.45.37-3.47-.24-9.88-5.88-18.5-7.02-25.74-11.48-2.68-1.65-1.79-6.29-3.94-7.62-.93-.58-2.11-.62-2.89-.01-1.72,1.34-1.46,3.42-.65,5.24,1.59,3.6,3.85,6.96,7.69,8.42,8.39,3.21,16.57,6.38,24.51,10.56,3.46,1.82,2.14,8.22,9.09,10.01,5.93,1.53,10.79-.31,12.12,5.76.46,2.11.65,4.07.58,6.22-.05,1.5,1.48,2.66,2.73,2.52Z"/><path class="cls-1" d="M146.36,167.47c6.13-1.45,12.02-.08,16.66,4.02,1.2,1.06,3.34,1.28,4.33.1,1.39-1.65.43-3.84-1.25-4.77-2.34-1.31-4.46-2.69-7.1-3.65-10.06-3.64-14.96.91-20.07-.3-1.42-.33-2.4-1.39-2.01-2.91.28-1.1.74-2.3,1.67-3.05,3.95-3.17,9.27-5.9,14.11-3.05,5.26,3.11,8.63,4.29,14.34,2.73l14.69-4.02c1.76-.48,2.69-1.77,2.27-3.39-.37-1.43-1.88-2.44-3.56-1.89-5.02,1.65-9.94,3.41-15.14,4.6-10.27,2.36-10.57-10.79-27.14-1.01-8.4,4.96-4.62,10.28-8.22,12.35-4.59,2.63-9.14,5.04-13.93,7.31-5.56,2.63-9.02,1.83-9.21,5.04-.07,1.25.47,2.5,1.81,2.85,1.74.45,3.12-.63,4.66-1.26,6.43-2.59,12.52-5.47,18.39-9.17,4.32-2.72,5.45,1.63,14.7-.55Z"/><path class="cls-1" d="M354.72,369.67c-4.82,1.51-8.64,5.67-9.58,10.68-.7,3.74.36,7.64,2.69,10.65,1.39-.96,2.76-1.93,4.12-2.93-1.95-2.23-2.55-5.58-1.52-8.26.93-2.43,3.34-4.89,6.27-5.21,2.27-.24,4.46.48,6.4,1.48.83.43,1.59.77,2.31,1.06,1.52-1.37,3.01-2.76,4.47-4.18-2.03-.48-4.15-1.17-6.53-2.26-2.64-1.22-5.74-1.94-8.63-1.03Z"/><path class="cls-1" d="M297.13,217.21c4.9.8,8.92,2.91,12.53,6.25,1.28,1.19,3.43.99,4.39-.22.98-1.24.56-3.22-.91-4.27-2.86-2.05-6.09-3.51-9.34-5.02-5.99-2.77-9.35-.14-11.74-4l-4.73-7.64c-2.38-3.85-5.64-6.65-9.78-8.54-12.29-5.61-17.3-2.97-26.31-6.2-1.27-.46-2.83-.67-4.1-.21-1.12.41-1.38,1.75-1.34,2.72.02.7.55,2.04,1.61,2.22,4.23.74,8.37,1.56,12.69,2.09,8.03.97,17.81,2.8,22.52,9.93l5.05,7.65c1.25,1.89,1.2,3.69.26,5.71-1.67,3.59-2.21,7.52-3.08,11.38-1.42,6.34.49,9.34,3.46,14.54.77,1.35,2.73,2.69,4.28,1.78,1.89-1.11,1.35-3.69,0-5.09-1.62-1.68-3.12-3.67-3.08-6.3.07-5.12,1.36-9.85,2.9-14.39.77-2.28,2.64-2.73,4.73-2.39Z"/><path class="cls-1" d="M191.83,153.96c3.87.49,7.45,1.78,11.22,2.58,8.68,1.85,8.23,8.38,12.27,13.07,2.1,2.44,5.31,3.75,8.4,2.58,6.38-2.4,5.01-12.67,3.47-17.79-2.53-8.38-11.8-6.66-14.79-13.15-2.12-4.61-4.23-9-6.8-13.39-1.94-3.32-3.19-6.7-4.18-10.33-.41-1.52-1.99-2.44-3.28-1.97-1,.36-2.38,1.79-1.9,3.2,1.98,5.88,5.17,11.16,7.85,16.77l3.79,7.92c1.28,2.68,3.28,4.89,5.99,6.22l4.05,1.99c2.55,1.25,4.35,3.36,5,6.2.56,2.43,1.74,9.13-1.93,9.15-3.24.02-3.63-5.3-6.64-9.3-2.75-3.66-6.93-5.71-11.46-6.41-3.81-.59-7.22-1.55-10.76-3.03-.96-.4-2.56-.06-3.28.53-.54.45-1.27,1.41-.98,2.5.52,1.91,2.31,2.46,3.97,2.67Z"/><path class="cls-1" d="M373.89,133.73l-2.24,5.56c-2.5,6.21-11.35,18.27-10.19,26.26,1.74,12.03-.16,12.45-8.03,19-3.6,3-7.85,4.81-12.63,4.82l-7.79.02c-9.7.02-12.31,5.57-20.57,8.29-.88.74-1.64,1.39-1.62,2.38.02.92.24,2.13,1.42,2.56,1.67.6,3.3-.03,4.6-.91,2.31-1.57,4.59-2.94,6.99-4.36,9.73-5.76,16.23-.74,26.74-4.79,7.26-4.91,17.07-10.17,16.42-20.33l-.5-7.75c-.18-2.82.56-5.12,1.74-7.56,3-6.22,5.97-12.22,9.37-18.23.44-.78.8-1.66,1-2.55-1.14-1.28-2.3-2.55-3.48-3.79-.53.28-.99.73-1.25,1.38Z"/><path class="cls-1" d="M358.19,357.87c-2.08-.52-3.5-1.97-3.6-4.13-.18-3.6-.45-7.16-.27-10.78.17-3.23,2.18-9.73,2.56-14.98.14-1.97-.88-3.44-2.8-3.4-1.48.03-2.94,1.34-2.74,3.18.25,2.34.29,4.45-.38,6.8-1.16,4.07-2.08,8.26-1.77,12.47.21,2.83.34,5.47.89,8.24.35,1.75-.29,3.36-1.55,4.58l-11.71,11.27c-.92.88-2.11,1.41-2.54,2.66-.43,1.26-.06,2.6.8,3.31,2.76,2.26,5.9-2.75,6.49-3.35l10.41-10.52c.94-.95,2.66-1.26,3.96-.87,3.52,1.05,6.89,1.88,10.48,3.17,2.79,1.01,5.51,1.96,8.29,2.61,1.39-1.46,2.75-2.95,4.09-4.45-2-.25-3.99-.71-5.93-1.42-4.9-1.77-9.66-3.12-14.68-4.37Z"/><path class="cls-1" d="M352.13,155.49c-2.36,4.15-8.72,10.9-12.61,5.94-1.72-2.19-3.37-4.44-4.77-6.92-3.54-6.25-.27-20.27-1.24-22.86-.4-1.08-1.14-1.83-2.07-1.9-1.14-.08-2.25.18-2.7,1.43-.66,1.82-.15,3.54-.21,5.3l-.37,10.97c-.25,7.45,3.82,12.84,8.53,18.27,2.26,2.61,5.56,3.56,8.79,2.18,5.16-2.2,9.1-6.12,11.66-11.11,2.24-4.37,4.77-8.43,6.29-13.1,1.76-5.42,4.36-10.05,8.57-13.92.11-.1.22-.22.33-.32-1.14-1.15-2.3-2.29-3.48-3.41-3.41,3.75-7.39,6.74-10.09,15.92-1.44,4.92-4.12,9.14-6.62,13.54Z"/><path class="cls-1" d="M118.45,196.49l7.11-.74c2.98-.31,5.85-1.25,8.36-2.8,2.52-1.55,5.01-2.91,7.48-4.67,1.41-1,1.69-2.65.99-3.78-.81-1.31-2.36-1.62-3.76-.84-4.81,2.7-6.38,5.99-14.07,7.19-5.49.85-10.88,1.03-16.45,1.16-2.11.05-4.22.27-6.19-.68-3.24-1.57-6.45-3.41-9.44-5.54-.63,1.55-1.24,3.11-1.83,4.69,4.22,3,9.9,6.73,13.29,6.68,4.89-.08,9.65-.16,14.5-.66Z"/><path class="cls-1" d="M347.21,327.77c-.49-.62-1.25-.83-2.14-.86-1.21-.05-2.19.48-2.66,1.58l-2.33,5.42c-.93,2.17-2.79,2.78-5.06,2.09-3.78-1.16-7.2-3.09-10.85-4.7-8.06-3.56-3.46-9.25-8.31-19.15-1.38-2.81-2.49-5.59-3.47-8.53-.35-1.04-1.3-1.76-2.01-1.97-.97-.29-2.19-.23-2.76.57-1.13,1.57-.47,3.32.35,4.95,2.73,5.45,5.46,11.12,5.91,17.26.42,5.69,3.36,9.57,8.54,11.73,4.18,1.74,8.07,3.92,12.6,4.94,1.36.31,2.71,1.6,2.99,2.85,1.33,5.81,1.98,9.86-2.66,14.03-2.67,2.4-7.78,6.19-4.62,9,1.28,1.14,2.98.7,4.12-.7,1.85-2.26,3.68-4.47,5.68-6.63,1.89-2.04,2.94-4.52,3.22-7.28.87-8.66-3.16-10.42-.4-14.66,1.47-2.25,5.42-7.95,3.85-9.93Z"/><path class="cls-1" d="M294.43,193.67c-.97-2.33-1.47-4.46-.64-7.06,1.23-3.84-.54-7.72-4.2-9.53-3.36-1.66-6.92-2.94-10.55-3.84-1.64-.41-3.19.77-3.43,2.14-.73,4.05,5.72,2.86,10.97,5.68,1.82.98,3.08,3.05,1.82,4.97-.63.96-2.14.81-3.12.39l-14.3-6.15c-1.85-.8-17.77-2.92-15.7,3.04.4,1.14,2,2.08,3.4,1.72,11.78-3.06,15.83,4,26.27,6.08,2.48.5,4.21,1.67,5.08,4.27,1.94,5.8,6.15,9.79,11.68,11.97,3.85,1.51,7.3,3.29,10.65,5.65,1.23.86,3.19.8,4.21-.16.81-.76.82-1.99.43-2.84-.27-.59-.94-1.51-1.81-1.85-4.07-1.57-7.72-3.78-11.67-5.55-4.24-1.91-7.28-4.58-9.09-8.92Z"/><path class="cls-1" d="M134.73,206.91c1.52-1.59,3.09-2.8,4.93-4,5.43-3.56,5.29-4.79,9.82-9.94,1.21-1.38,2.77-2.25,4.75-2.12,2.99.2,5.93.17,8.88.7l13.77,2.48c2.12.38,4.39-.7,6.27-1.47,4.55-1.88,6.85,1.68,12.54,3.56,1.55.51,3.3-.51,3.69-1.82,1.1-3.73-4.78-4.69-8.63-6.05-4.2-1.49-1.52-5.78-3.87-10.48-.66-1.31-2.34-1.31-3.37-.79-1.16.59-1.83,1.86-1.45,3.26l1.12,4.15c1.32,4.89-7.5,4.94-10.65,4-4.95-1.47-9.94-1.69-14.97-2.5-10.9-1.77-11.42,5.05-19.15,11.62-2.08,1.77-4.46,2.82-6.71,4.31-1.57,1.04-2.55,3.09-1.51,4.81.93,1.54,3.33,1.54,4.53.29Z"/><path class="cls-1" d="M155.86,271.21c-6.49-1.64-12.68-3.92-19.32-5.02-2.69-.44-5-1.26-6.88-3.2-4.94-5.1-6.92-12.36-10.49-9.87-1.16.81-1.61,2.62-.52,4.02l6.9,8.88c2.51,3.23,5.94,4.4,9.81,5.04,6.27,1.03,12.1,3.11,18.23,4.69,2.47.64,4.89,1.52,6.64,3.39,1.57,1.67,3.13,3.31,4.48,5.14,2.01,2.72,4.27,4.82,7.35,6.36,4.48,2.23,8.97,4.31,13.65,6.1,1.49.57,2.99-.36,3.4-1.54,1.71-4.97-10.25-5.19-17.47-11.12-6.58-5.4-6.43-10.52-15.77-12.88Z"/><path class="cls-1" d="M178.47,160.39c.1,1.4,1.74,2.41,3.38,2.3,3.91-.27,7.31.36,10.95,1.66,3.72,1.33,7.44,2.95,9.76,6.32,2.57,3.73,5.46,6.87,8.56,10.15,3.97,4.2,5.24,13.23,12.65,15.22,5.63,1.51,11.29,2.63,17.31,3.29,2.29.25,3.53-1.46,3.38-3.19-.15-1.66-1.63-2.72-3.51-2.57-3.99.32-7.7-.16-11.54-1.19-2.27-.61-4.61-.91-6.47-2.47-4.14-3.46-3.5-8.25-8.86-13.48-2.7-2.63-4.9-5.46-7.13-8.5-1.67-2.27-3.65-4.4-6.22-5.69-6.12-3.07-12.74-4.64-19.45-5.2-1.98.36-2.94,1.57-2.81,3.33Z"/><path class="cls-1" d="M89,259.15c2.01,4.56,3.48,9.18,4.81,13.98,1.77,6.36.28,10.74,3.13,11.87.87.34,2.52.32,3.18-.57.67-.91.65-1.84.5-2.82-1.14-7.8-3.61-15.03-6.14-22.42-2.81-8.21-7.93-9.45-14.44-11.94-.01.92-.03,1.83-.03,2.75s.02,1.76.03,2.64l2.42.82c2.89.99,5.29,2.85,6.54,5.69Z"/><path class="cls-1" d="M196.7,250.87c-.39-1.39-1.65-1.98-3.39-1.77-3.69.46-7.01,5.91-16,3.53-11.02-2.91-10.23.42-20.83-2.53-7.08-1.97-13.25-5.19-18.83-9.91-2.68-2.27-5.57-3.95-7.99-6.51-.7-.74-2.27-.95-3.06-.56-1.13.56-1.42,1.63-1.39,2.63.03.95.43,2.02,1.39,2.64,10.56,6.74,12.46,11.58,25.48,15.53,3.62,1.1,7.1,2.48,10.99,2.39,5.33-.13,10.32.46,15.48,1.6,2.54.57,5,.65,7.41-.23,3.13-1.13,6.19-2.19,9.21-3.47,1.46-.62,1.86-2.15,1.52-3.35Z"/><path class="cls-1" d="M144.8,213.48c.82.13,1.93,1.02,2.26,2.16,1.74,6,.37,10.86,5.57,14.47,7.81,5.41,11.45,3.64,18.4,12.43,2.54,3.21,6.46,4.6,10.21,5.93,1.25.44,2.47.61,3.45-.26.73-.65,1.1-1.86.74-2.99-1.05-3.29-6.67-.83-11.17-6.66-5.67-7.34-10.7-7.8-17.05-11.53-5.47-3.21-4-7.81-5.5-13.12-.81-2.88-2.78-5.42-5.88-5.94-4.41-.73-9.08,2.81-9.24,7.41-.1,3.01,1.92,11.45,5.65,9.61,1.81-.89,1.77-3.3.79-4.82-1.03-1.59-1.71-3.33-1.04-5.17.43-1.17,1.67-1.71,2.8-1.53Z"/><path class="cls-1" d="M375.14,234.36l7.11.07c4.51.04,8.9-.3,13.42-.64,7.57-.57,13.67-4.35,21.95-4.98,1.74-.13,2.47-2.22,2.2-3.51-.33-1.58-2-2.43-3.63-1.98l-16.64,4.58c-8.27,2.28-17.01,2.01-25.56,1.17-6.34-.63-11.27-4.96-13.73-10.49-.58-1.31-.88-2.55-1.63-3.62-.89-1.26-2.65-1.44-3.74-.78-1.11.68-1.59,2.2-1.02,3.56,3.66,8.65,11.09,16.53,21.26,16.62Z"/><path class="cls-1" d="M379.37,290.27c-2.87,1.45-1.47,5.19-1.51,6.23-.22,5.96-.85,11.74-1.52,17.63-.15,1.3-.99,2.26-2.07,2.35-6.22.51-2.39-15.94-1.89-20.18.45-3.84,1.7-7.14,3.95-10.2,1.04-1.42.86-3.56-.65-4.32-1.26-.64-3.36-.5-4.1,1.18-1.22,2.8-2.53,5.65-3.2,8.73-1.2,5.48-1.84,10.9-2.68,16.45-.83,5.51,1.33,10.39,5.87,13.54,1.33.92,2.82,1.54,4.59,1.07,4.7-1.26,5.3-10.96,5.71-14.94.4-3.84.89-7.46,1.03-11.33.07-1.96.73-4.04-.75-5.79-.73-.86-1.98-.82-2.77-.42Z"/><path class="cls-1" d="M186.43,265.52c-13.32-5.3-19.73-2.39-25.01-3.79l-17.8-4.74c-3.16-.84-5.75-2.22-8.2-4.31-2.68-2.29-4.97-4.66-7.07-7.49-.85-1.14-2.82-1.9-4.04-1.21-1.82,1.02-1.58,3.51-.23,4.79l6.54,6.21c2.7,2.56,5.43,4.89,9.08,6.03,6.43,2,12.72,3.79,19.27,5.43,9.18,2.31,12.79-2.06,25.2,4.24,1.69.86,3.66.32,4.28-1.3.55-1.44-.12-3.1-2.02-3.86Z"/><path class="cls-1" d="M236.19,128.34c.33,6.83,2.45,12.99,6.76,18.21,1.96,2.37,2.25,5.44,1.59,8.31-.4,1.73.8,3.18,2.29,3.51,4.32.95,5.09-8.7.15-14.7-2.81-3.41-4.74-6.87-5.33-11.2l-1.22-9c-1.21-8.88-12.29-11.81-15.55-28.68-.28-1.43-2.07-2.13-3.06-1.92-1.17.25-2.45,1.49-2.1,2.93,2.07,8.52,6.33,16,12.32,22.32,2.74,2.89,3.96,6.25,4.15,10.21Z"/><path class="cls-1" d="M275.58,234.5c3.8-4.56,4.65-9.36,5.42-15.16.46-3.44-.24-6.74-2.15-9.66-1.8-2.74-3.68-5.39-5.85-7.8-.91-1.01-2.36-1.2-3.44-.52-.91.57-1.32,1.8-.87,3.07.96,2.74,5.79,5.74,6.75,9.91,1.45,6.32-.39,12.98-4.4,18-2.13,2.66-4.02,5.13-5.85,7.97-4.55,7.04,1.5,11.67,3.42,16.63.97,2.52-.24,8.2,3.36,8.2.91,0,2.25-.84,2.41-2.19,1.2-10.35-7.1-14.54-5.35-18.69,1.55-3.68,4.04-6.73,6.55-9.74Z"/><path class="cls-1" d="M183.36,301.41c-2.9-.84-5.71-1.92-8.48-3.13-6-2.64-12.3-.71-15.84,4.81-2.05,3.2-3.11,6.78-4.34,10.42-2.64,7.74,1.05,11.71,5.43,17.13,1.26,1.55,3.7,2.46,5.25.75,1.04-1.16.3-3.18-.77-4.19-1.33-1.24-2.68-2.24-3.86-3.61-3.71-4.33-.37-11.91,1.61-16.34,1.89-4.21,6.11-6.01,10.46-4.26,4.14,1.67,8.35,3.25,12.92,3.76,3.98.44,7.88-1.51,10.52-4.22,1.38-1.42,1.13-3.21-.09-4.24-3.6-3.03-4.9,5.43-12.8,3.13Z"/><path class="cls-1" d="M98.65,209.82c1.27,1.77,2.59,3.47,4.07,5.22,1.07,1.26,2.61,1.37,3.74.52.83-.62,1.58-2.31.67-3.42-2.97-3.62-5.56-7.74-9.43-10.59-2.87-2.12-5.91-3.95-8.88-5.85-.53,1.58-1.03,3.16-1.51,4.76,4.56,3,8.94,6.04,11.34,9.36Z"/><path class="cls-1" d="M326.66,394.44c-1.36-3.51-2.84-6.83-4.7-10.13-3.44-6.11-5.74-12.4-7.92-19.04-1.46-4.45-4.33-8.04-6.68-11.99-.67-1.12-1.48-1.99-2.56-2.09-1.24-.12-2.54.04-3.21,1.26-2.05,3.69,4.97,4.81,8.32,16.15,1.36,4.61,3,8.86,5.27,13.13,2.72,5.1,4.99,10.19,7.07,15.55,1,2.59,2.8,4.45,5.03,5.86,1.87-.93,3.72-1.89,5.55-2.89l-.78-.33c-2.52-1.07-4.37-2.85-5.38-5.46Z"/><path class="cls-1" d="M118.18,145.7c3.11,1.01,4.32-4.42,7.98-6.89,7.76-5.24,15.89-9.48,24.3-13.54,8.43-4.07,7.74-11.68,10.91-20.92-2.17,1.34-4.31,2.72-6.42,4.16l-1.24,4.65c-.97,3.64-3.02,6.31-6.38,8.05l-14.71,7.58c-1.36.7-3.22,1.76-5.19,3.02-3.83,4.01-7.48,8.2-10.91,12.56.36.63.98,1.12,1.65,1.34Z"/><path class="cls-1" d="M250.94,102.82c-1.93,7.87-6.07,13.2-4.98,21.62.59,4.56,1.21,8.99,2.18,13.43.26,1.21,1.11,2.16,1.98,2.37,1.03.25,2.34.18,2.85-.9.54-1.15.35-2.78-.02-4.18-.96-3.6-1.32-6.93-1.76-10.44-.28-2.27-.61-4.35-.05-6.66,2.35-9.71,4.53-8.14,5.19-19.89.22-3.87.3-7.5-.47-11.34-.65-3.27-.37-5.76.09-7.78-1.64-.05-3.28-.08-4.93-.08-.08,0-.16,0-.23,0-1.56,8.05,2.55,14.07.15,23.84Z"/><path class="cls-1" d="M122.11,228.01c-.52-4.32-1.45-8.17-3.23-12.05l-5.78-12.59c-.48-1.05-1.34-1.94-2.33-2.42-1.38-.68-2.78-.13-3.48.95-1.66,2.53,2.16,5.11,3.16,7.09,1.68,3.33,2.91,6.71,4.38,10.15,1.92,4.51,2.49,9.29,1.78,14.14-.58,3.99-1.39,7.89-2.95,11.62-1.22,2.92-3.76,4.97-6.46,6.4l-6.95,3.66c-1.07.56-1.8,1.45-1.86,2.45-.07,1.1.16,2.41,1.43,2.91,1.79.7,3.28-.35,4.55-1.34,5.62-4.4,12.43-5.81,15.12-15.56,1.4-5.08,2.36-10.19,2.63-15.41Z"/><path class="cls-1" d="M126.54,221.22c1.82,6.71,4.37,8.31,10.25,11.94l11.18,6.89c4.84,2.98,10.02,5.17,15.26,7.29,1.62.66,3.07-.81,3.23-2.02.18-1.33-.4-2.89-2.05-3.41-13.6-4.29-14.8-7.9-25.98-13.44-4.24-2.1-6.81-5.97-7.68-10.57-.92-4.87-4.87-9.27-6.19-15.42-.28-1.31-1.4-2.17-2.67-2.37-1.25-.2-2.24.34-2.79,1.23-.55.88-.45,1.85.07,2.9,2.76,5.54,5.72,10.96,7.35,16.99Z"/><path class="cls-1" d="M211.42,201.47c1.9,2.46,4.56,3.86,7.66,4.61,4.13,1.01,8.37,1.53,12.64,1.87,1.7.13,2.88-1.54,2.74-2.89-.46-4.54-7.18-1.08-15.29-4.26-2.97-1.16-5.04-3.9-6.56-6.64-2.79-5.04-6.41-8.94-10.05-13.31l-6.57-7.9c-1.95-2.34-4.78-3.43-7.4-4.96-1.52-.89-3.42-1.54-4.95-.32-.89.71-.9,1.96-.47,3.06.98,2.48,6.54,2.01,9.22,5.81,3.21,4.55,6.98,8.26,10.59,12.45,3.31,3.85,5.35,8.46,8.44,12.48Z"/><path class="cls-1" d="M174.78,184.18c1.48.61,3.2-.93,3.37-2.2.15-1.17-.64-2.86-2.14-3.16l-16.16-3.24c-3.44-.69-6.67-1.47-10.23-1.5-4.29-.03-8.46-.31-12.77.05-6.88.58-10.55,5.73-20.61,7.26-1.78.27-2.99,1.91-2.7,3.42.3,1.55,1.82,2.49,3.51,2.18,1.5-.28,2.8-.95,4.25-1.42,3.7-1.19,7.28-2.62,10.6-4.57,3.43-2.01,6.8-2.14,10.83-2.07,7.31.14,14.01.98,20.97,2.44,3.83.81,7.45,1.29,11.1,2.81Z"/><path class="cls-1" d="M103.16,264.38c-3.82,2.58,2.91,6.12,2.56,15.85-.33,9.37-2.26,16.77-1.38,25.5.44,4.39,2.89,7.76,6.4,10.13,2.77,1.87,4.89,4.07,6.68,6.76.98,1.48,2.93,1.57,4.06.75,1.33-.96,1.58-2.84.31-4.28-2.61-2.95-5.52-5.41-8.51-7.79-2.53-2.02-3.87-4.5-4.22-7.74-.59-5.46,1.66-18.65,1.46-26.19-.11-4.2-1.96-8.23-3.45-11.92-.66-1.63-2.79-1.83-3.91-1.07Z"/><path class="cls-1" d="M266.8,123.53l.48,12.25c.15,3.85,1.03,7.54,1.87,11.24.85,3.74,1.29,7.3,1.64,11.01.16,1.64,1.66,2.84,2.88,2.74,1.59-.13,2.57-1.33,2.77-3.25l-4.18-19.51c-.57-2.68-.27-5.22-.41-7.91l-.51-9.91c-.49-9.49-5.28-13.73-5.44-21.9-.03-1.44-1.27-2.69-2.6-2.87-.81-.11-1.67.16-2.07.58-.34.36-.86,1.12-.74,1.92,2.2,14.33,5.8,13.13,6.29,25.6Z"/><path class="cls-1" d="M407.85,311.76c-.55,1.01-1.04,2.43-.3,3.53.29.43.73.72,1.22.89,1.96-4.68,3.72-9.46,5.27-14.33-1.11,1.27-2.23,2.58-3.09,4.18l-3.1,5.74Z"/><path class="cls-1" d="M419.62,261.44c.17-1.29.62-2.4.19-3.68-.48-1.44-1.54-2.26-2.93-2.07-1.25.17-2.17,1.21-2.27,2.66l-.83,12.28c-.38,5.6,2.76,10.83,4.07,17.17.77-3.39,1.43-6.83,1.99-10.29-.63-1.92-1.08-3.81-1.05-5.9.05-3.42.39-6.76.83-10.16Z"/><path class="cls-1" d="M394.18,167.07c.81,5.96,3.05,11.07,7.45,15.17,2.31,2.16,4.98,8.4,8.17,5.66.16-.14.3-.31.44-.49-.84-2.12-1.72-4.22-2.64-6.3-3.76-3.96-6.88-6.63-7.94-12.62l-.79-4.5c-1.77-3.04-3.63-6.01-5.58-8.93-.47,4,.34,8.01.89,12.01Z"/><path class="cls-1" d="M288.5,287.62c-1.06,1.43-.88,3.41.47,4.18,1.26.72,3.16.47,4.11-1.14,2.31-3.92,4.13-7.99,5.94-12.1,1.59-3.61,2.06-7.3,1.45-11.19-.71-4.6-2.05-8.98-4.29-13.06-1.15-2.09-3.14-3.53-5.29-4.45l-5.2-2.22c-6.4-2.73-3-9.26-7.71-8.94-1.39.1-2.59,1.48-2.41,3.1.6,5.44,4.65,9.33,9.76,10.94,7.31,2.3,7.92,6.53,10.12,13.77,1.05,3.45.39,6.63-.88,9.84-1.62,4.08-3.47,7.77-6.08,11.27Z"/><path class="cls-1" d="M325.79,298.83c.22,1.67,1.79,2.64,3.13,2.51,3.9-.37,1.24-6.8,1.44-9.81.2-3,.68-5.88,1.14-8.8.57-3.67,2.32-6.82,5.02-9.25,5.4-4.86,4.37-11.51,4.35-18.42,0-2.95.18-13.26-2.87-13.98-1.18-.28-2.56-.24-3.2.86-1.37,2.33,1.15,4.72,1.15,10.32v9.9c0,9.1-6.53,8.19-8.71,16.88-1.63,6.49-2.34,13.16-1.46,19.8Z"/><path class="cls-1" d="M305.19,288.58c3.25-3.94,6.11-9.25,6-14.71-.13-6.26-1.27-12.2-2.57-18.28-1.71-8.02-5.14-15.4-9.25-22.32-.88-1.49-2.66-1.75-3.66-1.09-1.3.85-1.8,2.3-.97,3.6l2.89,4.51c4.53,7.07,7.59,21.93,8.52,30.71.31,2.89-.3,5.93-1.26,8.58-1.22,3.36-6.28,5.95-3.65,8.9.67.76,2.91,1.35,3.94.1Z"/><path class="cls-1" d="M328.14,353.67c.76,1.59,3.26,2.29,4.39,1.22,1.93-1.82.93-4.12-.46-5.76-4.02-4.76-9.04-8.22-15.2-9.51-5.77-1.21-10.54,1.98-17.59,3.19-3.43.59-6.5-1.21-7.51-4.5-.34-1.11-.46-2.25-.91-3.29-.64-1.5-2.24-2.06-3.64-1.56-4.11,1.46.71,8.86,2.38,11.03,5.77,7.5,16.5.93,24.26-.05,6,.22,11.56,3.54,14.26,9.23Z"/><path class="cls-1" d="M289.79,172.28c1.38-.42,2.22-1.8,1.83-3.41-1.26-5.21-3.21-10.1-4.94-15.16-1.27-3.74-.7-7.45,1.76-10.45,2.37-2.9,3.67-6.49,3.72-10.31.06-4.78.22-9.41.02-14.11-.08-1.79-1.25-3.08-2.89-3-1.1.05-2.67,1.39-2.56,3.02.6,8.63,2.51,15.82-3.31,23.21-4.36,5.53-2.36,12.1.35,17.93,3.1,6.65,1.42,13.69,6.03,12.3Z"/><path class="cls-1" d="M90.39,286.18c-.62-4.48-.7-8.86-2-13.22-1.52-5.1-3.66-9.95-6.06-14.57-.46-.88-1.3-1.32-2.17-1.41.13,3.17.34,6.32.64,9.45,1.28,2.5,2.28,5.12,2.87,7.99,1.59,7.7,1.81,10.81,1.24,16.33.97,3.98,2.08,7.9,3.33,11.76.03-.21.08-.43.1-.64l2.05-15.69Z"/><path class="cls-1" d="M416.73,244.78c-2-.98-3.55.35-4.9,1.64-4.41,4.21-7.09,9.3-7.82,15.43l-1.16,9.85c-.41,3.47,3.92,12.72,4.91,18.07.35,1.9.11,3.86.79,5.61.51,1.32,1.93,1.98,3.2,1.69,1.01-.23,2.06-1.63,1.83-3.27-.66-4.7-1.87-9.03-3.41-13.29-.9-2.49-1.95-4.77-2.05-7.47-.19-5.09.37-10.12,1.69-15.02,2-7.45,8.01-7.32,8.02-10.55,0-1-.13-2.2-1.1-2.68Z"/><path class="cls-1" d="M249.32,174.26c-4.6,3.9-9.27,7.27-14.45,10.2-1.31.74-1.28,2.9-.76,3.77.67,1.13,2.51,1.82,3.79.97,5.48-3.65,10.48-7.7,15.52-11.97,5.44-4.6,12.03-2.12,17.41-4.97,2.9-1.53,5.73-2.87,8.75-3.95,1.67-.59,2.11-2.55,1.56-3.6-2.84-5.4-9.66,4.21-18.32,4.29-5.06.05-9.63,1.97-13.5,5.25Z"/><path class="cls-1" d="M200.71,242.34c.32-1.56-.57-3.34-2.58-3.57-8.37-.96-13.77-5.67-19.33-11.42-6.67-6.91-10.68-5.57-17.87-11.81-.91-.79-2.48-.95-3.38-.34-.99.67-1.18,1.74-1.06,2.83.09.81.66,1.79,1.59,2.37,3.84,2.42,7.84,4.31,11.84,6.52,7.45,4.12,11.46,13.64,26.77,17.44,1.88.47,3.61-.1,4-2.02Z"/><path class="cls-1" d="M382.9,274.09c-.64-1.86-3.43-2.74-4.79-1.23-.96,1.07-.78,3,0,4.16l7.73,11.68c5.31,8.02,2.41,20.5-1.23,28.74-.65,1.47.05,3.21,1.23,3.75.9.41,3.09.22,3.6-1.4,4.55-14.36,7.79-25.43-2.48-38.25-1.89-2.36-3.09-4.67-4.06-7.46Z"/><path class="cls-1" d="M257.1,143.9c-.26,3.89.32,7.6,1.94,11.08,1.97,4.23,2.36,9.8,5.1,9.69,6.46-.27-.49-9.1-1.78-16.43-1.01-5.74.48-13.07-.62-20.97-.56-4.06-.48-7.97-.36-11.98.04-1.37-1.29-2.37-2.22-2.51-.98-.14-2.6.2-2.71,1.52-.31,3.6-.04,7.19.29,10.87.57,6.32.78,12.38.37,18.72Z"/><path class="cls-1" d="M383.11,165.17l1.22,14.65c.27,3.23,2.03,5.82,4.81,7.43,2.8,1.63,5.79,3.15,8.97,3.84,1.07.23,1.85-1.08,2.1-1.74,2.37-6.15-10.76-2.06-11.18-12.4-.19-4.69-.44-9.27-1.15-13.95-.44-2.92-1.41-5.53-3.02-7.97-1.37-2.09-2.56-4.19-4.03-6.18-.84-1.14-2.57-1.4-3.7-.65-.92.61-1.4,2.03-.91,3.28,1.34,3.42,6.2,5.42,6.89,13.7Z"/><path class="cls-1" d="M250.44,247.46c.31,10.58,7.12,9.66,11.63,21.63.79,2.09.85,4.23,1.48,6.35.42,1.4,2.04,1.94,3.18,1.52,4.33-1.59-.62-10.9-2.27-14.32-3.1-6.42-7.75-9.14-8.32-12.26-.74-4.1-1-8.12-1.2-12.31-.18-3.68.17-8.19-3.49-7.9-1.16.09-2.35,1.09-2.11,2.61.75,4.88.94,9.73,1.08,14.67Z"/><path class="cls-1" d="M326.97,171.24c.96,3.45.3,11.01,7.17,12.23,3.93.7,7.89-.06,11.47-1.95,3.25-1.71,16.04-10.37,11.36-13.85-3.07-2.28-5.45,3.01-6.48,4.03-3.39,3.34-7.61,5.94-12.26,6.87-2.71.54-5.08-1.02-5.52-3.62-.65-3.86-1.43-7.56-2.49-11.29-.32-1.13-1.37-1.64-2.49-1.61-.97.02-1.76.29-2.09.86-.41.69-.56,1.47-.34,2.27l1.68,6.08Z"/><path class="cls-1" d="M243.27,217.29c-.98,10.11-4.4,12.52-4.38,21.86,0,6-.31,11.73-1.07,17.69-.15,1.14-.19,2.6.49,3.65.73,1.13,2.48.96,3.51.55.93-.38,1.48-1.54,1.51-2.77l.54-18.96c.26-9.13,3.43-12.66,4.52-20.98.24-1.79-.62-3.41-2.26-3.51-1.3-.08-2.7.81-2.86,2.48Z"/><path class="cls-1" d="M231.86,247.39c1.42-.34,2.54-1.81,2.01-3.49l-1.41-4.47c-.9-2.85.3-5.92,1.34-8.77l4.73-12.97c1.17-3.2,2.81-5.97,4.95-8.58,1.15-1.4,1.57-3.56.24-4.97-1.26-1.32-3.57-.6-4.41,1.03l-3.88,7.46-7.22,18.55c-1.15,2.97-1.2,5.97-.64,9.01.34,1.82.45,8.1,4.3,7.18Z"/><path class="cls-1" d="M325.09,265.31c-.22,1.64.75,3.07,2.18,3.32,1.32.23,2.98-.61,3.02-2.44.1-4.98.16-9.66-.05-14.44-.13-2.93-.92-5.74-.57-8.72.67-5.76,1.95-11.21,2.96-16.87.19-1.06.11-2.29-.47-3.19-.66-1.03-2.23-.99-3.29-.51-.69.31-1.48,1.41-1.49,2.53-.05,5.18-1.42,9.85-2.26,14.9-1.18,7.08,1.31,15.45-.02,25.44Z"/><path class="cls-1" d="M229.03,216.37c.58-1.07.84-2.1.43-3.13-.34-.85-1.09-1.78-2.34-1.79-1.25-.01-2.55,1.08-2.9,2.33-.95,3.43-2.83,6.13-5.06,8.79-3.13,3.71-4.23,8.26-3.49,12.95,1.33,8.4-4.45,12.19-4.17,15.58.1,1.23,1.16,2.12,2.09,2.15.89.03,2.4-.13,2.8-1.12,1.34-3.28,2.93-6.41,3.87-9.89,1.49-5.52-1.44-10.12,2.51-15.93,2.21-3.25,4.39-6.49,6.27-9.93Z"/><path class="cls-1" d="M291.6,146.52c-1.66,2.91,3.14,6.87,4.05,16.51l.94,9.94c.51,5.39,3.73,10.21,8.67,12.33,1.54.66,3.22-.05,3.77-1.4,1.76-4.38-6.71-3.26-7.48-11.14l-.85-8.66c-.56-5.76-1.95-11.07-4.16-16.35-.48-1.14-.9-2.12-2.02-2.27-1.21-.16-2.33.02-2.92,1.06Z"/><path class="cls-1" d="M355.58,380.51c-.97,1.23-.75,3.08.53,4.11.07.06.13.11.2.16,1.47-1.15,2.92-2.33,4.36-3.53-.3-.29-.61-.58-.95-.89-1.31-1.18-3.3-.91-4.14.15Z"/><path class="cls-1" d="M82.45,241.5c3.09,2.11,13.06,7.81,16.76,6.58l7.67-2.56c1.18-.39,2.15-.98,2.82-2.19.61-1.09.35-2.2-.22-2.88-.69-.82-1.88-1.15-2.91-.66l-4.76,2.27c-2.71,1.29-5.55,1.07-8.19-.3-6.41-3.32-10.56-4.04-11.73-11.83-.08-.54-.27-1.05-.53-1.48-.46,3.65-.79,7.33-1.02,11.05.6.75,1.28,1.43,2.11,2Z"/><path class="cls-1" d="M149.45,365.77c.97-.99,1.48-2.63.84-3.78-.57-1.04-1.66-1.24-2.57-1.22-2.77.06-4.24,4.61-7.45,6.44-2.94,1.68-5.64,3.56-8.21,5.64,1.22,1.18,2.45,2.35,3.71,3.5.64-.51,1.29-1.02,1.97-1.5,4.1-2.89,8.21-5.51,11.71-9.08Z"/><path class="cls-1" d="M235.58,171.53c-4.36,1.96-7.76,5-10.34,9.01-1.05,1.62-1.59,4.16.06,5.57,1.44,1.23,3.82-.02,4.41-1.87,2.45-7.54,8.51-6.72,16.41-13.97,5.12-4.7,10.41-4.82,10.99-7.54.24-1.13.02-2.24-.85-2.93-2.27-1.81-5.57,1.52-7.04,2.31-7.31,3.94-7.56,6.68-13.63,9.41Z"/><path class="cls-1" d="M397.41,261.5c-7.19.05-14.27.68-21.36,1.57-4.08.51-6.9,3.08-7.8,7-.45,1.92-3.02,8.52,1.1,8.96,3.39.36,3.12-4.35,3.4-6.46.76-5.8,7.44-4.84,11.26-5.13l8.49-.65c1.87-.14,3.75.73,5.6.15,1.34-.41,1.67-1.87,1.53-3.06-.11-.89-.88-2.38-2.22-2.37Z"/><path class="cls-1" d="M258.53,234.18c-.09,1.41,1.12,2.3,2.1,2.45,1.18.18,2.44-.21,3.06-1.45l3.94-7.87c2.68-5.36,1.98-11.05-.78-16.24-4.14-7.78-2.41-13.61-6.93-12.5-1.41.35-2.17,2.02-1.68,3.76,1.23,4.35,3.26,8.38,4.86,12.67.7,1.87,1.46,3.7,1.24,5.73-.73,6.88-5.6,10.12-5.81,13.45Z"/><path class="cls-1" d="M325.19,364.05c-.7-2.41-1.07-4.82-2.11-7.08-1.08-2.36-2.97-3.96-4.64-5.92-1.17-1.38-2.86-2.74-4.75-1.92-1.17.51-1.52,1.91-1.35,3.01.52,3.35,5.75,2.93,7.35,10.22,1.02,4.63,2.43,8.96,4.35,13.3,1.4,3.16,1.3,8.17,3.65,8.78,1.12.29,2.59.29,3.14-.96.77-1.75.08-3.5-.51-5.08-1.8-4.81-3.71-9.39-5.15-14.33Z"/><path class="cls-1" d="M116.81,288.26l8.84,10.24c2.63,3.04,6.06,4.98,9.82,6.36l3.63,1.34c1.89.7,3.61-.67,3.87-2.5.73-5.13-6.68-1.22-13.57-8.64l-6.28-6.76c-3-3.23-3.64-9.17-7.45-7.39-1.24.58-1.74,2.09-1.28,3.5.48,1.47,1.41,2.69,2.42,3.85Z"/><path class="cls-1" d="M364.29,320.04c-.59-1.36-2.35-2-3.47-1.51-1.33.58-2.24,2.18-1.58,3.54l2.31,4.75c1.97,4.04-1.42,11.51-1.74,16.79-.16,2.71-.01,5.35,0,8.04,0,1.82,1.52,3,3.11,2.85,4.35-.39,1.3-6.57,1.64-9.42.49-4.12,1.57-7.97,2.4-12.02.31-1.52.63-3.12.22-4.65-.79-2.91-1.72-5.65-2.89-8.37Z"/><path class="cls-1" d="M229.4,144.96c2.48,5.97,6.99,9.52,3.7,17.92-.54,1.39.33,3.15,1.41,3.55,1.55.57,2.86-.2,3.64-1.72.7-1.37.65-2.76.86-4.15,1.63-10.4-4.94-14.72-6.52-21.65-.34-1.49-.52-7.94-4.32-6.77-.92.28-2.17,1.6-1.86,2.93.78,3.39,1.76,6.69,3.1,9.9Z"/><path class="cls-1" d="M219.46,211.59c-.79-1.11-2.3-1.8-3.69-.92l-3.35,2.13c-1.12.71-2.56.79-3.72.14-.82-.46-1.69-1.51-1.94-2.72l-2.07-9.93c-.37-1.78-1.47-2.58-3.24-2.47-1.17.08-2.81,1.4-2.38,3.1,1.06,4.17,2.05,8.29,3.38,12.39,1.02,3.15,3.64,5.57,6.99,5.54,5.06-.04,12.33-4,10.01-7.26Z"/><path class="cls-1" d="M318.42,235.69c1.01.38,2.13.01,2.57-.56,1.72-2.18-.42-4.67,2.72-13.32,1.9-5.23,2.5-10.75,3.18-16.26.21-1.69-.82-3.01-2.17-3.13-5.11-.44-2.34,6.34-4.57,14.19-1.42,4.99-2.71,9.82-3.82,14.89-.36,1.65.41,3.56,2.09,4.19Z"/><path class="cls-1" d="M253.25,199.88c-.07-1.78-1.73-2.74-3.2-2.4-1.45.34-2.59,1.7-2.18,3.42l1.23,5.12c.78,3.22,1.8,6.2,3.11,9.21,2.25,5.19-.24,7.36.83,10.36.44,1.23,1.47,1.94,2.59,1.77.77-.12,2.09-.88,2.28-2.03.81-4.92-.25-9.86-2.21-14.45-1.53-3.58-2.3-7.15-2.46-11Z"/><path class="cls-1" d="M220.44,257.24c-1.45-.12-2.87.05-4.27.39-4.94,1.18-9.47-2.03-10.15-7-.15-1.12-.91-2.16-1.77-2.67-1.01-.59-2.04-.55-2.84,0-2.46,1.71.18,6.26,1.15,8.05,2.22,4.08,6.02,6.72,10.78,6.82,4.46.1,9.84.92,9.76-2.99-.03-1.33-1.12-2.48-2.67-2.61Z"/><path class="cls-1" d="M205.42,266.56c-3.32-2.73-6.95-4.91-10.82-6.79-1.69-.82-3.49.12-4,1.65-.54,1.63.28,3.12,2.01,3.67,1.82.58,3.51,1.42,5.22,2.22,4.04,1.91,6.6,5.12,8.31,9.14.58,1.36,2.34,2.01,3.31,1.66,4.71-1.73-1.08-9.14-4.02-11.55Z"/><path class="cls-1" d="M177.05,310.95c-2.52-1.02-4.99-2.25-7.63-2.91-1.53-.38-3.15.5-3.39,1.76-.26,1.4.26,2.97,1.81,3.45l11.3,3.52c1.95.61,4.09.95,5.97.25,1.54-.57,2.26-2.25,1.85-3.62-1.1-3.67-5.13-.53-9.91-2.45Z"/><path class="cls-1" d="M270.17,348.95c-4.66,1.11.82,8.42,2.54,10.34,1.7,1.89,4.04,3.35,6.66,3.97,1.97.46,3.01-1.12,3.19-2.51.48-3.67-5.15-2.77-7.25-6.28-1.37-2.29-1.54-6.37-5.14-5.51Z"/><path class="cls-1" d="M173.98,160.93c-.89-1.57-3.02-2.23-4.39-.91-1.08,1.05-1,3.16,0,4.3,4.35,4.99,3.34,8.83,5.81,10.35.78.48,2.14.63,2.97-.1,1.13-.99,1.25-2.64.66-3.89-1.6-3.37-3.22-6.54-5.05-9.76Z"/><path class="cls-1" d="M339.66,106.34c2.16.91,4.46,1.41,6.83,1.74-5.99-4.03-12.24-7.69-18.73-10.95,2.88,3.96,6.57,6.98,11.91,9.22Z"/></svg>